<svg width="688" height="217" viewBox="0 0 688 217" fill="none" xmlns="http://www.w3.org/2000/svg">
<g clip-path="url(#clip0_292_398)">
<rect x="2" y="2" width="684" height="213" rx="26.645" fill="url(#paint0_linear_292_398)"/>
<mask id="path-3-inside-1_292_398" fill="white">
<path d="M2 2H686V78.8573H2V2Z"/>
</mask>
<path d="M2 2H686V78.8573H2V2Z" fill="url(#paint1_linear_292_398)"/>
<path d="M686 77.7471H2V79.9675H686V77.7471Z" fill="#1B261F" mask="url(#path-3-inside-1_292_398)"/>
<g filter="url(#filter0_ddd_292_398)">
<circle cx="27.3762" cy="43.2043" r="3.17203" fill="url(#paint2_linear_292_398)"/>
<circle cx="27.3762" cy="43.2043" r="3.02784" stroke="#38FF7E" stroke-width="0.288366"/>
</g>
<g filter="url(#filter1_ddd_292_398)">
<circle cx="44.8224" cy="43.2043" r="3.17203" fill="url(#paint3_linear_292_398)"/>
<circle cx="44.8224" cy="43.2043" r="3.02784" stroke="#38FF7E" stroke-width="0.288366"/>
</g>
<g filter="url(#filter2_ddd_292_398)">
<circle cx="62.2685" cy="43.2043" r="3.17203" fill="url(#paint4_linear_292_398)"/>
<circle cx="62.2685" cy="43.2043" r="3.02784" stroke="#38FF7E" stroke-width="0.288366"/>
</g>
<g filter="url(#filter3_d_292_398)">
<path d="M502.969 49.5171C502.218 49.5102 501.456 49.4789 500.684 49.4232C499.911 49.3676 499.167 49.2702 498.451 49.1311C497.734 48.985 497.059 48.7902 496.426 48.5467C495.793 48.2963 495.244 47.9728 494.778 47.5763C494.311 47.1798 493.943 46.6998 493.671 46.1363C493.4 45.5658 493.265 44.8945 493.265 44.1224C493.265 43.7398 493.306 43.3745 493.39 43.0267C493.473 42.6719 493.581 42.3276 493.713 41.9937C493.845 41.6598 493.995 41.3363 494.162 41.0232C494.329 40.7032 494.496 40.3867 494.663 40.0737L496.604 41.7015C496.485 41.8615 496.35 42.0806 496.197 42.3589C496.051 42.6371 495.918 42.9328 495.8 43.2458C495.689 43.5589 495.612 43.8615 495.571 44.1537C495.557 44.2511 495.55 44.345 495.55 44.4354C495.55 44.6093 495.581 44.7624 495.644 44.8945C495.797 45.2076 496.085 45.4858 496.51 45.7293C496.941 45.9658 497.477 46.1676 498.117 46.3345C498.764 46.4945 499.498 46.6163 500.318 46.6998C501.146 46.7832 502.03 46.825 502.969 46.825C503.491 46.825 504.078 46.8076 504.732 46.7728C505.393 46.738 506.071 46.6719 506.767 46.5745C507.47 46.4771 508.158 46.345 508.833 46.178C509.515 46.0041 510.138 45.778 510.701 45.4998C510.618 45.0963 510.503 44.7067 510.357 44.3311C510.218 43.9554 510.058 43.5867 509.877 43.225C509.696 42.8632 509.505 42.5084 509.303 42.1606C509.101 41.8058 508.896 41.4511 508.687 41.0963L510.92 39.6458C510.941 39.6458 511.004 39.7502 511.108 39.9589C511.219 40.1606 511.351 40.4284 511.505 40.7624C511.665 41.0963 511.831 41.4754 512.005 41.8998C512.179 42.3241 512.339 42.7519 512.485 43.1832C512.631 43.6145 512.753 44.0319 512.851 44.4354C512.948 44.8319 512.997 45.1763 512.997 45.4684C512.997 45.8789 512.892 46.2511 512.684 46.585C512.475 46.9189 512.19 47.2215 511.828 47.4928C511.466 47.7641 511.045 48.0041 510.565 48.2128C510.085 48.4145 509.574 48.5919 509.031 48.745C508.496 48.8911 507.943 49.0163 507.372 49.1206C506.809 49.225 506.259 49.305 505.724 49.3606C505.188 49.4232 504.684 49.465 504.211 49.4858C503.835 49.5067 503.494 49.5171 503.188 49.5171C503.111 49.5171 503.038 49.5171 502.969 49.5171ZM502.958 38.9154L501.185 40.6893L499.39 38.905L501.164 37.1206L502.958 38.9154ZM506.903 38.9258L505.129 40.7102L503.334 38.9154L505.108 37.1415L506.903 38.9258ZM520.317 49.5171H519.899C518.487 49.5171 517.416 49.1624 516.685 48.4528C515.955 47.7432 515.586 46.6719 515.579 45.2389C515.579 45.0163 515.586 44.6511 515.6 44.1432C515.614 43.6284 515.621 43.0024 515.621 42.265C515.621 41.8267 515.618 41.3571 515.611 40.8563C515.604 40.3484 515.593 39.8337 515.579 39.3119C515.565 38.7832 515.545 38.258 515.517 37.7363C515.496 37.2076 515.468 36.6998 515.433 36.2128C515.398 35.7189 515.357 35.2598 515.308 34.8354C515.259 34.4041 515.204 34.025 515.141 33.698L517.76 32.9154C517.837 33.3189 517.906 33.8128 517.969 34.3971C518.031 34.9745 518.087 35.5937 518.136 36.2545C518.185 36.9154 518.219 37.5902 518.24 38.2789C518.268 38.9606 518.282 39.6041 518.282 40.2093C518.282 40.578 518.285 40.9711 518.292 41.3884C518.299 41.7989 518.303 42.1606 518.303 42.4737C518.303 42.738 518.299 42.9884 518.292 43.225C518.292 43.4545 518.289 43.6771 518.282 43.8928C518.282 44.1084 518.278 44.3206 518.271 44.5293C518.271 44.738 518.271 44.9502 518.271 45.1658C518.271 45.2215 518.271 45.2771 518.271 45.3328C518.271 45.5832 518.296 45.8058 518.345 46.0006C518.4 46.1954 518.494 46.3589 518.626 46.4911C518.758 46.6163 518.925 46.7067 519.127 46.7624C519.336 46.818 519.576 46.8458 519.847 46.8458H520.317V49.5171ZM519.904 46.8458H521.584C521.911 46.8458 522.244 46.8284 522.585 46.7937C522.933 46.7519 523.246 46.6719 523.524 46.5537C523.803 46.4284 524.029 46.2511 524.203 46.0215C524.384 45.7919 524.474 45.4858 524.474 45.1032C524.474 44.9224 524.436 44.6684 524.359 44.3415C524.283 44.0145 524.182 43.6528 524.057 43.2563C523.931 42.8598 523.782 42.4493 523.608 42.025C523.441 41.6006 523.264 41.2041 523.076 40.8354L525.486 39.6458C525.66 40.0424 525.834 40.4632 526.008 40.9084C526.182 41.3537 526.335 41.8128 526.467 42.2858C526.606 42.7519 526.718 43.2215 526.801 43.6945C526.884 44.1676 526.926 44.6302 526.926 45.0824C526.926 45.8615 526.794 46.5328 526.53 47.0963C526.265 47.6528 525.897 48.1119 525.424 48.4737C524.951 48.8284 524.384 49.0893 523.723 49.2563C523.069 49.4302 522.349 49.5171 521.563 49.5171H519.904V46.8458ZM525.278 52.9084L523.274 54.9119L521.281 52.9084L523.274 50.9154L525.278 52.9084ZM535.235 56.6963C534.164 56.6963 533.19 56.5363 532.313 56.2163C531.437 55.8963 530.685 55.4371 530.059 54.8389C529.44 54.2406 528.96 53.5102 528.619 52.6476C528.278 51.7919 528.108 50.825 528.108 49.7467C528.108 48.6406 528.268 47.545 528.588 46.4598C528.915 45.3745 529.402 44.345 530.049 43.3711L532.105 44.8632C531.979 45.0371 531.823 45.2945 531.635 45.6354C531.454 45.9763 531.28 46.3693 531.113 46.8145C530.946 47.2598 530.8 47.7398 530.675 48.2545C530.557 48.7693 530.498 49.2876 530.498 49.8093C530.498 50.4284 530.626 50.9919 530.884 51.4998C531.148 52.0076 531.503 52.4424 531.948 52.8041C532.393 53.1728 532.908 53.458 533.492 53.6598C534.084 53.8684 534.706 53.9798 535.36 53.9937C535.395 53.9937 535.43 53.9937 535.465 53.9937C535.952 53.9937 536.428 53.945 536.894 53.8476C537.367 53.7571 537.816 53.6145 538.24 53.4198C538.665 53.2319 539.051 53.0024 539.398 52.7311C539.746 52.4598 540.042 52.1571 540.285 51.8232C540.529 51.4893 540.717 51.1276 540.849 50.738C540.953 50.4041 541.005 50.0563 541.005 49.6945C541.005 49.6389 541.005 49.5798 541.005 49.5171C540.992 49.1971 540.936 48.8424 540.838 48.4528C540.748 48.0563 540.637 47.6563 540.505 47.2528C540.372 46.8493 540.23 46.4563 540.077 46.0737C539.931 45.6841 539.792 45.3398 539.659 45.0406C539.527 44.7415 539.416 44.5015 539.325 44.3206C539.235 44.1398 539.186 44.0493 539.179 44.0493L541.632 42.6824C541.652 42.7171 541.725 42.8945 541.851 43.2145C541.983 43.5276 542.15 43.9206 542.352 44.3937C542.616 44.9989 542.873 45.4684 543.124 45.8024C543.381 46.1293 543.632 46.3728 543.875 46.5328C544.118 46.6858 544.355 46.7763 544.585 46.8041C544.821 46.8319 545.047 46.8458 545.263 46.8458H545.607V49.5171H545.263C544.887 49.5171 544.546 49.4789 544.24 49.4024C543.934 49.3328 543.67 49.2354 543.447 49.1102C543.454 49.2424 543.458 49.3745 543.458 49.5067C543.458 50.0076 543.409 50.5328 543.312 51.0824C543.214 51.6389 543.03 52.1989 542.758 52.7624C542.494 53.3258 542.143 53.8476 541.705 54.3276C541.266 54.8076 540.738 55.2215 540.118 55.5693C539.506 55.9241 538.793 56.1989 537.979 56.3937C537.165 56.5954 536.251 56.6963 535.235 56.6963ZM537.583 42.4528L535.579 44.4563L533.586 42.4528L535.579 40.4598L537.583 42.4528ZM545.216 46.8458H547.439C547.766 46.8458 548.117 46.8284 548.493 46.7937C548.875 46.7519 549.227 46.6719 549.547 46.5537C549.874 46.4284 550.141 46.2511 550.35 46.0215C550.566 45.7919 550.674 45.4858 550.674 45.1032C550.674 44.9224 550.635 44.6684 550.559 44.3415C550.482 44.0145 550.381 43.6528 550.256 43.2563C550.131 42.8598 549.981 42.4493 549.807 42.025C549.64 41.6006 549.463 41.2041 549.275 40.8354L551.686 39.6458C551.86 40.0424 552.034 40.4632 552.207 40.9084C552.381 41.3537 552.534 41.8128 552.667 42.2858C552.806 42.7519 552.917 43.2215 553 43.6945C553.084 44.1676 553.126 44.6302 553.126 45.0824C553.126 45.8893 552.976 46.5745 552.677 47.138C552.378 47.7015 551.967 48.1606 551.446 48.5154C550.931 48.8632 550.326 49.1171 549.63 49.2771C548.941 49.4371 548.204 49.5171 547.418 49.5171H545.216V46.8458ZM549.098 52.6058L547.324 54.3798L545.529 52.5954L547.303 50.8111L549.098 52.6058ZM553.042 52.6163L551.268 54.4006L549.474 52.6058L551.247 50.8319L553.042 52.6163ZM564.45 49.5171H564.127C563.946 49.5171 563.716 49.4963 563.438 49.4545C563.167 49.4128 562.868 49.2876 562.541 49.0789C562.45 49.9554 562.183 50.7937 561.737 51.5937C561.292 52.4006 560.732 53.1554 560.057 53.858C559.389 54.5606 558.635 55.2041 557.793 55.7884C556.958 56.3728 556.099 56.8841 555.216 57.3224L554.047 54.9119C554.534 54.6615 555.024 54.3902 555.518 54.098C556.005 53.8058 556.471 53.4928 556.916 53.1589C557.362 52.825 557.776 52.4771 558.158 52.1154C558.548 51.7537 558.882 51.3745 559.16 50.978C559.445 50.5815 559.668 50.1745 559.828 49.7571C559.995 49.3398 560.078 48.9119 560.078 48.4737C560.078 48.1606 560.033 47.8163 559.943 47.4406C559.852 47.058 559.737 46.6615 559.598 46.2511C559.459 45.8406 559.309 45.4267 559.149 45.0093C558.989 44.585 558.843 44.1745 558.711 43.778L561.216 42.7345C561.487 43.5484 561.734 44.2232 561.956 44.7589C562.186 45.2876 562.409 45.7084 562.624 46.0215C562.847 46.3276 563.076 46.5432 563.313 46.6684C563.556 46.7867 563.831 46.8458 564.137 46.8458H564.461L564.45 49.5171ZM564.036 46.8458H565.341C565.682 46.8458 566.033 46.8424 566.395 46.8354C566.763 46.8284 567.118 46.8041 567.459 46.7624C567.8 46.7206 568.123 46.6545 568.429 46.5641C568.736 46.4737 569.003 46.345 569.233 46.178C569.463 46.0041 569.643 45.7884 569.776 45.5311C569.908 45.2667 569.974 44.9432 569.974 44.5606C569.974 44.0598 569.852 43.5484 569.609 43.0267C569.365 42.498 569.031 41.9589 568.607 41.4093C568.183 40.8528 567.682 40.2824 567.104 39.698C566.534 39.1137 565.918 38.5189 565.257 37.9137L565.539 35.4198L573.845 31.7258L574.899 34.2093L568.096 37.1519C568.409 37.4163 568.718 37.6945 569.024 37.9867C569.337 38.2789 569.654 38.6024 569.974 38.9571C570.454 39.4928 570.861 40.0284 571.195 40.5641C571.529 41.0928 571.796 41.6041 571.998 42.098C572.207 42.5919 572.356 43.0615 572.447 43.5067C572.544 43.9519 572.593 44.3589 572.593 44.7276C572.593 45.458 572.454 46.1189 572.176 46.7102C571.904 47.3015 571.536 47.8058 571.069 48.2232C570.603 48.6337 570.061 48.9537 569.442 49.1832C568.829 49.4058 568.186 49.5171 567.511 49.5171H564.036V46.8458ZM573.365 30.7867L565.351 34.3137L565.424 32.9884L572.906 29.7328L573.365 30.7867ZM586.307 45.9067C585.897 46.5189 585.594 47.1867 585.399 47.9102C585.204 48.6337 585.107 49.3537 585.107 50.0702C585.107 50.6406 585.239 51.1484 585.504 51.5937C585.768 52.0458 586.105 52.425 586.516 52.7311C586.926 53.0441 587.382 53.2806 587.883 53.4406C588.384 53.6076 588.87 53.6911 589.344 53.6911C589.824 53.6911 590.321 53.6076 590.836 53.4406C591.357 53.2806 591.834 53.0232 592.265 52.6684C592.697 52.3206 593.051 51.8684 593.33 51.3119C593.608 50.7624 593.747 50.0945 593.747 49.3084C593.747 48.7589 593.737 48.1119 593.716 47.3676C593.695 46.6232 593.667 45.8337 593.632 44.9989C593.604 44.1571 593.57 43.2911 593.528 42.4006C593.486 41.5102 593.444 40.6406 593.403 39.7919C593.354 38.7971 593.309 37.7606 593.267 36.6824C593.225 35.5971 593.173 34.5119 593.11 33.4267L595.834 32.9154C595.883 34.0563 595.921 35.1902 595.949 36.3171C595.977 37.4371 596.008 38.5154 596.043 39.5519L596.21 44.905C596.244 45.1693 596.307 45.4198 596.397 45.6563C596.495 45.8858 596.62 46.0911 596.773 46.2719C596.933 46.4458 597.128 46.585 597.357 46.6893C597.587 46.7937 597.855 46.8458 598.161 46.8458H598.37V49.5171H598.161C597.813 49.5171 597.479 49.4928 597.159 49.4441C596.839 49.4024 596.554 49.3119 596.304 49.1728V49.3502C596.304 50.2267 596.199 51.0093 595.99 51.698C595.789 52.3867 595.514 52.9884 595.166 53.5032C594.818 54.025 594.411 54.4667 593.945 54.8284C593.486 55.1902 592.999 55.4858 592.484 55.7154C591.977 55.945 591.458 56.1084 590.93 56.2058C590.401 56.3102 589.893 56.3624 589.406 56.3624C588.94 56.3624 588.45 56.3102 587.935 56.2058C587.427 56.1015 586.923 55.9415 586.422 55.7258C585.921 55.5102 585.444 55.2319 584.992 54.8911C584.54 54.5571 584.14 54.1571 583.792 53.6911C583.451 53.225 583.184 52.6893 582.989 52.0841C582.794 51.5067 582.697 50.8563 582.697 50.1328C582.697 50.1119 582.697 50.0876 582.697 50.0598C582.697 49.6145 582.721 49.1589 582.77 48.6928C582.825 48.2267 582.909 47.7676 583.02 47.3154C583.131 46.8632 583.27 46.4284 583.437 46.0111C583.604 45.5937 583.81 45.2111 584.053 44.8632L586.307 45.9067ZM607.258 46.8458V49.5171H607.05C606.375 49.5171 605.804 49.4093 605.338 49.1937C604.872 48.978 604.476 48.6998 604.149 48.3589C603.919 48.6511 603.578 48.8771 603.126 49.0371C602.681 49.1902 602.184 49.3015 601.634 49.3711C601.084 49.4476 600.517 49.4893 599.933 49.4963C599.356 49.5102 598.824 49.5171 598.337 49.5171H597.95V46.8458H598.337C599.15 46.8458 599.836 46.8006 600.392 46.7102C600.949 46.6128 601.397 46.4737 601.738 46.2928C602.086 46.1119 602.337 45.8858 602.49 45.6145C602.643 45.3363 602.719 45.0163 602.719 44.6545C602.719 44.418 602.674 44.105 602.584 43.7154C602.493 43.3189 602.357 42.8111 602.177 42.1919L604.744 41.4719C604.834 41.778 604.904 42.0493 604.952 42.2858C605.008 42.5154 605.05 42.7484 605.077 42.985C605.112 43.2145 605.14 43.465 605.161 43.7363C605.189 44.0006 605.217 44.3171 605.244 44.6858C605.265 44.9084 605.317 45.1484 605.401 45.4058C605.484 45.6563 605.599 45.8893 605.745 46.105C605.898 46.3137 606.083 46.4911 606.298 46.6371C606.514 46.7763 606.764 46.8458 607.05 46.8458H607.258ZM601.832 52.6058L600.058 54.3798L598.264 52.5954L600.037 50.8111L601.832 52.6058ZM605.777 52.6163L604.003 54.4006L602.208 52.6058L603.982 50.8319L605.777 52.6163ZM606.833 46.8458H607.595C607.845 46.8458 608.079 46.825 608.294 46.7832C608.51 46.7415 608.701 46.6545 608.868 46.5224C609.035 46.3832 609.171 46.1919 609.275 45.9484C609.379 45.705 609.445 45.378 609.473 44.9676C609.473 44.8076 609.477 44.5293 609.484 44.1328C609.498 43.7293 609.508 43.2528 609.515 42.7032C609.522 42.1467 609.529 41.538 609.536 40.8771C609.543 40.2163 609.546 39.5415 609.546 38.8528C609.546 38.3171 609.543 37.7919 609.536 37.2771C609.536 36.7554 609.529 36.2545 609.515 35.7745C609.508 35.2945 609.491 34.8424 609.463 34.418C609.442 33.9937 609.411 33.6076 609.369 33.2598L612.03 32.9154C612.079 33.2911 612.117 33.7154 612.145 34.1884C612.172 34.6615 612.193 35.1658 612.207 35.7015C612.228 36.2302 612.239 36.7867 612.239 37.3711C612.245 37.9484 612.249 38.5328 612.249 39.1241C612.249 40.4389 612.235 41.5832 612.207 42.5571C612.186 43.5311 612.176 44.3937 612.176 45.145C612.176 45.6737 612.312 46.0911 612.583 46.3971C612.854 46.6963 613.258 46.8458 613.793 46.8458H614.023V49.5171H613.793C613.752 49.5171 613.713 49.5171 613.679 49.5171C613.407 49.5171 613.139 49.4928 612.875 49.4441C612.618 49.4024 612.367 49.3363 612.124 49.2458C611.887 49.1624 611.668 49.0615 611.466 48.9432C611.265 48.825 611.087 48.7032 610.934 48.578C610.732 48.7728 610.51 48.9328 610.266 49.058C610.03 49.1763 609.786 49.2702 609.536 49.3398C609.285 49.4093 609.039 49.4545 608.795 49.4754C608.552 49.5032 608.332 49.5171 608.138 49.5171H606.833V46.8458ZM613.607 46.8458H615.725C616.581 46.8458 617.443 46.7624 618.313 46.5954C619.182 46.4215 620.038 46.1989 620.88 45.9276C621.722 45.6493 622.539 45.3398 623.332 44.9989C624.125 44.6511 624.873 44.3032 625.575 43.9554C625.29 43.9206 624.991 43.8511 624.678 43.7467C624.372 43.6354 624.055 43.5102 623.728 43.3711C623.402 43.225 623.068 43.0719 622.727 42.9119C622.386 42.7519 622.045 42.6093 621.704 42.4841C621.363 42.3519 621.019 42.2441 620.671 42.1606C620.33 42.0702 619.996 42.025 619.669 42.025C619.412 42.025 619.165 42.0737 618.928 42.1711C618.699 42.2615 618.48 42.3798 618.271 42.5258C618.069 42.665 617.885 42.818 617.718 42.985C617.558 43.1519 617.419 43.3084 617.301 43.4545C617.189 43.5937 617.102 43.7119 617.04 43.8093L616.935 43.9554L614.848 42.818C615.092 42.3589 615.398 41.9206 615.767 41.5032C616.142 41.0789 616.549 40.7067 616.988 40.3867C617.426 40.0598 617.875 39.8024 618.334 39.6145C618.8 39.4198 619.245 39.3224 619.669 39.3224C620.024 39.3224 620.379 39.3641 620.734 39.4476C621.095 39.5241 621.457 39.6284 621.819 39.7606C622.188 39.8928 622.556 40.0424 622.925 40.2093C623.301 40.3763 623.683 40.5467 624.073 40.7206C624.476 40.9154 624.918 41.1102 625.398 41.305C625.878 41.4928 626.372 41.6632 626.88 41.8163C627.388 41.9624 627.895 42.0841 628.403 42.1815C628.918 42.2719 629.408 42.3171 629.875 42.3171L629.426 44.8632C629.162 44.9745 628.908 45.0963 628.664 45.2284C628.421 45.3537 628.17 45.4754 627.913 45.5937C628.052 45.8858 628.261 46.1154 628.539 46.2824C628.817 46.4493 629.109 46.5745 629.415 46.658C629.728 46.7415 630.028 46.7937 630.313 46.8145C630.605 46.8354 630.835 46.8458 631.002 46.8458H631.419V49.5171H631.002C629.638 49.5171 628.483 49.2806 627.537 48.8076C626.591 48.3345 625.909 47.6632 625.492 46.7937C624.789 47.1415 624.062 47.4789 623.311 47.8058C622.56 48.1328 621.781 48.425 620.974 48.6824C620.167 48.9328 619.325 49.1345 618.448 49.2876C617.579 49.4406 616.671 49.5171 615.725 49.5171H613.607V46.8458ZM630.997 46.8458H633.22C633.547 46.8458 633.898 46.8284 634.274 46.7937C634.656 46.7519 635.008 46.6719 635.328 46.5537C635.655 46.4284 635.923 46.2511 636.131 46.0215C636.347 45.7919 636.455 45.4858 636.455 45.1032C636.455 44.9224 636.416 44.6684 636.34 44.3415C636.263 44.0145 636.163 43.6528 636.037 43.2563C635.912 42.8598 635.763 42.4493 635.589 42.025C635.422 41.6006 635.244 41.2041 635.056 40.8354L637.467 39.6458C637.641 40.0424 637.815 40.4632 637.989 40.9084C638.163 41.3537 638.316 41.8128 638.448 42.2858C638.587 42.7519 638.698 43.2215 638.782 43.6945C638.865 44.1676 638.907 44.6302 638.907 45.0824C638.907 45.8893 638.757 46.5745 638.458 47.138C638.159 47.7015 637.749 48.1606 637.227 48.5154C636.712 48.8632 636.107 49.1171 635.411 49.2771C634.723 49.4371 633.985 49.5171 633.199 49.5171H630.997V46.8458ZM635.672 35.9728L633.898 37.7467L632.103 35.9624L633.877 34.178L635.672 35.9728ZM639.616 35.9832L637.843 37.7676L636.048 35.9728L637.822 34.1989L639.616 35.9832Z" fill="white"/>
</g>
<g filter="url(#filter4_dd_292_398)">
<rect x="32.7958" y="101.062" width="29" height="29" rx="9" fill="url(#paint5_linear_292_398)" shape-rendering="crispEdges"/>
<rect x="32.7958" y="101.062" width="29" height="29" rx="9" fill="url(#paint6_linear_292_398)" shape-rendering="crispEdges"/>
<rect x="33.3973" y="101.663" width="27.7969" height="27.7969" rx="8.39845" stroke="#203728" stroke-width="1.20309" shape-rendering="crispEdges"/>
<g filter="url(#filter5_d_292_398)">
<path d="M42.8518 122.206L41.6363 122.206C41.1216 122.206 40.7054 121.789 40.7082 121.277L40.7054 110.636C40.7054 110.121 41.1216 109.705 41.6335 109.708L52.2777 109.708C52.7924 109.708 53.2086 110.124 53.2058 110.636L53.2058 111.852C53.2058 112.372 52.776 112.791 52.2558 112.78L45.814 112.624L53.6822 120.492C54.0463 120.856 54.0463 121.442 53.6822 121.806L52.8061 122.682C52.442 123.046 51.8561 123.046 51.492 122.682L43.6238 114.814L43.7799 121.256C43.7936 121.778 43.3747 122.208 42.8518 122.206Z" fill="url(#paint7_linear_292_398)"/>
</g>
</g>
<g filter="url(#filter6_dd_292_398)">
<rect x="597.796" y="101.062" width="66" height="66" rx="19" fill="url(#paint8_linear_292_398)"/>
<rect x="597.194" y="100.46" width="67.2031" height="67.2031" rx="19.6015" stroke="#203728" stroke-width="1.20309"/>
<g filter="url(#filter7_i_292_398)">
<g clip-path="url(#clip1_292_398)">
<rect x="599.796" y="103.062" width="62" height="62" rx="19" fill="url(#paint9_linear_292_398)"/>
<path d="M613.81 117.41C613.809 117.394 613.808 117.378 613.807 117.363L613.761 117.366C613.744 117.35 613.727 117.335 613.709 117.319C613.684 117.329 613.659 117.34 613.633 117.35C613.608 117.36 613.583 117.37 613.558 117.381C613.56 117.413 613.562 117.445 613.564 117.478L613.541 117.504C613.55 117.512 613.559 117.52 613.568 117.528C613.585 117.806 613.597 118.086 613.608 118.366C613.638 119.08 613.667 119.794 613.8 120.489C614.501 124.166 616.697 126.679 620.048 128.265C622.389 129.374 624.814 130.249 627.288 131.002L613.81 117.41ZM613.81 117.41C613.829 117.426 613.848 117.443 613.866 117.459C613.986 117.565 614.106 117.671 614.216 117.786C614.86 118.457 615.501 119.132 616.141 119.806C617.52 121.259 618.899 122.711 620.311 124.13C621.685 125.511 623.109 126.844 624.532 128.177C624.883 128.506 625.235 128.835 625.585 129.164C626.03 129.582 626.527 129.932 627.172 130.052L613.81 117.41ZM618.522 116.282L618.522 116.282C617.598 116.064 616.631 115.976 615.685 115.89C615.311 115.856 614.939 115.822 614.576 115.78L614.415 115.46L614.19 115.896C614.171 115.932 614.152 115.967 614.132 116.004C614.125 116.017 614.118 116.031 614.11 116.045L614.026 116.201L614.145 116.332C614.229 116.424 614.314 116.52 614.4 116.618C614.59 116.834 614.787 117.057 614.994 117.261L614.994 117.261C615.379 117.64 615.765 118.011 616.149 118.381C616.648 118.861 617.146 119.34 617.639 119.834L617.639 119.834C619.937 122.135 622.225 124.445 624.513 126.757C625.271 127.523 626.022 128.294 626.753 129.082C626.95 129.295 627.094 129.527 627.148 129.792C626.602 129.673 626.167 129.368 625.756 128.982C625.405 128.652 625.053 128.322 624.702 127.993C623.279 126.661 621.859 125.331 620.488 123.953C619.078 122.537 617.703 121.088 616.325 119.637C615.684 118.962 615.042 118.286 614.396 117.613L614.396 117.612C614.279 117.49 614.146 117.373 614.023 117.264C613.973 117.22 613.924 117.176 613.878 117.134L613.76 117.027L613.613 117.088C613.589 117.098 613.565 117.108 613.54 117.118L613.539 117.118C613.514 117.128 613.488 117.139 613.461 117.15L613.295 117.219L613.308 117.399C613.331 117.709 613.344 118.029 613.357 118.353C613.387 119.076 613.418 119.822 613.554 120.535C614.272 124.302 616.528 126.876 619.941 128.491C622.296 129.607 624.733 130.486 627.216 131.241L627.216 131.241C627.461 131.315 627.698 131.402 627.957 131.497C628.077 131.542 628.202 131.588 628.335 131.635L628.781 131.793L628.661 131.336C628.618 131.173 628.577 131.018 628.537 130.869C628.452 130.553 628.374 130.261 628.303 129.965L628.303 129.965C628.228 129.657 628.168 129.35 628.106 129.036C628.072 128.859 628.036 128.679 627.998 128.497C627.894 128.001 627.769 127.499 627.57 127.022C626.751 125.051 625.913 123.051 624.846 121.187L624.846 121.187C623.446 118.74 621.351 116.953 618.522 116.282ZM628.133 131.296C628.148 131.351 628.162 131.406 628.177 131.463L628.419 131.399L628.503 131.164C628.448 131.144 628.395 131.125 628.341 131.106C628.326 131.049 628.311 130.992 628.296 130.937C628.211 130.62 628.132 130.323 628.06 130.024C627.984 129.712 627.922 129.394 627.859 129.076C627.728 128.406 627.597 127.736 627.339 127.118C626.519 125.146 625.687 123.159 624.629 121.311L628.133 131.296ZM627.409 129.833C627.359 129.472 627.175 129.17 626.936 128.912C626.203 128.121 625.449 127.348 624.69 126.581C622.403 124.269 620.114 121.959 617.816 119.657L627.409 129.833Z" fill="url(#paint10_linear_292_398)" fill-opacity="0.11" stroke="#38FF7E" stroke-width="0.5"/>
<path d="M646.88 116.206L646.944 117.054C646.881 117.132 646.82 117.209 646.761 117.285C646.593 117.499 646.434 117.701 646.249 117.889C645.628 118.524 645.006 119.159 644.385 119.794C641.947 122.287 639.509 124.78 637.041 127.242C636.439 127.842 635.768 128.364 635.085 128.896C634.81 129.109 634.534 129.325 634.258 129.547L634.258 129.547C634.158 129.629 634.015 129.692 633.866 129.729C633.855 129.731 633.838 129.734 633.815 129.735C633.796 129.736 633.777 129.736 633.759 129.734C633.759 129.733 633.759 129.733 633.759 129.732C633.76 129.712 633.762 129.693 633.766 129.675C633.767 129.667 633.769 129.66 633.771 129.655L646.88 116.206ZM646.88 116.206L646.807 116.287C646.767 116.331 646.728 116.374 646.691 116.417C646.611 116.506 646.534 116.593 646.456 116.672L646.456 116.672C645.361 117.781 644.266 118.89 643.17 119.998C640.166 123.04 637.162 126.081 634.161 129.125C634.01 129.278 633.876 129.459 633.774 129.648L646.88 116.206ZM647.408 116.991L646.882 116.203L647.058 116.01L646.706 115.884C646.673 115.872 646.65 115.862 646.627 115.852C646.618 115.849 646.61 115.845 646.6 115.842L646.598 115.841C646.571 115.83 646.511 115.805 646.44 115.805L646.439 115.805C646.319 115.805 646.198 115.805 646.075 115.804C645.725 115.802 645.366 115.8 645.012 115.819L645.012 115.819C642.218 115.972 639.787 116.96 637.825 119.028L637.825 119.028C636.851 120.055 636.116 121.22 635.46 122.439C633.968 125.211 632.983 128.156 632.358 131.218C632.32 131.342 632.391 131.433 632.402 131.447C632.424 131.474 632.446 131.49 632.453 131.495C632.463 131.503 632.472 131.508 632.478 131.511C632.488 131.516 632.497 131.52 632.503 131.523C632.522 131.531 632.542 131.536 632.557 131.54C632.574 131.543 632.602 131.548 632.637 131.548L632.797 131.568L632.809 131.509C635.96 130.607 639.069 129.558 641.99 128.002L641.99 128.002C643.869 127 645.299 125.557 646.339 123.703C647.484 121.663 647.619 119.472 647.457 117.216L647.513 117.149L647.41 116.994L647.408 116.991Z" fill="url(#paint11_linear_292_398)" fill-opacity="0.11" stroke="#38FF7E" stroke-width="0.5"/>
<path d="M613.963 149.854L613.813 149.929L613.811 149.93L613.635 149.71L613.452 149.724C613.164 145.991 613.998 142.732 616.814 140.203L613.963 149.854ZM613.963 149.854L613.958 149.784M613.963 149.854L613.958 149.784M613.958 149.784C614.167 149.527 614.363 149.278 614.552 149.038C614.979 148.496 615.373 147.996 615.814 147.529L615.632 147.358L615.814 147.529C617.526 145.719 619.248 143.92 621.02 142.174L621.02 142.174C622.665 140.554 624.326 138.973 626.223 137.675C626.349 137.589 626.405 137.574 626.429 137.574C626.429 137.574 626.429 137.574 626.43 137.574C626.436 137.574 626.473 137.573 626.556 137.667L626.556 137.667C626.713 137.844 626.718 137.908 626.714 137.937C626.707 137.989 626.656 138.092 626.424 138.312C625.973 138.741 625.516 139.168 625.059 139.596C624.182 140.415 623.303 141.238 622.45 142.083C620.393 144.122 618.352 146.179 616.313 148.235C615.698 148.855 615.083 149.475 614.468 150.094C614.468 150.094 614.468 150.094 614.468 150.094L614.645 150.27M613.958 149.784L626.181 142.037M614.645 150.27C614.564 150.352 614.497 150.449 614.431 150.546C614.407 150.549 614.384 150.552 614.361 150.555L614.371 150.632C614.359 150.65 614.346 150.667 614.334 150.683C614.354 150.723 614.373 150.763 614.392 150.803C614.421 150.799 614.451 150.796 614.48 150.792L614.534 150.833C614.547 150.816 614.559 150.799 614.572 150.781C614.876 150.744 615.181 150.712 615.485 150.68C616.282 150.597 617.078 150.513 617.859 150.351C620.571 149.79 622.687 148.308 624.111 145.932M614.645 150.27C615.261 149.651 615.876 149.031 616.491 148.411C618.53 146.355 620.57 144.299 622.627 142.26L614.645 150.27ZM624.111 145.932L624.326 146.06C624.326 146.06 624.326 146.06 624.326 146.06L624.111 145.932ZM624.111 145.932C624.723 144.911 625.263 143.847 625.801 142.783C625.927 142.534 626.054 142.285 626.181 142.037M626.181 142.037L626.403 142.151M626.181 142.037L626.403 142.151M626.403 142.151C627.417 140.169 628.168 138.088 628.721 135.914L628.805 135.581L628.462 135.603C628.449 135.604 628.432 135.604 628.41 135.605C628.348 135.607 628.254 135.611 628.179 135.623M626.403 142.151C626.277 142.397 626.152 142.645 626.026 142.893L628.179 135.623M628.179 135.623C625.752 136.025 623.461 136.861 621.209 137.744L621.209 137.744C619.659 138.351 618.095 139.052 616.814 140.203L628.179 135.623Z" fill="url(#paint12_linear_292_398)" fill-opacity="0.11" stroke="#38FF7E" stroke-width="0.5"/>
<path d="M646.552 150.93H647.083L646.745 150.521C646.715 150.485 646.686 150.449 646.659 150.414C646.599 150.339 646.544 150.27 646.488 150.214L646.552 150.93ZM646.552 150.93C643.31 150.959 640.305 150.348 638.045 147.825L638.045 147.825C637.257 146.946 636.584 145.937 636.026 144.904C635.235 143.439 634.566 141.908 633.906 140.392L633.906 140.392C633.605 139.699 633.358 138.979 633.114 138.27C633.027 138.016 632.941 137.763 632.852 137.514L632.852 137.514C632.73 137.168 632.614 136.817 632.49 136.44C632.43 136.255 632.367 136.064 632.3 135.864L632.162 135.449L632.589 135.54C632.757 135.576 632.925 135.609 633.092 135.642C633.449 135.713 633.805 135.783 634.149 135.876L634.149 135.876C636.744 136.576 639.285 137.432 641.72 138.621C643.598 139.539 645.007 140.764 645.974 142.28C646.94 143.796 647.457 145.589 647.572 147.631M646.552 150.93L642.031 145.705M647.572 147.631L647.323 147.645L647.572 147.631C647.572 147.631 647.572 147.631 647.572 147.631ZM647.572 147.631C647.602 148.154 647.609 148.68 647.617 149.199C647.62 149.394 647.623 149.587 647.627 149.78L647.627 149.785H647.627C647.627 149.875 647.582 149.935 647.563 149.958C647.543 149.983 647.521 150.001 647.513 150.008C647.502 150.018 647.494 150.023 647.489 150.028C647.481 150.034 647.476 150.038 647.468 150.046L647.267 150.238L647.098 150.018C646.94 149.815 646.793 149.613 646.647 149.414C646.34 148.994 646.044 148.589 645.695 148.22C645.53 148.046 645.365 147.872 645.2 147.698C643.306 145.699 641.415 143.702 639.46 141.773C638.486 140.812 637.449 139.921 636.404 139.023C635.998 138.674 635.59 138.323 635.185 137.968L635.185 137.968C634.983 137.79 634.786 137.641 634.589 137.576L634.588 137.575C634.572 137.57 634.521 137.565 634.443 137.585C634.386 137.599 634.334 137.622 634.296 137.645C634.294 137.657 634.292 137.674 634.291 137.694C634.29 137.725 634.292 137.756 634.297 137.781C634.301 137.804 634.305 137.814 634.305 137.814C634.305 137.814 634.305 137.814 634.305 137.814M634.305 137.814C634.469 138.097 634.666 138.367 634.892 138.592L634.892 138.593C636.118 139.819 637.343 141.037 638.568 142.255C639.722 143.402 640.876 144.55 642.031 145.705C642.031 145.705 642.031 145.705 642.031 145.705M634.305 137.814C634.305 137.814 634.305 137.814 634.305 137.813L634.305 137.814L634.305 137.814ZM642.031 145.705C643.108 146.781 644.176 147.866 645.243 148.95C645.658 149.372 646.073 149.793 646.488 150.214L642.031 145.705ZM634.668 137.339C634.508 137.285 634.25 137.359 634.111 137.47L635.35 137.78C635.146 137.601 634.917 137.421 634.668 137.339Z" fill="url(#paint13_linear_292_398)" fill-opacity="0.11" stroke="#38FF7E" stroke-width="0.5"/>
<path d="M606.806 132.926V133.815L607.196 133.175H607.559C608.523 133.175 609.488 133.175 610.452 133.175C614.31 133.174 618.167 133.173 622.025 133.184H622.025C622.389 133.185 622.772 133.266 623.138 133.385C623.14 133.387 623.144 133.39 623.149 133.396C623.165 133.412 623.184 133.437 623.203 133.469C623.221 133.501 623.236 133.535 623.246 133.566C623.253 133.586 623.256 133.601 623.257 133.612C623.257 133.613 623.256 133.615 623.255 133.617C623.245 133.634 623.229 133.657 623.205 133.682C623.183 133.707 623.158 133.727 623.136 133.742C623.118 133.754 623.108 133.757 623.108 133.758C622.64 133.853 622.173 133.927 621.716 133.927C618.241 133.925 614.766 133.912 611.29 133.899C610.248 133.895 609.205 133.891 608.163 133.888L608.163 133.888C607.927 133.887 607.691 133.887 607.456 133.888C607.338 133.888 607.221 133.888 607.104 133.888H606.959L606.887 134.013C606.877 134.03 606.867 134.047 606.857 134.066L606.856 134.066C606.846 134.084 606.834 134.103 606.823 134.123L606.724 134.295L606.87 134.43C607.002 134.553 607.134 134.681 607.269 134.81C607.574 135.104 607.889 135.407 608.222 135.676L608.222 135.676C608.384 135.806 608.547 135.943 608.713 136.082C609.283 136.56 609.882 137.062 610.551 137.407L610.551 137.407C612.938 138.635 615.49 138.796 617.96 137.747L617.96 137.747C619.933 136.909 621.866 135.969 623.828 135.015C624.682 134.6 625.54 134.183 626.41 133.77L626.841 133.565L626.427 133.327C626.33 133.271 626.249 133.224 626.18 133.184C626.061 133.115 625.975 133.064 625.889 133.019L625.889 133.018C625.054 132.58 624.22 132.143 623.386 131.706C622.272 131.122 621.157 130.538 620.042 129.952L620.042 129.952C618.601 129.195 617.088 128.626 615.437 128.433L615.437 128.433C611.95 128.026 608.645 129.944 606.917 132.675H606.806V132.925V132.926ZM625.772 133.24C625.852 133.282 625.93 133.327 626.041 133.392C626.092 133.367 626.144 133.343 626.196 133.318L626.303 133.544L626.178 133.761C626.122 133.729 626.073 133.7 626.029 133.675C625.248 134.047 624.478 134.422 623.713 134.794C621.753 135.746 619.829 136.682 617.862 137.517C615.465 138.535 612.99 138.381 610.665 137.184C610.024 136.854 609.454 136.377 608.888 135.902C608.719 135.76 608.549 135.619 608.379 135.481C608.055 135.22 607.753 134.929 607.452 134.639C607.365 134.555 607.278 134.471 607.19 134.388C607.161 134.388 607.133 134.388 607.104 134.388V134.307C607.083 134.287 607.061 134.267 607.04 134.247C607.051 134.229 607.061 134.211 607.072 134.193C607.083 134.174 607.093 134.156 607.104 134.138C607.117 134.138 607.129 134.138 607.142 134.138L607.21 134.064C607.237 134.089 607.263 134.113 607.289 134.138C607.345 134.138 607.401 134.138 607.456 134.138C607.691 134.137 607.927 134.137 608.162 134.138C609.204 134.141 610.247 134.145 611.289 134.149C614.764 134.162 618.24 134.175 621.716 134.177C622.199 134.177 622.687 134.099 623.161 134.002C623.304 133.973 623.508 133.759 623.508 133.627L625.772 133.24ZM623.111 133.757C623.111 133.757 623.111 133.757 623.111 133.757L623.111 133.757L623.111 133.757Z" fill="url(#paint14_linear_292_398)" fill-opacity="0.11" stroke="#38FF7E" stroke-width="0.5"/>
<path d="M654.325 133.065H653.978C653.146 133.065 652.318 133.064 651.494 133.062C649.624 133.058 647.77 133.055 645.915 133.07L645.915 133.07C644.191 133.083 642.469 133.121 640.744 133.159C640.218 133.17 639.692 133.182 639.166 133.193L639.166 133.193C638.843 133.199 638.543 133.207 638.263 133.27L638.263 133.27C638.095 133.307 637.919 133.402 637.821 133.511C637.759 133.58 637.748 133.62 637.747 133.634C637.756 133.644 637.788 133.668 637.876 133.686C637.911 133.693 637.946 133.701 637.982 133.708C638.543 133.823 639.085 133.933 639.62 133.935C643.228 133.945 646.836 133.937 650.445 133.929C651.46 133.927 652.475 133.925 653.491 133.923L653.491 133.923L653.492 133.923H653.493H653.493H653.494H653.495H653.496H653.496H653.497H653.498H653.498H653.499H653.5H653.5H653.501H653.502H653.502H653.503H653.504H653.505H653.505H653.506H653.507H653.507H653.508H653.509H653.509H653.51H653.511H653.512H653.512H653.513H653.514H653.514H653.515H653.516H653.516H653.517H653.518H653.519H653.519H653.52H653.521H653.521H653.522H653.523H653.523H653.524H653.525H653.526H653.526H653.527H653.528H653.528H653.529H653.53H653.53H653.531H653.532H653.533H653.533H653.534H653.535H653.535H653.536H653.537H653.537H653.538H653.539H653.54H653.54H653.541H653.542H653.542H653.543H653.544H653.545H653.545H653.546H653.547H653.547H653.548H653.549H653.549H653.55H653.551H653.552H653.552H653.553H653.554H653.554H653.555H653.556H653.557H653.557H653.558H653.559H653.559H653.56H653.561H653.562H653.562H653.563H653.564H653.564H653.565H653.566H653.567H653.567H653.568H653.569H653.569H653.57H653.571H653.572H653.572H653.573H653.574H653.575H653.575H653.576H653.577H653.577H653.578H653.579H653.58H653.58H653.581H653.582H653.583H653.583H653.584H653.585H653.585H653.586H653.587H653.588H653.588H653.589H653.59H653.591H653.591H653.592H653.593H653.594H653.594H653.595H653.596H653.596H653.597H653.598H653.599H653.599H653.6H653.601H653.602H653.602H653.603H653.604H653.605H653.605H653.606H653.607H653.608H653.608H653.609H653.61H653.611H653.611H653.612H653.613H653.614H653.614H653.615H653.616H653.617H653.617H653.618H653.619H653.62H653.62H653.621H653.622H653.623H653.623H653.624H653.625H653.626H653.626H653.627H653.628H653.629H653.63H653.63H653.631H653.632H653.633H653.633H653.634H653.635H653.636H653.636H653.637H653.638H653.639H653.64H653.64H653.641H653.642H653.643H653.643H653.644H653.645H653.646H653.647H653.647H653.648H653.649H653.65H653.651H653.651H653.652H653.653H653.654H653.654H653.655H653.656H653.657H653.658H653.658H653.659H653.66H653.661H653.662H653.662H653.663H653.664H653.665H653.666H653.666H653.667H653.668H653.669H653.67H653.67H653.671H653.672H653.673H653.674H653.675H653.675H653.676H653.677H653.678H653.679H653.679H653.68H653.681H653.682H653.683H653.684H653.684H653.685H653.686H653.687H653.688H653.688H653.689H653.69H653.691H653.692H653.693H653.693H653.694H653.695H653.696H653.697H653.698H653.699H653.699H653.7H653.701H653.702H653.703H653.704H653.704H653.705H653.706H653.707H653.708H653.709H653.71H653.71H653.711H653.712H653.713H653.714H653.715H653.716H653.716H653.717H653.718H653.719H653.72H653.721H653.722H653.723H653.723H653.724H653.725H653.726H653.727H653.728H653.729H653.73H653.73H653.731H653.732H653.733H653.734H653.735H653.736H653.737H653.738H653.738H653.739H653.74H653.741H653.742H653.743H653.744H653.745H653.746H653.746H653.747H653.748H653.749H653.75H653.751H653.752H653.753H653.754H653.755H653.756H653.757H653.757H653.758H653.759H653.76H653.761H653.762H653.763H653.764H653.765H653.766H653.767H653.768H653.769H653.769H653.77H653.771H653.772H653.773H653.774H653.775H653.776H653.777H653.778H653.779H653.78H653.781H653.782H653.783H653.784H653.785H653.786H653.787H653.787H653.788H653.789H653.79H653.791H653.792H653.793H653.794H653.795H653.796H653.797H653.798H653.799H653.8H653.801H653.802H653.803H653.804H653.805H653.806H653.807H653.808H653.809H653.81H653.811H653.812H653.813H653.814H653.815H653.816H653.817H653.818H653.819H653.82H653.821H653.822H653.823H653.824H653.825H653.826H653.827H653.828H653.829H653.83H653.831H653.832H653.833H653.834H653.835H653.836H653.837H653.838H653.839H653.841H653.842H653.843H653.844H653.845H653.846H653.847H653.848H653.849H653.85H653.851H653.852H653.853H653.854H653.855H653.856H653.857H653.858H653.859H653.861H653.862H653.863H653.864H653.865H653.866H653.867H653.868H653.869H653.87H653.871H653.872H653.874H653.875H653.876H653.877H653.878H653.879H653.88H653.881H653.882H653.883H653.885H653.886H653.887H653.888H653.889H653.89H653.891H653.892H653.893H653.895H653.896H653.897H653.898H653.899H653.9H653.901H653.903H653.904H653.905H653.906H653.907H653.908H653.909H653.911H653.912H653.913H653.914H653.915H653.916H653.917H653.919H653.92H653.921H653.922H653.923H653.924H653.926H653.927H653.928H653.929H653.93H653.931H654.46L654.125 134.331C653.31 135.326 652.457 136.188 651.391 136.836L651.391 136.836C648.141 138.81 644.819 138.741 641.493 137.121L641.493 137.121C639.914 136.352 638.345 135.563 636.737 134.755C636.024 134.397 635.303 134.035 634.571 133.669L634.105 133.436L634.578 133.218C634.739 133.144 634.882 133.08 635.013 133.021C635.26 132.91 635.465 132.818 635.668 132.714L635.668 132.714C636.466 132.308 637.264 131.899 638.062 131.49C639.184 130.914 640.307 130.338 641.432 129.77L641.432 129.77C642.869 129.045 644.391 128.475 646.048 128.404L654.325 133.065ZM654.325 133.065L654.215 132.736M654.325 133.065L654.215 132.736M654.215 132.736L654.214 132.733L654.199 132.687L654.168 132.651C654.059 132.522 653.948 132.388 653.835 132.25C653.582 131.943 653.317 131.622 653.037 131.321L653.037 131.321M654.215 132.736L653.037 131.321M653.037 131.321C651.154 129.307 648.823 128.285 646.048 128.404L653.037 131.321ZM637.743 133.629C637.743 133.629 637.744 133.63 637.744 133.63L637.743 133.629ZM639.161 132.943C638.842 132.949 638.517 132.956 638.208 133.026L639.161 132.943Z" fill="url(#paint15_linear_292_398)" fill-opacity="0.11" stroke="#38FF7E" stroke-width="0.5"/>
<path d="M630.335 140.986L630.335 140.986C630.238 142.896 630.146 144.804 630.127 146.71C630.127 146.71 630.127 146.71 630.127 146.71L629.877 146.708L630.335 140.986ZM630.335 140.986C630.344 140.802 630.355 140.689 630.373 140.614C630.38 140.585 630.386 140.569 630.39 140.562C630.401 140.559 630.437 140.55 630.522 140.554C630.594 140.556 630.683 140.566 630.796 140.58C631.042 144 630.996 147.421 630.949 150.867C630.924 152.768 630.898 154.678 630.921 156.598L630.926 156.974L631.271 156.825C631.305 156.81 631.33 156.8 631.357 156.789C631.368 156.785 631.379 156.78 631.392 156.775C631.428 156.761 631.475 156.741 631.522 156.71L631.524 156.708C633.097 155.63 634.275 154.196 634.947 152.42C635.898 149.912 635.701 147.399 634.542 145.012L634.542 145.012C633.973 143.841 633.338 142.699 632.707 141.564C632.474 141.145 632.242 140.727 632.013 140.309C631.725 139.779 631.425 139.254 631.109 138.701C630.96 138.439 630.807 138.171 630.65 137.894L630.403 137.456M630.335 140.986L630.403 137.456M630.403 137.456L630.203 137.917M630.403 137.456L630.203 137.917M630.203 137.917C630.127 138.093 630.061 138.252 630.001 138.399C629.882 138.689 629.782 138.931 629.655 139.167C628.867 140.621 628.076 142.074 627.258 143.509C626.068 145.598 625.391 147.824 625.617 150.278M630.203 137.917L625.617 150.278M625.617 150.278C625.703 151.223 625.895 152.145 626.299 153.04L625.617 150.278ZM630.394 140.557C630.394 140.557 630.393 140.558 630.392 140.559C630.393 140.557 630.394 140.557 630.394 140.557Z" fill="url(#paint16_linear_292_398)" fill-opacity="0.11" stroke="#38FF7E" stroke-width="0.5"/>
<path d="M630.907 110.127C630.907 110.126 630.907 110.126 630.907 110.126H631.157H631.158L631.288 109.913C633.588 111.321 635.027 113.27 635.429 115.949L635.429 115.949C635.819 118.55 635.013 120.819 633.664 122.934L633.664 122.934C633.461 123.252 633.296 123.586 633.125 123.933C633.049 124.086 632.973 124.241 632.891 124.4L632.891 124.4C632.74 124.69 632.588 124.98 632.437 125.269C632.034 126.04 631.632 126.808 631.246 127.586L631.246 127.586C631.104 127.871 630.996 128.164 630.886 128.462C630.836 128.6 630.785 128.739 630.73 128.878L630.524 129.4L630.274 128.898C629.874 128.1 629.469 127.3 629.062 126.497C628.162 124.721 627.256 122.933 626.395 121.126C624.537 117.229 625.973 112.335 629.591 109.986L629.676 110.117H629.873L629.994 110.335C629.984 110.341 629.971 110.347 629.964 110.351C629.963 110.351 629.963 110.351 629.962 110.352C629.953 110.356 629.942 110.361 629.931 110.367C629.911 110.377 629.891 110.389 629.872 110.4L630.907 110.127ZM630.907 110.127V110.267L630.907 110.267C630.908 111.379 630.908 112.488 630.909 113.594C630.911 117.128 630.913 120.631 630.895 124.136L630.895 124.136C630.892 124.719 630.788 125.303 630.68 125.908C630.66 126.018 630.64 126.129 630.621 126.241C630.621 126.242 630.62 126.242 630.62 126.243C630.61 126.255 630.593 126.273 630.563 126.299C630.548 126.311 630.533 126.324 630.517 126.336C630.504 126.325 630.492 126.315 630.48 126.304C630.436 126.262 630.424 126.243 630.422 126.241C630.328 125.74 630.247 125.247 630.24 124.761M630.907 110.127L629.99 124.764L630.24 124.761M630.24 124.761C630.19 121.238 630.155 117.714 630.124 114.19M630.24 124.761L630.124 114.19M631.407 110.284C633.505 111.643 634.807 113.486 635.182 115.986C635.56 118.508 634.783 120.715 633.453 122.799C633.242 123.129 633.068 123.483 632.894 123.836C632.82 123.986 632.746 124.136 632.669 124.285L631.407 110.284ZM631.407 110.284C631.407 110.232 631.407 110.179 631.407 110.127L631.407 110.284ZM630.124 114.19C630.116 113.258 630.118 112.327 630.121 111.396C630.122 110.97 630.123 110.543 630.123 110.117V109.692L629.753 109.897C629.753 109.897 629.75 109.899 629.741 109.903C629.731 109.908 629.718 109.915 629.702 109.922C629.672 109.938 629.631 109.96 629.59 109.987L629.675 110.117L630.124 114.19Z" fill="url(#paint17_linear_292_398)" fill-opacity="0.11" stroke="#38FF7E" stroke-width="0.5"/>
<path d="M612.219 147.929V147.839L612.213 147.832C612.132 146.422 612.37 145.068 612.8 143.713L612.8 143.713C613.208 142.425 613.983 141.363 614.794 140.251C614.841 140.187 614.888 140.123 614.935 140.058L615.233 139.65L614.727 139.661C611.682 139.732 609.249 138.511 607.18 136.36L606.657 135.817L606.752 136.565C607.221 140.277 608.701 144.416 611.777 148.09L611.957 147.939L612.219 147.93V147.929Z" fill="url(#paint18_linear_292_398)" fill-opacity="0.11" stroke="#38FF7E" stroke-width="0.5"/>
<path d="M648.823 147.929L648.859 148.469L649.247 148.092C650.312 147.058 651.548 144.884 652.519 142.638C653.49 140.393 654.225 138.006 654.25 136.528L654.261 135.864L653.815 136.355C651.761 138.619 649.204 139.702 646.142 139.72L645.625 139.724L645.949 140.127C647.114 141.576 647.753 142.492 648.144 143.552C648.537 144.616 648.685 145.843 648.823 147.929Z" fill="url(#paint19_linear_292_398)" fill-opacity="0.11" stroke="#38FF7E" stroke-width="0.5"/>
<path d="M612.347 118.667L612.419 117.904L611.911 118.478C610.739 119.802 609.455 122.119 608.478 124.394C607.988 125.535 607.573 126.673 607.286 127.682C607 128.684 606.835 129.58 606.863 130.226L606.89 130.871L607.304 130.376C609.317 127.969 611.891 126.943 615.131 127.232L615.794 127.291L615.334 126.81C613.129 124.505 612.042 121.898 612.347 118.667Z" fill="url(#paint20_linear_292_398)" fill-opacity="0.11" stroke="#38FF7E" stroke-width="0.5"/>
<path d="M649.184 118.437L648.666 117.733L648.734 118.605C648.982 121.808 648.135 124.495 645.822 126.75L645.339 127.222L646.013 127.179C647.567 127.079 648.987 127.271 650.336 127.833L650.336 127.833C651.7 128.4 652.886 129.179 653.763 130.38L654.213 130.198C653.603 125.851 651.823 122.024 649.184 118.437Z" fill="url(#paint21_linear_292_398)" fill-opacity="0.11" stroke="#38FF7E" stroke-width="0.5"/>
<path d="M624.069 148.599H623.83L623.823 148.752C621.793 151.077 619.24 151.95 616.268 152.121L615.583 152.16L616.133 152.571C619.591 155.153 623.339 156.788 627.622 157.179L627.782 156.721C625.025 154.914 624.191 152.243 624.316 148.947L624.615 148.599H624.07H624.069Z" fill="url(#paint22_linear_292_398)" fill-opacity="0.11" stroke="#38FF7E" stroke-width="0.5"/>
<path d="M645.433 152.067L644.87 152.513C641.85 154.904 637.708 156.67 633.551 157.248L632.632 157.375L633.362 156.803C635.92 154.8 637.054 152.283 636.872 149.015L636.832 148.288L637.31 148.837C639.299 151.119 641.774 152.049 644.715 152.067H644.715M645.433 152.067L644.714 152.316L644.56 152.121C644.48 152.185 644.399 152.247 644.318 152.31C641.614 152.216 639.29 151.326 637.385 149.292C637.381 149.191 637.377 149.089 637.371 148.987L637.122 149.001L636.933 149.165C637.001 149.243 637.069 149.319 637.137 149.393C637.21 152.391 636.154 154.77 633.895 156.691C633.757 156.713 633.62 156.733 633.482 156.752L633.516 157L633.671 157.197C633.784 157.108 633.895 157.018 634.003 156.927C637.81 156.312 641.566 154.708 644.399 152.562C644.503 152.565 644.607 152.567 644.712 152.567H644.714H644.715V152.317L644.714 152.316L644.715 152.167L644.715 152.067C644.715 152.067 644.715 152.067 644.715 152.067M645.433 152.067H644.715M645.433 152.067H644.715" fill="url(#paint23_linear_292_398)" fill-opacity="0.11" stroke="#38FF7E" stroke-width="0.5"/>
<path d="M627.489 110.204L627.312 109.752C623.255 110.294 619.564 111.708 616.31 114.215L615.781 114.623L616.447 114.663C619.311 114.837 621.794 115.739 623.753 117.942L624.201 118.446L624.19 117.771C624.136 114.67 624.89 112.037 627.489 110.204Z" fill="url(#paint24_linear_292_398)" fill-opacity="0.11" stroke="#38FF7E" stroke-width="0.5"/>
<path d="M633.855 109.848L633.574 109.813V110.096V110.097V110.219L633.67 110.294C636.024 112.136 636.995 114.587 636.893 117.632L636.871 118.289L637.324 117.812C639.331 115.702 641.704 114.717 644.586 114.64L645.297 114.621L644.731 114.191C641.442 111.692 637.831 110.345 633.855 109.848Z" fill="url(#paint25_linear_292_398)" fill-opacity="0.11" stroke="#38FF7E" stroke-width="0.5"/>
<g filter="url(#filter8_dddddd_292_398)">
<circle cx="647.863" cy="113.863" r="0.862769" fill="#38FF7E"/>
</g>
<g filter="url(#filter9_dddddd_292_398)">
<circle cx="627.431" cy="108.431" r="0.431385" fill="#38FF7E"/>
</g>
<g filter="url(#filter10_dddddd_292_398)">
<circle cx="609.476" cy="148.514" r="0.431385" fill="#38FF7E"/>
</g>
<g filter="url(#filter11_dddddd_292_398)">
<circle cx="654.431" cy="126.431" r="0.431385" fill="#38FF7E"/>
</g>
<g filter="url(#filter12_dddddd_292_398)">
<circle cx="654.431" cy="143.431" r="0.431385" fill="#38FF7E"/>
</g>
<g filter="url(#filter13_dddddd_292_398)">
<circle cx="622.431" cy="159.431" r="0.431385" fill="#38FF7E"/>
</g>
<g filter="url(#filter14_dddddd_292_398)">
<circle cx="656.431" cy="145.431" r="0.431385" fill="#38FF7E"/>
</g>
<g filter="url(#filter15_dddddd_292_398)">
<circle cx="612.431" cy="113.431" r="0.431385" fill="#38FF7E"/>
</g>
<g filter="url(#filter16_dddddd_292_398)">
<circle cx="643.294" cy="157.532" r="0.431385" fill="#38FF7E"/>
</g>
<g filter="url(#filter17_dddddd_292_398)">
<circle cx="607.203" cy="121.203" r="1.20309" fill="#38FF7E"/>
</g>
<g filter="url(#filter18_dd_292_398)">
<circle cx="648.469" cy="172.156" r="1.80464" fill="#38FF7E"/>
</g>
</g>
<rect x="600.041" y="103.306" width="61.5104" height="61.5104" rx="18.7552" stroke="#0CF25D" stroke-width="0.48956"/>
</g>
</g>
</g>
<rect x="1.4449" y="1.4449" width="685.11" height="214.11" rx="27.2001" stroke="#1C3023" stroke-width="1.11021"/>
<defs>
<filter id="filter0_ddd_292_398" x="14.1552" y="29.9832" width="26.4419" height="26.4422" filterUnits="userSpaceOnUse" color-interpolation-filters="sRGB">
<feFlood flood-opacity="0" result="BackgroundImageFix"/>
<feColorMatrix in="SourceAlpha" type="matrix" values="0 0 0 0 0 0 0 0 0 0 0 0 0 0 0 0 0 0 127 0" result="hardAlpha"/>
<feOffset/>
<feGaussianBlur stdDeviation="0.209354"/>
<feColorMatrix type="matrix" values="0 0 0 0 0.219608 0 0 0 0 1 0 0 0 0 0.494118 0 0 0 1 0"/>
<feBlend mode="normal" in2="BackgroundImageFix" result="effect1_dropShadow_292_398"/>
<feColorMatrix in="SourceAlpha" type="matrix" values="0 0 0 0 0 0 0 0 0 0 0 0 0 0 0 0 0 0 127 0" result="hardAlpha"/>
<feOffset/>
<feGaussianBlur stdDeviation="1.46548"/>
<feColorMatrix type="matrix" values="0 0 0 0 0.219608 0 0 0 0 1 0 0 0 0 0.494118 0 0 0 1 0"/>
<feBlend mode="normal" in2="effect1_dropShadow_292_398" result="effect2_dropShadow_292_398"/>
<feColorMatrix in="SourceAlpha" type="matrix" values="0 0 0 0 0 0 0 0 0 0 0 0 0 0 0 0 0 0 127 0" result="hardAlpha"/>
<feOffset/>
<feGaussianBlur stdDeviation="5.02449"/>
<feColorMatrix type="matrix" values="0 0 0 0 0.219608 0 0 0 0 1 0 0 0 0 0.494118 0 0 0 1 0"/>
<feBlend mode="normal" in2="effect2_dropShadow_292_398" result="effect3_dropShadow_292_398"/>
<feBlend mode="normal" in="SourceGraphic" in2="effect3_dropShadow_292_398" result="shape"/>
</filter>
<filter id="filter1_ddd_292_398" x="31.6014" y="29.9832" width="26.4419" height="26.4422" filterUnits="userSpaceOnUse" color-interpolation-filters="sRGB">
<feFlood flood-opacity="0" result="BackgroundImageFix"/>
<feColorMatrix in="SourceAlpha" type="matrix" values="0 0 0 0 0 0 0 0 0 0 0 0 0 0 0 0 0 0 127 0" result="hardAlpha"/>
<feOffset/>
<feGaussianBlur stdDeviation="0.209354"/>
<feColorMatrix type="matrix" values="0 0 0 0 0.219608 0 0 0 0 1 0 0 0 0 0.494118 0 0 0 1 0"/>
<feBlend mode="normal" in2="BackgroundImageFix" result="effect1_dropShadow_292_398"/>
<feColorMatrix in="SourceAlpha" type="matrix" values="0 0 0 0 0 0 0 0 0 0 0 0 0 0 0 0 0 0 127 0" result="hardAlpha"/>
<feOffset/>
<feGaussianBlur stdDeviation="1.46548"/>
<feColorMatrix type="matrix" values="0 0 0 0 0.219608 0 0 0 0 1 0 0 0 0 0.494118 0 0 0 1 0"/>
<feBlend mode="normal" in2="effect1_dropShadow_292_398" result="effect2_dropShadow_292_398"/>
<feColorMatrix in="SourceAlpha" type="matrix" values="0 0 0 0 0 0 0 0 0 0 0 0 0 0 0 0 0 0 127 0" result="hardAlpha"/>
<feOffset/>
<feGaussianBlur stdDeviation="5.02449"/>
<feColorMatrix type="matrix" values="0 0 0 0 0.219608 0 0 0 0 1 0 0 0 0 0.494118 0 0 0 1 0"/>
<feBlend mode="normal" in2="effect2_dropShadow_292_398" result="effect3_dropShadow_292_398"/>
<feBlend mode="normal" in="SourceGraphic" in2="effect3_dropShadow_292_398" result="shape"/>
</filter>
<filter id="filter2_ddd_292_398" x="49.0475" y="29.9832" width="26.4419" height="26.4422" filterUnits="userSpaceOnUse" color-interpolation-filters="sRGB">
<feFlood flood-opacity="0" result="BackgroundImageFix"/>
<feColorMatrix in="SourceAlpha" type="matrix" values="0 0 0 0 0 0 0 0 0 0 0 0 0 0 0 0 0 0 127 0" result="hardAlpha"/>
<feOffset/>
<feGaussianBlur stdDeviation="0.209354"/>
<feColorMatrix type="matrix" values="0 0 0 0 0.219608 0 0 0 0 1 0 0 0 0 0.494118 0 0 0 1 0"/>
<feBlend mode="normal" in2="BackgroundImageFix" result="effect1_dropShadow_292_398"/>
<feColorMatrix in="SourceAlpha" type="matrix" values="0 0 0 0 0 0 0 0 0 0 0 0 0 0 0 0 0 0 127 0" result="hardAlpha"/>
<feOffset/>
<feGaussianBlur stdDeviation="1.46548"/>
<feColorMatrix type="matrix" values="0 0 0 0 0.219608 0 0 0 0 1 0 0 0 0 0.494118 0 0 0 1 0"/>
<feBlend mode="normal" in2="effect1_dropShadow_292_398" result="effect2_dropShadow_292_398"/>
<feColorMatrix in="SourceAlpha" type="matrix" values="0 0 0 0 0 0 0 0 0 0 0 0 0 0 0 0 0 0 127 0" result="hardAlpha"/>
<feOffset/>
<feGaussianBlur stdDeviation="5.02449"/>
<feColorMatrix type="matrix" values="0 0 0 0 0.219608 0 0 0 0 1 0 0 0 0 0.494118 0 0 0 1 0"/>
<feBlend mode="normal" in2="effect2_dropShadow_292_398" result="effect3_dropShadow_292_398"/>
<feBlend mode="normal" in="SourceGraphic" in2="effect3_dropShadow_292_398" result="shape"/>
</filter>
<filter id="filter3_d_292_398" x="478.265" y="14.7329" width="176.352" height="57.5894" filterUnits="userSpaceOnUse" color-interpolation-filters="sRGB">
<feFlood flood-opacity="0" result="BackgroundImageFix"/>
<feColorMatrix in="SourceAlpha" type="matrix" values="0 0 0 0 0 0 0 0 0 0 0 0 0 0 0 0 0 0 127 0" result="hardAlpha"/>
<feOffset/>
<feGaussianBlur stdDeviation="7.5"/>
<feComposite in2="hardAlpha" operator="out"/>
<feColorMatrix type="matrix" values="0 0 0 0 1 0 0 0 0 1 0 0 0 0 1 0 0 0 0.72 0"/>
<feBlend mode="normal" in2="BackgroundImageFix" result="effect1_dropShadow_292_398"/>
<feBlend mode="normal" in="SourceGraphic" in2="effect1_dropShadow_292_398" result="shape"/>
</filter>
<filter id="filter4_dd_292_398" x="27.9834" y="98.6553" width="38.6248" height="41.0309" filterUnits="userSpaceOnUse" color-interpolation-filters="sRGB">
<feFlood flood-opacity="0" result="BackgroundImageFix"/>
<feColorMatrix in="SourceAlpha" type="matrix" values="0 0 0 0 0 0 0 0 0 0 0 0 0 0 0 0 0 0 127 0" result="hardAlpha"/>
<feOffset dy="4.81238"/>
<feGaussianBlur stdDeviation="2.40619"/>
<feComposite in2="hardAlpha" operator="out"/>
<feColorMatrix type="matrix" values="0 0 0 0 0 0 0 0 0 0 0 0 0 0 0 0 0 0 0.25 0"/>
<feBlend mode="normal" in2="BackgroundImageFix" result="effect1_dropShadow_292_398"/>
<feColorMatrix in="SourceAlpha" type="matrix" values="0 0 0 0 0 0 0 0 0 0 0 0 0 0 0 0 0 0 127 0" result="hardAlpha"/>
<feOffset dy="2.40619"/>
<feGaussianBlur stdDeviation="2.40619"/>
<feComposite in2="hardAlpha" operator="out"/>
<feColorMatrix type="matrix" values="0 0 0 0 0 0 0 0 0 0 0 0 0 0 0 0 0 0 0.45 0"/>
<feBlend mode="normal" in2="effect1_dropShadow_292_398" result="effect2_dropShadow_292_398"/>
<feBlend mode="normal" in="SourceGraphic" in2="effect2_dropShadow_292_398" result="shape"/>
</filter>
<filter id="filter5_d_292_398" x="35.8931" y="109.708" width="22.8746" height="22.8718" filterUnits="userSpaceOnUse" color-interpolation-filters="sRGB">
<feFlood flood-opacity="0" result="BackgroundImageFix"/>
<feColorMatrix in="SourceAlpha" type="matrix" values="0 0 0 0 0 0 0 0 0 0 0 0 0 0 0 0 0 0 127 0" result="hardAlpha"/>
<feOffset dy="4.81238"/>
<feGaussianBlur stdDeviation="2.40619"/>
<feComposite in2="hardAlpha" operator="out"/>
<feColorMatrix type="matrix" values="0 0 0 0 0 0 0 0 0 0 0 0 0 0 0 0 0 0 0.25 0"/>
<feBlend mode="normal" in2="BackgroundImageFix" result="effect1_dropShadow_292_398"/>
<feBlend mode="normal" in="SourceGraphic" in2="effect1_dropShadow_292_398" result="shape"/>
</filter>
<filter id="filter6_dd_292_398" x="591.78" y="97.4522" width="78.031" height="80.4372" filterUnits="userSpaceOnUse" color-interpolation-filters="sRGB">
<feFlood flood-opacity="0" result="BackgroundImageFix"/>
<feColorMatrix in="SourceAlpha" type="matrix" values="0 0 0 0 0 0 0 0 0 0 0 0 0 0 0 0 0 0 127 0" result="hardAlpha"/>
<feOffset dy="4.81238"/>
<feGaussianBlur stdDeviation="2.40619"/>
<feComposite in2="hardAlpha" operator="out"/>
<feColorMatrix type="matrix" values="0 0 0 0 0 0 0 0 0 0 0 0 0 0 0 0 0 0 0.25 0"/>
<feBlend mode="normal" in2="BackgroundImageFix" result="effect1_dropShadow_292_398"/>
<feColorMatrix in="SourceAlpha" type="matrix" values="0 0 0 0 0 0 0 0 0 0 0 0 0 0 0 0 0 0 127 0" result="hardAlpha"/>
<feOffset dy="2.40619"/>
<feGaussianBlur stdDeviation="2.40619"/>
<feComposite in2="hardAlpha" operator="out"/>
<feColorMatrix type="matrix" values="0 0 0 0 0 0 0 0 0 0 0 0 0 0 0 0 0 0 0.45 0"/>
<feBlend mode="normal" in2="effect1_dropShadow_292_398" result="effect2_dropShadow_292_398"/>
<feBlend mode="normal" in="SourceGraphic" in2="effect2_dropShadow_292_398" result="shape"/>
</filter>
<filter id="filter7_i_292_398" x="599.796" y="103.062" width="62" height="62" filterUnits="userSpaceOnUse" color-interpolation-filters="sRGB">
<feFlood flood-opacity="0" result="BackgroundImageFix"/>
<feBlend mode="normal" in="SourceGraphic" in2="BackgroundImageFix" result="shape"/>
<feColorMatrix in="SourceAlpha" type="matrix" values="0 0 0 0 0 0 0 0 0 0 0 0 0 0 0 0 0 0 127 0" result="hardAlpha"/>
<feOffset/>
<feGaussianBlur stdDeviation="3.52483"/>
<feComposite in2="hardAlpha" operator="arithmetic" k2="-1" k3="1"/>
<feColorMatrix type="matrix" values="0 0 0 0 0.0470588 0 0 0 0 0.94902 0 0 0 0 0.364706 0 0 0 1 0"/>
<feBlend mode="normal" in2="shape" result="effect1_innerShadow_292_398"/>
</filter>
<filter id="filter8_dddddd_292_398" x="637.586" y="103.586" width="20.5531" height="20.5531" filterUnits="userSpaceOnUse" color-interpolation-filters="sRGB">
<feFlood flood-opacity="0" result="BackgroundImageFix"/>
<feColorMatrix in="SourceAlpha" type="matrix" values="0 0 0 0 0 0 0 0 0 0 0 0 0 0 0 0 0 0 127 0" result="hardAlpha"/>
<feOffset/>
<feGaussianBlur stdDeviation="0.112068"/>
<feColorMatrix type="matrix" values="0 0 0 0 0.219608 0 0 0 0 1 0 0 0 0 0.494118 0 0 0 1 0"/>
<feBlend mode="normal" in2="BackgroundImageFix" result="effect1_dropShadow_292_398"/>
<feColorMatrix in="SourceAlpha" type="matrix" values="0 0 0 0 0 0 0 0 0 0 0 0 0 0 0 0 0 0 127 0" result="hardAlpha"/>
<feOffset/>
<feGaussianBlur stdDeviation="0.224137"/>
<feColorMatrix type="matrix" values="0 0 0 0 0.219608 0 0 0 0 1 0 0 0 0 0.494118 0 0 0 1 0"/>
<feBlend mode="normal" in2="effect1_dropShadow_292_398" result="effect2_dropShadow_292_398"/>
<feColorMatrix in="SourceAlpha" type="matrix" values="0 0 0 0 0 0 0 0 0 0 0 0 0 0 0 0 0 0 127 0" result="hardAlpha"/>
<feOffset/>
<feGaussianBlur stdDeviation="0.784478"/>
<feColorMatrix type="matrix" values="0 0 0 0 0.219608 0 0 0 0 1 0 0 0 0 0.494118 0 0 0 1 0"/>
<feBlend mode="normal" in2="effect2_dropShadow_292_398" result="effect3_dropShadow_292_398"/>
<feColorMatrix in="SourceAlpha" type="matrix" values="0 0 0 0 0 0 0 0 0 0 0 0 0 0 0 0 0 0 127 0" result="hardAlpha"/>
<feOffset/>
<feGaussianBlur stdDeviation="1.56896"/>
<feColorMatrix type="matrix" values="0 0 0 0 0.219608 0 0 0 0 1 0 0 0 0 0.494118 0 0 0 1 0"/>
<feBlend mode="normal" in2="effect3_dropShadow_292_398" result="effect4_dropShadow_292_398"/>
<feColorMatrix in="SourceAlpha" type="matrix" values="0 0 0 0 0 0 0 0 0 0 0 0 0 0 0 0 0 0 127 0" result="hardAlpha"/>
<feOffset/>
<feGaussianBlur stdDeviation="2.68964"/>
<feColorMatrix type="matrix" values="0 0 0 0 0.219608 0 0 0 0 1 0 0 0 0 0.494118 0 0 0 1 0"/>
<feBlend mode="normal" in2="effect4_dropShadow_292_398" result="effect5_dropShadow_292_398"/>
<feColorMatrix in="SourceAlpha" type="matrix" values="0 0 0 0 0 0 0 0 0 0 0 0 0 0 0 0 0 0 127 0" result="hardAlpha"/>
<feOffset/>
<feGaussianBlur stdDeviation="4.70687"/>
<feColorMatrix type="matrix" values="0 0 0 0 0.219608 0 0 0 0 1 0 0 0 0 0.494118 0 0 0 1 0"/>
<feBlend mode="normal" in2="effect5_dropShadow_292_398" result="effect6_dropShadow_292_398"/>
<feBlend mode="normal" in="SourceGraphic" in2="effect6_dropShadow_292_398" result="shape"/>
</filter>
<filter id="filter9_dddddd_292_398" x="622.293" y="103.293" width="10.2765" height="10.2765" filterUnits="userSpaceOnUse" color-interpolation-filters="sRGB">
<feFlood flood-opacity="0" result="BackgroundImageFix"/>
<feColorMatrix in="SourceAlpha" type="matrix" values="0 0 0 0 0 0 0 0 0 0 0 0 0 0 0 0 0 0 127 0" result="hardAlpha"/>
<feOffset/>
<feGaussianBlur stdDeviation="0.0560341"/>
<feColorMatrix type="matrix" values="0 0 0 0 0.219608 0 0 0 0 1 0 0 0 0 0.494118 0 0 0 1 0"/>
<feBlend mode="normal" in2="BackgroundImageFix" result="effect1_dropShadow_292_398"/>
<feColorMatrix in="SourceAlpha" type="matrix" values="0 0 0 0 0 0 0 0 0 0 0 0 0 0 0 0 0 0 127 0" result="hardAlpha"/>
<feOffset/>
<feGaussianBlur stdDeviation="0.112068"/>
<feColorMatrix type="matrix" values="0 0 0 0 0.219608 0 0 0 0 1 0 0 0 0 0.494118 0 0 0 1 0"/>
<feBlend mode="normal" in2="effect1_dropShadow_292_398" result="effect2_dropShadow_292_398"/>
<feColorMatrix in="SourceAlpha" type="matrix" values="0 0 0 0 0 0 0 0 0 0 0 0 0 0 0 0 0 0 127 0" result="hardAlpha"/>
<feOffset/>
<feGaussianBlur stdDeviation="0.392239"/>
<feColorMatrix type="matrix" values="0 0 0 0 0.219608 0 0 0 0 1 0 0 0 0 0.494118 0 0 0 1 0"/>
<feBlend mode="normal" in2="effect2_dropShadow_292_398" result="effect3_dropShadow_292_398"/>
<feColorMatrix in="SourceAlpha" type="matrix" values="0 0 0 0 0 0 0 0 0 0 0 0 0 0 0 0 0 0 127 0" result="hardAlpha"/>
<feOffset/>
<feGaussianBlur stdDeviation="0.784478"/>
<feColorMatrix type="matrix" values="0 0 0 0 0.219608 0 0 0 0 1 0 0 0 0 0.494118 0 0 0 1 0"/>
<feBlend mode="normal" in2="effect3_dropShadow_292_398" result="effect4_dropShadow_292_398"/>
<feColorMatrix in="SourceAlpha" type="matrix" values="0 0 0 0 0 0 0 0 0 0 0 0 0 0 0 0 0 0 127 0" result="hardAlpha"/>
<feOffset/>
<feGaussianBlur stdDeviation="1.34482"/>
<feColorMatrix type="matrix" values="0 0 0 0 0.219608 0 0 0 0 1 0 0 0 0 0.494118 0 0 0 1 0"/>
<feBlend mode="normal" in2="effect4_dropShadow_292_398" result="effect5_dropShadow_292_398"/>
<feColorMatrix in="SourceAlpha" type="matrix" values="0 0 0 0 0 0 0 0 0 0 0 0 0 0 0 0 0 0 127 0" result="hardAlpha"/>
<feOffset/>
<feGaussianBlur stdDeviation="2.35343"/>
<feColorMatrix type="matrix" values="0 0 0 0 0.219608 0 0 0 0 1 0 0 0 0 0.494118 0 0 0 1 0"/>
<feBlend mode="normal" in2="effect5_dropShadow_292_398" result="effect6_dropShadow_292_398"/>
<feBlend mode="normal" in="SourceGraphic" in2="effect6_dropShadow_292_398" result="shape"/>
</filter>
<filter id="filter10_dddddd_292_398" x="604.337" y="143.376" width="10.2765" height="10.2765" filterUnits="userSpaceOnUse" color-interpolation-filters="sRGB">
<feFlood flood-opacity="0" result="BackgroundImageFix"/>
<feColorMatrix in="SourceAlpha" type="matrix" values="0 0 0 0 0 0 0 0 0 0 0 0 0 0 0 0 0 0 127 0" result="hardAlpha"/>
<feOffset/>
<feGaussianBlur stdDeviation="0.0560341"/>
<feColorMatrix type="matrix" values="0 0 0 0 0.219608 0 0 0 0 1 0 0 0 0 0.494118 0 0 0 1 0"/>
<feBlend mode="normal" in2="BackgroundImageFix" result="effect1_dropShadow_292_398"/>
<feColorMatrix in="SourceAlpha" type="matrix" values="0 0 0 0 0 0 0 0 0 0 0 0 0 0 0 0 0 0 127 0" result="hardAlpha"/>
<feOffset/>
<feGaussianBlur stdDeviation="0.112068"/>
<feColorMatrix type="matrix" values="0 0 0 0 0.219608 0 0 0 0 1 0 0 0 0 0.494118 0 0 0 1 0"/>
<feBlend mode="normal" in2="effect1_dropShadow_292_398" result="effect2_dropShadow_292_398"/>
<feColorMatrix in="SourceAlpha" type="matrix" values="0 0 0 0 0 0 0 0 0 0 0 0 0 0 0 0 0 0 127 0" result="hardAlpha"/>
<feOffset/>
<feGaussianBlur stdDeviation="0.392239"/>
<feColorMatrix type="matrix" values="0 0 0 0 0.219608 0 0 0 0 1 0 0 0 0 0.494118 0 0 0 1 0"/>
<feBlend mode="normal" in2="effect2_dropShadow_292_398" result="effect3_dropShadow_292_398"/>
<feColorMatrix in="SourceAlpha" type="matrix" values="0 0 0 0 0 0 0 0 0 0 0 0 0 0 0 0 0 0 127 0" result="hardAlpha"/>
<feOffset/>
<feGaussianBlur stdDeviation="0.784478"/>
<feColorMatrix type="matrix" values="0 0 0 0 0.219608 0 0 0 0 1 0 0 0 0 0.494118 0 0 0 1 0"/>
<feBlend mode="normal" in2="effect3_dropShadow_292_398" result="effect4_dropShadow_292_398"/>
<feColorMatrix in="SourceAlpha" type="matrix" values="0 0 0 0 0 0 0 0 0 0 0 0 0 0 0 0 0 0 127 0" result="hardAlpha"/>
<feOffset/>
<feGaussianBlur stdDeviation="1.34482"/>
<feColorMatrix type="matrix" values="0 0 0 0 0.219608 0 0 0 0 1 0 0 0 0 0.494118 0 0 0 1 0"/>
<feBlend mode="normal" in2="effect4_dropShadow_292_398" result="effect5_dropShadow_292_398"/>
<feColorMatrix in="SourceAlpha" type="matrix" values="0 0 0 0 0 0 0 0 0 0 0 0 0 0 0 0 0 0 127 0" result="hardAlpha"/>
<feOffset/>
<feGaussianBlur stdDeviation="2.35343"/>
<feColorMatrix type="matrix" values="0 0 0 0 0.219608 0 0 0 0 1 0 0 0 0 0.494118 0 0 0 1 0"/>
<feBlend mode="normal" in2="effect5_dropShadow_292_398" result="effect6_dropShadow_292_398"/>
<feBlend mode="normal" in="SourceGraphic" in2="effect6_dropShadow_292_398" result="shape"/>
</filter>
<filter id="filter11_dddddd_292_398" x="649.293" y="121.293" width="10.2765" height="10.2765" filterUnits="userSpaceOnUse" color-interpolation-filters="sRGB">
<feFlood flood-opacity="0" result="BackgroundImageFix"/>
<feColorMatrix in="SourceAlpha" type="matrix" values="0 0 0 0 0 0 0 0 0 0 0 0 0 0 0 0 0 0 127 0" result="hardAlpha"/>
<feOffset/>
<feGaussianBlur stdDeviation="0.0560341"/>
<feColorMatrix type="matrix" values="0 0 0 0 0.219608 0 0 0 0 1 0 0 0 0 0.494118 0 0 0 1 0"/>
<feBlend mode="normal" in2="BackgroundImageFix" result="effect1_dropShadow_292_398"/>
<feColorMatrix in="SourceAlpha" type="matrix" values="0 0 0 0 0 0 0 0 0 0 0 0 0 0 0 0 0 0 127 0" result="hardAlpha"/>
<feOffset/>
<feGaussianBlur stdDeviation="0.112068"/>
<feColorMatrix type="matrix" values="0 0 0 0 0.219608 0 0 0 0 1 0 0 0 0 0.494118 0 0 0 1 0"/>
<feBlend mode="normal" in2="effect1_dropShadow_292_398" result="effect2_dropShadow_292_398"/>
<feColorMatrix in="SourceAlpha" type="matrix" values="0 0 0 0 0 0 0 0 0 0 0 0 0 0 0 0 0 0 127 0" result="hardAlpha"/>
<feOffset/>
<feGaussianBlur stdDeviation="0.392239"/>
<feColorMatrix type="matrix" values="0 0 0 0 0.219608 0 0 0 0 1 0 0 0 0 0.494118 0 0 0 1 0"/>
<feBlend mode="normal" in2="effect2_dropShadow_292_398" result="effect3_dropShadow_292_398"/>
<feColorMatrix in="SourceAlpha" type="matrix" values="0 0 0 0 0 0 0 0 0 0 0 0 0 0 0 0 0 0 127 0" result="hardAlpha"/>
<feOffset/>
<feGaussianBlur stdDeviation="0.784478"/>
<feColorMatrix type="matrix" values="0 0 0 0 0.219608 0 0 0 0 1 0 0 0 0 0.494118 0 0 0 1 0"/>
<feBlend mode="normal" in2="effect3_dropShadow_292_398" result="effect4_dropShadow_292_398"/>
<feColorMatrix in="SourceAlpha" type="matrix" values="0 0 0 0 0 0 0 0 0 0 0 0 0 0 0 0 0 0 127 0" result="hardAlpha"/>
<feOffset/>
<feGaussianBlur stdDeviation="1.34482"/>
<feColorMatrix type="matrix" values="0 0 0 0 0.219608 0 0 0 0 1 0 0 0 0 0.494118 0 0 0 1 0"/>
<feBlend mode="normal" in2="effect4_dropShadow_292_398" result="effect5_dropShadow_292_398"/>
<feColorMatrix in="SourceAlpha" type="matrix" values="0 0 0 0 0 0 0 0 0 0 0 0 0 0 0 0 0 0 127 0" result="hardAlpha"/>
<feOffset/>
<feGaussianBlur stdDeviation="2.35343"/>
<feColorMatrix type="matrix" values="0 0 0 0 0.219608 0 0 0 0 1 0 0 0 0 0.494118 0 0 0 1 0"/>
<feBlend mode="normal" in2="effect5_dropShadow_292_398" result="effect6_dropShadow_292_398"/>
<feBlend mode="normal" in="SourceGraphic" in2="effect6_dropShadow_292_398" result="shape"/>
</filter>
<filter id="filter12_dddddd_292_398" x="649.293" y="138.293" width="10.2765" height="10.2765" filterUnits="userSpaceOnUse" color-interpolation-filters="sRGB">
<feFlood flood-opacity="0" result="BackgroundImageFix"/>
<feColorMatrix in="SourceAlpha" type="matrix" values="0 0 0 0 0 0 0 0 0 0 0 0 0 0 0 0 0 0 127 0" result="hardAlpha"/>
<feOffset/>
<feGaussianBlur stdDeviation="0.0560341"/>
<feColorMatrix type="matrix" values="0 0 0 0 0.219608 0 0 0 0 1 0 0 0 0 0.494118 0 0 0 1 0"/>
<feBlend mode="normal" in2="BackgroundImageFix" result="effect1_dropShadow_292_398"/>
<feColorMatrix in="SourceAlpha" type="matrix" values="0 0 0 0 0 0 0 0 0 0 0 0 0 0 0 0 0 0 127 0" result="hardAlpha"/>
<feOffset/>
<feGaussianBlur stdDeviation="0.112068"/>
<feColorMatrix type="matrix" values="0 0 0 0 0.219608 0 0 0 0 1 0 0 0 0 0.494118 0 0 0 1 0"/>
<feBlend mode="normal" in2="effect1_dropShadow_292_398" result="effect2_dropShadow_292_398"/>
<feColorMatrix in="SourceAlpha" type="matrix" values="0 0 0 0 0 0 0 0 0 0 0 0 0 0 0 0 0 0 127 0" result="hardAlpha"/>
<feOffset/>
<feGaussianBlur stdDeviation="0.392239"/>
<feColorMatrix type="matrix" values="0 0 0 0 0.219608 0 0 0 0 1 0 0 0 0 0.494118 0 0 0 1 0"/>
<feBlend mode="normal" in2="effect2_dropShadow_292_398" result="effect3_dropShadow_292_398"/>
<feColorMatrix in="SourceAlpha" type="matrix" values="0 0 0 0 0 0 0 0 0 0 0 0 0 0 0 0 0 0 127 0" result="hardAlpha"/>
<feOffset/>
<feGaussianBlur stdDeviation="0.784478"/>
<feColorMatrix type="matrix" values="0 0 0 0 0.219608 0 0 0 0 1 0 0 0 0 0.494118 0 0 0 1 0"/>
<feBlend mode="normal" in2="effect3_dropShadow_292_398" result="effect4_dropShadow_292_398"/>
<feColorMatrix in="SourceAlpha" type="matrix" values="0 0 0 0 0 0 0 0 0 0 0 0 0 0 0 0 0 0 127 0" result="hardAlpha"/>
<feOffset/>
<feGaussianBlur stdDeviation="1.34482"/>
<feColorMatrix type="matrix" values="0 0 0 0 0.219608 0 0 0 0 1 0 0 0 0 0.494118 0 0 0 1 0"/>
<feBlend mode="normal" in2="effect4_dropShadow_292_398" result="effect5_dropShadow_292_398"/>
<feColorMatrix in="SourceAlpha" type="matrix" values="0 0 0 0 0 0 0 0 0 0 0 0 0 0 0 0 0 0 127 0" result="hardAlpha"/>
<feOffset/>
<feGaussianBlur stdDeviation="2.35343"/>
<feColorMatrix type="matrix" values="0 0 0 0 0.219608 0 0 0 0 1 0 0 0 0 0.494118 0 0 0 1 0"/>
<feBlend mode="normal" in2="effect5_dropShadow_292_398" result="effect6_dropShadow_292_398"/>
<feBlend mode="normal" in="SourceGraphic" in2="effect6_dropShadow_292_398" result="shape"/>
</filter>
<filter id="filter13_dddddd_292_398" x="617.293" y="154.293" width="10.2765" height="10.2765" filterUnits="userSpaceOnUse" color-interpolation-filters="sRGB">
<feFlood flood-opacity="0" result="BackgroundImageFix"/>
<feColorMatrix in="SourceAlpha" type="matrix" values="0 0 0 0 0 0 0 0 0 0 0 0 0 0 0 0 0 0 127 0" result="hardAlpha"/>
<feOffset/>
<feGaussianBlur stdDeviation="0.0560341"/>
<feColorMatrix type="matrix" values="0 0 0 0 0.219608 0 0 0 0 1 0 0 0 0 0.494118 0 0 0 1 0"/>
<feBlend mode="normal" in2="BackgroundImageFix" result="effect1_dropShadow_292_398"/>
<feColorMatrix in="SourceAlpha" type="matrix" values="0 0 0 0 0 0 0 0 0 0 0 0 0 0 0 0 0 0 127 0" result="hardAlpha"/>
<feOffset/>
<feGaussianBlur stdDeviation="0.112068"/>
<feColorMatrix type="matrix" values="0 0 0 0 0.219608 0 0 0 0 1 0 0 0 0 0.494118 0 0 0 1 0"/>
<feBlend mode="normal" in2="effect1_dropShadow_292_398" result="effect2_dropShadow_292_398"/>
<feColorMatrix in="SourceAlpha" type="matrix" values="0 0 0 0 0 0 0 0 0 0 0 0 0 0 0 0 0 0 127 0" result="hardAlpha"/>
<feOffset/>
<feGaussianBlur stdDeviation="0.392239"/>
<feColorMatrix type="matrix" values="0 0 0 0 0.219608 0 0 0 0 1 0 0 0 0 0.494118 0 0 0 1 0"/>
<feBlend mode="normal" in2="effect2_dropShadow_292_398" result="effect3_dropShadow_292_398"/>
<feColorMatrix in="SourceAlpha" type="matrix" values="0 0 0 0 0 0 0 0 0 0 0 0 0 0 0 0 0 0 127 0" result="hardAlpha"/>
<feOffset/>
<feGaussianBlur stdDeviation="0.784478"/>
<feColorMatrix type="matrix" values="0 0 0 0 0.219608 0 0 0 0 1 0 0 0 0 0.494118 0 0 0 1 0"/>
<feBlend mode="normal" in2="effect3_dropShadow_292_398" result="effect4_dropShadow_292_398"/>
<feColorMatrix in="SourceAlpha" type="matrix" values="0 0 0 0 0 0 0 0 0 0 0 0 0 0 0 0 0 0 127 0" result="hardAlpha"/>
<feOffset/>
<feGaussianBlur stdDeviation="1.34482"/>
<feColorMatrix type="matrix" values="0 0 0 0 0.219608 0 0 0 0 1 0 0 0 0 0.494118 0 0 0 1 0"/>
<feBlend mode="normal" in2="effect4_dropShadow_292_398" result="effect5_dropShadow_292_398"/>
<feColorMatrix in="SourceAlpha" type="matrix" values="0 0 0 0 0 0 0 0 0 0 0 0 0 0 0 0 0 0 127 0" result="hardAlpha"/>
<feOffset/>
<feGaussianBlur stdDeviation="2.35343"/>
<feColorMatrix type="matrix" values="0 0 0 0 0.219608 0 0 0 0 1 0 0 0 0 0.494118 0 0 0 1 0"/>
<feBlend mode="normal" in2="effect5_dropShadow_292_398" result="effect6_dropShadow_292_398"/>
<feBlend mode="normal" in="SourceGraphic" in2="effect6_dropShadow_292_398" result="shape"/>
</filter>
<filter id="filter14_dddddd_292_398" x="651.293" y="140.293" width="10.2765" height="10.2765" filterUnits="userSpaceOnUse" color-interpolation-filters="sRGB">
<feFlood flood-opacity="0" result="BackgroundImageFix"/>
<feColorMatrix in="SourceAlpha" type="matrix" values="0 0 0 0 0 0 0 0 0 0 0 0 0 0 0 0 0 0 127 0" result="hardAlpha"/>
<feOffset/>
<feGaussianBlur stdDeviation="0.0560341"/>
<feColorMatrix type="matrix" values="0 0 0 0 0.219608 0 0 0 0 1 0 0 0 0 0.494118 0 0 0 1 0"/>
<feBlend mode="normal" in2="BackgroundImageFix" result="effect1_dropShadow_292_398"/>
<feColorMatrix in="SourceAlpha" type="matrix" values="0 0 0 0 0 0 0 0 0 0 0 0 0 0 0 0 0 0 127 0" result="hardAlpha"/>
<feOffset/>
<feGaussianBlur stdDeviation="0.112068"/>
<feColorMatrix type="matrix" values="0 0 0 0 0.219608 0 0 0 0 1 0 0 0 0 0.494118 0 0 0 1 0"/>
<feBlend mode="normal" in2="effect1_dropShadow_292_398" result="effect2_dropShadow_292_398"/>
<feColorMatrix in="SourceAlpha" type="matrix" values="0 0 0 0 0 0 0 0 0 0 0 0 0 0 0 0 0 0 127 0" result="hardAlpha"/>
<feOffset/>
<feGaussianBlur stdDeviation="0.392239"/>
<feColorMatrix type="matrix" values="0 0 0 0 0.219608 0 0 0 0 1 0 0 0 0 0.494118 0 0 0 1 0"/>
<feBlend mode="normal" in2="effect2_dropShadow_292_398" result="effect3_dropShadow_292_398"/>
<feColorMatrix in="SourceAlpha" type="matrix" values="0 0 0 0 0 0 0 0 0 0 0 0 0 0 0 0 0 0 127 0" result="hardAlpha"/>
<feOffset/>
<feGaussianBlur stdDeviation="0.784478"/>
<feColorMatrix type="matrix" values="0 0 0 0 0.219608 0 0 0 0 1 0 0 0 0 0.494118 0 0 0 1 0"/>
<feBlend mode="normal" in2="effect3_dropShadow_292_398" result="effect4_dropShadow_292_398"/>
<feColorMatrix in="SourceAlpha" type="matrix" values="0 0 0 0 0 0 0 0 0 0 0 0 0 0 0 0 0 0 127 0" result="hardAlpha"/>
<feOffset/>
<feGaussianBlur stdDeviation="1.34482"/>
<feColorMatrix type="matrix" values="0 0 0 0 0.219608 0 0 0 0 1 0 0 0 0 0.494118 0 0 0 1 0"/>
<feBlend mode="normal" in2="effect4_dropShadow_292_398" result="effect5_dropShadow_292_398"/>
<feColorMatrix in="SourceAlpha" type="matrix" values="0 0 0 0 0 0 0 0 0 0 0 0 0 0 0 0 0 0 127 0" result="hardAlpha"/>
<feOffset/>
<feGaussianBlur stdDeviation="2.35343"/>
<feColorMatrix type="matrix" values="0 0 0 0 0.219608 0 0 0 0 1 0 0 0 0 0.494118 0 0 0 1 0"/>
<feBlend mode="normal" in2="effect5_dropShadow_292_398" result="effect6_dropShadow_292_398"/>
<feBlend mode="normal" in="SourceGraphic" in2="effect6_dropShadow_292_398" result="shape"/>
</filter>
<filter id="filter15_dddddd_292_398" x="607.293" y="108.293" width="10.2765" height="10.2765" filterUnits="userSpaceOnUse" color-interpolation-filters="sRGB">
<feFlood flood-opacity="0" result="BackgroundImageFix"/>
<feColorMatrix in="SourceAlpha" type="matrix" values="0 0 0 0 0 0 0 0 0 0 0 0 0 0 0 0 0 0 127 0" result="hardAlpha"/>
<feOffset/>
<feGaussianBlur stdDeviation="0.0560341"/>
<feColorMatrix type="matrix" values="0 0 0 0 0.219608 0 0 0 0 1 0 0 0 0 0.494118 0 0 0 1 0"/>
<feBlend mode="normal" in2="BackgroundImageFix" result="effect1_dropShadow_292_398"/>
<feColorMatrix in="SourceAlpha" type="matrix" values="0 0 0 0 0 0 0 0 0 0 0 0 0 0 0 0 0 0 127 0" result="hardAlpha"/>
<feOffset/>
<feGaussianBlur stdDeviation="0.112068"/>
<feColorMatrix type="matrix" values="0 0 0 0 0.219608 0 0 0 0 1 0 0 0 0 0.494118 0 0 0 1 0"/>
<feBlend mode="normal" in2="effect1_dropShadow_292_398" result="effect2_dropShadow_292_398"/>
<feColorMatrix in="SourceAlpha" type="matrix" values="0 0 0 0 0 0 0 0 0 0 0 0 0 0 0 0 0 0 127 0" result="hardAlpha"/>
<feOffset/>
<feGaussianBlur stdDeviation="0.392239"/>
<feColorMatrix type="matrix" values="0 0 0 0 0.219608 0 0 0 0 1 0 0 0 0 0.494118 0 0 0 1 0"/>
<feBlend mode="normal" in2="effect2_dropShadow_292_398" result="effect3_dropShadow_292_398"/>
<feColorMatrix in="SourceAlpha" type="matrix" values="0 0 0 0 0 0 0 0 0 0 0 0 0 0 0 0 0 0 127 0" result="hardAlpha"/>
<feOffset/>
<feGaussianBlur stdDeviation="0.784478"/>
<feColorMatrix type="matrix" values="0 0 0 0 0.219608 0 0 0 0 1 0 0 0 0 0.494118 0 0 0 1 0"/>
<feBlend mode="normal" in2="effect3_dropShadow_292_398" result="effect4_dropShadow_292_398"/>
<feColorMatrix in="SourceAlpha" type="matrix" values="0 0 0 0 0 0 0 0 0 0 0 0 0 0 0 0 0 0 127 0" result="hardAlpha"/>
<feOffset/>
<feGaussianBlur stdDeviation="1.34482"/>
<feColorMatrix type="matrix" values="0 0 0 0 0.219608 0 0 0 0 1 0 0 0 0 0.494118 0 0 0 1 0"/>
<feBlend mode="normal" in2="effect4_dropShadow_292_398" result="effect5_dropShadow_292_398"/>
<feColorMatrix in="SourceAlpha" type="matrix" values="0 0 0 0 0 0 0 0 0 0 0 0 0 0 0 0 0 0 127 0" result="hardAlpha"/>
<feOffset/>
<feGaussianBlur stdDeviation="2.35343"/>
<feColorMatrix type="matrix" values="0 0 0 0 0.219608 0 0 0 0 1 0 0 0 0 0.494118 0 0 0 1 0"/>
<feBlend mode="normal" in2="effect5_dropShadow_292_398" result="effect6_dropShadow_292_398"/>
<feBlend mode="normal" in="SourceGraphic" in2="effect6_dropShadow_292_398" result="shape"/>
</filter>
<filter id="filter16_dddddd_292_398" x="638.155" y="152.394" width="10.2765" height="10.2765" filterUnits="userSpaceOnUse" color-interpolation-filters="sRGB">
<feFlood flood-opacity="0" result="BackgroundImageFix"/>
<feColorMatrix in="SourceAlpha" type="matrix" values="0 0 0 0 0 0 0 0 0 0 0 0 0 0 0 0 0 0 127 0" result="hardAlpha"/>
<feOffset/>
<feGaussianBlur stdDeviation="0.0560341"/>
<feColorMatrix type="matrix" values="0 0 0 0 0.219608 0 0 0 0 1 0 0 0 0 0.494118 0 0 0 1 0"/>
<feBlend mode="normal" in2="BackgroundImageFix" result="effect1_dropShadow_292_398"/>
<feColorMatrix in="SourceAlpha" type="matrix" values="0 0 0 0 0 0 0 0 0 0 0 0 0 0 0 0 0 0 127 0" result="hardAlpha"/>
<feOffset/>
<feGaussianBlur stdDeviation="0.112068"/>
<feColorMatrix type="matrix" values="0 0 0 0 0.219608 0 0 0 0 1 0 0 0 0 0.494118 0 0 0 1 0"/>
<feBlend mode="normal" in2="effect1_dropShadow_292_398" result="effect2_dropShadow_292_398"/>
<feColorMatrix in="SourceAlpha" type="matrix" values="0 0 0 0 0 0 0 0 0 0 0 0 0 0 0 0 0 0 127 0" result="hardAlpha"/>
<feOffset/>
<feGaussianBlur stdDeviation="0.392239"/>
<feColorMatrix type="matrix" values="0 0 0 0 0.219608 0 0 0 0 1 0 0 0 0 0.494118 0 0 0 1 0"/>
<feBlend mode="normal" in2="effect2_dropShadow_292_398" result="effect3_dropShadow_292_398"/>
<feColorMatrix in="SourceAlpha" type="matrix" values="0 0 0 0 0 0 0 0 0 0 0 0 0 0 0 0 0 0 127 0" result="hardAlpha"/>
<feOffset/>
<feGaussianBlur stdDeviation="0.784478"/>
<feColorMatrix type="matrix" values="0 0 0 0 0.219608 0 0 0 0 1 0 0 0 0 0.494118 0 0 0 1 0"/>
<feBlend mode="normal" in2="effect3_dropShadow_292_398" result="effect4_dropShadow_292_398"/>
<feColorMatrix in="SourceAlpha" type="matrix" values="0 0 0 0 0 0 0 0 0 0 0 0 0 0 0 0 0 0 127 0" result="hardAlpha"/>
<feOffset/>
<feGaussianBlur stdDeviation="1.34482"/>
<feColorMatrix type="matrix" values="0 0 0 0 0.219608 0 0 0 0 1 0 0 0 0 0.494118 0 0 0 1 0"/>
<feBlend mode="normal" in2="effect4_dropShadow_292_398" result="effect5_dropShadow_292_398"/>
<feColorMatrix in="SourceAlpha" type="matrix" values="0 0 0 0 0 0 0 0 0 0 0 0 0 0 0 0 0 0 127 0" result="hardAlpha"/>
<feOffset/>
<feGaussianBlur stdDeviation="2.35343"/>
<feColorMatrix type="matrix" values="0 0 0 0 0.219608 0 0 0 0 1 0 0 0 0 0.494118 0 0 0 1 0"/>
<feBlend mode="normal" in2="effect5_dropShadow_292_398" result="effect6_dropShadow_292_398"/>
<feBlend mode="normal" in="SourceGraphic" in2="effect6_dropShadow_292_398" result="shape"/>
</filter>
<filter id="filter17_dddddd_292_398" x="596.586" y="110.586" width="21.2337" height="21.2337" filterUnits="userSpaceOnUse" color-interpolation-filters="sRGB">
<feFlood flood-opacity="0" result="BackgroundImageFix"/>
<feColorMatrix in="SourceAlpha" type="matrix" values="0 0 0 0 0 0 0 0 0 0 0 0 0 0 0 0 0 0 127 0" result="hardAlpha"/>
<feOffset/>
<feGaussianBlur stdDeviation="0.112068"/>
<feColorMatrix type="matrix" values="0 0 0 0 0.219608 0 0 0 0 1 0 0 0 0 0.494118 0 0 0 1 0"/>
<feBlend mode="normal" in2="BackgroundImageFix" result="effect1_dropShadow_292_398"/>
<feColorMatrix in="SourceAlpha" type="matrix" values="0 0 0 0 0 0 0 0 0 0 0 0 0 0 0 0 0 0 127 0" result="hardAlpha"/>
<feOffset/>
<feGaussianBlur stdDeviation="0.224137"/>
<feColorMatrix type="matrix" values="0 0 0 0 0.219608 0 0 0 0 1 0 0 0 0 0.494118 0 0 0 1 0"/>
<feBlend mode="normal" in2="effect1_dropShadow_292_398" result="effect2_dropShadow_292_398"/>
<feColorMatrix in="SourceAlpha" type="matrix" values="0 0 0 0 0 0 0 0 0 0 0 0 0 0 0 0 0 0 127 0" result="hardAlpha"/>
<feOffset/>
<feGaussianBlur stdDeviation="0.784478"/>
<feColorMatrix type="matrix" values="0 0 0 0 0.219608 0 0 0 0 1 0 0 0 0 0.494118 0 0 0 1 0"/>
<feBlend mode="normal" in2="effect2_dropShadow_292_398" result="effect3_dropShadow_292_398"/>
<feColorMatrix in="SourceAlpha" type="matrix" values="0 0 0 0 0 0 0 0 0 0 0 0 0 0 0 0 0 0 127 0" result="hardAlpha"/>
<feOffset/>
<feGaussianBlur stdDeviation="1.56896"/>
<feColorMatrix type="matrix" values="0 0 0 0 0.219608 0 0 0 0 1 0 0 0 0 0.494118 0 0 0 1 0"/>
<feBlend mode="normal" in2="effect3_dropShadow_292_398" result="effect4_dropShadow_292_398"/>
<feColorMatrix in="SourceAlpha" type="matrix" values="0 0 0 0 0 0 0 0 0 0 0 0 0 0 0 0 0 0 127 0" result="hardAlpha"/>
<feOffset/>
<feGaussianBlur stdDeviation="2.68964"/>
<feColorMatrix type="matrix" values="0 0 0 0 0.219608 0 0 0 0 1 0 0 0 0 0.494118 0 0 0 1 0"/>
<feBlend mode="normal" in2="effect4_dropShadow_292_398" result="effect5_dropShadow_292_398"/>
<feColorMatrix in="SourceAlpha" type="matrix" values="0 0 0 0 0 0 0 0 0 0 0 0 0 0 0 0 0 0 127 0" result="hardAlpha"/>
<feOffset/>
<feGaussianBlur stdDeviation="4.70687"/>
<feColorMatrix type="matrix" values="0 0 0 0 0.219608 0 0 0 0 1 0 0 0 0 0.494118 0 0 0 1 0"/>
<feBlend mode="normal" in2="effect5_dropShadow_292_398" result="effect6_dropShadow_292_398"/>
<feBlend mode="normal" in="SourceGraphic" in2="effect6_dropShadow_292_398" result="shape"/>
</filter>
<filter id="filter18_dd_292_398" x="632.544" y="156.23" width="31.8505" height="31.8506" filterUnits="userSpaceOnUse" color-interpolation-filters="sRGB">
<feFlood flood-opacity="0" result="BackgroundImageFix"/>
<feColorMatrix in="SourceAlpha" type="matrix" values="0 0 0 0 0 0 0 0 0 0 0 0 0 0 0 0 0 0 127 0" result="hardAlpha"/>
<feOffset/>
<feGaussianBlur stdDeviation="4.03446"/>
<feColorMatrix type="matrix" values="0 0 0 0 0.219608 0 0 0 0 1 0 0 0 0 0.494118 0 0 0 1 0"/>
<feBlend mode="normal" in2="BackgroundImageFix" result="effect1_dropShadow_292_398"/>
<feColorMatrix in="SourceAlpha" type="matrix" values="0 0 0 0 0 0 0 0 0 0 0 0 0 0 0 0 0 0 127 0" result="hardAlpha"/>
<feOffset/>
<feGaussianBlur stdDeviation="7.0603"/>
<feColorMatrix type="matrix" values="0 0 0 0 0.219608 0 0 0 0 1 0 0 0 0 0.494118 0 0 0 1 0"/>
<feBlend mode="normal" in2="effect1_dropShadow_292_398" result="effect2_dropShadow_292_398"/>
<feBlend mode="normal" in="SourceGraphic" in2="effect2_dropShadow_292_398" result="shape"/>
</filter>
<linearGradient id="paint0_linear_292_398" x1="344" y1="36.794" x2="326.535" y2="213.272" gradientUnits="userSpaceOnUse">
<stop stop-color="#050C08"/>
<stop offset="1" stop-color="#060D09"/>
</linearGradient>
<linearGradient id="paint1_linear_292_398" x1="344" y1="2" x2="344" y2="78.8573" gradientUnits="userSpaceOnUse">
<stop stop-color="#0A160F"/>
<stop offset="0.394524" stop-color="#08100B"/>
<stop offset="0.94278" stop-color="#060D08"/>
</linearGradient>
<linearGradient id="paint2_linear_292_398" x1="27.3762" y1="40.0322" x2="27.3762" y2="46.3763" gradientUnits="userSpaceOnUse">
<stop stop-color="#38FF7E"/>
<stop offset="1" stop-color="#28CF63"/>
</linearGradient>
<linearGradient id="paint3_linear_292_398" x1="44.8224" y1="40.0322" x2="44.8224" y2="46.3763" gradientUnits="userSpaceOnUse">
<stop stop-color="#38FF7E"/>
<stop offset="1" stop-color="#28CF63"/>
</linearGradient>
<linearGradient id="paint4_linear_292_398" x1="62.2685" y1="40.0322" x2="62.2685" y2="46.3763" gradientUnits="userSpaceOnUse">
<stop stop-color="#38FF7E"/>
<stop offset="1" stop-color="#28CF63"/>
</linearGradient>
<linearGradient id="paint5_linear_292_398" x1="47.2958" y1="101.062" x2="47.2958" y2="130.062" gradientUnits="userSpaceOnUse">
<stop offset="0.00010993" stop-color="#131313"/>
<stop offset="1" stop-color="#0C0C0C"/>
</linearGradient>
<linearGradient id="paint6_linear_292_398" x1="35.3233" y1="101.062" x2="51.1999" y2="127.767" gradientUnits="userSpaceOnUse">
<stop stop-color="#111613"/>
<stop offset="1" stop-color="#030B06"/>
</linearGradient>
<linearGradient id="paint7_linear_292_398" x1="40.6896" y1="111.314" x2="53.9719" y2="121.645" gradientUnits="userSpaceOnUse">
<stop offset="0.340709" stop-color="#D8FEE5"/>
<stop offset="1" stop-color="#C0E4CD"/>
</linearGradient>
<linearGradient id="paint8_linear_292_398" x1="630.796" y1="101.062" x2="630.796" y2="167.062" gradientUnits="userSpaceOnUse">
<stop offset="0.00010993" stop-color="#131313"/>
<stop offset="1" stop-color="#0C0C0C"/>
</linearGradient>
<linearGradient id="paint9_linear_292_398" x1="630.796" y1="103.062" x2="630.796" y2="165.062" gradientUnits="userSpaceOnUse">
<stop stop-color="#131313"/>
<stop offset="1" stop-color="#0C321C"/>
</linearGradient>
<linearGradient id="paint10_linear_292_398" x1="621.196" y1="131.227" x2="621.196" y2="117.13" gradientUnits="userSpaceOnUse">
<stop stop-color="#38FF7E"/>
<stop offset="0.152076" stop-color="#0CF25D"/>
<stop offset="1" stop-color="#038C3E"/>
</linearGradient>
<linearGradient id="paint11_linear_292_398" x1="640.136" y1="131.127" x2="640.136" y2="117.161" gradientUnits="userSpaceOnUse">
<stop stop-color="#38FF7E"/>
<stop offset="0.152076" stop-color="#0CF25D"/>
<stop offset="1" stop-color="#038C3E"/>
</linearGradient>
<linearGradient id="paint12_linear_292_398" x1="621.271" y1="150.635" x2="621.271" y2="136.939" gradientUnits="userSpaceOnUse">
<stop stop-color="#38FF7E"/>
<stop offset="0.152076" stop-color="#0CF25D"/>
<stop offset="1" stop-color="#038C3E"/>
</linearGradient>
<linearGradient id="paint13_linear_292_398" x1="640.165" y1="150.514" x2="640.165" y2="136.868" gradientUnits="userSpaceOnUse">
<stop stop-color="#38FF7E"/>
<stop offset="0.152076" stop-color="#0CF25D"/>
<stop offset="1" stop-color="#038C3E"/>
</linearGradient>
<linearGradient id="paint14_linear_292_398" x1="616.941" y1="138.084" x2="616.941" y2="129.324" gradientUnits="userSpaceOnUse">
<stop stop-color="#38FF7E"/>
<stop offset="0.152076" stop-color="#0CF25D"/>
<stop offset="1" stop-color="#038C3E"/>
</linearGradient>
<linearGradient id="paint15_linear_292_398" x1="644.6" y1="137.972" x2="644.6" y2="129.331" gradientUnits="userSpaceOnUse">
<stop stop-color="#38FF7E"/>
<stop offset="0.152076" stop-color="#0CF25D"/>
<stop offset="1" stop-color="#038C3E"/>
</linearGradient>
<linearGradient id="paint16_linear_292_398" x1="630.695" y1="156.455" x2="630.695" y2="139.372" gradientUnits="userSpaceOnUse">
<stop stop-color="#38FF7E"/>
<stop offset="0.152076" stop-color="#0CF25D"/>
<stop offset="1" stop-color="#038C3E"/>
</linearGradient>
<linearGradient id="paint17_linear_292_398" x1="630.687" y1="128.577" x2="630.687" y2="111.474" gradientUnits="userSpaceOnUse">
<stop stop-color="#38FF7E"/>
<stop offset="0.152076" stop-color="#0CF25D"/>
<stop offset="1" stop-color="#038C3E"/>
</linearGradient>
<linearGradient id="paint18_linear_292_398" x1="610.975" y1="147.802" x2="610.975" y2="137.362" gradientUnits="userSpaceOnUse">
<stop stop-color="#38FF7E"/>
<stop offset="0.152076" stop-color="#0CF25D"/>
<stop offset="1" stop-color="#038C3E"/>
</linearGradient>
<linearGradient id="paint19_linear_292_398" x1="650.182" y1="147.785" x2="650.182" y2="137.351" gradientUnits="userSpaceOnUse">
<stop stop-color="#38FF7E"/>
<stop offset="0.152076" stop-color="#0CF25D"/>
<stop offset="1" stop-color="#038C3E"/>
</linearGradient>
<linearGradient id="paint20_linear_292_398" x1="611.244" y1="130.085" x2="611.244" y2="119.485" gradientUnits="userSpaceOnUse">
<stop stop-color="#38FF7E"/>
<stop offset="0.152076" stop-color="#0CF25D"/>
<stop offset="1" stop-color="#038C3E"/>
</linearGradient>
<linearGradient id="paint21_linear_292_398" x1="650.093" y1="130.102" x2="650.093" y2="119.432" gradientUnits="userSpaceOnUse">
<stop stop-color="#38FF7E"/>
<stop offset="0.152076" stop-color="#0CF25D"/>
<stop offset="1" stop-color="#038C3E"/>
</linearGradient>
<linearGradient id="paint22_linear_292_398" x1="622.123" y1="156.839" x2="622.123" y2="149.436" gradientUnits="userSpaceOnUse">
<stop stop-color="#38FF7E"/>
<stop offset="0.152076" stop-color="#0CF25D"/>
<stop offset="1" stop-color="#038C3E"/>
</linearGradient>
<linearGradient id="paint23_linear_292_398" x1="639.272" y1="156.91" x2="639.272" y2="149.583" gradientUnits="userSpaceOnUse">
<stop stop-color="#38FF7E"/>
<stop offset="0.152076" stop-color="#0CF25D"/>
<stop offset="1" stop-color="#038C3E"/>
</linearGradient>
<linearGradient id="paint24_linear_292_398" x1="622.056" y1="117.688" x2="622.056" y2="110.565" gradientUnits="userSpaceOnUse">
<stop stop-color="#38FF7E"/>
<stop offset="0.152076" stop-color="#0CF25D"/>
<stop offset="1" stop-color="#038C3E"/>
</linearGradient>
<linearGradient id="paint25_linear_292_398" x1="639.353" y1="117.556" x2="639.353" y2="110.645" gradientUnits="userSpaceOnUse">
<stop stop-color="#38FF7E"/>
<stop offset="0.152076" stop-color="#0CF25D"/>
<stop offset="1" stop-color="#038C3E"/>
</linearGradient>
<clipPath id="clip0_292_398">
<rect x="2" y="2" width="684" height="213" rx="26.645" fill="white"/>
</clipPath>
<clipPath id="clip1_292_398">
<rect x="599.796" y="103.062" width="62" height="62" rx="19" fill="white"/>
</clipPath>
</defs>
</svg>
