<svg width="50" height="89" viewBox="0 0 50 89" fill="none" xmlns="http://www.w3.org/2000/svg">
<g id="Frame" clip-path="url(#clip0_4039_1789)">
<rect width="50" height="89" fill="#08150D"/>
<g id="Group">
<g id="icon-0" clip-path="url(#clip1_4039_1789)">
<g id="Group_2">
<path id="Compound Path" d="M47.0745 52.6544H44.2481C41.1918 52.7582 38.1897 53.4562 35.4249 54.706C32.6601 55.9558 30.1905 57.7311 28.1669 59.9236V41.9372C32.0275 41.5896 35.6142 39.879 38.2271 37.1393C40.84 34.3996 42.2917 30.8273 42.2988 27.1194V17.8C42.2988 16.5642 41.7854 15.379 40.8716 14.5051C39.9577 13.6312 38.7182 13.1403 37.4258 13.1403H35.9638V2.79581C35.9638 2.05432 35.6558 1.34319 35.1075 0.818874C34.5591 0.294558 33.8155 0 33.04 0C32.2645 0 31.5209 0.294558 30.9725 0.818874C30.4242 1.34319 30.1162 2.05432 30.1162 2.79581V13.1403H20.37V2.79581C20.37 2.05432 20.0619 1.34319 19.5136 0.818874C18.9653 0.294558 18.2216 0 17.4461 0C16.6707 0 15.927 0.294558 15.3787 0.818874C14.8303 1.34319 14.5223 2.05432 14.5223 2.79581V13.1403H13.1578C11.8654 13.1403 10.6259 13.6312 9.71205 14.5051C8.79817 15.379 8.28476 16.5642 8.28476 17.8V27.1194C8.28954 30.8127 9.72759 34.3729 12.3204 37.1104C14.9132 39.8479 18.4761 41.5678 22.3192 41.9372V46.6901C20.2917 44.3716 17.7783 42.4853 14.9412 41.153C12.1042 39.8206 9.00657 39.0719 5.84822 38.955H3.02184C2.62354 38.9477 2.22789 39.0184 1.85918 39.1626C1.49047 39.3069 1.15647 39.5216 0.877684 39.7937C0.59312 40.0603 0.368527 40.3797 0.217691 40.7322C0.0668544 41.0848 -0.0070458 41.4631 0.000528576 41.844V44.4534C0.243099 49.9474 2.64735 55.151 6.73179 59.0221C10.8162 62.8931 16.2793 65.1457 22.0268 65.3288H22.4167V86.2042C22.4167 86.9457 22.7247 87.6568 23.2731 88.1811C23.8214 88.7054 24.5651 89 25.3405 89C26.116 89 26.8597 88.7054 27.408 88.1811C27.9563 87.6568 28.2644 86.9457 28.2644 86.2042V79.0283C33.9605 78.7767 39.3514 76.4938 43.3744 72.6297C47.3975 68.7656 49.7607 63.6006 49.9983 58.1529V55.5435C50.0119 55.1606 49.943 54.7791 49.796 54.4227C49.649 54.0663 49.4269 53.7426 49.1436 53.4717C48.8603 53.2008 48.5218 52.9885 48.1491 52.8479C47.7764 52.7073 47.3774 52.6415 46.977 52.6544H47.0745ZM6.04315 44.6398C10.1404 44.9018 13.9991 46.5766 16.9028 49.3531C19.8064 52.1296 21.5579 55.8193 21.8319 59.7372C17.7346 59.4751 13.876 57.8004 10.9723 55.0239C8.06864 52.2473 6.31719 48.5576 6.04315 44.6398ZM14.1325 27.1194V18.7319H36.5486V27.1194C36.5486 29.591 35.5218 31.9614 33.694 33.7092C31.8663 35.4569 29.3873 36.4387 26.8025 36.4387H23.8786C21.2938 36.4387 18.8148 35.4569 16.987 33.7092C15.1593 31.9614 14.1325 29.591 14.1325 27.1194ZM28.2644 73.4366C28.518 69.512 30.2629 65.8112 33.1707 63.0307C36.0785 60.2503 39.9487 58.5818 44.0532 58.3393C43.7995 62.264 42.0546 65.9647 39.1468 68.7452C36.239 71.5256 32.3688 73.1941 28.2644 73.4366Z" fill="white"/>
</g>
</g>
</g>
</g>
<defs>
<clipPath id="clip0_4039_1789">
<rect width="50" height="89" fill="white"/>
</clipPath>
<clipPath id="clip1_4039_1789">
<rect width="50" height="89" fill="white"/>
</clipPath>
</defs>
</svg>
