<svg width="146" height="65" viewBox="0 0 146 65" fill="none" xmlns="http://www.w3.org/2000/svg">
<g filter="url(#filter0_d_274_202)">
<rect x="5.5551" y="5.5551" width="134.89" height="54.1961" rx="8.32657" stroke="url(#paint0_linear_274_202)" stroke-width="1.11021" stroke-linejoin="bevel" shape-rendering="crispEdges"/>
<rect x="11.1061" y="11.1064" width="122.89" height="43.094" rx="4.99594" fill="#0C1711" fill-opacity="0.55"/>
<rect x="11.1061" y="11.1064" width="122.89" height="43.094" rx="4.99594" stroke="#16261E" stroke-width="1.11021"/>
<path d="M29.3094 36.885C28.6658 36.885 28.0582 36.7408 27.4867 36.4525C26.9203 36.1642 26.3874 35.7626 25.888 35.2477L27.0233 33.649C27.4918 34.0815 27.9295 34.3956 28.3362 34.5912C28.743 34.7817 29.1317 34.877 29.5024 34.877C29.6826 34.877 29.8732 34.8615 30.074 34.8306C30.2799 34.7946 30.4833 34.7457 30.6841 34.6839C30.8849 34.6221 31.0754 34.55 31.2556 34.4677C31.441 34.3801 31.6006 34.2874 31.7344 34.1896L29.2707 28.2428L31.1011 27.4782C31.1887 27.7047 31.2865 27.9467 31.3946 28.2041C31.5027 28.4616 31.6186 28.7396 31.7422 29.0383L33.6807 33.7108C33.7528 33.8858 33.8274 34.048 33.9047 34.1973C33.987 34.3415 34.0797 34.4677 34.1827 34.5758C34.2908 34.6788 34.4118 34.7611 34.5457 34.8229C34.6847 34.8796 34.8443 34.9079 35.0245 34.9079H35.2022V36.885H35.0245C34.7002 36.885 34.4195 36.8593 34.1827 36.8078C33.951 36.7614 33.7476 36.6971 33.5726 36.6147C33.3975 36.5272 33.243 36.4268 33.1092 36.3135C32.9753 36.1951 32.8466 36.0689 32.723 35.9351C32.4759 36.1204 32.2236 36.2749 31.9661 36.3985C31.7087 36.522 31.4384 36.6199 31.1552 36.6919C30.872 36.764 30.5785 36.8129 30.2748 36.8387C29.971 36.8696 29.6492 36.885 29.3094 36.885ZM34.8956 34.9079H36.5406C36.7826 34.9079 37.0426 34.895 37.3207 34.8693C37.6038 34.8384 37.8639 34.7792 38.1007 34.6916C38.3427 34.599 38.5409 34.4677 38.6954 34.2977C38.855 34.1278 38.9348 33.9013 38.9348 33.6181C38.9348 33.4842 38.9065 33.2963 38.8499 33.0543C38.7932 32.8123 38.7186 32.5446 38.6259 32.2511C38.5332 31.9576 38.4225 31.6538 38.2938 31.3398C38.1702 31.0257 38.0389 30.7322 37.8999 30.4593L39.684 29.5789C39.8127 29.8724 39.9414 30.1839 40.0701 30.5134C40.1988 30.8429 40.3121 31.1827 40.4099 31.5328C40.5129 31.8778 40.5953 32.2254 40.6571 32.5755C40.7189 32.9256 40.7498 33.268 40.7498 33.6027C40.7498 34.1999 40.6391 34.7071 40.4177 35.1241C40.1963 35.5412 39.8925 35.881 39.5063 36.1436C39.1253 36.401 38.6774 36.589 38.1625 36.7074C37.6528 36.8258 37.107 36.885 36.5252 36.885H34.8956V34.9079ZM37.7686 39.1711L36.4557 40.484L35.1273 39.1634L36.4402 37.8427L37.7686 39.1711ZM40.688 39.1788L39.375 40.4995L38.0466 39.1711L39.3596 37.8581L40.688 39.1788ZM45.5288 36.885C44.8852 36.885 44.2777 36.7408 43.7061 36.4525C43.1398 36.1642 42.6069 35.7626 42.1074 35.2477L43.2428 33.649C43.7113 34.0815 44.1489 34.3956 44.5557 34.5912C44.9625 34.7817 45.3512 34.877 45.7219 34.877C45.9021 34.877 46.0926 34.8615 46.2934 34.8306C46.4994 34.7946 46.7027 34.7457 46.9035 34.6839C47.1044 34.6221 47.2949 34.55 47.4751 34.4677C47.6604 34.3801 47.82 34.2874 47.9539 34.1896L45.4902 28.2428L47.3206 27.4782C47.4081 27.7047 47.506 27.9467 47.6141 28.2041C47.7222 28.4616 47.8381 28.7396 47.9616 29.0383L49.9001 33.7108C49.9722 33.8858 50.0469 34.048 50.1241 34.1973C50.2065 34.3415 50.2992 34.4677 50.4022 34.5758C50.5103 34.6788 50.6313 34.7611 50.7651 34.8229C50.9042 34.8796 51.0638 34.9079 51.244 34.9079H51.4216V36.885H51.244C50.9196 36.885 50.639 36.8593 50.4022 36.8078C50.1705 36.7614 49.9671 36.6971 49.792 36.6147C49.617 36.5272 49.4625 36.4268 49.3286 36.3135C49.1948 36.1951 49.066 36.0689 48.9425 35.9351C48.6953 36.1204 48.443 36.2749 48.1856 36.3985C47.9282 36.522 47.6578 36.6199 47.3747 36.6919C47.0915 36.764 46.798 36.8129 46.4942 36.8387C46.1904 36.8696 45.8686 36.885 45.5288 36.885ZM51.115 34.9079H52.791C53.4294 34.9079 54.0782 34.8487 54.7372 34.7302C55.4014 34.6067 56.0605 34.4471 56.7144 34.2514C57.3683 34.0506 58.0067 33.8215 58.6297 33.564C59.2527 33.3066 59.8422 33.0414 60.3983 32.7686C59.9555 32.6707 59.5436 32.542 59.1626 32.3824C58.7816 32.2176 58.4212 32.058 58.0814 31.9036C57.7415 31.7491 57.4146 31.6152 57.1005 31.502C56.7864 31.3887 56.4749 31.332 56.166 31.332C55.9858 31.332 55.8159 31.3655 55.6563 31.4324C55.5018 31.4942 55.3576 31.574 55.2238 31.6719C55.0899 31.7697 54.9689 31.8778 54.8608 31.9962C54.7578 32.1147 54.6651 32.2305 54.5828 32.3438C54.5055 32.4519 54.4412 32.5497 54.3897 32.6373C54.3382 32.7248 54.3021 32.7866 54.2815 32.8226L52.6751 31.78C52.8502 31.4711 53.0587 31.1724 53.3007 30.8841C53.5427 30.5906 53.8104 30.3306 54.1039 30.1041C54.4025 29.8724 54.7243 29.6896 55.0693 29.5557C55.4143 29.4167 55.7798 29.3472 56.166 29.3472C56.5625 29.3472 56.9563 29.4012 57.3477 29.5094C57.739 29.6123 58.1251 29.7462 58.5061 29.911C58.8923 30.0706 59.2785 30.2431 59.6646 30.4284C60.0508 30.6138 60.4395 30.7888 60.8308 30.9536C61.2273 31.1132 61.6263 31.2497 62.0279 31.3629C62.4295 31.4711 62.8414 31.5277 63.2636 31.5328L63.1014 33.5254C62.3806 33.8704 61.6289 34.236 60.8463 34.6221C60.0636 35.0083 59.245 35.3661 58.3903 35.6956C57.5356 36.02 56.6423 36.2955 55.7103 36.522C54.7836 36.7434 53.8104 36.8644 52.791 36.885H51.115V34.9079ZM58.9695 39.3796L57.4867 40.8625L56.0115 39.3796L57.4867 37.9045L58.9695 39.3796ZM72.6572 36.885C72.1371 36.885 71.6686 36.8181 71.2515 36.6842C70.8396 36.5555 70.487 36.3676 70.1935 36.1204C69.9051 35.8681 69.6812 35.5618 69.5216 35.2014C69.3671 34.8409 69.2899 34.4316 69.2899 33.9734C69.2899 32.9951 69.7275 31.9756 70.6028 30.915C70.7521 30.7399 70.886 30.5906 71.0044 30.467C71.128 30.3383 71.2412 30.2225 71.3442 30.1195C71.2721 30.0629 71.2001 30.0062 71.128 29.9496C71.0559 29.8878 70.9632 29.8054 70.8499 29.7024L72.1011 28.1733C72.307 28.3329 72.5748 28.562 72.9043 28.8606C73.2338 29.1592 73.6329 29.5634 74.1014 30.0732C75.3938 31.5509 76.0399 32.8509 76.0399 33.9734C76.0399 34.4574 75.9601 34.8821 75.8005 35.2477C75.646 35.6081 75.4221 35.9119 75.1286 36.159C74.8403 36.401 74.4876 36.5812 74.0705 36.6997C73.6535 36.8232 73.1823 36.885 72.6572 36.885ZM74.3022 33.9734C74.3022 33.8292 74.2533 33.6464 74.1555 33.425C74.0576 33.2036 73.9263 32.9668 73.7616 32.7145C73.5968 32.4622 73.4063 32.2073 73.1901 31.9499C72.979 31.6925 72.7576 31.453 72.5259 31.2316C72.3766 31.381 72.2169 31.5689 72.047 31.7954C71.8771 32.022 71.7175 32.264 71.5682 32.5214C71.424 32.7737 71.303 33.0286 71.2052 33.286C71.1074 33.5383 71.0585 33.7674 71.0585 33.9734C71.0585 34.1433 71.1125 34.2874 71.2207 34.4059C71.3339 34.5191 71.4729 34.6118 71.6377 34.6839C71.8025 34.756 71.975 34.8075 72.1552 34.8384C72.3405 34.8693 72.5079 34.8847 72.6572 34.8847C72.8374 34.8847 73.0253 34.8718 73.221 34.8461C73.4166 34.8203 73.5942 34.774 73.7539 34.7071C73.9135 34.635 74.0448 34.5397 74.1477 34.4213C74.2507 34.3029 74.3022 34.1536 74.3022 33.9734ZM81.5352 36.885H81.2263C80.1811 36.885 79.3881 36.6224 78.8475 36.0973C78.3069 35.5721 78.034 34.7792 78.0289 33.7185C78.0289 33.5537 78.034 33.2834 78.0443 32.9076C78.0546 32.5266 78.0598 32.0632 78.0598 31.5174C78.0598 31.193 78.0572 30.8455 78.052 30.4748C78.0469 30.0989 78.0392 29.7179 78.0289 29.3317C78.0186 28.9404 78.0031 28.5517 77.9825 28.1655C77.9671 27.7742 77.9465 27.3984 77.9207 27.0379C77.895 26.6724 77.8641 26.3326 77.8281 26.0185C77.792 25.6993 77.7508 25.4186 77.7045 25.1767L79.643 24.5974C79.6996 24.896 79.7511 25.2616 79.7975 25.6941C79.8438 26.1215 79.885 26.5797 79.921 27.0688C79.9571 27.558 79.9828 28.0574 79.9983 28.5671C80.0189 29.0717 80.0292 29.548 80.0292 29.9959C80.0292 30.2688 80.0317 30.5597 80.0369 30.8686C80.042 31.1724 80.0446 31.4402 80.0446 31.6719C80.0446 31.8675 80.042 32.0529 80.0369 32.2279C80.0369 32.3978 80.0343 32.5626 80.0292 32.7222C80.0292 32.8818 80.0266 33.0389 80.0214 33.1933C80.0214 33.3478 80.0214 33.5048 80.0214 33.6644C80.0214 33.7056 80.0214 33.7468 80.0214 33.788C80.0214 33.9734 80.0395 34.1381 80.0755 34.2823C80.1167 34.4265 80.1862 34.5475 80.284 34.6453C80.3819 34.738 80.5054 34.8049 80.6547 34.8461C80.8092 34.8873 80.9868 34.9079 81.1876 34.9079H81.5352V36.885ZM88.1185 34.9079V36.885H87.9641C87.4646 36.885 87.0424 36.8052 86.6975 36.6456C86.3525 36.486 86.059 36.28 85.817 36.0277C85.6471 36.244 85.3948 36.4113 85.0602 36.5297C84.7306 36.643 84.3625 36.7254 83.9557 36.7769C83.549 36.8335 83.1294 36.8644 82.6969 36.8696C82.2695 36.8799 81.8756 36.885 81.5152 36.885H81.2295V34.9079H81.5152C82.1176 34.9079 82.6248 34.8744 83.0367 34.8075C83.4486 34.7354 83.7807 34.6324 84.033 34.4985C84.2904 34.3647 84.4758 34.1973 84.589 33.9965C84.7023 33.7906 84.759 33.5537 84.759 33.286C84.759 33.1109 84.7255 32.8793 84.6586 32.5909C84.5916 32.2974 84.4912 31.9216 84.3573 31.4633L86.2573 30.9304C86.3242 31.157 86.3757 31.3578 86.4117 31.5328C86.4529 31.7028 86.4838 31.8752 86.5044 32.0503C86.5301 32.2202 86.5507 32.4056 86.5662 32.6064C86.5868 32.802 86.6074 33.0363 86.628 33.3092C86.6434 33.4739 86.682 33.6516 86.7438 33.8421C86.8056 34.0274 86.8906 34.1999 86.9987 34.3595C87.112 34.514 87.2484 34.6453 87.408 34.7534C87.5676 34.8564 87.753 34.9079 87.9641 34.9079H88.1185ZM84.1025 39.1711L82.7895 40.484L81.4612 39.1634L82.7741 37.8427L84.1025 39.1711ZM87.0218 39.1788L85.7089 40.4995L84.3805 39.1711L85.6935 37.8581L87.0218 39.1788ZM87.804 34.9079H88.7694C89.0217 34.9079 89.2817 34.9053 89.5494 34.9002C89.8223 34.895 90.0849 34.877 90.3372 34.8461C90.5895 34.8152 90.8289 34.7663 91.0554 34.6994C91.282 34.6324 91.4802 34.5372 91.6501 34.4136C91.82 34.2849 91.9539 34.1253 92.0517 33.9348C92.1496 33.7391 92.1985 33.4997 92.1985 33.2165C92.1985 32.8458 92.1084 32.4674 91.9282 32.0812C91.748 31.6899 91.5008 31.2909 91.1867 30.8841C90.8727 30.4722 90.5019 30.05 90.0746 29.6175C89.6524 29.185 89.1967 28.7448 88.7076 28.2968L88.9161 26.451L95.0638 23.717L95.8438 25.5551L90.8083 27.733C91.04 27.9287 91.2691 28.1346 91.4957 28.3509C91.7274 28.5671 91.9616 28.8066 92.1985 29.0691C92.5537 29.4656 92.8549 29.8621 93.1021 30.2585C93.3492 30.6498 93.5475 31.0283 93.6968 31.3938C93.8512 31.7594 93.9619 32.1069 94.0289 32.4365C94.101 32.766 94.137 33.0672 94.137 33.3401C94.137 33.8807 94.034 34.3698 93.8281 34.8075C93.6273 35.2451 93.3544 35.6184 93.0094 35.9273C92.6644 36.2311 92.2628 36.468 91.8046 36.6379C91.3515 36.8026 90.8752 36.885 90.3758 36.885H87.804V34.9079ZM94.7085 23.0219L88.7771 25.6323L88.8312 24.6515L94.3687 22.2418L94.7085 23.0219Z" fill="#D8FEE5"/>
<path d="M114.176 27.0283C114.176 26.6831 113.896 26.4033 113.551 26.4033C113.206 26.4033 112.926 26.6831 112.926 27.0283V32.0283H107.926C107.581 32.0283 107.301 32.3081 107.301 32.6533C107.301 32.9985 107.581 33.2783 107.926 33.2783H112.926V38.2783C112.926 38.6235 113.206 38.9033 113.551 38.9033C113.896 38.9033 114.176 38.6235 114.176 38.2783V33.2783H119.176C119.521 33.2783 119.801 32.9985 119.801 32.6533C119.801 32.3081 119.521 32.0283 119.176 32.0283H114.176V27.0283Z" fill="#D8FEE5"/>
</g>
<defs>
<filter id="filter0_d_274_202" x="0.559165" y="0.559165" width="144.882" height="64.1878" filterUnits="userSpaceOnUse" color-interpolation-filters="sRGB">
<feFlood flood-opacity="0" result="BackgroundImageFix"/>
<feColorMatrix in="SourceAlpha" type="matrix" values="0 0 0 0 0 0 0 0 0 0 0 0 0 0 0 0 0 0 127 0" result="hardAlpha"/>
<feOffset/>
<feGaussianBlur stdDeviation="2.22042"/>
<feComposite in2="hardAlpha" operator="out"/>
<feColorMatrix type="matrix" values="0 0 0 0 0.220833 0 0 0 0 1 0 0 0 0 0.495236 0 0 0 0.45 0"/>
<feBlend mode="normal" in2="BackgroundImageFix" result="effect1_dropShadow_274_202"/>
<feBlend mode="normal" in="SourceGraphic" in2="effect1_dropShadow_274_202" result="shape"/>
</filter>
<linearGradient id="paint0_linear_274_202" x1="5" y1="5" x2="146.407" y2="32.8956" gradientUnits="userSpaceOnUse">
<stop stop-color="#38FF7E"/>
<stop offset="0.268924" stop-color="#177A3A"/>
<stop offset="0.70092" stop-color="#1D8943"/>
<stop offset="1" stop-color="#23994D"/>
</linearGradient>
</defs>
</svg>
