<svg width="46" height="46" viewBox="0 0 46 46" fill="none" xmlns="http://www.w3.org/2000/svg">
<path d="M38.0333 29.0613C37.7047 28.6812 37.2982 28.3764 36.8413 28.1674C36.3845 27.9585 35.888 27.8504 35.3856 27.8504C34.8832 27.8504 34.3868 27.9585 33.9299 28.1674C33.473 28.3764 33.0665 28.6812 32.7379 29.0613C31.5008 30.2833 30.2638 31.5203 29.0418 32.7725C28.9269 32.9288 28.7561 33.0349 28.5651 33.0686C28.374 33.1023 28.1774 33.0611 28.0159 32.9536C27.2163 32.5161 26.3564 32.1691 25.587 31.6863C22.0562 29.398 18.9267 26.5437 16.3239 23.2379C14.965 21.6358 13.8422 19.8475 12.9898 17.9275C12.8971 17.7683 12.8659 17.5806 12.902 17.4C12.9381 17.2193 13.0391 17.0582 13.1859 16.9469C14.423 15.7399 15.6299 14.518 16.8519 13.2809C17.2507 12.9496 17.5717 12.5345 17.792 12.0652C18.0122 11.5958 18.1264 11.0838 18.1264 10.5653C18.1264 10.0469 18.0122 9.53477 17.792 9.06543C17.5717 8.5961 17.2507 8.18102 16.8519 7.84974L13.9402 4.93807C12.9445 3.94237 11.9488 2.93158 10.923 1.92079C10.5917 1.54515 10.1843 1.24431 9.72776 1.03824C9.27126 0.832175 8.77613 0.725586 8.27528 0.725586C7.77443 0.725586 7.2793 0.832175 6.82281 1.03824C6.36631 1.24431 5.95889 1.54515 5.62761 1.92079C4.37543 3.14279 3.1836 4.41002 1.90126 5.61693C0.772277 6.68172 0.0969306 8.14054 0.0154767 9.69029C-0.0919936 12.2319 0.361271 14.766 1.34309 17.1128C3.22478 21.9913 5.93488 26.5082 9.35396 30.4643C13.8541 35.8682 19.4551 40.2503 25.7831 43.3179C28.5951 44.7904 31.6723 45.6879 34.835 45.9581C35.8944 46.0772 36.9669 45.9422 37.9638 45.5644C38.9608 45.1866 39.8533 44.5769 40.5678 43.7856C41.6238 42.5938 42.8157 41.5076 43.9472 40.3761C44.3384 40.0433 44.6527 39.6294 44.8682 39.1631C45.0837 38.6968 45.1954 38.1893 45.1954 37.6756C45.1954 37.1619 45.0837 36.6544 44.8682 36.1881C44.6527 35.7219 44.3384 35.308 43.9472 34.9752C41.996 33.0039 40.0247 31.0325 38.0333 29.0613Z" fill="white" fill-opacity="0.46"/>
</svg>
