<svg width="501" height="522" viewBox="0 0 501 522" fill="none" xmlns="http://www.w3.org/2000/svg">
<rect x="1.4449" y="1.4449" width="498.11" height="519.11" rx="27.2001" fill="url(#paint0_linear_274_117)"/>
<rect x="1.4449" y="1.4449" width="498.11" height="519.11" rx="27.2001" stroke="#1C3023" stroke-width="1.11021"/>
<mask id="path-2-inside-1_274_117" fill="white">
<path d="M2 28.65C2 13.9316 13.9316 2 28.65 2H472.35C487.068 2 499 13.9316 499 28.65V78.8573H2V28.65Z"/>
</mask>
<path d="M2 28.65C2 13.9316 13.9316 2 28.65 2H472.35C487.068 2 499 13.9316 499 28.65V78.8573H2V28.65Z" fill="url(#paint1_linear_274_117)"/>
<path d="M2 2H499H2ZM499 79.9675H2V77.7471H499V79.9675ZM2 78.8573V2V78.8573ZM499 2V78.8573V2Z" fill="#1B261F" mask="url(#path-2-inside-1_274_117)"/>
<g filter="url(#filter0_ddd_274_117)">
<circle cx="27.3762" cy="43.2043" r="3.17203" fill="url(#paint2_linear_274_117)"/>
<circle cx="27.3762" cy="43.2043" r="3.02784" stroke="#38FF7E" stroke-width="0.288366"/>
</g>
<g filter="url(#filter1_ddd_274_117)">
<circle cx="44.8223" cy="43.2043" r="3.17203" fill="url(#paint3_linear_274_117)"/>
<circle cx="44.8223" cy="43.2043" r="3.02784" stroke="#38FF7E" stroke-width="0.288366"/>
</g>
<g filter="url(#filter2_ddd_274_117)">
<circle cx="62.2685" cy="43.2043" r="3.17203" fill="url(#paint4_linear_274_117)"/>
<circle cx="62.2685" cy="43.2043" r="3.02784" stroke="#38FF7E" stroke-width="0.288366"/>
</g>
<g filter="url(#filter3_d_274_117)">
<path d="M392.657 56.6963C391.586 56.6963 390.612 56.5363 389.735 56.2163C388.859 55.8963 388.107 55.4371 387.481 54.8389C386.862 54.2406 386.382 53.5102 386.041 52.6476C385.7 51.7919 385.53 50.825 385.53 49.7467C385.53 48.6406 385.69 47.545 386.01 46.4598C386.337 45.3745 386.824 44.345 387.471 43.3711L389.526 44.8632C389.401 45.0371 389.245 45.2945 389.057 45.6354C388.876 45.9763 388.702 46.3693 388.535 46.8145C388.368 47.2598 388.222 47.7398 388.097 48.2545C387.979 48.7693 387.919 49.2876 387.919 49.8093C387.919 50.4284 388.048 50.9919 388.306 51.4998C388.57 52.0076 388.925 52.4424 389.37 52.8041C389.815 53.1728 390.33 53.458 390.914 53.6598C391.506 53.8684 392.128 53.9798 392.782 53.9937C392.817 53.9937 392.852 53.9937 392.886 53.9937C393.373 53.9937 393.85 53.945 394.316 53.8476C394.789 53.7571 395.238 53.6145 395.662 53.4198C396.086 53.2319 396.472 53.0024 396.82 52.7311C397.168 52.4598 397.464 52.1571 397.707 51.8232C397.951 51.4893 398.139 51.1276 398.271 50.738C398.375 50.4041 398.427 50.0563 398.427 49.6945C398.427 49.6389 398.427 49.5798 398.427 49.5171C398.413 49.1971 398.358 48.8424 398.26 48.4528C398.17 48.0563 398.059 47.6563 397.926 47.2528C397.794 46.8493 397.652 46.4563 397.499 46.0737C397.352 45.6841 397.213 45.3398 397.081 45.0406C396.949 44.7415 396.838 44.5015 396.747 44.3206C396.657 44.1398 396.608 44.0493 396.601 44.0493L399.053 42.6824C399.074 42.7171 399.147 42.8945 399.272 43.2145C399.405 43.5276 399.572 43.9206 399.773 44.3937C400.038 44.9989 400.295 45.4684 400.546 45.8024C400.803 46.1293 401.053 46.3728 401.297 46.5328C401.54 46.6858 401.777 46.7763 402.006 46.8041C402.243 46.8319 402.469 46.8458 402.685 46.8458H403.029V49.5171H402.685C402.309 49.5171 401.968 49.4789 401.662 49.4024C401.356 49.3328 401.092 49.2354 400.869 49.1102C400.876 49.2424 400.879 49.3745 400.879 49.5067C400.879 50.0076 400.831 50.5328 400.733 51.0824C400.636 51.6389 400.452 52.1989 400.18 52.7624C399.916 53.3258 399.565 53.8476 399.126 54.3276C398.688 54.8076 398.159 55.2215 397.54 55.5693C396.928 55.9241 396.215 56.1989 395.401 56.3937C394.587 56.5954 393.672 56.6963 392.657 56.6963ZM395.005 42.4528L393.001 44.4563L391.008 42.4528L393.001 40.4598L395.005 42.4528ZM402.847 46.8458C403.354 46.8458 403.796 46.7519 404.172 46.5641C404.547 46.3693 404.878 46.1189 405.163 45.8128C405.455 45.5067 405.709 45.1624 405.925 44.7798C406.147 44.3971 406.356 44.0145 406.551 43.6319C406.746 43.2284 406.958 42.8284 407.187 42.4319C407.417 42.0354 407.678 41.6806 407.97 41.3676C408.262 41.0476 408.596 40.7902 408.972 40.5954C409.347 40.3937 409.782 40.2928 410.276 40.2928C410.721 40.2928 411.128 40.3624 411.497 40.5015C411.873 40.6337 412.207 40.8215 412.499 41.065C412.798 41.3015 413.059 41.5798 413.281 41.8998C413.504 42.2128 413.688 42.5537 413.834 42.9224C413.981 43.2841 414.088 43.6598 414.158 44.0493C414.234 44.4389 414.273 44.825 414.273 45.2076C414.273 45.5624 414.241 45.9067 414.179 46.2406C414.123 46.5745 414.036 46.898 413.918 47.2111C413.786 47.545 413.612 47.8476 413.396 48.1189C413.187 48.3902 412.947 48.6232 412.676 48.818C412.405 49.0058 412.113 49.1519 411.8 49.2563C411.487 49.3606 411.16 49.4128 410.819 49.4128C410.527 49.4128 410.217 49.3745 409.89 49.298C409.57 49.2284 409.243 49.1311 408.909 49.0058C408.763 48.9432 408.6 48.8702 408.419 48.7867C408.238 48.6963 408.054 48.5989 407.866 48.4945C407.678 48.3902 407.49 48.2824 407.302 48.1711C407.121 48.0528 406.951 47.938 406.791 47.8267C406.241 48.3693 405.65 48.7867 405.017 49.0789C404.391 49.3711 403.667 49.5171 402.847 49.5171H402.638V46.8458H402.847ZM408.356 45.625C408.544 45.7502 408.777 45.8893 409.055 46.0424C409.341 46.1954 409.636 46.3345 409.942 46.4598C410.248 46.585 410.551 46.6789 410.85 46.7415C411.017 46.7832 411.17 46.8041 411.309 46.8041C411.421 46.8041 411.521 46.7902 411.612 46.7624C411.681 46.7484 411.754 46.7067 411.831 46.6371C411.914 46.5606 411.987 46.4598 412.05 46.3345C412.12 46.2093 412.175 46.0632 412.217 45.8963C412.245 45.7571 412.259 45.6041 412.259 45.4371C412.259 45.4024 412.259 45.3676 412.259 45.3328C412.259 45.0198 412.203 44.7067 412.092 44.3937C411.987 44.0737 411.841 43.7919 411.654 43.5484C411.466 43.305 411.243 43.1171 410.986 42.985C410.812 42.9015 410.624 42.8598 410.422 42.8598C410.325 42.8598 410.224 42.8702 410.12 42.8911C410.022 42.9119 409.925 42.9676 409.827 43.058C409.737 43.1415 409.626 43.2876 409.494 43.4963C409.361 43.698 409.205 43.9728 409.024 44.3206C408.843 44.6615 408.621 45.0963 408.356 45.625ZM427.953 48.0563C427.584 48.0563 427.212 48.0319 426.836 47.9832C426.468 47.9345 426.113 47.8545 425.772 47.7432C425.431 47.6319 425.111 47.4928 424.812 47.3258C424.52 47.1519 424.262 46.9432 424.04 46.6998C423.824 46.4563 423.654 46.1745 423.528 45.8545C423.403 45.5345 423.341 45.1728 423.341 44.7693C423.341 44.338 423.417 43.9276 423.57 43.538C423.723 43.1484 423.928 42.7832 424.186 42.4424C424.443 42.1015 424.742 41.785 425.083 41.4928C425.424 41.2006 425.782 40.9363 426.158 40.6998C426.534 40.4563 426.913 40.2406 427.295 40.0528C427.685 39.858 428.054 39.6911 428.402 39.5519L428.266 37.9658L430.906 37.4024C430.913 37.465 430.927 37.6041 430.948 37.8198C430.968 38.0284 430.993 38.2789 431.021 38.5711C431.055 38.8632 431.09 39.1763 431.125 39.5102C431.16 39.8371 431.191 40.1467 431.219 40.4389C431.254 40.7241 431.282 40.9745 431.302 41.1902C431.323 41.3989 431.337 41.5276 431.344 41.5763C431.448 42.4667 431.542 43.1937 431.626 43.7571C431.716 44.3206 431.793 44.7693 431.855 45.1032C431.918 45.4302 431.97 45.6632 432.012 45.8024C432.061 45.9345 432.095 46.0215 432.116 46.0632C432.186 46.2163 432.266 46.345 432.356 46.4493C432.447 46.5467 432.551 46.6267 432.669 46.6893C432.788 46.745 432.927 46.7867 433.087 46.8145C433.247 46.8354 433.435 46.8458 433.65 46.8458H433.859V49.5171H433.65C433.282 49.5102 432.934 49.4963 432.607 49.4754C432.287 49.4615 431.977 49.4024 431.678 49.298C431.386 49.2006 431.108 49.0441 430.843 48.8284C430.579 48.6128 430.328 48.2998 430.092 47.8893C429.695 47.945 429.323 47.9867 428.975 48.0145C428.628 48.0424 428.287 48.0563 427.953 48.0563ZM429.163 45.3119C429.128 45.1241 429.094 44.9015 429.059 44.6441C429.024 44.3867 428.989 44.1084 428.955 43.8093C428.92 43.5032 428.882 43.1867 428.84 42.8598C428.805 42.5328 428.767 42.2058 428.725 41.8789C428.544 41.9554 428.342 42.0528 428.12 42.1711C427.897 42.2893 427.668 42.4215 427.431 42.5676C427.195 42.7137 426.962 42.8737 426.732 43.0476C426.509 43.2145 426.311 43.3884 426.137 43.5693C425.963 43.7432 425.821 43.9206 425.709 44.1015C425.605 44.2824 425.553 44.4563 425.553 44.6232C425.553 44.7763 425.629 44.905 425.782 45.0093C425.935 45.1067 426.127 45.1867 426.356 45.2493C426.593 45.305 426.847 45.3467 427.118 45.3745C427.389 45.3954 427.647 45.4058 427.89 45.4058C428.113 45.4058 428.335 45.3989 428.558 45.385C428.781 45.3641 428.982 45.3398 429.163 45.3119ZM433.435 46.8458H435.553C436.409 46.8458 437.271 46.7624 438.141 46.5954C439.01 46.4215 439.866 46.1989 440.708 45.9276C441.55 45.6493 442.367 45.3398 443.16 44.9989C443.953 44.6511 444.701 44.3032 445.403 43.9554C445.118 43.9206 444.819 43.8511 444.506 43.7467C444.2 43.6354 443.883 43.5102 443.557 43.3711C443.23 43.225 442.896 43.0719 442.555 42.9119C442.214 42.7519 441.873 42.6093 441.532 42.4841C441.191 42.3519 440.847 42.2441 440.499 42.1606C440.158 42.0702 439.824 42.025 439.497 42.025C439.24 42.025 438.993 42.0737 438.757 42.1711C438.527 42.2615 438.308 42.3798 438.099 42.5258C437.897 42.665 437.713 42.818 437.546 42.985C437.386 43.1519 437.247 43.3084 437.129 43.4545C437.017 43.5937 436.93 43.7119 436.868 43.8093L436.763 43.9554L434.677 42.818C434.92 42.3589 435.226 41.9206 435.595 41.5032C435.97 41.0789 436.377 40.7067 436.816 40.3867C437.254 40.0598 437.703 39.8024 438.162 39.6145C438.628 39.4198 439.073 39.3224 439.497 39.3224C439.852 39.3224 440.207 39.3641 440.562 39.4476C440.923 39.5241 441.285 39.6284 441.647 39.7606C442.016 39.8928 442.384 40.0424 442.753 40.2093C443.129 40.3763 443.511 40.5467 443.901 40.7206C444.304 40.9154 444.746 41.1102 445.226 41.305C445.706 41.4928 446.2 41.6632 446.708 41.8163C447.216 41.9624 447.723 42.0841 448.231 42.1815C448.746 42.2719 449.237 42.3171 449.703 42.3171L449.254 44.8632C448.99 44.9745 448.736 45.0963 448.492 45.2284C448.249 45.3537 447.998 45.4754 447.741 45.5937C447.88 45.8858 448.089 46.1154 448.367 46.2824C448.645 46.4493 448.937 46.5745 449.243 46.658C449.557 46.7415 449.856 46.7937 450.141 46.8145C450.433 46.8354 450.663 46.8458 450.83 46.8458H451.247V49.5171H450.83C449.466 49.5171 448.311 49.2806 447.365 48.8076C446.419 48.3345 445.737 47.6632 445.32 46.7937C444.617 47.1415 443.89 47.4789 443.139 47.8058C442.388 48.1328 441.609 48.425 440.802 48.6824C439.995 48.9328 439.153 49.1345 438.277 49.2876C437.407 49.4406 436.499 49.5171 435.553 49.5171H433.435V46.8458ZM441.543 53.0545L443.317 51.2806L445.111 53.065L443.337 54.8493L441.543 53.0545ZM437.598 53.0441L439.372 51.2598L441.167 53.0545L439.393 54.8284L437.598 53.0441ZM442.983 56.0702L441.355 57.698L439.717 56.0598L441.355 54.4319L442.983 56.0702ZM460.175 43.3919C459.925 43.0998 459.632 42.8354 459.298 42.5989C459.02 42.3971 458.697 42.2163 458.328 42.0563C457.959 41.8893 457.556 41.8058 457.118 41.8058C456.763 41.8058 456.45 41.8615 456.178 41.9728C455.907 42.0771 455.678 42.2232 455.49 42.4111C455.302 42.5919 455.156 42.8041 455.052 43.0476C454.947 43.2911 454.885 43.5519 454.864 43.8302C454.857 43.8789 454.853 43.9276 454.853 43.9763C454.853 44.3032 454.94 44.6232 455.114 44.9363C455.288 45.2424 455.532 45.5171 455.845 45.7606C456.158 45.9971 456.519 46.178 456.93 46.3032C457.264 46.4076 457.601 46.4598 457.942 46.4598C458.018 46.4598 458.095 46.4563 458.172 46.4493C458.575 46.4215 458.978 46.3798 459.382 46.3241C459.792 46.2615 460.165 46.2024 460.498 46.1467L461.615 45.9276L461.938 48.5258C461.507 48.6371 461.024 48.7519 460.488 48.8702C459.952 48.9884 459.337 49.0963 458.641 49.1937C457.952 49.2841 457.17 49.3606 456.293 49.4232C455.417 49.4858 454.422 49.5171 453.309 49.5171H450.825V46.8458H451.285L453.278 46.8354C452.902 46.3971 452.645 45.9484 452.505 45.4893C452.373 45.0232 452.307 44.5119 452.307 43.9554C452.307 43.3015 452.429 42.6824 452.672 42.098C452.916 41.5137 453.25 41.0024 453.674 40.5641C454.105 40.1258 454.613 39.778 455.198 39.5206C455.789 39.2632 456.429 39.1345 457.118 39.1345C457.458 39.1345 457.785 39.1658 458.098 39.2284C458.418 39.2911 458.721 39.3745 459.006 39.4789C459.292 39.5832 459.559 39.7015 459.81 39.8337C460.067 39.9658 460.3 40.098 460.509 40.2302C460.752 40.3902 460.989 40.5606 461.218 40.7415C461.448 40.9224 461.664 41.1137 461.865 41.3154L460.175 43.3919ZM459.215 35.5137L457.212 37.5171L455.218 35.5137L457.212 33.5206L459.215 35.5137ZM469.356 49.5171H468.938C467.526 49.5171 466.455 49.1624 465.724 48.4528C464.994 47.7432 464.625 46.6719 464.618 45.2389C464.618 45.0163 464.625 44.6511 464.639 44.1432C464.653 43.6284 464.66 43.0024 464.66 42.265C464.66 41.8267 464.657 41.3571 464.65 40.8563C464.643 40.3484 464.632 39.8337 464.618 39.3119C464.604 38.7832 464.584 38.258 464.556 37.7363C464.535 37.2076 464.507 36.6998 464.472 36.2128C464.437 35.7189 464.396 35.2598 464.347 34.8354C464.298 34.4041 464.243 34.025 464.18 33.698L466.799 32.9154C466.876 33.3189 466.945 33.8128 467.008 34.3971C467.07 34.9745 467.126 35.5937 467.175 36.2545C467.224 36.9154 467.258 37.5902 467.279 38.2789C467.307 38.9606 467.321 39.6041 467.321 40.2093C467.321 40.578 467.324 40.9711 467.331 41.3884C467.338 41.7989 467.342 42.1606 467.342 42.4737C467.342 42.738 467.338 42.9884 467.331 43.225C467.331 43.4545 467.328 43.6771 467.321 43.8928C467.321 44.1084 467.317 44.3206 467.31 44.5293C467.31 44.738 467.31 44.9502 467.31 45.1658C467.31 45.2215 467.31 45.2771 467.31 45.3328C467.31 45.5832 467.335 45.8058 467.384 46.0006C467.439 46.1954 467.533 46.3589 467.665 46.4911C467.797 46.6163 467.964 46.7067 468.166 46.7624C468.375 46.818 468.615 46.8458 468.886 46.8458H469.356V49.5171ZM468.943 46.8458H470.623C470.95 46.8458 471.283 46.8284 471.624 46.7937C471.972 46.7519 472.285 46.6719 472.563 46.5537C472.842 46.4284 473.068 46.2511 473.242 46.0215C473.423 45.7919 473.513 45.4858 473.513 45.1032C473.513 44.9224 473.475 44.6684 473.398 44.3415C473.322 44.0145 473.221 43.6528 473.096 43.2563C472.97 42.8598 472.821 42.4493 472.647 42.025C472.48 41.6006 472.303 41.2041 472.115 40.8354L474.525 39.6458C474.699 40.0424 474.873 40.4632 475.047 40.9084C475.221 41.3537 475.374 41.8128 475.506 42.2858C475.645 42.7519 475.757 43.2215 475.84 43.6945C475.923 44.1676 475.965 44.6302 475.965 45.0824C475.965 45.8615 475.833 46.5328 475.569 47.0963C475.304 47.6528 474.936 48.1119 474.463 48.4737C473.99 48.8284 473.423 49.0893 472.762 49.2563C472.108 49.4302 471.388 49.5171 470.602 49.5171H468.943V46.8458ZM474.317 52.9084L472.313 54.9119L470.32 52.9084L472.313 50.9154L474.317 52.9084Z" fill="white"/>
</g>
<defs>
<filter id="filter0_ddd_274_117" x="14.1552" y="29.9832" width="26.442" height="26.4422" filterUnits="userSpaceOnUse" color-interpolation-filters="sRGB">
<feFlood flood-opacity="0" result="BackgroundImageFix"/>
<feColorMatrix in="SourceAlpha" type="matrix" values="0 0 0 0 0 0 0 0 0 0 0 0 0 0 0 0 0 0 127 0" result="hardAlpha"/>
<feOffset/>
<feGaussianBlur stdDeviation="0.209354"/>
<feColorMatrix type="matrix" values="0 0 0 0 0.219608 0 0 0 0 1 0 0 0 0 0.494118 0 0 0 1 0"/>
<feBlend mode="normal" in2="BackgroundImageFix" result="effect1_dropShadow_274_117"/>
<feColorMatrix in="SourceAlpha" type="matrix" values="0 0 0 0 0 0 0 0 0 0 0 0 0 0 0 0 0 0 127 0" result="hardAlpha"/>
<feOffset/>
<feGaussianBlur stdDeviation="1.46548"/>
<feColorMatrix type="matrix" values="0 0 0 0 0.219608 0 0 0 0 1 0 0 0 0 0.494118 0 0 0 1 0"/>
<feBlend mode="normal" in2="effect1_dropShadow_274_117" result="effect2_dropShadow_274_117"/>
<feColorMatrix in="SourceAlpha" type="matrix" values="0 0 0 0 0 0 0 0 0 0 0 0 0 0 0 0 0 0 127 0" result="hardAlpha"/>
<feOffset/>
<feGaussianBlur stdDeviation="5.02449"/>
<feColorMatrix type="matrix" values="0 0 0 0 0.219608 0 0 0 0 1 0 0 0 0 0.494118 0 0 0 1 0"/>
<feBlend mode="normal" in2="effect2_dropShadow_274_117" result="effect3_dropShadow_274_117"/>
<feBlend mode="normal" in="SourceGraphic" in2="effect3_dropShadow_274_117" result="shape"/>
</filter>
<filter id="filter1_ddd_274_117" x="31.6013" y="29.9832" width="26.442" height="26.4422" filterUnits="userSpaceOnUse" color-interpolation-filters="sRGB">
<feFlood flood-opacity="0" result="BackgroundImageFix"/>
<feColorMatrix in="SourceAlpha" type="matrix" values="0 0 0 0 0 0 0 0 0 0 0 0 0 0 0 0 0 0 127 0" result="hardAlpha"/>
<feOffset/>
<feGaussianBlur stdDeviation="0.209354"/>
<feColorMatrix type="matrix" values="0 0 0 0 0.219608 0 0 0 0 1 0 0 0 0 0.494118 0 0 0 1 0"/>
<feBlend mode="normal" in2="BackgroundImageFix" result="effect1_dropShadow_274_117"/>
<feColorMatrix in="SourceAlpha" type="matrix" values="0 0 0 0 0 0 0 0 0 0 0 0 0 0 0 0 0 0 127 0" result="hardAlpha"/>
<feOffset/>
<feGaussianBlur stdDeviation="1.46548"/>
<feColorMatrix type="matrix" values="0 0 0 0 0.219608 0 0 0 0 1 0 0 0 0 0.494118 0 0 0 1 0"/>
<feBlend mode="normal" in2="effect1_dropShadow_274_117" result="effect2_dropShadow_274_117"/>
<feColorMatrix in="SourceAlpha" type="matrix" values="0 0 0 0 0 0 0 0 0 0 0 0 0 0 0 0 0 0 127 0" result="hardAlpha"/>
<feOffset/>
<feGaussianBlur stdDeviation="5.02449"/>
<feColorMatrix type="matrix" values="0 0 0 0 0.219608 0 0 0 0 1 0 0 0 0 0.494118 0 0 0 1 0"/>
<feBlend mode="normal" in2="effect2_dropShadow_274_117" result="effect3_dropShadow_274_117"/>
<feBlend mode="normal" in="SourceGraphic" in2="effect3_dropShadow_274_117" result="shape"/>
</filter>
<filter id="filter2_ddd_274_117" x="49.0475" y="29.9832" width="26.442" height="26.4422" filterUnits="userSpaceOnUse" color-interpolation-filters="sRGB">
<feFlood flood-opacity="0" result="BackgroundImageFix"/>
<feColorMatrix in="SourceAlpha" type="matrix" values="0 0 0 0 0 0 0 0 0 0 0 0 0 0 0 0 0 0 127 0" result="hardAlpha"/>
<feOffset/>
<feGaussianBlur stdDeviation="0.209354"/>
<feColorMatrix type="matrix" values="0 0 0 0 0.219608 0 0 0 0 1 0 0 0 0 0.494118 0 0 0 1 0"/>
<feBlend mode="normal" in2="BackgroundImageFix" result="effect1_dropShadow_274_117"/>
<feColorMatrix in="SourceAlpha" type="matrix" values="0 0 0 0 0 0 0 0 0 0 0 0 0 0 0 0 0 0 127 0" result="hardAlpha"/>
<feOffset/>
<feGaussianBlur stdDeviation="1.46548"/>
<feColorMatrix type="matrix" values="0 0 0 0 0.219608 0 0 0 0 1 0 0 0 0 0.494118 0 0 0 1 0"/>
<feBlend mode="normal" in2="effect1_dropShadow_274_117" result="effect2_dropShadow_274_117"/>
<feColorMatrix in="SourceAlpha" type="matrix" values="0 0 0 0 0 0 0 0 0 0 0 0 0 0 0 0 0 0 127 0" result="hardAlpha"/>
<feOffset/>
<feGaussianBlur stdDeviation="5.02449"/>
<feColorMatrix type="matrix" values="0 0 0 0 0.219608 0 0 0 0 1 0 0 0 0 0.494118 0 0 0 1 0"/>
<feBlend mode="normal" in2="effect2_dropShadow_274_117" result="effect3_dropShadow_274_117"/>
<feBlend mode="normal" in="SourceGraphic" in2="effect3_dropShadow_274_117" result="shape"/>
</filter>
<filter id="filter3_d_274_117" x="370.53" y="17.9155" width="120.435" height="54.7827" filterUnits="userSpaceOnUse" color-interpolation-filters="sRGB">
<feFlood flood-opacity="0" result="BackgroundImageFix"/>
<feColorMatrix in="SourceAlpha" type="matrix" values="0 0 0 0 0 0 0 0 0 0 0 0 0 0 0 0 0 0 127 0" result="hardAlpha"/>
<feOffset/>
<feGaussianBlur stdDeviation="7.5"/>
<feComposite in2="hardAlpha" operator="out"/>
<feColorMatrix type="matrix" values="0 0 0 0 1 0 0 0 0 1 0 0 0 0 1 0 0 0 0.72 0"/>
<feBlend mode="normal" in2="BackgroundImageFix" result="effect1_dropShadow_274_117"/>
<feBlend mode="normal" in="SourceGraphic" in2="effect1_dropShadow_274_117" result="shape"/>
</filter>
<linearGradient id="paint0_linear_274_117" x1="250.5" y1="86.6165" x2="121.141" y2="477.152" gradientUnits="userSpaceOnUse">
<stop stop-color="#050C08"/>
<stop offset="1" stop-color="#060D09"/>
</linearGradient>
<linearGradient id="paint1_linear_274_117" x1="250.5" y1="2" x2="250.5" y2="78.8573" gradientUnits="userSpaceOnUse">
<stop stop-color="#0A160F"/>
<stop offset="0.394524" stop-color="#08100B"/>
<stop offset="0.94278" stop-color="#060D08"/>
</linearGradient>
<linearGradient id="paint2_linear_274_117" x1="27.3762" y1="40.0322" x2="27.3762" y2="46.3763" gradientUnits="userSpaceOnUse">
<stop stop-color="#38FF7E"/>
<stop offset="1" stop-color="#28CF63"/>
</linearGradient>
<linearGradient id="paint3_linear_274_117" x1="44.8223" y1="40.0322" x2="44.8223" y2="46.3763" gradientUnits="userSpaceOnUse">
<stop stop-color="#38FF7E"/>
<stop offset="1" stop-color="#28CF63"/>
</linearGradient>
<linearGradient id="paint4_linear_274_117" x1="62.2685" y1="40.0322" x2="62.2685" y2="46.3763" gradientUnits="userSpaceOnUse">
<stop stop-color="#38FF7E"/>
<stop offset="1" stop-color="#28CF63"/>
</linearGradient>
</defs>
</svg>
