<svg width="1928" height="989" viewBox="0 0 1928 989" fill="none" xmlns="http://www.w3.org/2000/svg">
<g clip-path="url(#clip0_5_64)" filter="url(#filter0_d_5_64)">
<rect width="1920" height="981" transform="translate(4)" fill="url(#paint0_linear_5_64)"/>
<path d="M1405.92 844.29L1408.49 289.074L1211.21 288.162L1212.66 -24.2999M1405.92 844.29L1620.81 845.284M1405.92 844.29L1184.99 843.269L1183.87 1084.8M1620.81 845.284L1622.04 578.071L1625.24 -112.892M1620.81 845.284L1619.99 1021.39L1831.36 1022.36L1917.43 1127.94L2008.02 1128.36M1212.66 -24.2999L1082.31 -24.9025L1082.96 -164.929M1212.66 -24.2999L1393.32 -23.4645L1394.09 -188.562M2195.23 1129.22L2008.02 1128.36M2008.02 1128.36L2010.7 549.816L2205.96 550.719" stroke="#50E083" stroke-opacity="0.15"/>
<g filter="url(#filter1_f_5_64)">
<rect x="147" y="-123" width="1636" height="322" fill="#39C66A" fill-opacity="0.08"/>
</g>
<path d="M88.5 1251.5V1084.5L-64 947.5V857H339V512H53.5M-113 512H53.5M53.5 512V322.5L2.5 271.5M-84.5 184.5L2.5 271.5M2.5 271.5V138M2.5 -39.5V138M2.5 138H517.5V-109" stroke="#50E083" stroke-opacity="0.15"/>
<g filter="url(#filter2_f_5_64)">
<path d="M1675.75 764.319H1090.98V966.449H761.886M1675.75 764.319V544.141H1861.23V327.573L1972 238.883V146.068M1675.75 764.319V990.685H1930.14M761.886 966.449V1100H614.405M761.886 966.449V781.335H588M1972 -45.7498V146.068M1972 146.068H1362.66V-54" stroke="#33E9E9" stroke-width="0.4"/>
</g>
<g filter="url(#filter3_f_5_64)">
<path d="M1675.97 764.319H1090.62V966.45H761.76M1675.97 764.319V544.141H1860.31V327.573L1971 238.883V146.068M1675.97 764.319L1674.96 990.685H1929.17M761.76 966.45V1100H614.386M761.76 966.45V781.335H588M1971 -45.7498V146.068M1971 146.068H1362.1V-54" stroke="white" stroke-width="0.2"/>
</g>
<g style="mix-blend-mode:hard-light" filter="url(#filter4_f_5_64)">
<path d="M1676.54 764.319H1091.34V966.449H762.011M1676.54 764.319V544.141H1862.15V327.573L1973 238.883V146.068M1676.54 764.319V990.685H1931.11M762.011 966.449V1100H614.424M762.011 966.449V781.335H588M1973 -45.7498V146.068M1973 146.068H1363.22V-54" stroke="#00A8A8" stroke-width="0.65"/>
</g>
<g style="mix-blend-mode:hard-light" filter="url(#filter5_f_5_64)">
<path d="M1675.75 764.319H1090.98V966.449H761.886M1675.75 764.319V544.141H1861.23V327.573L1972 238.883V146.068M1675.75 764.319V990.685H1930.14M761.886 966.449V1100H614.405M761.886 966.449V781.335H588M1972 -45.7498V146.068M1972 146.068H1362.66V-54" stroke="#00A8A8" stroke-width="0.85"/>
</g>
<g style="mix-blend-mode:hard-light" filter="url(#filter6_ddi_5_64)">
<path d="M1675.75 764.319H1090.98V966.45H761.885M1675.75 764.319V544.141H1861.23V327.573L1972 238.883V146.068M1675.75 764.319V990.685H1930.14M761.885 966.45V1100H614.405M761.885 966.45V781.335H588M1972 -45.7498V146.068M1972 146.068H1362.66V-54" stroke="#33E9C6" stroke-opacity="0.2" stroke-width="0.65"/>
</g>
<g filter="url(#filter7_f_5_64)">
<path d="M232.892 1278.75V1111.75L16.9005 974.75V884.25H587.684V539.25H183.32M-52.5 539.25H183.32M183.32 539.25V349.75L111.087 298.75M-12.1344 211.75L111.087 298.75M111.087 298.75V165.25M111.087 -12.25V165.25M111.087 165.25H840.5V-81.75" stroke="white" stroke-width="0.2"/>
</g>
<g style="mix-blend-mode:hard-light" filter="url(#filter8_f_5_64)">
<path d="M232.892 1278.75V1111.75L16.9005 974.75V884.25H587.684V539.25H183.32M-52.5 539.25H183.32M183.32 539.25V349.75L111.087 298.75M-12.1344 211.75L111.087 298.75M111.087 298.75V165.25M111.087 -12.25V165.25M111.087 165.25H840.5V-81.75" stroke="#00A8A8" stroke-width="0.65"/>
</g>
<g style="mix-blend-mode:hard-light" filter="url(#filter9_f_5_64)">
<path d="M232.892 1278.75V1111.75L16.9005 974.75V884.25H587.684V539.25H183.32M-52.5 539.25H183.32M183.32 539.25V349.75L111.087 298.75M-12.1344 211.75L111.087 298.75M111.087 298.75V165.25M111.087 -12.25V165.25M111.087 165.25H840.5V-81.75" stroke="#00A8A8" stroke-width="0.85"/>
</g>
<g style="mix-blend-mode:hard-light" filter="url(#filter10_ddi_5_64)">
<path d="M232.892 1278.75V1111.75L16.9005 974.75V884.25H587.684V539.25H183.32M-52.5 539.25H183.32M183.32 539.25V349.75L111.087 298.75M-12.1344 211.75L111.087 298.75M111.087 298.75V165.25M111.087 -12.25V165.25M111.087 165.25H840.5V-81.75" stroke="#33E9C6" stroke-opacity="0.2" stroke-width="0.65"/>
</g>
<g filter="url(#filter11_f_5_64)">
<path d="M232.892 1278.75V1111.75L16.9005 974.75V884.25H587.684V539.25H183.32M-52.5 539.25H183.32M183.32 539.25V349.75L111.087 298.75M-12.1344 211.75L111.087 298.75M111.087 298.75V165.25M111.087 -12.25V165.25M111.087 165.25H840.5V-81.75" stroke="#33E9E9" stroke-width="0.4"/>
</g>
</g>
<defs>
<filter id="filter0_d_5_64" x="0" y="0" width="1928" height="989" filterUnits="userSpaceOnUse" color-interpolation-filters="sRGB">
<feFlood flood-opacity="0" result="BackgroundImageFix"/>
<feColorMatrix in="SourceAlpha" type="matrix" values="0 0 0 0 0 0 0 0 0 0 0 0 0 0 0 0 0 0 127 0" result="hardAlpha"/>
<feOffset dy="4"/>
<feGaussianBlur stdDeviation="2"/>
<feComposite in2="hardAlpha" operator="out"/>
<feColorMatrix type="matrix" values="0 0 0 0 0 0 0 0 0 0 0 0 0 0 0 0 0 0 0.25 0"/>
<feBlend mode="normal" in2="BackgroundImageFix" result="effect1_dropShadow_5_64"/>
<feBlend mode="normal" in="SourceGraphic" in2="effect1_dropShadow_5_64" result="shape"/>
</filter>
<filter id="filter1_f_5_64" x="-166.386" y="-436.386" width="2262.77" height="948.771" filterUnits="userSpaceOnUse" color-interpolation-filters="sRGB">
<feFlood flood-opacity="0" result="BackgroundImageFix"/>
<feBlend mode="normal" in="SourceGraphic" in2="BackgroundImageFix" result="shape"/>
<feGaussianBlur stdDeviation="156.693" result="effect1_foregroundBlur_5_64"/>
</filter>
<filter id="filter2_f_5_64" x="587.9" y="-54.1" width="1384.4" height="1154.4" filterUnits="userSpaceOnUse" color-interpolation-filters="sRGB">
<feFlood flood-opacity="0" result="BackgroundImageFix"/>
<feBlend mode="normal" in="SourceGraphic" in2="BackgroundImageFix" result="shape"/>
<feGaussianBlur stdDeviation="0.05" result="effect1_foregroundBlur_5_64"/>
</filter>
<filter id="filter3_f_5_64" x="587.933" y="-54.0667" width="1383.23" height="1154.23" filterUnits="userSpaceOnUse" color-interpolation-filters="sRGB">
<feFlood flood-opacity="0" result="BackgroundImageFix"/>
<feBlend mode="normal" in="SourceGraphic" in2="BackgroundImageFix" result="shape"/>
<feGaussianBlur stdDeviation="0.0333333" result="effect1_foregroundBlur_5_64"/>
</filter>
<filter id="filter4_f_5_64" x="586.485" y="-55.515" width="1388.36" height="1157.35" filterUnits="userSpaceOnUse" color-interpolation-filters="sRGB">
<feFlood flood-opacity="0" result="BackgroundImageFix"/>
<feBlend mode="normal" in="SourceGraphic" in2="BackgroundImageFix" result="shape"/>
<feGaussianBlur stdDeviation="0.7575" result="effect1_foregroundBlur_5_64"/>
</filter>
<filter id="filter5_f_5_64" x="587.495" y="-54.505" width="1385.43" height="1155.43" filterUnits="userSpaceOnUse" color-interpolation-filters="sRGB">
<feFlood flood-opacity="0" result="BackgroundImageFix"/>
<feBlend mode="normal" in="SourceGraphic" in2="BackgroundImageFix" result="shape"/>
<feGaussianBlur stdDeviation="0.2525" result="effect1_foregroundBlur_5_64"/>
</filter>
<filter id="filter6_ddi_5_64" x="587.344" y="-54.1515" width="1385.64" height="1155.64" filterUnits="userSpaceOnUse" color-interpolation-filters="sRGB">
<feFlood flood-opacity="0" result="BackgroundImageFix"/>
<feColorMatrix in="SourceAlpha" type="matrix" values="0 0 0 0 0 0 0 0 0 0 0 0 0 0 0 0 0 0 127 0" result="hardAlpha"/>
<feOffset dy="0.65"/>
<feGaussianBlur stdDeviation="0.25"/>
<feColorMatrix type="matrix" values="0 0 0 0 0 0 0 0 0 0.3 0 0 0 0 0.275 0 0 0 0.7 0"/>
<feBlend mode="multiply" in2="BackgroundImageFix" result="effect1_dropShadow_5_64"/>
<feColorMatrix in="SourceAlpha" type="matrix" values="0 0 0 0 0 0 0 0 0 0 0 0 0 0 0 0 0 0 127 0" result="hardAlpha"/>
<feOffset dy="0.505"/>
<feGaussianBlur stdDeviation="0.32825"/>
<feColorMatrix type="matrix" values="0 0 0 0 0 0 0 0 0 0.6 0 0 0 0 0.6 0 0 0 1 0"/>
<feBlend mode="color-dodge" in2="effect1_dropShadow_5_64" result="effect2_dropShadow_5_64"/>
<feBlend mode="normal" in="SourceGraphic" in2="effect2_dropShadow_5_64" result="shape"/>
<feColorMatrix in="SourceAlpha" type="matrix" values="0 0 0 0 0 0 0 0 0 0 0 0 0 0 0 0 0 0 127 0" result="hardAlpha"/>
<feOffset dx="-0.065" dy="0.13"/>
<feGaussianBlur stdDeviation="0.0325"/>
<feComposite in2="hardAlpha" operator="arithmetic" k2="-1" k3="1"/>
<feColorMatrix type="matrix" values="0 0 0 0 1 0 0 0 0 1 0 0 0 0 1 0 0 0 0.5 0"/>
<feBlend mode="normal" in2="shape" result="effect3_innerShadow_5_64"/>
</filter>
<filter id="filter7_f_5_64" x="-52.5667" y="-81.8167" width="893.233" height="1360.63" filterUnits="userSpaceOnUse" color-interpolation-filters="sRGB">
<feFlood flood-opacity="0" result="BackgroundImageFix"/>
<feBlend mode="normal" in="SourceGraphic" in2="BackgroundImageFix" result="shape"/>
<feGaussianBlur stdDeviation="0.0333333" result="effect1_foregroundBlur_5_64"/>
</filter>
<filter id="filter8_f_5_64" x="-55.5" y="-84.75" width="899.325" height="1366.5" filterUnits="userSpaceOnUse" color-interpolation-filters="sRGB">
<feFlood flood-opacity="0" result="BackgroundImageFix"/>
<feBlend mode="normal" in="SourceGraphic" in2="BackgroundImageFix" result="shape"/>
<feGaussianBlur stdDeviation="1.5" result="effect1_foregroundBlur_5_64"/>
</filter>
<filter id="filter9_f_5_64" x="-53.5" y="-82.75" width="895.425" height="1362.5" filterUnits="userSpaceOnUse" color-interpolation-filters="sRGB">
<feFlood flood-opacity="0" result="BackgroundImageFix"/>
<feBlend mode="normal" in="SourceGraphic" in2="BackgroundImageFix" result="shape"/>
<feGaussianBlur stdDeviation="0.5" result="effect1_foregroundBlur_5_64"/>
</filter>
<filter id="filter10_ddi_5_64" x="-53.8" y="-82.05" width="895.925" height="1363.1" filterUnits="userSpaceOnUse" color-interpolation-filters="sRGB">
<feFlood flood-opacity="0" result="BackgroundImageFix"/>
<feColorMatrix in="SourceAlpha" type="matrix" values="0 0 0 0 0 0 0 0 0 0 0 0 0 0 0 0 0 0 127 0" result="hardAlpha"/>
<feOffset dy="0.65"/>
<feGaussianBlur stdDeviation="0.25"/>
<feColorMatrix type="matrix" values="0 0 0 0 0 0 0 0 0 0.3 0 0 0 0 0.275 0 0 0 0.7 0"/>
<feBlend mode="multiply" in2="BackgroundImageFix" result="effect1_dropShadow_5_64"/>
<feColorMatrix in="SourceAlpha" type="matrix" values="0 0 0 0 0 0 0 0 0 0 0 0 0 0 0 0 0 0 127 0" result="hardAlpha"/>
<feOffset dy="1"/>
<feGaussianBlur stdDeviation="0.65"/>
<feColorMatrix type="matrix" values="0 0 0 0 0 0 0 0 0 0.6 0 0 0 0 0.6 0 0 0 1 0"/>
<feBlend mode="color-dodge" in2="effect1_dropShadow_5_64" result="effect2_dropShadow_5_64"/>
<feBlend mode="normal" in="SourceGraphic" in2="effect2_dropShadow_5_64" result="shape"/>
<feColorMatrix in="SourceAlpha" type="matrix" values="0 0 0 0 0 0 0 0 0 0 0 0 0 0 0 0 0 0 127 0" result="hardAlpha"/>
<feOffset dx="-0.065" dy="0.13"/>
<feGaussianBlur stdDeviation="0.0325"/>
<feComposite in2="hardAlpha" operator="arithmetic" k2="-1" k3="1"/>
<feColorMatrix type="matrix" values="0 0 0 0 1 0 0 0 0 1 0 0 0 0 1 0 0 0 0.5 0"/>
<feBlend mode="normal" in2="shape" result="effect3_innerShadow_5_64"/>
</filter>
<filter id="filter11_f_5_64" x="-52.6" y="-81.85" width="893.4" height="1360.7" filterUnits="userSpaceOnUse" color-interpolation-filters="sRGB">
<feFlood flood-opacity="0" result="BackgroundImageFix"/>
<feBlend mode="normal" in="SourceGraphic" in2="BackgroundImageFix" result="shape"/>
<feGaussianBlur stdDeviation="0.05" result="effect1_foregroundBlur_5_64"/>
</filter>
<linearGradient id="paint0_linear_5_64" x1="960" y1="0" x2="960" y2="981" gradientUnits="userSpaceOnUse">
<stop stop-color="#050B08"/>
<stop offset="0.652488" stop-color="#070D09"/>
<stop offset="1" stop-color="#0E2617"/>
</linearGradient>
<clipPath id="clip0_5_64">
<rect width="1920" height="981" fill="white" transform="translate(4)"/>
</clipPath>
</defs>
</svg>
