<svg width="390" height="915" viewBox="0 0 390 915" fill="none" xmlns="http://www.w3.org/2000/svg">
<g clip-path="url(#clip0_351_299)">
<rect width="390" height="915" fill="url(#paint0_linear_351_299)"/>
<rect width="390" height="915" fill="url(#paint1_linear_351_299)"/>
<g filter="url(#filter0_f_351_299)">
<rect x="-497" y="407" width="1289" height="600" fill="#0CF25D" fill-opacity="0.7"/>
</g>
<g filter="url(#filter1_f_351_299)">
<rect x="-464" y="-62" width="1240" height="310" fill="#0CF25D" fill-opacity="0.7"/>
</g>
<g clip-path="url(#clip1_351_299)">
<g clip-path="url(#clip2_351_299)">
<g clip-path="url(#clip3_351_299)">
<path d="M329.946 492.773H59.0535C57.5269 492.773 56.2893 494.451 56.2893 496.521C56.2893 498.59 57.5269 500.268 59.0535 500.268H329.946C331.473 500.268 332.711 498.59 332.711 496.521C332.711 494.451 331.473 492.773 329.946 492.773Z" fill="#FFFAFE" fill-opacity="0.1"/>
<g clip-path="url(#clip4_351_299)">
<g clip-path="url(#clip5_351_299)">
<g clip-path="url(#clip6_351_299)">
<g clip-path="url(#clip7_351_299)">
<path d="M67.343 603.004C60.4395 603.004 56.9878 594.658 56.9878 577.965V542.763C56.9878 527.514 60.9417 519.89 68.8496 519.89C72.1102 519.89 74.6062 520.998 76.3377 523.214C78.0767 525.418 79.276 528.641 79.9356 532.884C80.5952 537.114 80.925 542.275 80.925 548.367H71.4805V541.129C71.4805 539.368 71.3381 537.893 71.0533 536.702C70.776 535.512 70.1875 534.917 69.2881 534.917C68.1712 534.917 67.4329 535.55 67.0731 536.816C66.7208 538.083 66.5447 539.476 66.5447 540.996V580.549C66.5447 582.753 66.7133 584.538 67.0506 585.906C67.3879 587.287 68.0513 587.977 69.0407 587.977C70.0676 587.977 70.7497 587.287 71.087 585.906C71.4243 584.538 71.593 582.727 71.593 580.473V568.827H69.0182V554.731H80.8126V602.263H76.9448L75.3033 595.405C73.6168 600.471 70.9633 603.004 67.343 603.004ZM94.462 602.263H84.4667V532.694H94.462V540.445C94.9343 537.747 95.7738 535.645 96.9806 534.138C98.1874 532.618 99.7052 531.858 101.534 531.858V545.726C100.732 545.726 99.7727 545.872 98.6558 546.163C97.539 546.455 96.5608 546.86 95.7213 547.379C94.8818 547.886 94.462 548.449 94.462 549.07V602.263ZM115.476 603.004C112.553 603.004 110.222 602.079 108.483 600.23C106.744 598.369 105.499 595.69 104.75 592.194C104 588.699 103.625 584.494 103.625 579.58V551.616C103.625 545.156 104.724 540.261 106.92 536.93C109.116 533.612 112.133 531.953 115.971 531.953C123.879 531.953 127.832 538.507 127.832 551.616V556.669C127.832 562.786 127.795 566.902 127.72 569.017H113.452V582.468C113.452 583.696 113.497 584.906 113.587 586.096C113.677 587.287 113.883 588.268 114.205 589.041C114.528 589.813 115.045 590.2 115.757 590.2C116.784 590.2 117.425 589.452 117.68 587.958C117.935 586.451 118.062 584.494 118.062 582.088V575.401H127.832V579.352C127.832 584.545 127.454 588.895 126.697 592.403C125.932 595.912 124.651 598.559 122.852 600.344C121.045 602.117 118.587 603.004 115.476 603.004ZM113.396 551.388V560.753H118.062V551.388C118.062 548.88 117.878 547.075 117.511 545.973C117.144 544.884 116.597 544.34 115.869 544.34C115.082 544.34 114.472 544.865 114.037 545.916C113.61 546.968 113.396 548.791 113.396 551.388ZM142.932 603.004C140.002 603.004 137.667 602.079 135.928 600.23C134.189 598.369 132.944 595.69 132.195 592.194C131.445 588.699 131.071 584.494 131.071 579.58V551.616C131.071 545.156 132.169 540.261 134.365 536.93C136.561 533.612 139.578 531.953 143.416 531.953C151.324 531.953 155.278 538.507 155.278 551.616V556.669C155.278 562.786 155.24 566.902 155.165 569.017H140.897V582.468C140.897 583.696 140.942 584.906 141.032 586.096C141.122 587.287 141.328 588.268 141.651 589.041C141.973 589.813 142.49 590.2 143.202 590.2C144.229 590.2 144.87 589.452 145.125 587.958C145.38 586.451 145.507 584.494 145.507 582.088V575.401H155.278V579.352C155.278 584.545 154.899 588.895 154.142 592.403C153.385 595.912 152.103 598.559 150.297 600.344C148.498 602.117 146.043 603.004 142.932 603.004ZM140.841 551.388V560.753H145.507V551.388C145.507 548.88 145.323 547.075 144.956 545.973C144.589 544.884 144.042 544.34 143.315 544.34C142.528 544.34 141.917 544.865 141.482 545.916C141.055 546.968 140.841 548.791 140.841 551.388ZM168.668 602.263H158.842V532.694H168.668V541.547C169.036 538.887 169.718 536.627 170.715 534.765C171.712 532.89 173.098 531.953 174.875 531.953C177.731 531.953 179.803 533.435 181.092 536.399C182.382 539.375 183.026 543.44 183.026 548.595V602.263H173.335V550.324C173.335 548.956 173.17 547.696 172.84 546.543C172.51 545.378 171.944 544.795 171.142 544.795C170.392 544.795 169.838 545.239 169.478 546.125C169.126 546.999 168.905 548.095 168.815 549.412C168.717 550.729 168.668 552.034 168.668 553.325V602.263ZM211.686 603.004C207.271 603.004 204.089 601.149 202.14 597.438C200.191 593.727 199.217 587.819 199.217 579.713V571.753H208.774V581.955C208.774 583.842 208.942 585.317 209.28 586.381C209.617 587.445 210.205 587.977 211.045 587.977C211.929 587.977 212.54 587.546 212.878 586.685C213.215 585.811 213.384 584.386 213.384 582.411C213.384 579.903 213.237 577.807 212.945 576.122C212.653 574.438 212.143 572.83 211.416 571.297C210.696 569.777 209.696 567.991 208.414 565.94L204.074 558.987C200.836 553.819 199.217 547.917 199.217 541.281C199.217 534.315 200.173 529.008 202.084 525.361C203.995 521.713 206.765 519.89 210.393 519.89C214.823 519.89 217.963 521.884 219.815 525.874C221.674 529.863 222.603 535.924 222.603 544.055H212.776V538.45C212.776 537.336 212.589 536.468 212.214 535.848C211.839 535.227 211.333 534.917 210.696 534.917C209.924 534.917 209.358 535.278 208.999 536C208.646 536.734 208.47 537.671 208.47 538.811C208.47 539.951 208.654 541.186 209.021 542.516C209.388 543.846 210.112 545.378 211.191 547.113L216.757 556.156C217.873 557.954 218.9 559.848 219.837 561.836C220.767 563.837 221.516 566.161 222.086 568.808C222.648 571.443 222.929 574.666 222.929 578.478C222.929 586.14 222.093 592.144 220.422 596.488C218.75 600.832 215.838 603.004 211.686 603.004ZM237.512 603.004C234.581 603.004 232.246 602.079 230.507 600.23C228.768 598.369 227.524 595.69 226.774 592.194C226.025 588.699 225.65 584.494 225.65 579.58V551.616C225.65 545.156 226.748 540.261 228.944 536.93C231.141 533.612 234.161 531.953 238.007 531.953C245.907 531.953 249.857 538.507 249.857 551.616V556.669C249.857 562.786 249.82 566.902 249.745 569.017H235.477V582.468C235.477 583.696 235.522 584.906 235.612 586.096C235.702 587.287 235.908 588.268 236.23 589.041C236.552 589.813 237.07 590.2 237.782 590.2C238.809 590.2 239.449 589.452 239.704 587.958C239.959 586.451 240.087 584.494 240.087 582.088V575.401H249.857V579.352C249.857 584.545 249.479 588.895 248.722 592.403C247.964 595.912 246.683 598.559 244.876 600.344C243.077 602.117 240.623 603.004 237.512 603.004ZM235.421 551.388V560.753H240.087V551.388C240.087 548.88 239.903 547.075 239.536 545.973C239.168 544.884 238.621 544.34 237.894 544.34C237.107 544.34 236.496 544.865 236.061 545.916C235.634 546.968 235.421 548.791 235.421 551.388ZM263.248 602.263H253.421V532.694H263.248V541.547C263.615 538.887 264.297 536.627 265.294 534.765C266.291 532.89 267.678 531.953 269.454 531.953C272.31 531.953 274.383 533.435 275.672 536.399C276.961 539.375 277.606 543.44 277.606 548.595V602.263H267.914V550.324C267.914 548.956 267.753 547.696 267.431 546.543C267.101 545.378 266.531 544.795 265.722 544.795C264.972 544.795 264.417 545.239 264.057 546.125C263.705 546.999 263.484 548.095 263.394 549.412C263.297 550.729 263.248 552.034 263.248 553.325V602.263ZM292.728 603.004C284.603 603.004 280.54 596.045 280.54 582.126V576.616H290.423V584.785C290.423 586.356 290.607 587.591 290.974 588.49C291.341 589.389 291.926 589.839 292.728 589.839C294.16 589.839 294.876 588.028 294.876 584.405C294.876 581.378 294.501 579.111 293.751 577.604C292.994 576.11 292.076 574.666 290.997 573.273L285.757 566.453C284.108 564.287 282.856 562.001 282.002 559.595C281.14 557.176 280.709 553.819 280.709 549.526C280.709 545.536 281.271 542.243 282.395 539.647C283.52 537.051 285.011 535.119 286.87 533.853C288.729 532.586 290.738 531.953 292.897 531.953C300.872 531.953 304.86 538.678 304.86 552.129V553.42H294.707V550.78C294.707 549.387 294.565 548.044 294.28 546.752C293.995 545.448 293.44 544.795 292.616 544.795C291.229 544.795 290.536 546.03 290.536 548.5C290.536 551.008 291.12 552.971 292.29 554.389L298.384 561.912C300.287 564.23 301.884 566.985 303.173 570.176C304.463 573.355 305.107 577.585 305.107 582.867C305.107 589.427 304.005 594.423 301.802 597.856C299.598 601.288 296.573 603.004 292.728 603.004ZM319.656 603.004C316.725 603.004 314.39 602.079 312.651 600.23C310.92 598.369 309.676 595.69 308.919 592.194C308.169 588.699 307.794 584.494 307.794 579.58V551.616C307.794 545.156 308.892 540.261 311.089 536.93C313.285 533.612 316.306 531.953 320.151 531.953C328.059 531.953 332.013 538.507 332.013 551.616V556.669C332.013 562.786 331.975 566.902 331.9 569.017H317.621V582.468C317.621 583.696 317.67 584.906 317.767 586.096C317.857 587.287 318.06 588.268 318.374 589.041C318.697 589.813 319.214 590.2 319.926 590.2C320.953 590.2 321.594 589.452 321.849 587.958C322.111 586.451 322.242 584.494 322.242 582.088V575.401H332.013V579.352C332.013 584.545 331.63 588.895 330.866 592.403C330.109 595.912 328.831 598.559 327.032 600.344C325.225 602.117 322.767 603.004 319.656 603.004ZM317.565 551.388V560.753H322.242V551.388C322.242 548.88 322.058 547.075 321.691 545.973C321.324 544.884 320.773 544.34 320.038 544.34C319.251 544.34 318.644 544.865 318.217 545.916C317.782 546.968 317.565 548.791 317.565 551.388Z" fill="#FFFAFE" fill-opacity="0.1"/>
</g>
</g>
</g>
</g>
<g clip-path="url(#clip8_351_299)">
<g clip-path="url(#clip9_351_299)">
<path d="M216.911 407.95H214.041C210.938 408.136 207.89 409.388 205.084 411.63C202.277 413.872 199.77 417.057 197.715 420.99V388.724C201.635 388.1 205.276 385.031 207.928 380.117C210.581 375.202 212.055 368.793 212.062 362.141V345.423C212.062 343.206 211.541 341.08 210.613 339.512C209.685 337.944 208.427 337.064 207.115 337.064H205.631V318.506C205.631 317.176 205.318 315.9 204.761 314.96C204.205 314.019 203.45 313.491 202.662 313.491C201.875 313.491 201.12 314.019 200.563 314.96C200.007 315.9 199.694 317.176 199.694 318.506V337.064H189.799V318.506C189.799 317.176 189.487 315.9 188.93 314.96C188.373 314.019 187.618 313.491 186.831 313.491C186.044 313.491 185.289 314.019 184.732 314.96C184.176 315.9 183.863 317.176 183.863 318.506V337.064H182.478C181.165 337.064 179.907 337.944 178.979 339.512C178.052 341.08 177.53 343.206 177.53 345.423V362.141C177.535 368.767 178.995 375.154 181.627 380.065C184.26 384.976 187.877 388.061 191.778 388.724V397.25C189.72 393.091 187.168 389.707 184.288 387.317C181.408 384.927 178.263 383.583 175.057 383.374H172.187C171.783 383.361 171.381 383.488 171.007 383.746C170.633 384.005 170.293 384.39 170.01 384.878C169.722 385.357 169.494 385.93 169.34 386.562C169.187 387.195 169.112 387.873 169.12 388.556V393.238C169.366 403.094 171.807 412.429 175.954 419.373C180.1 426.317 185.646 430.358 191.482 430.687H191.877V468.136C191.877 469.466 192.19 470.742 192.747 471.683C193.303 472.623 194.058 473.152 194.846 473.152C195.633 473.152 196.388 472.623 196.945 471.683C197.501 470.742 197.814 469.466 197.814 468.136V455.263C203.597 454.812 209.07 450.716 213.154 443.784C217.238 436.852 219.638 427.587 219.879 417.814V413.133C219.893 412.446 219.823 411.761 219.673 411.122C219.524 410.483 219.299 409.902 219.011 409.416C218.724 408.93 218.38 408.549 218.001 408.297C217.623 408.045 217.218 407.927 216.812 407.95H216.911ZM175.255 393.572C179.414 394.042 183.332 397.047 186.279 402.027C189.227 407.008 191.005 413.627 191.284 420.656C187.124 420.186 183.207 417.181 180.259 412.2C177.311 407.219 175.533 400.6 175.255 393.572ZM183.467 362.141V347.095H206.224V362.141C206.224 366.575 205.182 370.828 203.326 373.963C201.471 377.098 198.954 378.86 196.33 378.86H193.362C190.737 378.86 188.221 377.098 186.365 373.963C184.509 370.828 183.467 366.575 183.467 362.141ZM197.814 445.232C198.072 438.191 199.843 431.552 202.795 426.564C205.747 421.576 209.676 418.583 213.843 418.148C213.586 425.189 211.814 431.828 208.862 436.816C205.91 441.804 201.981 444.797 197.814 445.232Z" fill="#FFFAFE" fill-opacity="0.1"/>
</g>
</g>
<path d="M279.489 464.481H225.444V471.977H279.489V464.481Z" fill="#FFFAFE" fill-opacity="0.1"/>
<path d="M163.556 464.481H109.511V471.977H163.556V464.481Z" fill="#FFFAFE" fill-opacity="0.1"/>
</g>
</g>
</g>
</g>
<defs>
<filter id="filter0_f_351_299" x="-898" y="6" width="2091" height="1402" filterUnits="userSpaceOnUse" color-interpolation-filters="sRGB">
<feFlood flood-opacity="0" result="BackgroundImageFix"/>
<feBlend mode="normal" in="SourceGraphic" in2="BackgroundImageFix" result="shape"/>
<feGaussianBlur stdDeviation="200.5" result="effect1_foregroundBlur_351_299"/>
</filter>
<filter id="filter1_f_351_299" x="-865" y="-463" width="2042" height="1112" filterUnits="userSpaceOnUse" color-interpolation-filters="sRGB">
<feFlood flood-opacity="0" result="BackgroundImageFix"/>
<feBlend mode="normal" in="SourceGraphic" in2="BackgroundImageFix" result="shape"/>
<feGaussianBlur stdDeviation="200.5" result="effect1_foregroundBlur_351_299"/>
</filter>
<linearGradient id="paint0_linear_351_299" x1="195" y1="5.18732e-05" x2="195" y2="921.481" gradientUnits="userSpaceOnUse">
<stop offset="0.0402295" stop-color="#01170A"/>
<stop offset="0.229167" stop-color="#117850"/>
<stop offset="0.453383" stop-color="#249B57"/>
<stop offset="0.648681" stop-color="#249B57"/>
<stop offset="1" stop-color="#01170A"/>
</linearGradient>
<linearGradient id="paint1_linear_351_299" x1="195" y1="0" x2="195" y2="915" gradientUnits="userSpaceOnUse">
<stop stop-color="#16160E"/>
<stop offset="0.14892" stop-color="#1D1F18"/>
<stop offset="1" stop-color="#6C848D"/>
</linearGradient>
<clipPath id="clip0_351_299">
<rect width="390" height="915" fill="white"/>
</clipPath>
<clipPath id="clip1_351_299">
<rect width="277" height="290.495" fill="white" transform="translate(56 313)"/>
</clipPath>
<clipPath id="clip2_351_299">
<rect width="276.421" height="289.513" fill="white" transform="translate(56.2893 313.491)"/>
</clipPath>
<clipPath id="clip3_351_299">
<rect width="276.421" height="289.513" fill="white" transform="translate(56.2893 313.491)"/>
</clipPath>
<clipPath id="clip4_351_299">
<rect width="275.046" height="83.1143" fill="white" transform="translate(56.9768 519.89)"/>
</clipPath>
<clipPath id="clip5_351_299">
<rect width="275.046" height="83.1143" fill="white" transform="translate(56.9768 519.89)"/>
</clipPath>
<clipPath id="clip6_351_299">
<rect width="275.046" height="83.1143" fill="white" transform="translate(56.9768 519.89)"/>
</clipPath>
<clipPath id="clip7_351_299">
<rect width="275.046" height="83.1143" fill="white" transform="translate(56.9768 519.89)"/>
</clipPath>
<clipPath id="clip8_351_299">
<rect width="61.8876" height="159.661" fill="white" transform="translate(163.556 313.491)"/>
</clipPath>
<clipPath id="clip9_351_299">
<rect width="50.7612" height="159.661" fill="white" transform="translate(169.119 313.491)"/>
</clipPath>
</defs>
</svg>
