<svg width="1920" height="981" viewBox="0 0 1920 981" fill="none" xmlns="http://www.w3.org/2000/svg">
<g clip-path="url(#clip0_243_778)">
<rect width="1920" height="981" fill="url(#paint0_linear_243_778)"/>
<rect width="1920" height="981" fill="url(#paint1_linear_243_778)"/>
<g filter="url(#filter0_f_243_778)">
<rect x="268" y="407" width="1289" height="600" fill="#0CF25D" fill-opacity="0.7"/>
</g>
<g filter="url(#filter1_f_243_778)">
<rect x="301" y="-62" width="1240" height="310" fill="#0CF25D" fill-opacity="0.7"/>
</g>
<g clip-path="url(#clip1_243_778)">
<g clip-path="url(#clip2_243_778)">
<g clip-path="url(#clip3_243_778)">
<path d="M1282.32 600.425H636.876C633.238 600.425 630.29 602.788 630.29 605.702C630.29 608.616 633.238 610.978 636.876 610.978H1282.32C1285.96 610.978 1288.91 608.616 1288.91 605.702C1288.91 602.788 1285.96 600.425 1282.32 600.425Z" fill="#FFFAFE" fill-opacity="0.1"/>
<g clip-path="url(#clip4_243_778)">
<g clip-path="url(#clip5_243_778)">
<g clip-path="url(#clip6_243_778)">
<g clip-path="url(#clip7_243_778)">
<path d="M656.626 755.624C640.178 755.624 631.953 743.873 631.953 720.371V670.808C631.953 649.339 641.374 638.604 660.216 638.604C667.985 638.604 673.932 640.164 678.058 643.285C682.201 646.388 685.059 650.926 686.63 656.899C688.202 662.855 688.988 670.121 688.988 678.698H666.485V668.508C666.485 666.029 666.145 663.952 665.467 662.276C664.806 660.599 663.404 659.761 661.261 659.761C658.6 659.761 656.841 660.653 655.983 662.436C655.144 664.219 654.724 666.181 654.724 668.32V724.009C654.724 727.111 655.126 729.626 655.93 731.551C656.734 733.495 658.314 734.467 660.672 734.467C663.118 734.467 664.744 733.495 665.547 731.551C666.351 729.626 666.753 727.076 666.753 723.902V707.505H660.618V687.659H688.72V754.581H679.504L675.593 744.925C671.575 752.058 665.253 755.624 656.626 755.624ZM721.242 754.581H697.426V656.632H721.242V667.545C722.367 663.747 724.368 660.787 727.243 658.665C730.118 656.525 733.735 655.455 738.093 655.455V674.981C736.182 674.981 733.896 675.186 731.235 675.596C728.574 676.006 726.243 676.577 724.243 677.308C722.242 678.021 721.242 678.814 721.242 679.688V754.581ZM771.311 755.624C764.346 755.624 758.792 754.322 754.648 751.719C750.505 749.098 747.54 745.326 745.754 740.405C743.968 735.483 743.076 729.563 743.076 722.645V683.272C743.076 674.178 745.692 667.286 750.925 662.596C756.158 657.925 763.346 655.589 772.49 655.589C791.332 655.589 800.753 664.817 800.753 683.272V690.387C800.753 699 800.664 704.795 800.485 707.773H766.489V726.71C766.489 728.44 766.597 730.143 766.811 731.819C767.025 733.495 767.516 734.877 768.284 735.965C769.052 737.053 770.285 737.596 771.981 737.596C774.428 737.596 775.955 736.544 776.562 734.44C777.169 732.318 777.473 729.563 777.473 726.175V716.76H800.753V722.324C800.753 729.635 799.851 735.76 798.047 740.699C796.226 745.638 793.172 749.365 788.885 751.88C784.581 754.376 778.723 755.624 771.311 755.624ZM766.355 682.951V696.138H777.473V682.951C777.473 679.421 777.035 676.88 776.16 675.328C775.285 673.795 773.981 673.028 772.249 673.028C770.374 673.028 768.918 673.768 767.882 675.248C766.864 676.728 766.355 679.296 766.355 682.951ZM836.731 755.624C829.748 755.624 824.185 754.322 820.041 751.719C815.898 749.098 812.933 745.326 811.147 740.405C809.361 735.483 808.468 729.563 808.468 722.645V683.272C808.468 674.178 811.085 667.286 816.318 662.596C821.55 657.925 828.739 655.589 837.883 655.589C856.725 655.589 866.146 664.817 866.146 683.272V690.387C866.146 699 866.056 704.795 865.878 707.773H831.882V726.71C831.882 728.44 831.989 730.143 832.204 731.819C832.418 733.495 832.909 734.877 833.677 735.965C834.445 737.053 835.677 737.596 837.374 737.596C839.821 737.596 841.348 736.544 841.955 734.44C842.562 732.318 842.866 729.563 842.866 726.175V716.76H866.146V722.324C866.146 729.635 865.244 735.76 863.44 740.699C861.636 745.638 858.582 749.365 854.278 751.88C849.992 754.376 844.143 755.624 836.731 755.624ZM831.748 682.951V696.138H842.866V682.951C842.866 679.421 842.428 676.88 841.553 675.328C840.678 673.795 839.374 673.028 837.642 673.028C835.767 673.028 834.311 673.768 833.275 675.248C832.257 676.728 831.748 679.296 831.748 682.951ZM898.052 754.581H874.638V656.632H898.052V669.096C898.927 665.351 900.552 662.169 902.927 659.547C905.303 656.908 908.607 655.589 912.84 655.589C919.644 655.589 924.582 657.675 927.654 661.848C930.726 666.038 932.262 671.762 932.262 679.019V754.581H909.169V681.453C909.169 679.528 908.776 677.753 907.991 676.131C907.205 674.49 905.856 673.67 903.945 673.67C902.159 673.67 900.838 674.294 899.981 675.542C899.141 676.773 898.614 678.315 898.4 680.17C898.168 682.024 898.052 683.861 898.052 685.68V754.581ZM1000.55 755.624C990.028 755.624 982.447 753.012 977.804 747.787C973.16 742.563 970.838 734.244 970.838 722.832V711.625H993.609V725.988C993.609 728.645 994.011 730.722 994.815 732.22C995.619 733.718 997.02 734.467 999.021 734.467C1001.13 734.467 1002.58 733.861 1003.39 732.648C1004.19 731.418 1004.59 729.412 1004.59 726.63C1004.59 723.099 1004.24 720.148 1003.55 717.777C1002.85 715.405 1001.64 713.14 999.905 710.983C998.19 708.843 995.806 706.329 992.752 703.44L982.411 693.65C974.696 686.375 970.838 678.065 970.838 668.722C970.838 658.914 973.115 651.443 977.67 646.307C982.224 641.172 988.823 638.604 997.467 638.604C1008.02 638.604 1015.51 641.412 1019.92 647.029C1024.35 652.646 1026.56 661.179 1026.56 672.627H1003.15V664.736C1003.15 663.167 1002.7 661.946 1001.81 661.072C1000.91 660.198 999.708 659.761 998.19 659.761C996.351 659.761 995.002 660.269 994.145 661.286C993.306 662.32 992.886 663.64 992.886 665.244C992.886 666.849 993.324 668.588 994.199 670.46C995.074 672.333 996.797 674.49 999.369 676.933L1012.63 689.665C1015.29 692.197 1017.74 694.863 1019.97 697.662C1022.18 700.48 1023.97 703.752 1025.33 707.479C1026.67 711.188 1027.34 715.726 1027.34 721.093C1027.34 731.881 1025.35 740.334 1021.36 746.45C1017.38 752.566 1010.44 755.624 1000.55 755.624ZM1062.08 755.624C1055.1 755.624 1049.54 754.322 1045.39 751.719C1041.25 749.098 1038.29 745.326 1036.5 740.405C1034.71 735.483 1033.82 729.563 1033.82 722.645V683.272C1033.82 674.178 1036.44 667.286 1041.67 662.596C1046.9 657.925 1054.1 655.589 1063.26 655.589C1082.09 655.589 1091.5 664.817 1091.5 683.272V690.387C1091.5 699 1091.41 704.795 1091.23 707.773H1057.23V726.71C1057.23 728.44 1057.34 730.143 1057.56 731.819C1057.77 733.495 1058.26 734.877 1059.03 735.965C1059.8 737.053 1061.03 737.596 1062.73 737.596C1065.17 737.596 1066.7 736.544 1067.31 734.44C1067.91 732.318 1068.22 729.563 1068.22 726.175V716.76H1091.5V722.324C1091.5 729.635 1090.6 735.76 1088.79 740.699C1086.99 745.638 1083.93 749.365 1079.63 751.88C1075.34 754.376 1069.49 755.624 1062.08 755.624ZM1057.1 682.951V696.138H1068.22V682.951C1068.22 679.421 1067.78 676.88 1066.9 675.328C1066.03 673.795 1064.73 673.028 1062.99 673.028C1061.12 673.028 1059.66 673.768 1058.63 675.248C1057.61 676.728 1057.1 679.296 1057.1 682.951ZM1123.4 754.581H1099.99V656.632H1123.4V669.096C1124.28 665.351 1125.9 662.169 1128.28 659.547C1130.65 656.908 1133.96 655.589 1138.19 655.589C1145 655.589 1149.93 657.675 1153.01 661.848C1156.08 666.038 1157.61 671.762 1157.61 679.019V754.581H1134.52V681.453C1134.52 679.528 1134.14 677.753 1133.37 676.131C1132.58 674.49 1131.23 673.67 1129.3 673.67C1127.51 673.67 1126.19 674.294 1125.33 675.542C1124.49 676.773 1123.97 678.315 1123.75 680.17C1123.52 682.024 1123.4 683.861 1123.4 685.68V754.581ZM1193.65 755.624C1174.29 755.624 1164.61 745.826 1164.61 726.229V718.472H1188.15V729.973C1188.15 732.184 1188.59 733.923 1189.47 735.189C1190.34 736.455 1191.73 737.088 1193.65 737.088C1197.06 737.088 1198.76 734.538 1198.76 729.438C1198.76 725.177 1197.87 721.985 1196.08 719.863C1194.28 717.759 1192.09 715.726 1189.52 713.764L1177.04 704.162C1173.11 701.113 1170.12 697.894 1168.09 694.506C1166.03 691.1 1165.01 686.375 1165.01 680.33C1165.01 674.713 1166.35 670.077 1169.03 666.421C1171.7 662.766 1175.26 660.047 1179.69 658.263C1184.12 656.48 1188.9 655.589 1194.05 655.589C1213.05 655.589 1222.55 665.057 1222.55 683.994V685.813H1198.36V682.095C1198.36 680.134 1198.02 678.244 1197.34 676.425C1196.66 674.588 1195.34 673.67 1193.38 673.67C1190.07 673.67 1188.42 675.409 1188.42 678.886C1188.42 682.416 1189.81 685.18 1192.6 687.177L1207.12 697.769C1211.66 701.033 1215.46 704.911 1218.53 709.405C1221.6 713.88 1223.14 719.836 1223.14 727.272C1223.14 736.509 1220.51 743.543 1215.26 748.376C1210.01 753.208 1202.81 755.624 1193.65 755.624ZM1257.81 755.624C1250.82 755.624 1245.26 754.322 1241.12 751.719C1236.99 749.098 1234.03 745.326 1232.22 740.405C1230.44 735.483 1229.54 729.563 1229.54 722.645V683.272C1229.54 674.178 1232.16 667.286 1237.39 662.596C1242.63 657.925 1249.82 655.589 1258.98 655.589C1277.83 655.589 1287.25 664.817 1287.25 683.272V690.387C1287.25 699 1287.16 704.795 1286.98 707.773H1252.96V726.71C1252.96 728.44 1253.07 730.143 1253.31 731.819C1253.52 733.495 1254 734.877 1254.75 735.965C1255.52 737.053 1256.75 737.596 1258.45 737.596C1260.9 737.596 1262.42 736.544 1263.03 734.44C1263.65 732.318 1263.97 729.563 1263.97 726.175V716.76H1287.25V722.324C1287.25 729.635 1286.34 735.76 1284.51 740.699C1282.71 745.638 1279.67 749.365 1275.38 751.88C1271.08 754.376 1265.22 755.624 1257.81 755.624ZM1252.82 682.951V696.138H1263.97V682.951C1263.97 679.421 1263.53 676.88 1262.65 675.328C1261.78 673.795 1260.47 673.028 1258.72 673.028C1256.84 673.028 1255.39 673.768 1254.38 675.248C1253.34 676.728 1252.82 679.296 1252.82 682.951Z" fill="#FFFAFE" fill-opacity="0.1"/>
</g>
</g>
</g>
</g>
<g clip-path="url(#clip8_243_778)">
<g clip-path="url(#clip9_243_778)">
<path d="M1013 480.999H1006.16C998.767 481.261 991.505 483.024 984.817 486.181C978.129 489.337 972.156 493.821 967.261 499.359V453.93C976.599 453.052 985.275 448.731 991.596 441.811C997.916 434.892 1001.43 425.869 1001.45 416.503V392.965C1001.45 389.843 1000.2 386.85 997.993 384.643C995.782 382.435 992.784 381.196 989.657 381.196H986.121V355.068C986.121 353.195 985.376 351.399 984.05 350.074C982.723 348.75 980.924 348.006 979.048 348.006C977.173 348.006 975.374 348.75 974.047 350.074C972.721 351.399 971.976 353.195 971.976 355.068V381.196H948.4V355.068C948.4 353.195 947.655 351.399 946.329 350.074C945.002 348.75 943.204 348.006 941.328 348.006C939.452 348.006 937.653 348.75 936.327 350.074C935 351.399 934.255 353.195 934.255 355.068V381.196H930.955C927.828 381.196 924.83 382.435 922.619 384.643C920.409 386.85 919.167 389.843 919.167 392.965V416.503C919.178 425.832 922.657 434.824 928.929 441.738C935.201 448.653 943.819 452.997 953.115 453.93V465.934C948.211 460.078 942.131 455.314 935.268 451.949C928.406 448.584 920.913 446.693 913.273 446.397H906.436C905.473 446.379 904.516 446.558 903.624 446.922C902.732 447.286 901.924 447.829 901.25 448.516C900.561 449.189 900.018 449.996 899.653 450.886C899.288 451.777 899.109 452.732 899.128 453.694V460.285C899.715 474.162 905.53 487.305 915.41 497.082C925.29 506.859 938.505 512.549 952.408 513.012H953.351V565.738C953.351 567.611 954.096 569.407 955.423 570.731C956.749 572.056 958.548 572.8 960.424 572.8C962.3 572.8 964.099 572.056 965.425 570.731C966.751 569.407 967.496 567.611 967.496 565.738V547.613C981.275 546.978 994.315 541.212 1004.05 531.452C1013.78 521.692 1019.49 508.647 1020.07 494.887V488.296C1020.1 487.329 1019.94 486.365 1019.58 485.465C1019.22 484.565 1018.69 483.748 1018 483.063C1017.32 482.379 1016.5 481.843 1015.6 481.488C1014.69 481.133 1013.73 480.966 1012.76 480.999H1013ZM913.745 460.756C923.656 461.418 932.989 465.648 940.013 472.661C947.037 479.674 951.274 488.993 951.937 498.888C942.026 498.227 932.692 493.997 925.668 486.984C918.644 479.971 914.407 470.652 913.745 460.756ZM933.312 416.503V395.319H987.536V416.503C987.536 422.746 985.052 428.733 980.63 433.148C976.209 437.562 970.213 440.042 963.96 440.042H956.888C950.635 440.042 944.638 437.562 940.217 433.148C935.796 428.733 933.312 422.746 933.312 416.503ZM967.496 533.49C968.11 523.577 972.331 514.23 979.365 507.207C986.398 500.184 995.76 495.97 1005.69 495.358C1005.08 505.27 1000.85 514.618 993.821 521.641C986.787 528.663 977.425 532.878 967.496 533.49Z" fill="#FFFAFE" fill-opacity="0.1"/>
</g>
</g>
<path d="M1162.1 560.592H1033.33V571.145H1162.1V560.592Z" fill="#FFFAFE" fill-opacity="0.1"/>
<path d="M885.871 560.592H757.099V571.145H885.871V560.592Z" fill="#FFFAFE" fill-opacity="0.1"/>
</g>
</g>
</g>
</g>
<defs>
<filter id="filter0_f_243_778" x="-133" y="6" width="2091" height="1402" filterUnits="userSpaceOnUse" color-interpolation-filters="sRGB">
<feFlood flood-opacity="0" result="BackgroundImageFix"/>
<feBlend mode="normal" in="SourceGraphic" in2="BackgroundImageFix" result="shape"/>
<feGaussianBlur stdDeviation="200.5" result="effect1_foregroundBlur_243_778"/>
</filter>
<filter id="filter1_f_243_778" x="-100" y="-463" width="2042" height="1112" filterUnits="userSpaceOnUse" color-interpolation-filters="sRGB">
<feFlood flood-opacity="0" result="BackgroundImageFix"/>
<feBlend mode="normal" in="SourceGraphic" in2="BackgroundImageFix" result="shape"/>
<feGaussianBlur stdDeviation="200.5" result="effect1_foregroundBlur_243_778"/>
</filter>
<linearGradient id="paint0_linear_243_778" x1="960" y1="5.56149e-05" x2="960" y2="987.949" gradientUnits="userSpaceOnUse">
<stop offset="0.0402295" stop-color="#01170A"/>
<stop offset="0.229167" stop-color="#117850"/>
<stop offset="0.453383" stop-color="#249B57"/>
<stop offset="0.648681" stop-color="#249B57"/>
<stop offset="1" stop-color="#01170A"/>
</linearGradient>
<linearGradient id="paint1_linear_243_778" x1="960" y1="0" x2="960" y2="981" gradientUnits="userSpaceOnUse">
<stop stop-color="#16160E"/>
<stop offset="0.14892" stop-color="#1D1F18"/>
<stop offset="1" stop-color="#6C848D"/>
</linearGradient>
<clipPath id="clip0_243_778">
<rect width="1920" height="981" fill="white"/>
</clipPath>
<clipPath id="clip1_243_778">
<rect width="660" height="409" fill="white" transform="translate(630 348)"/>
</clipPath>
<clipPath id="clip2_243_778">
<rect width="658.621" height="407.618" fill="white" transform="translate(630.29 348.006)"/>
</clipPath>
<clipPath id="clip3_243_778">
<rect width="658.621" height="407.618" fill="white" transform="translate(630.29 348.006)"/>
</clipPath>
<clipPath id="clip4_243_778">
<rect width="655.344" height="117.02" fill="white" transform="translate(631.928 638.604)"/>
</clipPath>
<clipPath id="clip5_243_778">
<rect width="655.344" height="117.02" fill="white" transform="translate(631.928 638.604)"/>
</clipPath>
<clipPath id="clip6_243_778">
<rect width="655.344" height="117.02" fill="white" transform="translate(631.928 638.604)"/>
</clipPath>
<clipPath id="clip7_243_778">
<rect width="655.344" height="117.02" fill="white" transform="translate(631.928 638.604)"/>
</clipPath>
<clipPath id="clip8_243_778">
<rect width="147.458" height="224.793" fill="white" transform="translate(885.871 348.006)"/>
</clipPath>
<clipPath id="clip9_243_778">
<rect width="120.947" height="224.793" fill="white" transform="translate(899.126 348.006)"/>
</clipPath>
</defs>
</svg>
