<svg width="41" height="42" viewBox="0 0 41 42" fill="none" xmlns="http://www.w3.org/2000/svg">
<path d="M5.85559 10.7432C6.95225 11.8915 8.04839 13.0549 9.1593 14.2031L10.4073 15.4766C11.1041 16.1767 11.8167 16.8623 12.5333 17.54L14.6837 19.5586C14.706 19.5795 14.7292 19.6003 14.7521 19.6211C13.6373 19.2387 12.5403 18.8175 11.4659 18.3389L10.7628 18.0156C8.25937 16.8307 6.62655 15.0016 6.04211 12.3467L5.9884 12.0869C5.90358 11.6422 5.8759 11.2042 5.85559 10.7432ZM7.06067 9.1709C7.64736 9.224 8.20971 9.27642 8.76672 9.38086L9.15344 9.46289C11.0938 9.92268 12.5728 11.0973 13.6163 12.7559L13.8195 13.0938C14.4472 14.191 14.9767 15.3525 15.4825 16.5391L15.9825 17.7324C16.0606 17.92 16.1227 18.1179 16.1779 18.3262C15.9784 18.1145 15.78 17.9022 15.5782 17.6934L14.6583 16.7549C13.7336 15.8204 12.8083 14.8857 11.882 13.9521L9.09875 11.1553C8.43613 10.4915 7.72086 9.81782 7.06067 9.1709Z" stroke="white"/>
<path d="M32.0522 10.7549C32.0478 11.9636 31.8677 13.0929 31.3423 14.1533L31.1938 14.4355C30.4635 15.7372 29.4851 16.7576 28.2173 17.4922L27.9595 17.6348C26.3331 18.5012 24.6249 19.1687 22.8687 19.7432C23.4059 19.3229 23.9843 18.8841 24.5093 18.4004L24.7837 18.1377H24.7847C27.231 15.6978 29.6394 13.219 32.0522 10.7549ZM21.9019 18.2217C22.3022 16.9429 22.7996 15.7003 23.4136 14.5L23.6284 14.0898C24.0803 13.25 24.5655 12.4704 25.1665 11.7754L25.4321 11.4824C26.79 10.0516 28.4469 9.31577 30.3804 9.13477L30.771 9.10645C30.8157 9.10402 30.8603 9.10414 30.9048 9.10254C27.9037 12.1411 24.9014 15.1804 21.9019 18.2217Z" stroke="white"/>
<path d="M15.9902 27.2842C15.7942 27.7938 15.5839 28.2967 15.3505 28.79L15.0624 29.375C14.5833 30.3117 14.1333 31.2323 13.6269 32.1172L13.4062 32.4941C12.3949 34.181 10.9332 35.2667 9.05853 35.7471L8.67767 35.835C8.14817 35.9444 7.62173 36.0074 7.07709 36.0654C8.5073 34.6247 9.93466 33.184 11.3681 31.75L12.9863 30.1387C13.966 29.1672 14.9748 28.2441 15.9902 27.2842ZM14.912 25.6621C13.8121 26.44 12.8091 27.3223 11.8525 28.2324L10.8427 29.2129C9.76142 30.2782 8.70376 31.367 7.65814 32.4629L6.61615 33.5605C6.36244 33.8289 6.12025 34.118 5.8808 34.416C5.9378 32.2221 6.61493 30.3458 8.21381 28.8184L8.40424 28.6426C9.22282 27.9073 10.2142 27.41 11.2822 26.9707L11.7451 26.7852C12.8009 26.3714 13.8496 25.9802 14.912 25.6621ZM16.6816 25.2119C16.6236 25.4156 16.5636 25.6181 16.5009 25.8193C16.4474 25.7334 16.3877 25.6608 16.3369 25.6035H16.3359C16.2542 25.5114 16.1498 25.4209 16.0204 25.3613C16.24 25.3083 16.4599 25.2566 16.6816 25.2119Z" stroke="white"/>
<path d="M24.9411 30.1904L27.8268 33.0645C28.8187 34.0561 29.801 35.0556 30.7868 36.0566C28.8286 35.9279 27.1239 35.3852 25.777 33.9795L25.6227 33.8135C25.1043 33.2345 24.6457 32.5739 24.2507 31.8838L24.0856 31.5859C23.6182 30.7209 23.2033 29.8234 22.7995 28.9102L22.3981 27.9912C22.3171 27.8048 22.2409 27.6173 22.1686 27.4277C23.0859 28.3453 24.0135 29.2682 24.9411 30.1904ZM23.1423 25.6924C24.4741 26.096 25.7767 26.5623 27.0407 27.1318L27.7634 27.4707C29.1811 28.1633 30.2149 29.0724 30.9186 30.1758C31.5795 31.2119 31.964 32.444 32.0817 33.876L32.1022 34.1641V34.165C32.1083 34.2726 32.1119 34.38 32.1159 34.4873C32.0645 34.4243 32.0127 34.3617 31.9597 34.3008L31.7946 34.1182L29.2907 31.4854C28.8705 31.0479 28.4484 30.6119 28.0231 30.1787L26.737 28.8887C26.1804 28.3396 25.595 27.8142 25.0056 27.3008L23.2507 25.7842C23.2178 25.7553 23.1813 25.7246 23.1423 25.6924ZM21.3962 25.21C21.5206 25.2369 21.6433 25.2645 21.7673 25.2979V25.2988C21.8236 25.314 21.88 25.3303 21.9362 25.3457C21.8582 25.3715 21.7788 25.4062 21.7048 25.4512L21.6091 25.5166C21.5768 25.5421 21.5496 25.5698 21.5261 25.5977C21.4818 25.4702 21.44 25.3417 21.3962 25.21Z" stroke="white"/>
<path d="M12.4308 23.7139C11.4283 24.1993 10.4371 24.6735 9.43475 25.1191L8.5871 25.4883C6.90662 26.2017 5.17944 26.1488 3.52264 25.3945L3.19257 25.2344C2.73208 24.9971 2.33273 24.6647 1.88983 24.2939L1.42889 23.9131C1.34981 23.8493 1.27427 23.7833 1.1994 23.7168C2.93818 23.7229 4.67758 23.7305 6.41718 23.7363L11.8976 23.748C12.0774 23.748 12.2559 23.7333 12.4308 23.7139ZM14.5139 22.7061C14.2715 22.8229 14.03 22.9383 13.7902 23.0547C13.8076 23.013 13.8283 22.9652 13.8381 22.9092L13.8469 22.8066V22.8057C13.8478 22.6184 13.7766 22.4427 13.7082 22.3242C13.6962 22.3035 13.6824 22.2829 13.6682 22.2617C13.9502 22.4096 14.2319 22.5581 14.5139 22.7061ZM1.01483 21.7354C2.31583 20.1556 4.36416 19.118 6.50116 19.2783L6.73944 19.3008C7.8108 19.4262 8.81709 19.7659 9.79901 20.2412L10.218 20.4531C11.0885 20.9108 11.9607 21.3674 12.8322 21.8242C12.7056 21.7967 12.5758 21.7725 12.4435 21.7588L12.1496 21.7432C8.43738 21.7326 4.72565 21.7351 1.01483 21.7354Z" stroke="white"/>
<path d="M25.5242 23.6738C25.7334 23.7084 25.9495 23.7365 26.1677 23.748L26.3718 23.7539C29.858 23.7635 33.3439 23.753 36.8279 23.7461C36.5052 24.0736 36.171 24.3645 35.8074 24.6152L35.5261 24.7979C33.1291 26.2536 30.6988 26.2163 28.1951 24.9971H28.196C27.306 24.5634 26.4202 24.1229 25.5242 23.6738ZM24.3972 22.2393L24.3962 22.2412C24.2499 22.4046 24.0928 22.6809 24.1843 23.001C23.9674 22.892 23.7492 22.7829 23.53 22.6729C23.8252 22.5226 24.1197 22.3721 24.4138 22.2217L24.3972 22.2393ZM31.6013 19.2822C33.628 19.1953 35.3175 19.9313 36.7078 21.4189V21.418C36.7775 21.4927 36.8447 21.5687 36.9109 21.6445C36.1756 21.6435 35.4424 21.6434 34.7107 21.6426L31.4578 21.6504C30.5455 21.6574 29.6329 21.6729 28.7214 21.6914L25.9919 21.75C25.7676 21.7545 25.492 21.7615 25.2156 21.8125C26.1951 21.3104 27.1725 20.8086 28.156 20.3115L28.155 20.3105C29.2052 19.7805 30.2623 19.3854 31.3767 19.2959L31.6013 19.2822Z" stroke="white"/>
<path d="M18.1486 29.0547C18.0962 30.1012 18.0471 31.1526 18.0187 32.2061L17.9963 33.373C17.973 35.7262 17.9842 38.0823 17.9875 40.4258C17.3102 39.8611 16.7462 39.217 16.3478 38.4277L16.2433 38.209C15.9936 37.6551 15.8542 37.0774 15.7795 36.4648L15.7512 36.2002C15.5954 34.5082 16.0187 32.9469 16.8234 31.4404L16.9894 31.1396C17.3833 30.4482 17.7671 29.7514 18.1486 29.0547ZM19.9924 29.2383C20.4758 30.1093 20.9561 30.9636 21.3996 31.8379L21.6359 32.3135C22.4419 33.9739 22.6137 35.687 22.0598 37.4043L21.9387 37.748C21.5392 38.8028 20.8949 39.6947 20.0383 40.4209C20.0288 36.7192 20.1968 32.9564 19.9924 29.2383ZM19.006 27.4697C19.0519 27.5501 19.0969 27.6299 19.1418 27.709C19.1079 27.7061 19.0754 27.7023 19.0441 27.7012C18.9994 27.6995 18.9446 27.7006 18.884 27.7061L18.9338 27.6162C18.9593 27.569 18.9819 27.5192 19.006 27.4697Z" stroke="white"/>
<path d="M17.9938 7.09375C18.0063 8.5186 18.0205 9.94404 18.0358 11.3691L18.0885 15.6445C18.0903 15.7707 18.0972 15.8963 18.108 16.0205C17.7634 15.3393 17.4204 14.6569 17.0817 13.9717L16.3151 12.3936C15.0859 9.81495 15.8476 6.61071 17.9928 4.76953L17.9938 7.09375ZM20.0319 4.75781C21.1888 5.66263 21.9306 6.80166 22.2281 8.25781L22.2906 8.61523C22.5547 10.3769 22.0696 11.9482 21.1549 13.4746L20.9664 13.7793C20.8371 13.9819 20.7194 14.2018 20.611 14.416L20.3092 15.0195C20.2052 15.2199 20.1001 15.4206 19.9948 15.6221C20.0026 15.5387 20.0099 15.455 20.0143 15.3711L20.0211 15.1328C20.0394 11.6878 20.0331 8.2422 20.0319 4.75781Z" stroke="white"/>
<path d="M0.736328 26.501C2.05206 27.5482 3.55199 28.2066 5.29492 28.3535C4.83323 29.0076 4.38906 29.7116 4.09766 30.5176L4.01953 30.7451C3.79194 31.4628 3.62503 32.1919 3.54785 32.9404C2.06496 30.8493 1.18399 28.6191 0.736328 26.501Z" stroke="white"/>
<path d="M37.2947 26.499C37.0661 27.4669 36.6625 28.6423 36.158 29.8096C35.6204 31.053 34.9963 32.2198 34.4148 33.0664C34.3173 32.0543 34.1837 31.2879 33.9246 30.585C33.6482 29.8353 33.238 29.1786 32.6335 28.3799C34.3856 28.2071 35.9449 27.5906 37.2947 26.499Z" stroke="white"/>
<path d="M3.6062 12.2295C3.73816 13.9823 4.39088 15.5151 5.47144 16.8975C3.67625 16.9481 2.11531 17.5191 0.789795 18.6318C0.824612 18.4905 0.862227 18.3422 0.906006 18.1885C1.12827 17.408 1.45373 16.5156 1.84058 15.6143C2.36322 14.3966 2.98856 13.1904 3.6062 12.2295Z" stroke="white"/>
<path d="M34.4483 12.2549C35.7237 14.2307 36.6557 16.2978 37.1768 18.5312C36.7327 18.186 36.2506 17.9024 35.7452 17.6631L35.3077 17.4688C34.4544 17.1135 33.5754 16.9293 32.6583 16.8809C33.7582 15.5067 34.3233 13.9648 34.4483 12.2549Z" stroke="white"/>
<path d="M13.3058 36.3154C13.3979 38.0608 13.8903 39.6272 15.0441 40.8984C12.8347 40.4603 10.8027 39.5765 8.88007 38.3105C10.5121 38.0491 12.0062 37.4542 13.3058 36.3154Z" stroke="white"/>
<path d="M24.8439 36.4248C26.0832 37.5027 27.5023 38.0973 29.0773 38.3154C27.3166 39.4737 25.204 40.3807 23.0158 40.8936C24.1211 39.6264 24.7252 38.1492 24.8439 36.4248Z" stroke="white"/>
<path d="M14.8409 4.49023C13.7943 5.7303 13.3431 7.21969 13.2266 8.83105C11.9854 7.77021 10.558 7.18318 9.00299 6.91895C10.7944 5.74221 12.7442 4.95045 14.8409 4.49023Z" stroke="white"/>
<path d="M23.1846 4.53223C25.2494 4.95788 27.174 5.71463 28.9776 6.87695C27.4363 7.12562 26.0658 7.73578 24.8438 8.75293C24.7186 7.14863 24.1914 5.73276 23.1846 4.53223Z" stroke="white"/>
<circle cx="35.2015" cy="5.5" r="5.5" fill="#14CF55"/>
</svg>
