<svg width="501" height="246" viewBox="0 0 501 246" fill="none" xmlns="http://www.w3.org/2000/svg">
<rect x="1.4449" y="1.4449" width="498.11" height="243.11" rx="27.2001" fill="url(#paint0_linear_282_124)"/>
<rect x="1.4449" y="1.4449" width="498.11" height="243.11" rx="27.2001" stroke="#1C3023" stroke-width="1.11021"/>
<mask id="path-2-inside-1_282_124" fill="white">
<path d="M2 28.65C2 13.9316 13.9316 2 28.65 2H472.35C487.068 2 499 13.9316 499 28.65V78.8573H2V28.65Z"/>
</mask>
<path d="M2 28.65C2 13.9316 13.9316 2 28.65 2H472.35C487.068 2 499 13.9316 499 28.65V78.8573H2V28.65Z" fill="url(#paint1_linear_282_124)"/>
<path d="M2 2H499H2ZM499 79.9675H2V77.7471H499V79.9675ZM2 78.8573V2V78.8573ZM499 2V78.8573V2Z" fill="#1B261F" mask="url(#path-2-inside-1_282_124)"/>
<g filter="url(#filter0_ddd_282_124)">
<circle cx="27.3762" cy="43.2043" r="3.17203" fill="url(#paint2_linear_282_124)"/>
<circle cx="27.3762" cy="43.2043" r="3.02784" stroke="#38FF7E" stroke-width="0.288366"/>
</g>
<g filter="url(#filter1_ddd_282_124)">
<circle cx="44.8224" cy="43.2043" r="3.17203" fill="url(#paint3_linear_282_124)"/>
<circle cx="44.8224" cy="43.2043" r="3.02784" stroke="#38FF7E" stroke-width="0.288366"/>
</g>
<g filter="url(#filter2_ddd_282_124)">
<circle cx="62.2685" cy="43.2043" r="3.17203" fill="url(#paint4_linear_282_124)"/>
<circle cx="62.2685" cy="43.2043" r="3.02784" stroke="#38FF7E" stroke-width="0.288366"/>
</g>
<g filter="url(#filter3_d_282_124)">
<path d="M351.105 56.6963C350.034 56.6963 349.06 56.5363 348.184 56.2163C347.307 55.8963 346.556 55.4371 345.93 54.8389C345.31 54.2406 344.83 53.5102 344.49 52.6476C344.149 51.7919 343.978 50.825 343.978 49.7467C343.978 48.6406 344.138 47.545 344.458 46.4598C344.785 45.3745 345.272 44.345 345.919 43.3711L347.975 44.8632C347.85 45.0371 347.693 45.2945 347.505 45.6354C347.324 45.9763 347.15 46.3693 346.984 46.8145C346.817 47.2598 346.67 47.7398 346.545 48.2545C346.427 48.7693 346.368 49.2876 346.368 49.8093C346.368 50.4284 346.497 50.9919 346.754 51.4998C347.018 52.0076 347.373 52.4424 347.818 52.8041C348.264 53.1728 348.778 53.458 349.363 53.6598C349.954 53.8684 350.577 53.9798 351.23 53.9937C351.265 53.9937 351.3 53.9937 351.335 53.9937C351.822 53.9937 352.298 53.945 352.764 53.8476C353.237 53.7571 353.686 53.6145 354.11 53.4198C354.535 53.2319 354.921 53.0024 355.269 52.7311C355.617 52.4598 355.912 52.1571 356.156 51.8232C356.399 51.4893 356.587 51.1276 356.719 50.738C356.824 50.4041 356.876 50.0563 356.876 49.6945C356.876 49.6389 356.876 49.5798 356.876 49.5171C356.862 49.1971 356.806 48.8424 356.709 48.4528C356.618 48.0563 356.507 47.6563 356.375 47.2528C356.243 46.8493 356.1 46.4563 355.947 46.0737C355.801 45.6841 355.662 45.3398 355.53 45.0406C355.397 44.7415 355.286 44.5015 355.196 44.3206C355.105 44.1398 355.057 44.0493 355.05 44.0493L357.502 42.6824C357.523 42.7102 357.578 42.825 357.669 43.0267C357.759 43.2284 357.867 43.4928 357.992 43.8198C358.117 44.1467 358.253 44.5224 358.399 44.9467C358.545 45.3641 358.681 45.8093 358.806 46.2824C358.938 46.7484 359.05 47.225 359.14 47.7119C359.237 48.1989 359.297 48.665 359.317 49.1102C359.324 49.2632 359.328 49.4128 359.328 49.5589C359.328 50.0389 359.279 50.5502 359.182 51.0928C359.084 51.6424 358.9 52.1989 358.629 52.7624C358.364 53.3258 358.013 53.8476 357.575 54.3276C357.137 54.8076 356.608 55.2215 355.989 55.5693C355.377 55.9241 354.664 56.1989 353.85 56.3937C353.036 56.5954 352.121 56.6963 351.105 56.6963ZM353.735 42.4528L351.731 44.4563L349.738 42.4528L351.731 40.4598L353.735 42.4528ZM366.793 49.5171H366.376C364.964 49.5171 363.892 49.1624 363.162 48.4528C362.432 47.7432 362.063 46.6719 362.056 45.2389C362.056 45.0163 362.063 44.6511 362.077 44.1432C362.091 43.6284 362.098 43.0024 362.098 42.265C362.098 41.8267 362.094 41.3571 362.087 40.8563C362.08 40.3484 362.07 39.8337 362.056 39.3119C362.042 38.7832 362.021 38.258 361.993 37.7363C361.972 37.2076 361.945 36.6998 361.91 36.2128C361.875 35.7189 361.833 35.2598 361.785 34.8354C361.736 34.4041 361.68 34.025 361.618 33.698L364.237 32.9154C364.313 33.3189 364.383 33.8128 364.445 34.3971C364.508 34.9745 364.564 35.5937 364.612 36.2545C364.661 36.9154 364.696 37.5902 364.717 38.2789C364.745 38.9606 364.758 39.6041 364.758 40.2093C364.758 40.578 364.762 40.9711 364.769 41.3884C364.776 41.7989 364.779 42.1606 364.779 42.4737C364.779 42.738 364.776 42.9884 364.769 43.225C364.769 43.4545 364.765 43.6771 364.758 43.8928C364.758 44.1084 364.755 44.3206 364.748 44.5293C364.748 44.738 364.748 44.9502 364.748 45.1658C364.748 45.2215 364.748 45.2771 364.748 45.3328C364.748 45.5832 364.772 45.8058 364.821 46.0006C364.877 46.1954 364.971 46.3589 365.103 46.4911C365.235 46.6163 365.402 46.7067 365.604 46.7624C365.812 46.818 366.052 46.8458 366.324 46.8458H366.793V49.5171ZM374.154 46.8458V49.5171H373.945C373.271 49.5171 372.693 49.4093 372.213 49.1937C371.74 48.978 371.34 48.6998 371.013 48.3589C370.533 48.7554 369.949 49.0476 369.26 49.2354C368.578 49.4232 367.747 49.5171 366.766 49.5171H366.38V46.8458H366.766C367.831 46.8458 368.631 46.665 369.166 46.3032C369.709 45.9345 369.98 45.385 369.98 44.6545C369.98 44.418 369.931 44.0945 369.834 43.6841C369.737 43.2667 369.598 42.7484 369.417 42.1293L371.984 41.4093C372.074 41.7154 372.144 41.9902 372.192 42.2337C372.248 42.4702 372.293 42.7102 372.328 42.9537C372.37 43.1902 372.401 43.4476 372.422 43.7258C372.45 43.9971 372.478 44.3171 372.505 44.6858C372.526 44.9084 372.558 45.1484 372.599 45.4058C372.648 45.6563 372.725 45.8893 372.829 46.105C372.933 46.3137 373.072 46.4911 373.246 46.6371C373.427 46.7763 373.66 46.8458 373.945 46.8458H374.154ZM372.098 52.9084L370.095 54.9119L368.102 52.9084L370.095 50.9154L372.098 52.9084ZM383.089 43.3919C382.839 43.0998 382.547 42.8354 382.213 42.5989C381.934 42.3971 381.611 42.2163 381.242 42.0563C380.873 41.8893 380.47 41.8058 380.032 41.8058C379.677 41.8058 379.364 41.8615 379.093 41.9728C378.821 42.0771 378.592 42.2232 378.404 42.4111C378.216 42.5919 378.07 42.8041 377.966 43.0476C377.861 43.2911 377.799 43.5519 377.778 43.8302C377.771 43.8789 377.767 43.9276 377.767 43.9763C377.767 44.3032 377.854 44.6232 378.028 44.9363C378.202 45.2424 378.446 45.5171 378.759 45.7606C379.072 45.9971 379.433 46.178 379.844 46.3032C380.178 46.4076 380.515 46.4598 380.856 46.4598C380.933 46.4598 381.009 46.4563 381.086 46.4493C381.489 46.4215 381.893 46.3798 382.296 46.3241C382.707 46.2615 383.079 46.2024 383.413 46.1467L384.529 45.9276L384.853 48.5258C384.421 48.6371 383.938 48.7519 383.402 48.8702C382.867 48.9884 382.251 49.0963 381.555 49.1937C380.867 49.2841 380.084 49.3606 379.207 49.4232C378.331 49.4858 377.336 49.5171 376.223 49.5171H373.74V46.8458H374.199L376.192 46.8354C375.816 46.3971 375.559 45.9484 375.42 45.4893C375.287 45.0232 375.221 44.5119 375.221 43.9554C375.221 43.3015 375.343 42.6824 375.587 42.098C375.83 41.5137 376.164 41.0024 376.588 40.5641C377.02 40.1258 377.527 39.778 378.112 39.5206C378.703 39.2632 379.343 39.1345 380.032 39.1345C380.373 39.1345 380.7 39.1658 381.013 39.2284C381.333 39.2911 381.635 39.3745 381.92 39.4789C382.206 39.5832 382.473 39.7015 382.724 39.8337C382.981 39.9658 383.214 40.098 383.423 40.2302C383.667 40.3902 383.903 40.5606 384.133 40.7415C384.362 40.9224 384.578 41.1137 384.78 41.3154L383.089 43.3919ZM382.129 35.5137L380.126 37.5171L378.133 35.5137L380.126 33.5206L382.129 35.5137ZM392.27 49.5171H391.852C390.44 49.5171 389.369 49.1624 388.639 48.4528C387.908 47.7432 387.539 46.6719 387.532 45.2389C387.532 45.0163 387.539 44.6511 387.553 44.1432C387.567 43.6284 387.574 43.0024 387.574 42.265C387.574 41.8267 387.571 41.3571 387.564 40.8563C387.557 40.3484 387.546 39.8337 387.532 39.3119C387.519 38.7832 387.498 38.258 387.47 37.7363C387.449 37.2076 387.421 36.6998 387.386 36.2128C387.352 35.7189 387.31 35.2598 387.261 34.8354C387.212 34.4041 387.157 34.025 387.094 33.698L389.713 32.9154C389.79 33.3189 389.859 33.8128 389.922 34.3971C389.985 34.9745 390.04 35.5937 390.089 36.2545C390.138 36.9154 390.172 37.5902 390.193 38.2789C390.221 38.9606 390.235 39.6041 390.235 40.2093C390.235 40.578 390.239 40.9711 390.245 41.3884C390.252 41.7989 390.256 42.1606 390.256 42.4737C390.256 42.738 390.252 42.9884 390.245 43.225C390.245 43.4545 390.242 43.6771 390.235 43.8928C390.235 44.1084 390.232 44.3206 390.225 44.5293C390.225 44.738 390.225 44.9502 390.225 45.1658C390.225 45.2215 390.225 45.2771 390.225 45.3328C390.225 45.5832 390.249 45.8058 390.298 46.0006C390.353 46.1954 390.447 46.3589 390.579 46.4911C390.712 46.6163 390.879 46.7067 391.08 46.7624C391.289 46.818 391.529 46.8458 391.8 46.8458H392.27V49.5171ZM391.857 46.8458H393.537C393.864 46.8458 394.198 46.8284 394.538 46.7937C394.886 46.7519 395.199 46.6719 395.478 46.5537C395.756 46.4284 395.982 46.2511 396.156 46.0215C396.337 45.7919 396.427 45.4858 396.427 45.1032C396.427 44.9224 396.389 44.6684 396.312 44.3415C396.236 44.0145 396.135 43.6528 396.01 43.2563C395.885 42.8598 395.735 42.4493 395.561 42.025C395.394 41.6006 395.217 41.2041 395.029 40.8354L397.439 39.6458C397.613 40.0424 397.787 40.4632 397.961 40.9084C398.135 41.3537 398.288 41.8128 398.42 42.2858C398.559 42.7519 398.671 43.2215 398.754 43.6945C398.838 44.1676 398.879 44.6302 398.879 45.0824C398.879 45.8615 398.747 46.5328 398.483 47.0963C398.218 47.6528 397.85 48.1119 397.377 48.4737C396.904 48.8284 396.337 49.0893 395.676 49.2563C395.022 49.4302 394.302 49.5171 393.516 49.5171H391.857V46.8458ZM397.231 52.9084L395.227 54.9119L393.234 52.9084L395.227 50.9154L397.231 52.9084ZM410.916 45.9067C410.506 46.5189 410.203 47.1867 410.009 47.9102C409.814 48.6337 409.716 49.3537 409.716 50.0702C409.716 50.6406 409.849 51.1484 410.113 51.5937C410.377 52.0458 410.715 52.425 411.125 52.7311C411.535 53.0441 411.991 53.2806 412.492 53.4406C412.993 53.6076 413.48 53.6911 413.953 53.6911C414.433 53.6911 414.93 53.6076 415.445 53.4406C415.967 53.2806 416.443 53.0232 416.875 52.6684C417.306 52.3206 417.661 51.8684 417.939 51.3119C418.217 50.7624 418.356 50.0945 418.356 49.3084C418.356 48.7589 418.346 48.1119 418.325 47.3676C418.304 46.6232 418.276 45.8337 418.242 44.9989C418.214 44.1571 418.179 43.2911 418.137 42.4006C418.095 41.5102 418.054 40.6406 418.012 39.7919C417.963 38.7971 417.918 37.7606 417.876 36.6824C417.835 35.5971 417.782 34.5119 417.72 33.4267L420.443 32.9154C420.492 34.0563 420.53 35.1902 420.558 36.3171C420.586 37.4371 420.617 38.5154 420.652 39.5519L420.819 44.905C420.854 45.1693 420.916 45.4198 421.007 45.6563C421.104 45.8858 421.229 46.0911 421.382 46.2719C421.542 46.4458 421.737 46.585 421.967 46.6893C422.196 46.7937 422.464 46.8458 422.77 46.8458H422.979V49.5171H422.77C422.422 49.5171 422.089 49.4928 421.769 49.4441C421.449 49.4024 421.163 49.3119 420.913 49.1728V49.3502C420.913 50.2267 420.809 51.0093 420.6 51.698C420.398 52.3867 420.123 52.9884 419.775 53.5032C419.428 54.025 419.021 54.4667 418.555 54.8284C418.095 55.1902 417.609 55.4858 417.094 55.7154C416.586 55.945 416.068 56.1084 415.539 56.2058C415.01 56.3102 414.502 56.3624 414.015 56.3624C413.549 56.3624 413.059 56.3102 412.544 56.2058C412.036 56.1015 411.532 55.9415 411.031 55.7258C410.53 55.5102 410.054 55.2319 409.602 54.8911C409.149 54.5571 408.749 54.1571 408.402 53.6911C408.061 53.225 407.793 52.6893 407.598 52.0841C407.403 51.5067 407.306 50.8563 407.306 50.1328C407.306 50.1119 407.306 50.0876 407.306 50.0598C407.306 49.6145 407.33 49.1589 407.379 48.6928C407.435 48.2267 407.518 47.7676 407.629 47.3154C407.741 46.8632 407.88 46.4284 408.047 46.0111C408.214 45.5937 408.419 45.2111 408.662 44.8632L410.916 45.9067ZM422.56 46.8458H424.782C425.109 46.8458 425.461 46.8284 425.836 46.7937C426.219 46.7519 426.57 46.6719 426.89 46.5537C427.217 46.4284 427.485 46.2511 427.694 46.0215C427.909 45.7919 428.017 45.4858 428.017 45.1032C428.017 44.9224 427.979 44.6684 427.902 44.3415C427.826 44.0145 427.725 43.6528 427.6 43.2563C427.475 42.8598 427.325 42.4493 427.151 42.025C426.984 41.6006 426.807 41.2041 426.619 40.8354L429.029 39.6458C429.203 40.0424 429.377 40.4632 429.551 40.9084C429.725 41.3537 429.878 41.8128 430.01 42.2858C430.149 42.7519 430.261 43.2215 430.344 43.6945C430.428 44.1676 430.469 44.6302 430.469 45.0824C430.469 45.8893 430.32 46.5745 430.021 47.138C429.722 47.7015 429.311 48.1606 428.789 48.5154C428.275 48.8632 427.669 49.1171 426.974 49.2771C426.285 49.4371 425.548 49.5171 424.762 49.5171H422.56V46.8458ZM426.442 52.6058L424.668 54.3798L422.873 52.5954L424.647 50.8111L426.442 52.6058ZM430.386 52.6163L428.612 54.4006L426.817 52.6058L428.591 50.8319L430.386 52.6163ZM438.231 49.5171H437.813C436.401 49.5171 435.33 49.1624 434.599 48.4528C433.869 47.7432 433.5 46.6719 433.493 45.2389C433.493 45.0163 433.5 44.6511 433.514 44.1432C433.528 43.6284 433.535 43.0024 433.535 42.265C433.535 41.8267 433.532 41.3571 433.525 40.8563C433.518 40.3484 433.507 39.8337 433.493 39.3119C433.479 38.7832 433.459 38.258 433.431 37.7363C433.41 37.2076 433.382 36.6998 433.347 36.2128C433.312 35.7189 433.271 35.2598 433.222 34.8354C433.173 34.4041 433.118 34.025 433.055 33.698L435.674 32.9154C435.751 33.3189 435.82 33.8128 435.883 34.3971C435.946 34.9745 436.001 35.5937 436.05 36.2545C436.099 36.9154 436.133 37.5902 436.154 38.2789C436.182 38.9606 436.196 39.6041 436.196 40.2093C436.196 40.578 436.199 40.9711 436.206 41.3884C436.213 41.7989 436.217 42.1606 436.217 42.4737C436.217 42.738 436.213 42.9884 436.206 43.225C436.206 43.4545 436.203 43.6771 436.196 43.8928C436.196 44.1084 436.192 44.3206 436.186 44.5293C436.186 44.738 436.186 44.9502 436.186 45.1658C436.186 45.2215 436.186 45.2771 436.186 45.3328C436.186 45.5832 436.21 45.8058 436.259 46.0006C436.314 46.1954 436.408 46.3589 436.54 46.4911C436.672 46.6163 436.839 46.7067 437.041 46.7624C437.25 46.818 437.49 46.8458 437.761 46.8458H438.231V49.5171ZM438.068 46.8458C438.799 46.8458 439.501 46.825 440.176 46.7832C440.851 46.7345 441.466 46.6684 442.023 46.585C442.579 46.5015 443.059 46.4006 443.463 46.2824C443.866 46.1641 444.169 46.0319 444.371 45.8858H443.306C442.694 45.8858 442.11 45.8093 441.553 45.6563C441.004 45.4963 440.52 45.2598 440.103 44.9467C439.685 44.6337 439.352 44.2441 439.101 43.778C438.858 43.305 438.736 42.7554 438.736 42.1293C438.736 41.7606 438.774 41.3815 438.851 40.9919C438.927 40.6024 439.042 40.2232 439.195 39.8545C439.348 39.4858 439.532 39.138 439.748 38.8111C439.964 38.4841 440.211 38.1989 440.489 37.9554C440.767 37.705 441.073 37.5102 441.407 37.3711C441.741 37.225 442.103 37.1519 442.492 37.1519C442.972 37.1519 443.421 37.2528 443.839 37.4545C444.256 37.6563 444.635 37.9311 444.976 38.2789C445.317 38.6198 445.619 39.0163 445.884 39.4684C446.148 39.9206 446.371 40.3971 446.552 40.898C446.732 41.3989 446.868 41.9102 446.959 42.4319C447.056 42.9467 447.105 43.4371 447.105 43.9032C447.105 44.6963 446.993 45.385 446.771 45.9693C446.555 46.5537 446.249 47.0545 445.852 47.4719C445.463 47.8893 444.993 48.2302 444.444 48.4945C443.901 48.7589 443.299 48.9676 442.639 49.1206C441.978 49.2737 441.268 49.378 440.51 49.4337C439.759 49.4893 438.979 49.5171 438.172 49.5171H437.818V46.8458H438.068ZM442.492 39.8441C442.458 39.8371 442.423 39.8337 442.388 39.8337C442.249 39.8337 442.089 39.8893 441.908 40.0006C441.727 40.1119 441.553 40.2719 441.386 40.4806C441.219 40.6893 441.084 40.9258 440.979 41.1902C440.875 41.4476 440.823 41.7015 440.823 41.9519C440.823 41.9658 440.823 41.9798 440.823 41.9937C440.823 42.2441 440.879 42.4493 440.99 42.6093C441.101 42.7624 441.251 42.8806 441.439 42.9641C441.633 43.0476 441.856 43.1067 442.106 43.1415C442.364 43.1763 442.635 43.2006 442.92 43.2145C443.108 43.2215 443.303 43.225 443.505 43.225C443.602 43.225 443.752 43.225 443.953 43.225C444.162 43.218 444.374 43.2076 444.59 43.1937C444.527 42.9432 444.437 42.6337 444.319 42.265C444.207 41.8893 444.065 41.5276 443.891 41.1798C443.724 40.825 443.522 40.5189 443.285 40.2615C443.056 40.0041 442.792 39.865 442.492 39.8441ZM444.412 33.7606L442.409 35.7641L440.416 33.7606L442.409 31.7676L444.412 33.7606ZM453.275 42.7345C453.094 42.7345 452.9 42.8111 452.691 42.9641C452.482 43.1171 452.291 43.3154 452.117 43.5589C451.943 43.7954 451.797 44.0598 451.679 44.3519C451.568 44.6441 451.512 44.9293 451.512 45.2076C451.512 45.4998 451.578 45.7432 451.71 45.938C451.849 46.1258 452.023 46.2789 452.232 46.3971C452.448 46.5154 452.688 46.6058 452.952 46.6684C453.223 46.7241 453.491 46.7658 453.755 46.7937C453.901 46.8006 454.061 46.8076 454.235 46.8145C454.409 46.8215 454.587 46.8284 454.768 46.8354C454.955 46.8354 455.14 46.8389 455.321 46.8458C455.501 46.8458 455.672 46.8458 455.832 46.8458C455.811 46.5884 455.759 46.3102 455.675 46.0111C455.599 45.705 455.498 45.3989 455.373 45.0928C455.248 44.7867 455.105 44.4945 454.945 44.2163C454.785 43.9311 454.611 43.6806 454.423 43.465C454.242 43.2424 454.054 43.065 453.86 42.9328C453.665 42.8006 453.47 42.7345 453.275 42.7345ZM448.538 54.2128C449.561 54.0111 450.482 53.7398 451.303 53.3989C452.131 53.065 452.848 52.6893 453.453 52.2719C454.058 51.8545 454.548 51.4093 454.924 50.9363C455.307 50.4632 455.561 49.9902 455.686 49.5171C455.122 49.5171 454.573 49.4998 454.037 49.465C453.501 49.4302 452.994 49.3606 452.514 49.2563C452.041 49.1589 451.602 49.0198 451.199 48.8389C450.802 48.6511 450.458 48.4076 450.166 48.1084C449.881 47.8024 449.658 47.4337 449.498 47.0024C449.338 46.5711 449.258 46.0563 449.258 45.458C449.258 45.0754 449.3 44.6754 449.383 44.258C449.467 43.8406 449.585 43.4337 449.738 43.0371C449.898 42.6337 450.093 42.2545 450.322 41.8998C450.552 41.538 450.816 41.2215 451.115 40.9502C451.414 40.6719 451.745 40.4528 452.107 40.2928C452.468 40.1328 452.858 40.0528 453.275 40.0528C454.354 40.0528 455.338 40.5328 456.228 41.4928C456.548 41.8476 456.834 42.2511 457.084 42.7032C457.341 43.1484 457.557 43.6284 457.731 44.1432C457.912 44.6511 458.048 45.1832 458.138 45.7398C458.235 46.2963 458.284 46.8598 458.284 47.4302C458.284 48.3206 458.169 49.1519 457.94 49.9241C457.717 50.7032 457.401 51.4198 456.99 52.0737C456.587 52.7276 456.103 53.3154 455.54 53.8371C454.976 54.3658 454.357 54.8284 453.682 55.225C453.008 55.6215 452.288 55.9519 451.522 56.2163C450.757 56.4876 449.971 56.6893 449.164 56.8215L448.538 54.2128ZM467.833 49.5171H467.51C467.329 49.5171 467.099 49.4963 466.821 49.4545C466.55 49.4128 466.251 49.2876 465.924 49.0789C465.833 49.9554 465.565 50.7937 465.12 51.5937C464.675 52.4006 464.115 53.1554 463.44 53.858C462.772 54.5606 462.018 55.2041 461.176 55.7884C460.341 56.3728 459.482 56.8841 458.598 57.3224L457.43 54.9119C457.917 54.6615 458.407 54.3902 458.901 54.098C459.388 53.8058 459.854 53.4928 460.299 53.1589C460.744 52.825 461.158 52.4771 461.541 52.1154C461.931 51.7537 462.264 51.3745 462.543 50.978C462.828 50.5815 463.051 50.1745 463.211 49.7571C463.378 49.3398 463.461 48.9119 463.461 48.4737C463.461 48.1606 463.416 47.8163 463.325 47.4406C463.235 47.058 463.12 46.6615 462.981 46.2511C462.842 45.8406 462.692 45.4267 462.532 45.0093C462.372 44.585 462.226 44.1745 462.094 43.778L464.598 42.7345C464.87 43.5484 465.117 44.2232 465.339 44.7589C465.569 45.2876 465.791 45.7084 466.007 46.0215C466.23 46.3276 466.459 46.5432 466.696 46.6684C466.939 46.7867 467.214 46.8458 467.52 46.8458H467.844L467.833 49.5171ZM467.419 46.8458H469.642C469.969 46.8458 470.32 46.8284 470.696 46.7937C471.078 46.7519 471.43 46.6719 471.75 46.5537C472.077 46.4284 472.344 46.2511 472.553 46.0215C472.769 45.7919 472.877 45.4858 472.877 45.1032C472.877 44.9224 472.838 44.6684 472.762 44.3415C472.685 44.0145 472.584 43.6528 472.459 43.2563C472.334 42.8598 472.184 42.4493 472.011 42.025C471.844 41.6006 471.666 41.2041 471.478 40.8354L473.889 39.6458C474.063 40.0424 474.237 40.4632 474.411 40.9084C474.584 41.3537 474.737 41.8128 474.87 42.2858C475.009 42.7519 475.12 43.2215 475.204 43.6945C475.287 44.1676 475.329 44.6302 475.329 45.0824C475.329 45.8893 475.179 46.5745 474.88 47.138C474.581 47.7015 474.171 48.1606 473.649 48.5154C473.134 48.8632 472.529 49.1171 471.833 49.2771C471.144 49.4371 470.407 49.5171 469.621 49.5171H467.419V46.8458ZM471.812 53.0754L473.586 51.3015L475.381 53.0858L473.607 54.8702L471.812 53.0754ZM467.868 53.065L469.642 51.2806L471.437 53.0754L469.663 54.8493L467.868 53.065ZM473.252 56.0911L471.624 57.7189L469.986 56.0806L471.624 54.4528L473.252 56.0911Z" fill="white"/>
</g>
<defs>
<filter id="filter0_ddd_282_124" x="14.1552" y="29.9832" width="26.4419" height="26.4422" filterUnits="userSpaceOnUse" color-interpolation-filters="sRGB">
<feFlood flood-opacity="0" result="BackgroundImageFix"/>
<feColorMatrix in="SourceAlpha" type="matrix" values="0 0 0 0 0 0 0 0 0 0 0 0 0 0 0 0 0 0 127 0" result="hardAlpha"/>
<feOffset/>
<feGaussianBlur stdDeviation="0.209354"/>
<feColorMatrix type="matrix" values="0 0 0 0 0.219608 0 0 0 0 1 0 0 0 0 0.494118 0 0 0 1 0"/>
<feBlend mode="normal" in2="BackgroundImageFix" result="effect1_dropShadow_282_124"/>
<feColorMatrix in="SourceAlpha" type="matrix" values="0 0 0 0 0 0 0 0 0 0 0 0 0 0 0 0 0 0 127 0" result="hardAlpha"/>
<feOffset/>
<feGaussianBlur stdDeviation="1.46548"/>
<feColorMatrix type="matrix" values="0 0 0 0 0.219608 0 0 0 0 1 0 0 0 0 0.494118 0 0 0 1 0"/>
<feBlend mode="normal" in2="effect1_dropShadow_282_124" result="effect2_dropShadow_282_124"/>
<feColorMatrix in="SourceAlpha" type="matrix" values="0 0 0 0 0 0 0 0 0 0 0 0 0 0 0 0 0 0 127 0" result="hardAlpha"/>
<feOffset/>
<feGaussianBlur stdDeviation="5.02449"/>
<feColorMatrix type="matrix" values="0 0 0 0 0.219608 0 0 0 0 1 0 0 0 0 0.494118 0 0 0 1 0"/>
<feBlend mode="normal" in2="effect2_dropShadow_282_124" result="effect3_dropShadow_282_124"/>
<feBlend mode="normal" in="SourceGraphic" in2="effect3_dropShadow_282_124" result="shape"/>
</filter>
<filter id="filter1_ddd_282_124" x="31.6014" y="29.9832" width="26.4419" height="26.4422" filterUnits="userSpaceOnUse" color-interpolation-filters="sRGB">
<feFlood flood-opacity="0" result="BackgroundImageFix"/>
<feColorMatrix in="SourceAlpha" type="matrix" values="0 0 0 0 0 0 0 0 0 0 0 0 0 0 0 0 0 0 127 0" result="hardAlpha"/>
<feOffset/>
<feGaussianBlur stdDeviation="0.209354"/>
<feColorMatrix type="matrix" values="0 0 0 0 0.219608 0 0 0 0 1 0 0 0 0 0.494118 0 0 0 1 0"/>
<feBlend mode="normal" in2="BackgroundImageFix" result="effect1_dropShadow_282_124"/>
<feColorMatrix in="SourceAlpha" type="matrix" values="0 0 0 0 0 0 0 0 0 0 0 0 0 0 0 0 0 0 127 0" result="hardAlpha"/>
<feOffset/>
<feGaussianBlur stdDeviation="1.46548"/>
<feColorMatrix type="matrix" values="0 0 0 0 0.219608 0 0 0 0 1 0 0 0 0 0.494118 0 0 0 1 0"/>
<feBlend mode="normal" in2="effect1_dropShadow_282_124" result="effect2_dropShadow_282_124"/>
<feColorMatrix in="SourceAlpha" type="matrix" values="0 0 0 0 0 0 0 0 0 0 0 0 0 0 0 0 0 0 127 0" result="hardAlpha"/>
<feOffset/>
<feGaussianBlur stdDeviation="5.02449"/>
<feColorMatrix type="matrix" values="0 0 0 0 0.219608 0 0 0 0 1 0 0 0 0 0.494118 0 0 0 1 0"/>
<feBlend mode="normal" in2="effect2_dropShadow_282_124" result="effect3_dropShadow_282_124"/>
<feBlend mode="normal" in="SourceGraphic" in2="effect3_dropShadow_282_124" result="shape"/>
</filter>
<filter id="filter2_ddd_282_124" x="49.0475" y="29.9832" width="26.4419" height="26.4422" filterUnits="userSpaceOnUse" color-interpolation-filters="sRGB">
<feFlood flood-opacity="0" result="BackgroundImageFix"/>
<feColorMatrix in="SourceAlpha" type="matrix" values="0 0 0 0 0 0 0 0 0 0 0 0 0 0 0 0 0 0 127 0" result="hardAlpha"/>
<feOffset/>
<feGaussianBlur stdDeviation="0.209354"/>
<feColorMatrix type="matrix" values="0 0 0 0 0.219608 0 0 0 0 1 0 0 0 0 0.494118 0 0 0 1 0"/>
<feBlend mode="normal" in2="BackgroundImageFix" result="effect1_dropShadow_282_124"/>
<feColorMatrix in="SourceAlpha" type="matrix" values="0 0 0 0 0 0 0 0 0 0 0 0 0 0 0 0 0 0 127 0" result="hardAlpha"/>
<feOffset/>
<feGaussianBlur stdDeviation="1.46548"/>
<feColorMatrix type="matrix" values="0 0 0 0 0.219608 0 0 0 0 1 0 0 0 0 0.494118 0 0 0 1 0"/>
<feBlend mode="normal" in2="effect1_dropShadow_282_124" result="effect2_dropShadow_282_124"/>
<feColorMatrix in="SourceAlpha" type="matrix" values="0 0 0 0 0 0 0 0 0 0 0 0 0 0 0 0 0 0 127 0" result="hardAlpha"/>
<feOffset/>
<feGaussianBlur stdDeviation="5.02449"/>
<feColorMatrix type="matrix" values="0 0 0 0 0.219608 0 0 0 0 1 0 0 0 0 0.494118 0 0 0 1 0"/>
<feBlend mode="normal" in2="effect2_dropShadow_282_124" result="effect3_dropShadow_282_124"/>
<feBlend mode="normal" in="SourceGraphic" in2="effect3_dropShadow_282_124" result="shape"/>
</filter>
<filter id="filter3_d_282_124" x="328.978" y="16.7676" width="161.403" height="55.9512" filterUnits="userSpaceOnUse" color-interpolation-filters="sRGB">
<feFlood flood-opacity="0" result="BackgroundImageFix"/>
<feColorMatrix in="SourceAlpha" type="matrix" values="0 0 0 0 0 0 0 0 0 0 0 0 0 0 0 0 0 0 127 0" result="hardAlpha"/>
<feOffset/>
<feGaussianBlur stdDeviation="7.5"/>
<feComposite in2="hardAlpha" operator="out"/>
<feColorMatrix type="matrix" values="0 0 0 0 1 0 0 0 0 1 0 0 0 0 1 0 0 0 0.72 0"/>
<feBlend mode="normal" in2="BackgroundImageFix" result="effect1_dropShadow_282_124"/>
<feBlend mode="normal" in="SourceGraphic" in2="effect1_dropShadow_282_124" result="shape"/>
</filter>
<linearGradient id="paint0_linear_282_124" x1="250.5" y1="41.5313" x2="219.901" y2="239.265" gradientUnits="userSpaceOnUse">
<stop stop-color="#050C08"/>
<stop offset="1" stop-color="#060D09"/>
</linearGradient>
<linearGradient id="paint1_linear_282_124" x1="250.5" y1="2" x2="250.5" y2="78.8573" gradientUnits="userSpaceOnUse">
<stop stop-color="#0A160F"/>
<stop offset="0.394524" stop-color="#08100B"/>
<stop offset="0.94278" stop-color="#060D08"/>
</linearGradient>
<linearGradient id="paint2_linear_282_124" x1="27.3762" y1="40.0322" x2="27.3762" y2="46.3763" gradientUnits="userSpaceOnUse">
<stop stop-color="#38FF7E"/>
<stop offset="1" stop-color="#28CF63"/>
</linearGradient>
<linearGradient id="paint3_linear_282_124" x1="44.8224" y1="40.0322" x2="44.8224" y2="46.3763" gradientUnits="userSpaceOnUse">
<stop stop-color="#38FF7E"/>
<stop offset="1" stop-color="#28CF63"/>
</linearGradient>
<linearGradient id="paint4_linear_282_124" x1="62.2685" y1="40.0322" x2="62.2685" y2="46.3763" gradientUnits="userSpaceOnUse">
<stop stop-color="#38FF7E"/>
<stop offset="1" stop-color="#28CF63"/>
</linearGradient>
</defs>
</svg>
