<svg width="716" height="830" viewBox="0 0 716 830" fill="none" xmlns="http://www.w3.org/2000/svg">
<g filter="url(#filter0_d_317_224)">
<path d="M697.533 28.1271C692.106 21.0205 681.032 16.3853 664.531 14.444C621.602 9.23541 536.008 22.3451 479.534 67.6769C420.237 115.349 390.058 212.327 387.809 251.165C387.235 260.523 388.162 267.1 390.412 271.514C375.411 294.114 363.057 317.066 354.586 339.666C348.586 318.655 338.085 295.703 323.878 272.087C325.554 267.673 326.26 261.67 325.819 253.548C323.878 214.573 294.759 117.373 236.035 69.0431C180.003 23.0489 94.4102 9.0562 51.6144 13.9118C35.1139 15.7216 23.9513 20.2238 18.5242 27.2423C-0.799953 52.005 31.407 174.142 102.087 232.235C151.678 272.932 230.746 286.571 277.291 286.571C285.101 286.571 291.983 286.218 297.719 285.424C303.587 284.762 307.867 283.746 311.264 282.599C332.705 318.309 344.928 352.561 343.56 380.458C343.56 380.812 343.56 381.032 343.692 381.253C342.104 393.921 338.707 432.677 336.677 485.777C324.588 490.765 284.263 508.025 244.951 531.419C209.699 514.469 170.742 506.877 131.778 511.202C127.278 511.776 123.307 514.689 123.307 519.677C123.307 523.871 127.145 528.726 131.778 528.152C164.648 524.444 197.517 529.388 227.915 542.145C215.165 550.487 202.944 559.447 192.575 568.718C190.193 570.748 188.075 572.911 185.781 575.03C152.47 566.423 115.321 571.984 84.702 586.992C74.8633 591.847 83.4666 606.414 93.3055 601.691C116.777 590.171 145.279 585.183 171.487 589.243C133.411 628.925 111.307 667.768 110.159 669.711C107.909 673.772 109.277 678.98 113.424 681.231C114.792 682.026 116.116 682.379 117.616 682.379C120.572 682.379 123.484 680.79 124.94 678.097C125.293 677.523 155.118 624.997 204.003 581.386C224.651 562.979 253.153 545.675 279.228 531.772C278.081 543.514 275.257 555.166 270.183 565.892C263.654 579.797 254.256 592.112 244.638 603.853C241.682 607.34 241.153 612.328 244.638 615.815C247.594 618.773 253.683 619.435 256.595 615.815C267.448 602.573 278.037 588.934 285.273 573.308C292.73 557.241 296.127 540.291 296.7 522.679C312.98 514.645 327.099 508.334 336.1 504.361C335.305 530.448 334.864 559.404 335.085 589.905C325.599 595.555 276.935 625.261 246.668 657.13C246.227 657.704 245.786 658.145 245.301 658.719C232.858 655.1 220.02 651.701 207.005 651.922C194.122 652.275 182.165 656.424 170.517 661.544C166.326 663.354 165.311 669.578 167.473 673.197C170.076 677.611 174.797 678.052 179.12 676.242C184.106 674.079 189.268 672.181 194.474 670.813C199.989 669.356 202.372 669.003 207.931 669.003C213.446 669.003 217.416 669.445 222.269 670.46C225.975 671.122 229.726 672.049 233.343 673.064C210.754 702.329 198.445 732.521 197.783 733.978C196.107 738.259 198.136 743.247 202.548 744.924C203.563 745.366 204.71 745.498 205.725 745.498C209.122 745.498 212.254 743.468 213.622 740.201C213.755 739.76 230.212 699.283 259.154 668.782C261.977 665.737 265.154 662.779 268.286 659.734C273.14 669.091 276.89 678.935 278.919 689.352C282.405 707.184 280.067 725.415 274.066 742.453C270.448 752.737 286.817 757.152 290.435 746.955C302.171 713.629 298.111 678.803 281.39 648.301C301.376 631.793 323.171 617.358 335.614 609.545C336.761 674.3 341.04 744.704 351.542 809.893C352.203 814.087 355.821 817 359.88 817H361.248C365.881 816.206 369.057 811.924 368.263 807.289C357.762 741.873 353.571 671.114 352.468 606.489C363.895 612.801 388.956 628.206 410.09 649.879C392.354 674.421 387.368 709.645 398.353 737.585C400.03 741.867 404.001 744.824 408.766 743.456C412.825 742.308 416.354 737.365 414.634 733.039C406.163 711.101 408.325 682.851 421.428 662.767C421.56 662.987 421.781 663.12 421.869 663.341C448.959 697.903 459.239 738.821 459.371 739.173C460.254 743.014 463.783 745.618 467.622 745.618C468.284 745.618 468.989 745.618 469.651 745.397C474.152 744.25 476.975 739.747 475.872 735.112C475.519 733.876 470.225 712.513 456.989 686.955C465.46 687.618 473.71 689.207 482.049 692.164C492.903 695.872 503.491 702.449 509.492 711.939C515.36 721.076 530.052 712.601 524.184 703.332C508.036 678.127 475.52 669.564 447.063 669.564C443.577 663.914 439.606 658.264 435.326 652.746C404.046 612.755 355.822 588.786 353.792 587.772C353.351 587.551 352.777 587.551 352.336 587.418C352.115 557.712 352.556 529.683 353.351 504.258C361.469 508.098 374.704 514.675 389.838 522.885C390.059 553.959 401.927 586.491 425.178 607.502C433.208 614.829 445.297 602.867 437.135 595.54C419.399 579.472 409.56 556.21 407.222 532.728C430.826 546.411 456.372 563.229 474.77 580.885C479.27 585.167 483.682 589.581 488.095 594.127C479.844 611.519 475.344 632.309 480.197 651.069C481.344 655.35 486.286 658.396 490.609 656.94C495.021 655.483 497.713 651.069 496.477 646.522C494.536 639.195 494.889 629.793 496.477 622.245C497.36 617.831 498.639 613.417 500.095 609.135C500.316 608.561 500.536 607.988 500.757 607.458C532.479 641.932 554.849 673.669 555.201 674.021C556.878 676.405 559.481 677.641 562.084 677.641C563.76 677.641 565.481 677.199 566.937 676.052C570.776 673.359 571.702 668.018 568.967 664.31C567.82 662.721 547.391 633.809 517.478 600.704C538.126 602.293 558.158 610.635 573.511 625.114C581.408 632.574 593.497 620.611 585.467 613.152C563.451 592.362 532.037 581.062 501.639 583.887C496.653 578.811 491.579 573.735 486.373 568.747C478.696 561.42 469.783 554.181 460.518 547.296C476.092 542.528 493.167 541.866 509.182 542.529C533.228 543.544 556.965 548.399 579.907 555.991C590.319 559.39 594.687 543.014 584.407 539.615C559.436 531.361 533.228 526.373 507.02 525.49C485.666 524.828 463.65 526.947 443.885 535.554C405.501 509.997 364.248 490.707 353.879 486.073C356.129 428.425 359.968 387.861 361.203 380.534C366.497 348.665 382.557 314.545 405.014 280.865C407.97 281.66 411.544 282.454 415.956 283.028C422.265 283.823 429.942 284.396 438.898 284.396C485.753 284.396 563.005 271.286 612.024 231.87C683.41 174.487 716.72 52.7431 697.749 27.6798L697.533 28.1271ZM295.643 268.827C258.583 273.329 166.771 263.618 112.895 219.346C46.2737 164.656 20.3749 52.6717 31.8899 37.8801C33.6988 35.6289 40.3609 32.3625 53.4651 30.9941C57.9654 30.4203 63.1716 30.1996 68.8192 30.1996C111.042 30.1996 179.737 44.9867 225.274 82.4177C277.115 125.013 304.117 208.661 308.396 248.301C257.438 174.851 174.091 99.1529 80.83 59.0269C76.5503 57.0846 71.5648 59.1593 69.6676 63.4408C67.8586 67.7225 69.8 72.7103 74.0796 74.6083C162.055 112.481 251.181 192.026 301.646 268.075C299.969 268.428 298.028 268.737 295.557 269.09L295.643 268.827ZM601.178 219.081C546.866 262.825 455.012 271.608 417.988 266.664C416.841 266.532 416.047 266.311 415.164 266.223C476.491 181.694 575.233 102.724 644.233 73.3329C648.513 71.5231 650.542 66.5353 648.733 62.2537C646.925 57.972 641.939 55.9416 637.659 57.7513C568.435 87.1492 468.904 164.88 404.886 251.218C407.489 214.272 435.505 124.884 490.17 80.9275C542.232 39.1268 623.764 26.5906 662.551 31.314C675.655 32.903 682.316 36.1695 684.126 38.4206C695.553 53.34 668.419 165.104 601.225 219.084L601.178 219.081Z" fill="url(#paint0_linear_317_224)"/>
</g>
<defs>
<filter id="filter0_d_317_224" x="0.8" y="0.8" width="714.4" height="828.4" filterUnits="userSpaceOnUse" color-interpolation-filters="sRGB">
<feFlood flood-opacity="0" result="BackgroundImageFix"/>
<feColorMatrix in="SourceAlpha" type="matrix" values="0 0 0 0 0 0 0 0 0 0 0 0 0 0 0 0 0 0 127 0" result="hardAlpha"/>
<feOffset/>
<feGaussianBlur stdDeviation="6.1"/>
<feComposite in2="hardAlpha" operator="out"/>
<feColorMatrix type="matrix" values="0 0 0 0 0 0 0 0 0 0.97 0 0 0 0 0.341609 0 0 0 0.73 0"/>
<feBlend mode="normal" in2="BackgroundImageFix" result="effect1_dropShadow_317_224"/>
<feBlend mode="normal" in="SourceGraphic" in2="effect1_dropShadow_317_224" result="shape"/>
</filter>
<linearGradient id="paint0_linear_317_224" x1="358" y1="13" x2="358" y2="817" gradientUnits="userSpaceOnUse">
<stop stop-color="#38FF7E"/>
<stop offset="1" stop-color="#22994C"/>
</linearGradient>
</defs>
</svg>
