<svg width="487" height="60" viewBox="0 0 487 60" fill="none" xmlns="http://www.w3.org/2000/svg">
<g filter="url(#filter0_ddi_274_150)">
<rect x="5" y="2" width="477" height="48" rx="14.6696" fill="#0C1711" fill-opacity="0.55" shape-rendering="crispEdges"/>
<rect x="5.61123" y="2.61123" width="475.778" height="46.7775" rx="14.0584" stroke="#30523C" stroke-width="1.22247" shape-rendering="crispEdges"/>
<g clip-path="url(#clip0_274_150)">
<path d="M37.8466 19.9229H29.7109C28.7661 19.9229 28 20.6889 28 21.6338V22.1721H39.5575V21.6338C39.5575 20.6889 38.7915 19.9229 37.8466 19.9229Z" fill="white"/>
<path d="M35.9966 20.6378H31.5612C31.3673 20.6378 31.2099 20.4804 31.2099 20.2865C31.2099 19.079 32.1922 18.0967 33.3996 18.0967H34.1579C35.3654 18.0967 36.3478 19.079 36.3478 20.2865C36.3478 20.4804 36.1904 20.6378 35.9966 20.6378ZM31.9542 19.9353H35.6035C35.4451 19.2841 34.8573 18.7992 34.1579 18.7992H33.3996C32.7004 18.7992 32.1124 19.2841 31.9542 19.9353Z" fill="white"/>
<path d="M28.7127 22.8994L29.3371 33.5606C29.3483 33.7529 29.5074 33.903 29.7001 33.903H37.8577C38.0503 33.903 38.2095 33.7529 38.2209 33.5607L38.845 22.8996L28.7127 22.8994ZM31.6485 32.3414C31.6414 32.3419 31.6346 32.3421 31.6276 32.3421C31.443 32.3421 31.2881 32.1981 31.2772 32.0114L30.8776 25.1873C30.8664 24.9936 31.0141 24.8274 31.2078 24.8162C31.3989 24.8046 31.5677 24.9526 31.5789 25.1464L31.9785 31.9703C31.9899 32.164 31.8422 32.3301 31.6485 32.3414ZM34.13 31.9908C34.13 32.1847 33.9727 32.3421 33.7788 32.3421C33.5849 32.3421 33.4275 32.1847 33.4275 31.9908V25.1667C33.4275 24.9728 33.5849 24.8155 33.7788 24.8155C33.9727 24.8155 34.13 24.9728 34.13 25.1667V31.9908ZM36.2804 32.0114C36.2693 32.1981 36.1146 32.3421 35.93 32.3421C35.9232 32.3421 35.9161 32.3419 35.9091 32.3415C35.7154 32.3301 35.5677 32.1638 35.5789 31.9703L35.9785 25.1464C35.9896 24.9526 36.1527 24.8044 36.3496 24.8162C36.5433 24.8274 36.691 24.9937 36.6796 25.1873L36.2804 32.0114Z" fill="white"/>
</g>
<path d="M63 25.8C63 21.3196 63 19.0794 63.8719 17.3681C64.6389 15.8628 65.8628 14.6389 67.3681 13.8719C69.0794 13 71.3196 13 75.8 13H144.2C148.68 13 150.921 13 152.632 13.8719C154.137 14.6389 155.361 15.8628 156.128 17.3681C157 19.0794 157 21.3196 157 25.8V26.2C157 30.6804 157 32.9206 156.128 34.6319C155.361 36.1372 154.137 37.3611 152.632 38.1281C150.921 39 148.68 39 144.2 39H75.8C71.3196 39 69.0794 39 67.3681 38.1281C65.8628 37.3611 64.6389 36.1372 63.8719 34.6319C63 32.9206 63 30.6804 63 26.2V25.8Z" fill="url(#paint0_linear_274_150)"/>
<path d="M144.219 26C144.219 26.6922 144.001 27.3689 143.592 27.9445C143.183 28.5201 142.603 28.9687 141.923 29.2336C141.244 29.4985 140.496 29.5678 139.775 29.4327C139.053 29.2977 138.391 28.9644 137.87 28.4749C137.35 27.9854 136.996 27.3618 136.853 26.6828C136.709 26.0039 136.783 25.3001 137.064 24.6606C137.346 24.0211 137.822 23.4744 138.434 23.0899C139.046 22.7053 139.765 22.5 140.5 22.5C141.486 22.5 142.432 22.8687 143.13 23.5251C143.827 24.1815 144.219 25.0717 144.219 26Z" fill="white" fill-opacity="0.1"/>
<path d="M139.969 20.5V19C139.969 18.8674 140.025 18.7402 140.124 18.6464C140.224 18.5527 140.359 18.5 140.5 18.5C140.641 18.5 140.776 18.5527 140.876 18.6464C140.975 18.7402 141.031 18.8674 141.031 19V20.5C141.031 20.6326 140.975 20.7598 140.876 20.8536C140.776 20.9473 140.641 21 140.5 21C140.359 21 140.224 20.9473 140.124 20.8536C140.025 20.7598 139.969 20.6326 139.969 20.5ZM144.75 26C144.75 26.7911 144.501 27.5645 144.034 28.2223C143.567 28.8801 142.903 29.3928 142.126 29.6955C141.35 29.9983 140.495 30.0775 139.671 29.9231C138.846 29.7688 138.089 29.3878 137.495 28.8284C136.9 28.269 136.496 27.5563 136.332 26.7804C136.168 26.0044 136.252 25.2002 136.574 24.4693C136.895 23.7384 137.44 23.1136 138.139 22.6741C138.838 22.2346 139.659 22 140.5 22C141.627 22.0012 142.707 22.423 143.504 23.1729C144.301 23.9227 144.749 24.9395 144.75 26ZM143.688 26C143.688 25.4067 143.501 24.8266 143.15 24.3333C142.8 23.8399 142.302 23.4554 141.72 23.2284C141.137 23.0013 140.496 22.9419 139.878 23.0576C139.26 23.1734 138.692 23.4591 138.246 23.8787C137.8 24.2982 137.497 24.8328 137.374 25.4147C137.251 25.9967 137.314 26.5999 137.555 27.1481C137.796 27.6962 138.205 28.1648 138.729 28.4944C139.253 28.8241 139.87 29 140.5 29C141.345 28.9992 142.155 28.6828 142.753 28.1204C143.351 27.558 143.687 26.7954 143.688 26ZM135.874 22.3538C135.974 22.4476 136.109 22.5003 136.25 22.5003C136.391 22.5003 136.526 22.4476 136.626 22.3538C136.726 22.2599 136.782 22.1327 136.782 22C136.782 21.8673 136.726 21.7401 136.626 21.6463L135.563 20.6463C135.464 20.5524 135.328 20.4997 135.188 20.4997C135.047 20.4997 134.911 20.5524 134.812 20.6463C134.712 20.7401 134.656 20.8673 134.656 21C134.656 21.1327 134.712 21.2599 134.812 21.3537L135.874 22.3538ZM135.874 29.6462L134.812 30.6462C134.712 30.7401 134.656 30.8673 134.656 31C134.656 31.1327 134.712 31.2599 134.812 31.3538C134.911 31.4476 135.047 31.5003 135.188 31.5003C135.328 31.5003 135.464 31.4476 135.563 31.3538L136.626 30.3538C136.675 30.3073 136.714 30.2521 136.741 30.1914C136.768 30.1308 136.782 30.0657 136.782 30C136.782 29.9343 136.768 29.8692 136.741 29.8086C136.714 29.7479 136.675 29.6927 136.626 29.6462C136.577 29.5998 136.518 29.5629 136.453 29.5378C136.389 29.5127 136.32 29.4997 136.25 29.4997C136.18 29.4997 136.111 29.5127 136.047 29.5378C135.982 29.5629 135.923 29.5998 135.874 29.6462ZM144.75 22.5C144.82 22.5001 144.889 22.4872 144.953 22.4621C145.018 22.437 145.076 22.4002 145.126 22.3538L146.188 21.3537C146.288 21.2599 146.344 21.1327 146.344 21C146.344 20.8673 146.288 20.7401 146.188 20.6463C146.089 20.5524 145.953 20.4997 145.812 20.4997C145.672 20.4997 145.536 20.5524 145.437 20.6463L144.374 21.6463C144.3 21.7162 144.249 21.8053 144.229 21.9023C144.208 21.9994 144.219 22.1 144.259 22.1914C144.299 22.2828 144.367 22.3609 144.455 22.4159C144.542 22.4708 144.645 22.5001 144.75 22.5ZM145.126 29.6462C145.026 29.5524 144.891 29.4997 144.75 29.4997C144.609 29.4997 144.474 29.5524 144.374 29.6462C144.274 29.7401 144.218 29.8673 144.218 30C144.218 30.1327 144.274 30.2599 144.374 30.3538L145.437 31.3538C145.486 31.4002 145.545 31.4371 145.609 31.4622C145.674 31.4873 145.743 31.5003 145.812 31.5003C145.882 31.5003 145.951 31.4873 146.016 31.4622C146.08 31.4371 146.139 31.4002 146.188 31.3538C146.238 31.3073 146.277 31.2521 146.304 31.1914C146.33 31.1308 146.344 31.0657 146.344 31C146.344 30.9343 146.33 30.8692 146.304 30.8086C146.277 30.7479 146.238 30.6927 146.188 30.6462L145.126 29.6462ZM135.188 26C135.188 25.8674 135.132 25.7402 135.032 25.6464C134.932 25.5527 134.797 25.5 134.656 25.5H133.062C132.922 25.5 132.786 25.5527 132.687 25.6464C132.587 25.7402 132.531 25.8674 132.531 26C132.531 26.1326 132.587 26.2598 132.687 26.3536C132.786 26.4473 132.922 26.5 133.062 26.5H134.656C134.797 26.5 134.932 26.4473 135.032 26.3536C135.132 26.2598 135.188 26.1326 135.188 26ZM140.5 31C140.359 31 140.224 31.0527 140.124 31.1464C140.025 31.2402 139.969 31.3674 139.969 31.5V33C139.969 33.1326 140.025 33.2598 140.124 33.3536C140.224 33.4473 140.359 33.5 140.5 33.5C140.641 33.5 140.776 33.4473 140.876 33.3536C140.975 33.2598 141.031 33.1326 141.031 33V31.5C141.031 31.3674 140.975 31.2402 140.876 31.1464C140.776 31.0527 140.641 31 140.5 31ZM147.938 25.5H146.344C146.203 25.5 146.068 25.5527 145.968 25.6464C145.868 25.7402 145.812 25.8674 145.812 26C145.812 26.1326 145.868 26.2598 145.968 26.3536C146.068 26.4473 146.203 26.5 146.344 26.5H147.938C148.078 26.5 148.214 26.4473 148.313 26.3536C148.413 26.2598 148.469 26.1326 148.469 26C148.469 25.8674 148.413 25.7402 148.313 25.6464C148.214 25.5527 148.078 25.5 147.938 25.5Z" fill="white"/>
<path d="M166 25.8C166 21.3196 166 19.0794 166.872 17.3681C167.639 15.8628 168.863 14.6389 170.368 13.8719C172.079 13 174.32 13 178.8 13H259.2C263.68 13 265.921 13 267.632 13.8719C269.137 14.6389 270.361 15.8628 271.128 17.3681C272 19.0794 272 21.3196 272 25.8V26.2C272 30.6804 272 32.9206 271.128 34.6319C270.361 36.1372 269.137 37.3611 267.632 38.1281C265.921 39 263.68 39 259.2 39H178.8C174.32 39 172.079 39 170.368 38.1281C168.863 37.3611 167.639 36.1372 166.872 34.6319C166 32.9206 166 30.6804 166 26.2V25.8Z" fill="url(#paint1_linear_274_150)"/>
<path d="M255.286 22.9386C255.404 22.861 255.558 22.861 255.676 22.9386L263.518 28.0912C263.729 28.2293 263.729 28.5352 263.518 28.6733L255.676 33.8259C255.558 33.9035 255.404 33.9035 255.286 33.8259L247.443 28.6733C247.233 28.5352 247.233 28.2293 247.443 28.0912L255.286 22.9386Z" fill="white" fill-opacity="0.2"/>
<path d="M248.821 28.3823L255.481 24.007L262.14 28.3823L255.481 32.7575L248.821 28.3823Z" stroke="white" stroke-opacity="0.4" stroke-width="2"/>
<path d="M255.286 20.5563C255.404 20.4786 255.558 20.4786 255.676 20.5563L263.518 25.7088C263.729 25.847 263.729 26.1529 263.518 26.291L255.676 31.4436C255.558 31.5212 255.404 31.5212 255.286 31.4436L247.443 26.291C247.233 26.1529 247.233 25.847 247.443 25.7088L255.286 20.5563Z" fill="white" fill-opacity="0.4"/>
<path d="M248.821 25.9999L255.481 21.6247L262.14 25.9999L255.481 30.3752L248.821 25.9999Z" stroke="white" stroke-opacity="0.4" stroke-width="2"/>
<path d="M255.286 18.1739C255.404 18.0963 255.558 18.0963 255.676 18.1739L263.518 23.3265C263.729 23.4647 263.729 23.7705 263.518 23.9087L255.676 29.0613C255.558 29.1389 255.404 29.1389 255.286 29.0613L247.443 23.9087C247.233 23.7705 247.233 23.4647 247.443 23.3265L255.286 18.1739Z" fill="white" fill-opacity="0.8"/>
<path d="M248.821 23.6176L255.481 19.2424L262.14 23.6176L255.481 27.9928L248.821 23.6176Z" stroke="white" stroke-opacity="0.4" stroke-width="2"/>
<rect x="281" y="13" width="85" height="26" rx="8" fill="url(#paint2_linear_274_150)"/>
<path d="M344.212 31.66C344.658 31.66 345.019 31.2987 345.019 30.8529C345.019 30.4072 344.658 30.0459 344.212 30.0459C343.767 30.0459 343.405 30.4072 343.405 30.8529C343.405 31.2987 343.767 31.66 344.212 31.66Z" stroke="white" stroke-width="1.5" stroke-miterlimit="10"/>
<path d="M347.891 27.1743L343.975 31.0906" stroke="white" stroke-width="1.5" stroke-miterlimit="10"/>
<path d="M349.615 25.4497L348.468 26.5966" stroke="white" stroke-width="1.5" stroke-miterlimit="10"/>
<path d="M358 19.9279C358.001 19.3607 357.833 18.806 357.518 18.3343C357.203 17.8626 356.755 17.4951 356.23 17.2785C355.706 17.0619 355.129 17.0059 354.573 17.1176C354.017 17.2293 353.507 17.5038 353.107 17.906L344.212 26.8345C343.412 26.8361 342.629 27.075 341.964 27.5209C341.299 27.9668 340.781 28.5998 340.476 29.3399C340.17 30.0799 340.09 30.894 340.247 31.6793C340.404 32.4645 340.789 33.1858 341.356 33.752C341.922 34.3182 342.643 34.7039 343.428 34.8605C344.214 35.0172 345.028 34.9376 345.768 34.632C346.508 34.3263 347.141 33.8083 347.587 33.1432C348.033 32.4781 348.271 31.6959 348.273 30.8951L357.159 21.9582C357.697 21.4198 358 20.6894 358 19.9279Z" stroke="white" stroke-width="1.5" stroke-miterlimit="10"/>
<path d="M351.51 24.3623L353.132 25.9849" stroke="white" stroke-width="1.5" stroke-miterlimit="10"/>
<path d="M353.132 22.7402L354.755 24.3628" stroke="white" stroke-width="1.5" stroke-miterlimit="10"/>
<path d="M354.755 21.1172L356.377 22.7398" stroke="white" stroke-width="1.5" stroke-miterlimit="10"/>
<mask id="path-24-outside-1_274_150" maskUnits="userSpaceOnUse" x="416" y="15" width="47" height="24" fill="black">
<rect fill="white" x="416" y="15" width="47" height="24"/>
<path d="M421.124 31.2609C420.538 31.2609 420.011 31.1855 419.541 31.0348C419.077 30.8899 418.68 30.6783 418.35 30.4C418.025 30.1159 417.773 29.771 417.593 29.3652C417.419 28.9594 417.332 28.4986 417.332 27.9826C417.332 26.8812 417.825 25.7333 418.811 24.5391C418.979 24.342 419.129 24.1739 419.263 24.0348C419.402 23.8899 419.529 23.7594 419.645 23.6435C419.564 23.5797 419.483 23.5159 419.402 23.4522C419.321 23.3826 419.216 23.2899 419.089 23.1739L420.498 21.4522C420.729 21.6319 421.031 21.8899 421.402 22.2261C421.773 22.5623 422.222 23.0174 422.75 23.5913C424.205 25.2551 424.932 26.7188 424.932 27.9826C424.932 28.5275 424.842 29.0058 424.663 29.4174C424.489 29.8232 424.237 30.1652 423.906 30.4435C423.582 30.7159 423.185 30.9188 422.715 31.0522C422.245 31.1913 421.715 31.2609 421.124 31.2609ZM422.976 27.9826C422.976 27.8203 422.921 27.6145 422.811 27.3652C422.7 27.1159 422.553 26.8493 422.367 26.5652C422.182 26.2812 421.967 25.9942 421.724 25.7043C421.486 25.4145 421.237 25.1449 420.976 24.8957C420.808 25.0638 420.628 25.2754 420.437 25.5304C420.245 25.7855 420.066 26.058 419.898 26.3478C419.735 26.6319 419.599 26.9188 419.489 27.2087C419.379 27.4928 419.324 27.7507 419.324 27.9826C419.324 28.1739 419.385 28.3362 419.506 28.4696C419.634 28.5971 419.79 28.7014 419.976 28.7826C420.161 28.8638 420.356 28.9217 420.558 28.9565C420.767 28.9913 420.956 29.0087 421.124 29.0087C421.327 29.0087 421.538 28.9942 421.758 28.9652C421.979 28.9362 422.179 28.8841 422.358 28.8087C422.538 28.7275 422.686 28.6203 422.802 28.487C422.918 28.3536 422.976 28.1855 422.976 27.9826ZM430.033 31.2609C429.308 31.2609 428.624 31.0986 427.98 30.7739C427.343 30.4493 426.743 29.9971 426.18 29.4174L427.459 27.6174C427.986 28.1043 428.479 28.458 428.937 28.6783C429.395 28.8928 429.833 29 430.25 29C430.453 29 430.667 28.9826 430.893 28.9478C431.125 28.9072 431.354 28.8522 431.58 28.7826C431.806 28.713 432.021 28.6319 432.224 28.5391C432.433 28.4406 432.612 28.3362 432.763 28.2261L429.989 21.5304L432.05 20.6696C432.149 20.9246 432.259 21.1971 432.38 21.487C432.502 21.7768 432.633 22.0899 432.772 22.4261L434.954 27.687C435.035 27.8841 435.12 28.0667 435.206 28.2348C435.299 28.3971 435.404 28.5391 435.52 28.6609C435.641 28.7768 435.778 28.8696 435.928 28.9391C436.085 29.0029 436.264 29.0348 436.467 29.0348H436.667V31.2609H436.467C436.102 31.2609 435.786 31.2319 435.52 31.1739C435.259 31.1217 435.03 31.0493 434.833 30.9565C434.635 30.858 434.462 30.7449 434.311 30.6174C434.16 30.4841 434.015 30.342 433.876 30.1913C433.598 30.4 433.314 30.5739 433.024 30.713C432.734 30.8522 432.43 30.9623 432.111 31.0435C431.792 31.1246 431.462 31.1797 431.12 31.2087C430.778 31.2435 430.415 31.2609 430.033 31.2609ZM444.079 29.0348V31.2609H443.905C443.342 31.2609 442.867 31.171 442.479 30.9913C442.09 30.8116 441.76 30.5797 441.487 30.2957C441.296 30.5391 441.012 30.7275 440.635 30.8609C440.264 30.9884 439.85 31.0812 439.392 31.1391C438.934 31.2029 438.461 31.2377 437.974 31.2435C437.493 31.2551 437.05 31.2609 436.644 31.2609H436.322V29.0348H436.644C437.322 29.0348 437.893 28.9971 438.357 28.9217C438.821 28.8406 439.195 28.7246 439.479 28.5739C439.769 28.4232 439.977 28.2348 440.105 28.0087C440.232 27.7768 440.296 27.5101 440.296 27.2087C440.296 27.0116 440.258 26.7507 440.183 26.4261C440.108 26.0957 439.995 25.6725 439.844 25.1565L441.983 24.5565C442.058 24.8116 442.116 25.0377 442.157 25.2348C442.203 25.4261 442.238 25.6203 442.261 25.8174C442.29 26.0087 442.313 26.2174 442.331 26.4435C442.354 26.6638 442.377 26.9275 442.4 27.2348C442.418 27.4203 442.461 27.6203 442.531 27.8348C442.6 28.0435 442.696 28.2377 442.818 28.4174C442.945 28.5913 443.099 28.7391 443.279 28.8609C443.458 28.9768 443.667 29.0348 443.905 29.0348H444.079ZM439.557 33.8348L438.079 35.313L436.583 33.8261L438.061 32.3391L439.557 33.8348ZM442.844 33.8435L441.366 35.3304L439.87 33.8348L441.348 32.3565L442.844 33.8435ZM443.725 29.0348H444.811C445.096 29.0348 445.388 29.0319 445.69 29.0261C445.997 29.0203 446.293 29 446.577 28.9652C446.861 28.9304 447.13 28.8754 447.385 28.8C447.64 28.7246 447.864 28.6174 448.055 28.4783C448.246 28.3333 448.397 28.1536 448.507 27.9391C448.617 27.7188 448.672 27.4493 448.672 27.1304C448.672 26.713 448.571 26.287 448.368 25.8522C448.165 25.4116 447.887 24.9623 447.533 24.5043C447.18 24.0406 446.762 23.5652 446.281 23.0783C445.806 22.5913 445.293 22.0957 444.742 21.5913L444.977 19.513L451.898 16.4348L452.777 18.5043L447.107 20.9565C447.368 21.1768 447.626 21.4087 447.881 21.6522C448.142 21.8957 448.406 22.1652 448.672 22.4609C449.072 22.9072 449.411 23.3536 449.69 23.8C449.968 24.2406 450.191 24.6667 450.359 25.0783C450.533 25.4899 450.658 25.8812 450.733 26.2522C450.814 26.6232 450.855 26.9623 450.855 27.2696C450.855 27.8783 450.739 28.429 450.507 28.9217C450.281 29.4145 449.974 29.8348 449.585 30.1826C449.197 30.5246 448.745 30.7913 448.229 30.9826C447.719 31.1681 447.182 31.2609 446.62 31.2609H443.725V29.0348ZM456.741 25.4783C456.857 25.8435 456.976 26.2261 457.098 26.6261C457.225 27.0203 457.338 27.4203 457.437 27.8261C457.541 28.2319 457.625 28.6377 457.689 29.0435C457.753 29.4435 457.785 29.8348 457.785 30.2174C457.785 30.7391 457.703 31.2464 457.541 31.7391C457.385 32.2377 457.164 32.7159 456.88 33.1739C456.602 33.6377 456.269 34.0783 455.88 34.4957C455.498 34.913 455.08 35.3072 454.628 35.6783C454.176 36.0493 453.698 36.3942 453.193 36.713C452.689 37.0319 452.179 37.3188 451.663 37.5739L450.671 35.5826C451.083 35.3797 451.489 35.1536 451.889 34.9043C452.289 34.6609 452.669 34.4 453.028 34.1217C453.393 33.8435 453.729 33.5507 454.037 33.2435C454.35 32.9362 454.616 32.6174 454.837 32.287C455.063 31.9565 455.24 31.6174 455.367 31.2696C455.495 30.9217 455.558 30.571 455.558 30.2174C455.558 29.887 455.521 29.5391 455.445 29.1739C455.37 28.8087 455.277 28.4493 455.167 28.0957C455.063 27.7362 454.953 27.3913 454.837 27.0609C454.727 26.7304 454.634 26.4377 454.558 26.1826L456.741 25.4783ZM461.741 17.4261C461.886 18.5333 461.987 19.5913 462.045 20.6C462.103 21.6029 462.138 22.5855 462.149 23.5478C462.161 24.3652 462.164 25.1217 462.158 25.8174C462.158 26.513 462.152 27.1623 462.141 27.7652C462.129 28.3623 462.112 28.9217 462.089 29.4435C462.065 29.9594 462.042 30.4435 462.019 30.8957L459.741 31.2435C459.862 29.3304 459.923 27.6406 459.923 26.1739C459.923 25.5826 459.915 25.029 459.897 24.513C459.851 23.3246 459.799 22.2087 459.741 21.1652C459.683 20.1159 459.604 19.113 459.506 18.1565L461.741 17.4261Z"/>
</mask>
<path d="M421.124 31.2609C420.538 31.2609 420.011 31.1855 419.541 31.0348C419.077 30.8899 418.68 30.6783 418.35 30.4C418.025 30.1159 417.773 29.771 417.593 29.3652C417.419 28.9594 417.332 28.4986 417.332 27.9826C417.332 26.8812 417.825 25.7333 418.811 24.5391C418.979 24.342 419.129 24.1739 419.263 24.0348C419.402 23.8899 419.529 23.7594 419.645 23.6435C419.564 23.5797 419.483 23.5159 419.402 23.4522C419.321 23.3826 419.216 23.2899 419.089 23.1739L420.498 21.4522C420.729 21.6319 421.031 21.8899 421.402 22.2261C421.773 22.5623 422.222 23.0174 422.75 23.5913C424.205 25.2551 424.932 26.7188 424.932 27.9826C424.932 28.5275 424.842 29.0058 424.663 29.4174C424.489 29.8232 424.237 30.1652 423.906 30.4435C423.582 30.7159 423.185 30.9188 422.715 31.0522C422.245 31.1913 421.715 31.2609 421.124 31.2609ZM422.976 27.9826C422.976 27.8203 422.921 27.6145 422.811 27.3652C422.7 27.1159 422.553 26.8493 422.367 26.5652C422.182 26.2812 421.967 25.9942 421.724 25.7043C421.486 25.4145 421.237 25.1449 420.976 24.8957C420.808 25.0638 420.628 25.2754 420.437 25.5304C420.245 25.7855 420.066 26.058 419.898 26.3478C419.735 26.6319 419.599 26.9188 419.489 27.2087C419.379 27.4928 419.324 27.7507 419.324 27.9826C419.324 28.1739 419.385 28.3362 419.506 28.4696C419.634 28.5971 419.79 28.7014 419.976 28.7826C420.161 28.8638 420.356 28.9217 420.558 28.9565C420.767 28.9913 420.956 29.0087 421.124 29.0087C421.327 29.0087 421.538 28.9942 421.758 28.9652C421.979 28.9362 422.179 28.8841 422.358 28.8087C422.538 28.7275 422.686 28.6203 422.802 28.487C422.918 28.3536 422.976 28.1855 422.976 27.9826ZM430.033 31.2609C429.308 31.2609 428.624 31.0986 427.98 30.7739C427.343 30.4493 426.743 29.9971 426.18 29.4174L427.459 27.6174C427.986 28.1043 428.479 28.458 428.937 28.6783C429.395 28.8928 429.833 29 430.25 29C430.453 29 430.667 28.9826 430.893 28.9478C431.125 28.9072 431.354 28.8522 431.58 28.7826C431.806 28.713 432.021 28.6319 432.224 28.5391C432.433 28.4406 432.612 28.3362 432.763 28.2261L429.989 21.5304L432.05 20.6696C432.149 20.9246 432.259 21.1971 432.38 21.487C432.502 21.7768 432.633 22.0899 432.772 22.4261L434.954 27.687C435.035 27.8841 435.12 28.0667 435.206 28.2348C435.299 28.3971 435.404 28.5391 435.52 28.6609C435.641 28.7768 435.778 28.8696 435.928 28.9391C436.085 29.0029 436.264 29.0348 436.467 29.0348H436.667V31.2609H436.467C436.102 31.2609 435.786 31.2319 435.52 31.1739C435.259 31.1217 435.03 31.0493 434.833 30.9565C434.635 30.858 434.462 30.7449 434.311 30.6174C434.16 30.4841 434.015 30.342 433.876 30.1913C433.598 30.4 433.314 30.5739 433.024 30.713C432.734 30.8522 432.43 30.9623 432.111 31.0435C431.792 31.1246 431.462 31.1797 431.12 31.2087C430.778 31.2435 430.415 31.2609 430.033 31.2609ZM444.079 29.0348V31.2609H443.905C443.342 31.2609 442.867 31.171 442.479 30.9913C442.09 30.8116 441.76 30.5797 441.487 30.2957C441.296 30.5391 441.012 30.7275 440.635 30.8609C440.264 30.9884 439.85 31.0812 439.392 31.1391C438.934 31.2029 438.461 31.2377 437.974 31.2435C437.493 31.2551 437.05 31.2609 436.644 31.2609H436.322V29.0348H436.644C437.322 29.0348 437.893 28.9971 438.357 28.9217C438.821 28.8406 439.195 28.7246 439.479 28.5739C439.769 28.4232 439.977 28.2348 440.105 28.0087C440.232 27.7768 440.296 27.5101 440.296 27.2087C440.296 27.0116 440.258 26.7507 440.183 26.4261C440.108 26.0957 439.995 25.6725 439.844 25.1565L441.983 24.5565C442.058 24.8116 442.116 25.0377 442.157 25.2348C442.203 25.4261 442.238 25.6203 442.261 25.8174C442.29 26.0087 442.313 26.2174 442.331 26.4435C442.354 26.6638 442.377 26.9275 442.4 27.2348C442.418 27.4203 442.461 27.6203 442.531 27.8348C442.6 28.0435 442.696 28.2377 442.818 28.4174C442.945 28.5913 443.099 28.7391 443.279 28.8609C443.458 28.9768 443.667 29.0348 443.905 29.0348H444.079ZM439.557 33.8348L438.079 35.313L436.583 33.8261L438.061 32.3391L439.557 33.8348ZM442.844 33.8435L441.366 35.3304L439.87 33.8348L441.348 32.3565L442.844 33.8435ZM443.725 29.0348H444.811C445.096 29.0348 445.388 29.0319 445.69 29.0261C445.997 29.0203 446.293 29 446.577 28.9652C446.861 28.9304 447.13 28.8754 447.385 28.8C447.64 28.7246 447.864 28.6174 448.055 28.4783C448.246 28.3333 448.397 28.1536 448.507 27.9391C448.617 27.7188 448.672 27.4493 448.672 27.1304C448.672 26.713 448.571 26.287 448.368 25.8522C448.165 25.4116 447.887 24.9623 447.533 24.5043C447.18 24.0406 446.762 23.5652 446.281 23.0783C445.806 22.5913 445.293 22.0957 444.742 21.5913L444.977 19.513L451.898 16.4348L452.777 18.5043L447.107 20.9565C447.368 21.1768 447.626 21.4087 447.881 21.6522C448.142 21.8957 448.406 22.1652 448.672 22.4609C449.072 22.9072 449.411 23.3536 449.69 23.8C449.968 24.2406 450.191 24.6667 450.359 25.0783C450.533 25.4899 450.658 25.8812 450.733 26.2522C450.814 26.6232 450.855 26.9623 450.855 27.2696C450.855 27.8783 450.739 28.429 450.507 28.9217C450.281 29.4145 449.974 29.8348 449.585 30.1826C449.197 30.5246 448.745 30.7913 448.229 30.9826C447.719 31.1681 447.182 31.2609 446.62 31.2609H443.725V29.0348ZM456.741 25.4783C456.857 25.8435 456.976 26.2261 457.098 26.6261C457.225 27.0203 457.338 27.4203 457.437 27.8261C457.541 28.2319 457.625 28.6377 457.689 29.0435C457.753 29.4435 457.785 29.8348 457.785 30.2174C457.785 30.7391 457.703 31.2464 457.541 31.7391C457.385 32.2377 457.164 32.7159 456.88 33.1739C456.602 33.6377 456.269 34.0783 455.88 34.4957C455.498 34.913 455.08 35.3072 454.628 35.6783C454.176 36.0493 453.698 36.3942 453.193 36.713C452.689 37.0319 452.179 37.3188 451.663 37.5739L450.671 35.5826C451.083 35.3797 451.489 35.1536 451.889 34.9043C452.289 34.6609 452.669 34.4 453.028 34.1217C453.393 33.8435 453.729 33.5507 454.037 33.2435C454.35 32.9362 454.616 32.6174 454.837 32.287C455.063 31.9565 455.24 31.6174 455.367 31.2696C455.495 30.9217 455.558 30.571 455.558 30.2174C455.558 29.887 455.521 29.5391 455.445 29.1739C455.37 28.8087 455.277 28.4493 455.167 28.0957C455.063 27.7362 454.953 27.3913 454.837 27.0609C454.727 26.7304 454.634 26.4377 454.558 26.1826L456.741 25.4783ZM461.741 17.4261C461.886 18.5333 461.987 19.5913 462.045 20.6C462.103 21.6029 462.138 22.5855 462.149 23.5478C462.161 24.3652 462.164 25.1217 462.158 25.8174C462.158 26.513 462.152 27.1623 462.141 27.7652C462.129 28.3623 462.112 28.9217 462.089 29.4435C462.065 29.9594 462.042 30.4435 462.019 30.8957L459.741 31.2435C459.862 29.3304 459.923 27.6406 459.923 26.1739C459.923 25.5826 459.915 25.029 459.897 24.513C459.851 23.3246 459.799 22.2087 459.741 21.1652C459.683 20.1159 459.604 19.113 459.506 18.1565L461.741 17.4261Z" fill="url(#paint3_linear_274_150)"/>
<path d="M419.541 31.0348L419.69 30.5692L419.687 30.5681L419.541 31.0348ZM418.35 30.4L418.028 30.7681L418.035 30.774L418.35 30.4ZM417.593 29.3652L417.144 29.5579L417.146 29.5632L417.593 29.3652ZM418.811 24.5391L418.439 24.2218L418.433 24.2279L418.811 24.5391ZM419.263 24.0348L418.91 23.6961L418.91 23.6964L419.263 24.0348ZM419.645 23.6435L419.991 23.9892L420.381 23.5995L419.947 23.259L419.645 23.6435ZM419.402 23.4522L419.084 23.8234L419.092 23.8302L419.1 23.8367L419.402 23.4522ZM419.089 23.1739L418.71 22.8643L418.416 23.2235L418.76 23.5357L419.089 23.1739ZM420.498 21.4522L420.797 21.0657L420.421 20.7739L420.119 21.1425L420.498 21.4522ZM421.402 22.2261L421.73 21.8638L421.402 22.2261ZM422.75 23.5913L423.118 23.2693L423.11 23.2604L422.75 23.5913ZM424.663 29.4174L424.215 29.2217L424.213 29.2248L424.663 29.4174ZM423.906 30.4435L424.221 30.818L424.221 30.8175L423.906 30.4435ZM422.715 31.0522L422.581 30.5818L422.576 30.5833L422.715 31.0522ZM422.367 26.5652L421.958 26.8326L422.367 26.5652ZM421.724 25.7043L421.345 26.0144L421.349 26.0189L421.724 25.7043ZM420.976 24.8957L421.314 24.5421L420.968 24.2119L420.63 24.5499L420.976 24.8957ZM420.437 25.5304L420.828 25.8238L420.437 25.5304ZM419.898 26.3478L419.475 26.1025L419.473 26.1052L419.898 26.3478ZM419.489 27.2087L419.945 27.3855L419.946 27.3824L419.489 27.2087ZM419.506 28.4696L419.145 28.7993L419.153 28.8075L419.16 28.8153L419.506 28.4696ZM419.976 28.7826L419.78 29.2306L419.976 28.7826ZM420.558 28.9565L420.476 29.4385L420.478 29.4389L420.558 28.9565ZM421.758 28.9652L421.822 29.45L421.758 28.9652ZM422.358 28.8087L422.548 29.2598L422.56 29.2543L422.358 28.8087ZM422.802 28.487L422.433 28.1661V28.1661L422.802 28.487ZM421.124 30.7719C420.58 30.7719 420.104 30.7018 419.69 30.5692L419.392 31.5004C419.918 31.6692 420.497 31.7499 421.124 31.7499V30.7719ZM419.687 30.5681C419.277 30.4401 418.94 30.2575 418.665 30.026L418.035 30.774C418.421 31.099 418.877 31.3396 419.395 31.5015L419.687 30.5681ZM418.672 30.032C418.402 29.7962 418.192 29.5098 418.04 29.1672L417.146 29.5632C417.354 30.0322 417.648 30.4357 418.028 30.768L418.672 30.032ZM418.043 29.1726C417.899 28.837 417.821 28.4434 417.821 27.9826H416.843C416.843 28.5537 416.94 29.0818 417.144 29.5578L418.043 29.1726ZM417.821 27.9826C417.821 27.0331 418.246 25.992 419.188 24.8504L418.433 24.2279C417.405 25.4747 416.843 26.7292 416.843 27.9826H417.821ZM419.183 24.8565C419.347 24.6643 419.491 24.5036 419.616 24.3731L418.91 23.6964C418.768 23.8443 418.611 24.0198 418.439 24.2218L419.183 24.8565ZM419.616 24.3734C419.753 24.2304 419.878 24.1024 419.991 23.9892L419.3 23.2977C419.181 23.4165 419.051 23.5493 418.91 23.6961L419.616 24.3734ZM419.947 23.259C419.866 23.1952 419.785 23.1314 419.704 23.0677L419.1 23.8367C419.181 23.9004 419.262 23.9642 419.343 24.028L419.947 23.259ZM419.72 23.0809C419.644 23.0157 419.544 22.9265 419.418 22.8121L418.76 23.5357C418.889 23.6532 418.997 23.7495 419.084 23.8234L419.72 23.0809ZM419.467 23.4836L420.876 21.7618L420.119 21.1425L418.71 22.8643L419.467 23.4836ZM420.198 21.8387C420.415 22.0072 420.706 22.2556 421.074 22.5884L421.73 21.8638C421.355 21.5241 421.043 21.2566 420.797 21.0657L420.198 21.8387ZM421.074 22.5884C421.429 22.9108 421.867 23.354 422.39 23.9222L423.11 23.2604C422.577 22.6808 422.117 22.2139 421.73 21.8638L421.074 22.5884ZM422.382 23.9132C423.812 25.5485 424.443 26.8985 424.443 27.9826H425.421C425.421 26.5392 424.598 24.9617 423.118 23.2694L422.382 23.9132ZM424.443 27.9826C424.443 28.4742 424.362 28.8835 424.215 29.2217L425.111 29.6131C425.323 29.1281 425.421 28.5808 425.421 27.9826H424.443ZM424.213 29.2248C424.069 29.562 423.862 29.8414 423.591 30.0694L424.221 30.8175C424.611 30.489 424.909 30.0843 425.112 29.61L424.213 29.2248ZM423.592 30.0689C423.328 30.2908 422.995 30.4644 422.581 30.5818L422.849 31.5226C423.374 31.3732 423.836 31.1411 424.221 30.818L423.592 30.0689ZM422.576 30.5833C422.16 30.7067 421.677 30.7719 421.124 30.7719V31.7499C421.753 31.7499 422.331 31.6759 422.854 31.521L422.576 30.5833ZM423.465 27.9826C423.465 27.7211 423.379 27.4424 423.258 27.1676L422.363 27.5628C422.462 27.7866 422.487 27.9194 422.487 27.9826H423.465ZM423.258 27.1676C423.135 26.8891 422.973 26.599 422.777 26.2978L421.958 26.8326C422.132 27.0996 422.266 27.3428 422.363 27.5628L423.258 27.1676ZM422.777 26.2978C422.579 25.9956 422.353 25.693 422.098 25.3898L421.349 26.0189C421.582 26.2954 421.784 26.5667 421.958 26.8326L422.777 26.2978ZM422.102 25.3943C421.852 25.0897 421.589 24.8056 421.314 24.5421L420.638 25.2492C420.884 25.4843 421.12 25.7393 421.346 26.0144L422.102 25.3943ZM420.63 24.5499C420.441 24.7388 420.246 24.9693 420.045 25.237L420.828 25.8238C421.01 25.5815 421.174 25.3887 421.322 25.2414L420.63 24.5499ZM420.045 25.237C419.842 25.5083 419.652 25.7968 419.475 26.1025L420.321 26.5932C420.479 26.3191 420.649 26.0628 420.828 25.8238L420.045 25.237ZM419.473 26.1052C419.299 26.4102 419.151 26.7201 419.032 27.035L419.946 27.3824C420.047 27.1176 420.172 26.8536 420.322 26.5904L419.473 26.1052ZM419.033 27.0319C418.907 27.3556 418.835 27.6746 418.835 27.9826H419.813C419.813 27.8269 419.85 27.6299 419.945 27.3855L419.033 27.0319ZM418.835 27.9826C418.835 28.288 418.936 28.5701 419.145 28.7993L419.867 28.1399C419.833 28.1023 419.813 28.0599 419.813 27.9826H418.835ZM419.16 28.8153C419.336 28.9909 419.545 29.128 419.78 29.2306L420.172 28.3346C420.035 28.2749 419.931 28.2033 419.852 28.1238L419.16 28.8153ZM419.78 29.2306C420.002 29.3279 420.235 29.3971 420.476 29.4385L420.641 28.4746C420.477 28.4464 420.32 28.3996 420.172 28.3346L419.78 29.2306ZM420.478 29.4389C420.707 29.477 420.923 29.4977 421.124 29.4977V28.5197C420.988 28.5197 420.827 28.5056 420.639 28.4742L420.478 29.4389ZM421.124 29.4977C421.35 29.4977 421.583 29.4815 421.822 29.45L421.695 28.4804C421.494 28.5069 421.303 28.5197 421.124 28.5197V29.4977ZM421.822 29.45C422.08 29.4161 422.323 29.354 422.548 29.2596L422.169 28.3578C422.035 28.4142 421.878 28.4563 421.695 28.4804L421.822 29.45ZM422.56 29.2543C422.796 29.1476 423.004 29.0002 423.171 28.8078L422.433 28.1661C422.368 28.2404 422.28 28.3075 422.157 28.363L422.56 29.2543ZM423.171 28.8078C423.376 28.5724 423.465 28.2848 423.465 27.9826H422.487C422.487 28.0862 422.46 28.1348 422.433 28.1661L423.171 28.8078ZM427.98 30.7739L427.759 31.2097L427.76 31.2105L427.98 30.7739ZM426.18 29.4174L425.782 29.1343L425.546 29.4659L425.829 29.7579L426.18 29.4174ZM427.459 27.6174L427.79 27.2581L427.382 26.881L427.06 27.3343L427.459 27.6174ZM428.937 28.6783L428.725 29.1189L428.73 29.1211L428.937 28.6783ZM430.893 28.9478L430.968 29.4312L430.978 29.4295L430.893 28.9478ZM431.58 28.7826L431.724 29.25L431.58 28.7826ZM432.224 28.5391L432.427 28.9839L432.433 28.9813L432.224 28.5391ZM432.763 28.2261L433.052 28.6209L433.362 28.3941L433.215 28.0389L432.763 28.2261ZM429.989 21.5304L429.801 21.0792L429.351 21.2672L429.537 21.7176L429.989 21.5304ZM432.05 20.6696L432.506 20.4933L432.325 20.0247L431.861 20.2184L432.05 20.6696ZM432.38 21.487L431.93 21.6763V21.6763L432.38 21.487ZM432.772 22.4261L432.32 22.6131L432.32 22.6135L432.772 22.4261ZM434.954 27.687L435.406 27.5008L435.406 27.4996L434.954 27.687ZM435.206 28.2348L434.772 28.4594L434.777 28.4685L434.782 28.4774L435.206 28.2348ZM435.52 28.6609L435.165 28.9981L435.174 29.0067L435.182 29.015L435.52 28.6609ZM435.928 28.9391L435.723 29.3831L435.733 29.3878L435.744 29.392L435.928 28.9391ZM436.667 29.0348H437.156V28.5458H436.667V29.0348ZM436.667 31.2609V31.7499H437.156V31.2609H436.667ZM435.52 31.1739L435.623 30.696L435.615 30.6944L435.52 31.1739ZM434.833 30.9565L434.614 31.394L434.624 31.399L434.833 30.9565ZM434.311 30.6174L433.987 30.9837L433.995 30.9907L434.311 30.6174ZM433.876 30.1913L434.235 29.8596L433.936 29.5352L433.583 29.8001L433.876 30.1913ZM433.024 30.713L433.235 31.1539L433.024 30.713ZM432.111 31.0435L432.231 31.5174L432.111 31.0435ZM431.12 31.2087L431.078 30.7214L431.07 30.7222L431.12 31.2087ZM430.033 30.7719C429.384 30.7719 428.775 30.6273 428.201 30.3373L427.76 31.2105C428.472 31.5698 429.232 31.7499 430.033 31.7499V30.7719ZM428.202 30.3381C427.618 30.0409 427.061 29.6229 426.531 29.0769L425.829 29.7579C426.424 30.3713 427.067 30.8577 427.759 31.2097L428.202 30.3381ZM426.579 29.7005L427.857 27.9005L427.06 27.3343L425.782 29.1343L426.579 29.7005ZM427.127 27.9767C427.677 28.4841 428.209 28.8709 428.725 29.1189L429.149 28.2376C428.749 28.045 428.296 27.7246 427.79 27.2581L427.127 27.9767ZM428.73 29.1211C429.239 29.3597 429.747 29.489 430.25 29.489V28.511C429.918 28.511 429.551 28.4258 429.144 28.2354L428.73 29.1211ZM430.25 29.489C430.481 29.489 430.72 29.4692 430.968 29.4311L430.819 28.4645C430.615 28.496 430.425 28.511 430.25 28.511V29.489ZM430.978 29.4295C431.23 29.3854 431.479 29.3255 431.724 29.25L431.437 28.3152C431.23 28.3788 431.021 28.4291 430.809 28.4662L430.978 29.4295ZM431.724 29.25C431.969 29.1745 432.204 29.0859 432.427 28.9839L432.021 28.0944C431.838 28.1778 431.644 28.2516 431.437 28.3152L431.724 29.25ZM432.433 28.9813C432.663 28.8725 432.871 28.753 433.052 28.6209L432.474 27.8313C432.354 27.9195 432.202 28.0087 432.015 28.097L432.433 28.9813ZM433.215 28.0389L430.441 21.3433L429.537 21.7176L432.311 28.4132L433.215 28.0389ZM430.178 21.9816L432.238 21.1208L431.861 20.2184L429.801 21.0792L430.178 21.9816ZM431.594 20.8458C431.694 21.1059 431.806 21.3827 431.93 21.6763L432.831 21.2976C432.711 21.0115 432.603 20.7434 432.506 20.4933L431.594 20.8458ZM431.93 21.6763C432.051 21.9653 432.181 22.2775 432.32 22.6131L433.224 22.2391C433.084 21.9022 432.953 21.5884 432.831 21.2976L431.93 21.6763ZM432.32 22.6135L434.503 27.8743L435.406 27.4996L433.223 22.2387L432.32 22.6135ZM434.502 27.8731C434.588 28.0817 434.678 28.2773 434.772 28.4594L435.641 28.0101C435.561 27.856 435.483 27.6864 435.406 27.5008L434.502 27.8731ZM434.782 28.4774C434.892 28.6702 435.019 28.8448 435.165 28.9981L435.874 28.3236C435.788 28.2335 435.706 28.124 435.631 27.9922L434.782 28.4774ZM435.182 29.015C435.342 29.1674 435.523 29.2908 435.723 29.3831L436.133 28.4951C436.032 28.4484 435.94 28.3862 435.857 28.3068L435.182 29.015ZM435.744 29.392C435.969 29.4839 436.214 29.5238 436.467 29.5238V28.5458C436.315 28.5458 436.2 28.5219 436.113 28.4863L435.744 29.392ZM436.467 29.5238H436.667V28.5458H436.467V29.5238ZM436.178 29.0348V31.2609H437.156V29.0348H436.178ZM436.667 30.7719H436.467V31.7499H436.667V30.7719ZM436.467 30.7719C436.126 30.7719 435.847 30.7446 435.623 30.6961L435.416 31.6517C435.726 31.7191 436.078 31.7499 436.467 31.7499V30.7719ZM435.615 30.6944C435.385 30.6484 435.195 30.5868 435.041 30.5141L434.624 31.399C434.864 31.5118 435.132 31.5951 435.424 31.6534L435.615 30.6944ZM435.051 30.5192C434.885 30.436 434.744 30.3438 434.627 30.2441L433.995 30.9907C434.179 31.1461 434.386 31.2799 434.614 31.3939L435.051 30.5192ZM434.635 30.2511C434.497 30.1289 434.364 29.9985 434.235 29.8596L433.517 30.523C433.667 30.6856 433.824 30.8392 433.987 30.9836L434.635 30.2511ZM433.583 29.8001C433.328 29.9912 433.071 30.148 432.812 30.2722L433.235 31.1539C433.556 30.9998 433.868 30.8088 434.169 30.5825L433.583 29.8001ZM432.812 30.2722C432.552 30.397 432.278 30.4962 431.99 30.5696L432.231 31.5174C432.581 31.4284 432.916 31.3073 433.235 31.1539L432.812 30.2722ZM431.99 30.5696C431.699 30.6439 431.395 30.6946 431.078 30.7215L431.161 31.6959C431.528 31.6648 431.885 31.6054 432.231 31.5174L431.99 30.5696ZM431.07 30.7222C430.746 30.7552 430.4 30.7719 430.033 30.7719V31.7499C430.43 31.7499 430.809 31.7318 431.169 31.6952L431.07 30.7222ZM444.079 29.0348H444.568V28.5458H444.079V29.0348ZM444.079 31.2609V31.7499H444.568V31.2609H444.079ZM442.479 30.9913L442.273 31.4351L442.479 30.9913ZM441.487 30.2957L441.84 29.9572L441.451 29.5509L441.103 29.9935L441.487 30.2957ZM440.635 30.8609L440.794 31.3233L440.798 31.3218L440.635 30.8609ZM439.392 31.1391L439.33 30.654L439.324 30.6548L439.392 31.1391ZM437.974 31.2435L437.969 30.7545L437.963 30.7546L437.974 31.2435ZM436.322 31.2609H435.833V31.7499H436.322V31.2609ZM436.322 29.0348V28.5458H435.833V29.0348H436.322ZM438.357 28.9217L438.435 29.4044L438.441 29.4034L438.357 28.9217ZM439.479 28.5739L439.253 28.1401L439.25 28.142L439.479 28.5739ZM440.105 28.0087L440.531 28.249L440.533 28.2443L440.105 28.0087ZM440.183 26.4261L439.706 26.5348L439.707 26.5367L440.183 26.4261ZM439.844 25.1565L439.712 24.6857L439.236 24.8192L439.375 25.2936L439.844 25.1565ZM441.983 24.5565L442.452 24.418L442.315 23.9555L441.851 24.0857L441.983 24.5565ZM442.157 25.2348L441.678 25.3334L441.68 25.3417L441.682 25.35L442.157 25.2348ZM442.261 25.8174L441.776 25.8745L441.777 25.8826L441.778 25.8906L442.261 25.8174ZM442.331 26.4435L441.843 26.481L441.845 26.4947L442.331 26.4435ZM442.4 27.2348L441.913 27.2716L441.914 27.2804L442.4 27.2348ZM442.531 27.8348L442.066 27.9856L442.067 27.9894L442.531 27.8348ZM442.818 28.4174L442.413 28.6916L442.418 28.6992L442.424 28.7066L442.818 28.4174ZM443.279 28.8609L443.004 29.2658L443.014 29.2718L443.279 28.8609ZM439.557 33.8348L439.903 34.1805L440.248 33.8348L439.903 33.489L439.557 33.8348ZM438.079 35.313L437.734 35.6598L438.08 36.0036L438.424 35.6588L438.079 35.313ZM436.583 33.8261L436.236 33.4813L435.892 33.8281L436.238 34.1729L436.583 33.8261ZM438.061 32.3391L438.407 31.9934L438.06 31.6466L437.715 31.9944L438.061 32.3391ZM442.844 33.8435L443.191 34.1882L443.535 33.8415L443.189 33.4967L442.844 33.8435ZM441.366 35.3304L441.02 35.6762L441.367 36.023L441.712 35.6752L441.366 35.3304ZM439.87 33.8348L439.524 33.489L439.178 33.8348L439.524 34.1805L439.87 33.8348ZM441.348 32.3565L441.693 32.0097L441.347 31.666L441.003 32.0108L441.348 32.3565ZM443.59 29.0348V31.2609H444.568V29.0348H443.59ZM444.079 30.7719H443.905V31.7499H444.079V30.7719ZM443.905 30.7719C443.392 30.7719 442.991 30.6896 442.684 30.5475L442.273 31.4351C442.743 31.6524 443.293 31.7499 443.905 31.7499V30.7719ZM442.684 30.5475C442.346 30.3912 442.067 30.1935 441.84 29.9572L441.135 30.6341C441.453 30.9659 441.834 31.232 442.273 31.4351L442.684 30.5475ZM441.103 29.9935C440.983 30.1458 440.787 30.2886 440.472 30.3999L440.798 31.3218C441.237 31.1665 441.609 30.9325 441.872 30.5978L441.103 29.9935ZM440.476 30.3984C440.142 30.5134 439.761 30.5995 439.33 30.654L439.453 31.6242C439.939 31.5628 440.387 31.4634 440.794 31.3233L440.476 30.3984ZM439.324 30.6548C438.888 30.7156 438.436 30.749 437.969 30.7545L437.98 31.7324C438.487 31.7264 438.98 31.6902 439.459 31.6234L439.324 30.6548ZM437.963 30.7546C437.485 30.7661 437.045 30.7719 436.644 30.7719V31.7499C437.054 31.7499 437.502 31.744 437.986 31.7323L437.963 30.7546ZM436.644 30.7719H436.322V31.7499H436.644V30.7719ZM436.811 31.2609V29.0348H435.833V31.2609H436.811ZM436.322 29.5238H436.644V28.5458H436.322V29.5238ZM436.644 29.5238C437.338 29.5238 437.937 29.4854 438.435 29.4044L438.279 28.4391C437.849 28.5088 437.306 28.5458 436.644 28.5458V29.5238ZM438.441 29.4034C438.934 29.3171 439.363 29.189 439.708 29.0059L439.25 28.142C439.027 28.2602 438.707 28.3641 438.273 28.4401L438.441 29.4034ZM439.704 29.0078C440.057 28.8246 440.346 28.5766 440.531 28.2489L439.679 27.7684C439.609 27.893 439.481 28.0218 439.253 28.1401L439.704 29.0078ZM440.533 28.2443C440.706 27.9307 440.785 27.5809 440.785 27.2087H439.807C439.807 27.4394 439.759 27.6229 439.676 27.773L440.533 28.2443ZM440.785 27.2087C440.785 26.9576 440.738 26.6552 440.659 26.3155L439.707 26.5367C439.779 26.8462 439.807 27.0656 439.807 27.2087H440.785ZM440.66 26.3174C440.581 25.9736 440.465 25.54 440.313 25.0194L439.375 25.2936C439.524 25.8049 439.634 26.2178 439.706 26.5348L440.66 26.3174ZM439.976 25.6273L442.115 25.0273L441.851 24.0857L439.712 24.6857L439.976 25.6273ZM441.514 24.6951C441.587 24.9409 441.641 25.1532 441.678 25.3334L442.636 25.1362C442.592 24.9222 442.53 24.6823 442.452 24.418L441.514 24.6951ZM441.682 25.35C441.723 25.522 441.755 25.6968 441.776 25.8745L442.747 25.7603C442.721 25.5438 442.683 25.3302 442.632 25.1196L441.682 25.35ZM441.778 25.8906C441.805 26.0683 441.827 26.2649 441.843 26.481L442.818 26.406C442.8 26.1699 442.776 25.9491 442.745 25.7441L441.778 25.8906ZM441.845 26.4947C441.867 26.7087 441.89 26.9674 441.913 27.2716L442.888 27.198C442.865 26.8876 442.841 26.6188 442.817 26.3923L441.845 26.4947ZM441.914 27.2804C441.935 27.5082 441.987 27.7438 442.066 27.9856L442.996 27.6839C442.935 27.4967 442.901 27.3323 442.887 27.1891L441.914 27.2804ZM442.067 27.9894C442.15 28.2399 442.266 28.4744 442.413 28.6916L443.223 28.1431C443.126 28.0009 443.05 27.847 442.995 27.6802L442.067 27.9894ZM442.424 28.7066C442.584 28.9259 442.779 29.1128 443.004 29.2657L443.553 28.456C443.419 28.3655 443.306 28.2567 443.212 28.1282L442.424 28.7066ZM443.014 29.2718C443.281 29.4443 443.584 29.5238 443.905 29.5238V28.5458C443.75 28.5458 443.636 28.5094 443.544 28.45L443.014 29.2718ZM443.905 29.5238H444.079V28.5458H443.905V29.5238ZM439.211 33.489L437.733 34.9673L438.424 35.6588L439.903 34.1805L439.211 33.489ZM438.423 34.9663L436.928 33.4793L436.238 34.1729L437.734 35.6598L438.423 34.9663ZM436.93 34.1708L438.408 32.6839L437.715 31.9944L436.236 33.4813L436.93 34.1708ZM437.716 32.6849L439.211 34.1805L439.903 33.489L438.407 31.9934L437.716 32.6849ZM442.497 33.4987L441.019 34.9857L441.712 35.6752L443.191 34.1882L442.497 33.4987ZM441.711 34.9847L440.216 33.489L439.524 34.1805L441.02 35.6762L441.711 34.9847ZM440.216 34.1805L441.694 32.7023L441.003 32.0108L439.524 33.489L440.216 34.1805ZM441.004 32.7033L442.499 34.1903L443.189 33.4967L441.693 32.0097L441.004 32.7033ZM443.725 29.0348V28.5458H443.236V29.0348H443.725ZM445.69 29.0261L445.681 28.5372L445.68 28.5372L445.69 29.0261ZM446.577 28.9652L446.517 28.4799L446.577 28.9652ZM448.055 28.4783L448.343 28.8738L448.35 28.868L448.055 28.4783ZM448.507 27.9391L448.942 28.1625L448.944 28.1578L448.507 27.9391ZM448.368 25.8522L447.924 26.0567L447.925 26.059L448.368 25.8522ZM447.533 24.5043L447.144 24.8008L447.146 24.8032L447.533 24.5043ZM446.281 23.0783L445.931 23.4198L445.933 23.4219L446.281 23.0783ZM444.742 21.5913L444.256 21.5364L444.228 21.7838L444.412 21.9519L444.742 21.5913ZM444.977 19.513L444.778 19.0662L444.522 19.18L444.491 19.4582L444.977 19.513ZM451.898 16.4348L452.349 16.2438L452.154 15.7859L451.7 15.988L451.898 16.4348ZM452.777 18.5043L452.971 18.9532L453.417 18.7604L453.227 18.3133L452.777 18.5043ZM447.107 20.9565L446.913 20.5077L446.189 20.821L446.792 21.3301L447.107 20.9565ZM447.881 21.6522L447.543 22.0059L447.547 22.0097L447.881 21.6522ZM448.672 22.4609L449.037 22.1345L449.035 22.1334L448.672 22.4609ZM449.69 23.8L449.275 24.0587L449.276 24.0611L449.69 23.8ZM450.359 25.0783L449.907 25.2632L449.909 25.2686L450.359 25.0783ZM450.733 26.2522L450.254 26.3495L450.256 26.3567L450.733 26.2522ZM450.507 28.9217L450.065 28.7135L450.063 28.7178L450.507 28.9217ZM449.585 30.1826L449.909 30.5496L449.912 30.5469L449.585 30.1826ZM448.229 30.9826L448.396 31.4422L448.399 31.4411L448.229 30.9826ZM443.725 31.2609H443.236V31.7499H443.725V31.2609ZM443.725 29.5238H444.811V28.5458H443.725V29.5238ZM444.811 29.5238C445.099 29.5238 445.395 29.5208 445.699 29.515L445.68 28.5372C445.382 28.5429 445.092 28.5458 444.811 28.5458V29.5238ZM445.699 29.515C446.022 29.5089 446.334 29.4875 446.636 29.4506L446.517 28.4799C446.251 28.5125 445.972 28.5317 445.681 28.5372L445.699 29.515ZM446.636 29.4506C446.945 29.4128 447.241 29.3525 447.524 29.2689L447.247 28.3311C447.02 28.3982 446.777 28.4481 446.517 28.4799L446.636 29.4506ZM447.524 29.2689C447.826 29.1797 448.101 29.0495 448.343 28.8737L447.767 28.0828C447.626 28.1853 447.455 28.2696 447.247 28.3311L447.524 29.2689ZM448.35 28.868C448.6 28.6786 448.799 28.4419 448.942 28.1625L448.072 27.7158C447.995 27.8653 447.892 27.9881 447.76 28.0885L448.35 28.868ZM448.944 28.1578C449.097 27.8526 449.161 27.5036 449.161 27.1304H448.183C448.183 27.395 448.137 27.585 448.07 27.7204L448.944 28.1578ZM449.161 27.1304C449.161 26.6316 449.04 26.1353 448.811 25.6454L447.925 26.059C448.102 26.4387 448.183 26.7944 448.183 27.1304H449.161ZM448.812 25.6476C448.591 25.1679 448.292 24.6872 447.92 24.2055L447.146 24.8032C447.481 25.2374 447.739 25.6553 447.924 26.0567L448.812 25.6476ZM447.922 24.2079C447.554 23.7249 447.122 23.2339 446.629 22.7346L445.933 23.4219C446.402 23.8965 446.805 24.3562 447.144 24.8008L447.922 24.2079ZM446.631 22.7367C446.149 22.2426 445.629 21.7406 445.072 21.2307L444.412 21.9519C444.956 22.4507 445.463 22.94 445.931 23.4198L446.631 22.7367ZM445.228 21.6462L445.463 19.5679L444.491 19.4582L444.256 21.5364L445.228 21.6462ZM445.175 19.9598L452.097 16.8816L451.7 15.988L444.778 19.0662L445.175 19.9598ZM451.448 16.6258L452.327 18.6954L453.227 18.3133L452.349 16.2438L451.448 16.6258ZM452.583 18.0555L446.913 20.5077L447.301 21.4053L452.971 18.9532L452.583 18.0555ZM446.792 21.3301C447.045 21.5438 447.295 21.769 447.543 22.0059L448.219 21.2985C447.957 21.0484 447.691 20.8098 447.423 20.5829L446.792 21.3301ZM447.547 22.0097C447.797 22.2425 448.051 22.502 448.309 22.7884L449.035 22.1334C448.76 21.8285 448.487 21.5488 448.215 21.2947L447.547 22.0097ZM448.308 22.7872C448.692 23.2154 449.013 23.6393 449.275 24.0587L450.105 23.5413C449.81 23.0679 449.453 22.5991 449.037 22.1345L448.308 22.7872ZM449.276 24.0611C449.542 24.4815 449.751 24.8821 449.907 25.2632L450.812 24.8934C450.631 24.4512 450.394 23.9997 450.103 23.5389L449.276 24.0611ZM449.909 25.2686C450.072 25.6554 450.186 26.0155 450.254 26.3495L451.212 26.1548C451.13 25.7469 450.994 25.3243 450.81 24.8879L449.909 25.2686ZM450.256 26.3567C450.331 26.7011 450.366 27.0045 450.366 27.2696H451.344C451.344 26.9201 451.298 26.5453 451.211 26.1477L450.256 26.3567ZM450.366 27.2696C450.366 27.8148 450.262 28.2932 450.065 28.7135L450.95 29.1299C451.216 28.5648 451.344 27.9417 451.344 27.2696H450.366ZM450.063 28.7178C449.863 29.1521 449.596 29.5171 449.259 29.8183L449.912 30.5469C450.352 30.1525 450.699 29.6769 450.952 29.1257L450.063 28.7178ZM449.262 29.8156C448.922 30.1156 448.522 30.3523 448.059 30.5241L448.399 31.4411C448.967 31.2303 449.472 30.9337 449.909 30.5496L449.262 29.8156ZM448.062 30.5231C447.607 30.6884 447.128 30.7719 446.62 30.7719V31.7499C447.237 31.7499 447.83 31.6478 448.396 31.4422L448.062 30.5231ZM446.62 30.7719H443.725V31.7499H446.62V30.7719ZM444.214 31.2609V29.0348H443.236V31.2609H444.214ZM456.741 25.4783L457.207 25.3303L457.058 24.862L456.591 25.0129L456.741 25.4783ZM457.098 26.6261L456.63 26.7685L456.632 26.7766L457.098 26.6261ZM457.437 27.8261L456.961 27.9415L456.963 27.9479L457.437 27.8261ZM457.689 29.0435L457.206 29.1194L457.206 29.1205L457.689 29.0435ZM457.541 31.7391L457.077 31.5861L457.075 31.5927L457.541 31.7391ZM456.88 33.1739L456.465 32.9161L456.461 32.9223L456.88 33.1739ZM455.88 34.4957L455.522 34.1625L455.52 34.1652L455.88 34.4957ZM454.628 35.6783L454.318 35.3002L454.628 35.6783ZM453.193 36.713L453.454 37.1264L453.193 36.713ZM451.663 37.5739L451.225 37.7918L451.442 38.2284L451.879 38.0123L451.663 37.5739ZM450.671 35.5826L450.455 35.144L450.015 35.3611L450.234 35.8005L450.671 35.5826ZM451.889 34.9043L451.635 34.4866L451.63 34.4894L451.889 34.9043ZM453.028 34.1217L452.732 33.7328L452.729 33.7351L453.028 34.1217ZM454.037 33.2435L453.694 32.8945L453.691 32.8977L454.037 33.2435ZM454.837 32.287L454.433 32.0108L454.43 32.0157L454.837 32.287ZM455.367 31.2696L454.908 31.1012L455.367 31.2696ZM455.445 29.1739L454.966 29.2727L455.445 29.1739ZM455.167 28.0957L454.697 28.232L454.7 28.2411L455.167 28.0957ZM454.837 27.0609L454.373 27.2155L454.375 27.2228L454.837 27.0609ZM454.558 26.1826L454.408 25.7173L453.954 25.8637L454.089 26.3212L454.558 26.1826ZM456.275 25.6262C456.39 25.9894 456.509 26.3702 456.63 26.7685L457.565 26.4837C457.443 26.082 457.324 25.6975 457.207 25.3303L456.275 25.6262ZM456.632 26.7766C456.756 27.1591 456.866 27.5474 456.962 27.9415L457.912 27.7107C457.81 27.2932 457.694 26.8814 457.563 26.4756L456.632 26.7766ZM456.963 27.9479C457.064 28.3388 457.145 28.7293 457.206 29.1194L458.172 28.9676C458.106 28.546 458.018 28.1249 457.91 27.7043L456.963 27.9479ZM457.206 29.1205C457.266 29.4965 457.296 29.862 457.296 30.2174H458.273C458.273 29.8075 458.239 29.3905 458.172 28.9665L457.206 29.1205ZM457.296 30.2174C457.296 30.6875 457.223 31.143 457.077 31.5861L458.005 31.8921C458.184 31.3497 458.273 30.7908 458.273 30.2174H457.296ZM457.075 31.5927C456.931 32.0509 456.728 32.4919 456.465 32.9162L457.296 33.4317C457.601 32.94 457.838 32.4244 458.008 31.8856L457.075 31.5927ZM456.461 32.9223C456.201 33.3553 455.889 33.7688 455.522 34.1625L456.238 34.8288C456.649 34.3878 457.003 33.92 457.299 33.4255L456.461 32.9223ZM455.52 34.1652C455.153 34.565 454.753 34.9434 454.318 35.3002L454.938 36.0563C455.408 35.6711 455.842 35.2611 456.241 34.8261L455.52 34.1652ZM454.318 35.3002C453.882 35.6582 453.42 35.9914 452.932 36.2997L453.454 37.1264C453.976 36.797 454.47 36.4403 454.938 36.0563L454.318 35.3002ZM452.932 36.2997C452.441 36.6098 451.946 36.8883 451.446 37.1356L451.879 38.0123C452.411 37.7494 452.936 37.454 453.454 37.1264L452.932 36.2997ZM452.101 37.356L451.109 35.3647L450.234 35.8005L451.225 37.7918L452.101 37.356ZM450.888 36.0212C451.314 35.811 451.734 35.577 452.147 35.3193L451.63 34.4894C451.244 34.7303 450.852 34.9485 450.455 35.144L450.888 36.0212ZM452.143 35.322C452.558 35.0694 452.953 34.7982 453.327 34.5084L452.729 33.7351C452.384 34.0018 452.019 34.2524 451.635 34.4867L452.143 35.322ZM453.324 34.5107C453.706 34.2199 454.059 33.9128 454.382 33.5892L453.691 32.8977C453.4 33.1886 453.08 33.4671 452.732 33.7328L453.324 34.5107ZM454.379 33.5925C454.714 33.264 455.003 32.9194 455.244 32.5582L454.43 32.0157C454.23 32.3153 453.986 32.6085 453.694 32.8945L454.379 33.5925ZM455.24 32.5631C455.487 32.2018 455.684 31.8268 455.826 31.4379L454.908 31.1012C454.796 31.408 454.638 31.7112 454.433 32.0108L455.24 32.5631ZM455.826 31.4379C455.973 31.0388 456.047 30.6312 456.047 30.2174H455.069C455.069 30.5109 455.017 30.8047 454.908 31.1012L455.826 31.4379ZM456.047 30.2174C456.047 29.8498 456.006 29.4687 455.924 29.0751L454.966 29.2727C455.036 29.6095 455.069 29.9241 455.069 30.2174H456.047ZM455.924 29.0751C455.846 28.6943 455.749 28.3193 455.634 27.9502L454.7 28.2411C454.806 28.5793 454.894 28.9231 454.966 29.2727L455.924 29.0751ZM455.637 27.9593C455.53 27.5919 455.417 27.2384 455.298 26.899L454.375 27.2228C454.488 27.5442 454.596 27.8806 454.698 28.232L455.637 27.9593ZM455.301 26.9062C455.192 26.5796 455.101 26.2924 455.027 26.0441L454.089 26.3212C454.167 26.583 454.261 26.8813 454.373 27.2155L455.301 26.9062ZM454.709 26.648L456.891 25.9436L456.591 25.0129L454.408 25.7173L454.709 26.648ZM461.741 17.4261L462.226 17.3626L462.149 16.7782L461.589 16.9613L461.741 17.4261ZM462.045 20.6L461.557 20.6281L461.557 20.6282L462.045 20.6ZM462.149 23.5478L461.66 23.5537L461.66 23.5548L462.149 23.5478ZM462.158 25.8174L461.669 25.8133V25.8174H462.158ZM462.141 27.7652L462.63 27.7747V27.7746L462.141 27.7652ZM462.089 29.4435L462.577 29.4654L462.577 29.4652L462.089 29.4435ZM462.019 30.8957L462.093 31.379L462.487 31.3189L462.507 30.9207L462.019 30.8957ZM459.741 31.2435L459.253 31.2124L459.214 31.8185L459.815 31.7269L459.741 31.2435ZM459.897 24.513L460.386 24.4966L460.386 24.494L459.897 24.513ZM459.741 21.1652L459.252 21.1922L459.252 21.1923L459.741 21.1652ZM459.506 18.1565L459.354 17.6917L458.979 17.8143L459.02 18.2066L459.506 18.1565ZM461.256 17.4895C461.399 18.5862 461.5 19.6324 461.557 20.6281L462.533 20.5719C462.475 19.5503 462.372 18.4804 462.226 17.3626L461.256 17.4895ZM461.557 20.6282C461.614 21.624 461.649 22.5992 461.66 23.5537L462.638 23.5419C462.627 22.5719 462.592 21.5818 462.533 20.5718L461.557 20.6282ZM461.66 23.5548C461.672 24.3691 461.675 25.1219 461.669 25.8133L462.647 25.8215C462.653 25.1216 462.65 24.3613 462.638 23.5409L461.66 23.5548ZM461.669 25.8174C461.669 26.5104 461.663 27.1565 461.652 27.7558L462.63 27.7746C462.641 27.1682 462.647 26.5157 462.647 25.8174H461.669ZM461.652 27.7557C461.64 28.3493 461.623 28.9046 461.6 29.4218L462.577 29.4652C462.6 28.9389 462.618 28.3753 462.63 27.7747L461.652 27.7557ZM461.6 29.4215C461.577 29.9366 461.554 30.4196 461.531 30.8706L462.507 30.9207C462.531 30.4674 462.554 29.9823 462.577 29.4654L461.6 29.4215ZM461.945 30.4123L459.667 30.7601L459.815 31.7269L462.093 31.379L461.945 30.4123ZM460.229 31.2745C460.351 29.3541 460.412 27.6535 460.412 26.1739H459.434C459.434 27.6276 459.374 29.3068 459.253 31.2124L460.229 31.2745ZM460.412 26.1739C460.412 25.5779 460.404 25.0187 460.386 24.4966L459.409 24.5295C459.426 25.0393 459.434 25.5873 459.434 26.1739H460.412ZM460.386 24.494C460.339 23.3032 460.287 22.1846 460.229 21.1381L459.252 21.1923C459.31 22.2328 459.362 23.346 459.409 24.5321L460.386 24.494ZM460.229 21.1382C460.171 20.0819 460.092 19.0713 459.992 18.1064L459.02 18.2066C459.117 19.1548 459.195 20.1499 459.252 21.1922L460.229 21.1382ZM459.658 18.6213L461.893 17.8909L461.589 16.9613L459.354 17.6917L459.658 18.6213Z" fill="url(#paint4_linear_274_150)" mask="url(#path-24-outside-1_274_150)"/>
</g>
<defs>
<filter id="filter0_ddi_274_150" x="0.110132" y="0.777533" width="486.78" height="59.0022" filterUnits="userSpaceOnUse" color-interpolation-filters="sRGB">
<feFlood flood-opacity="0" result="BackgroundImageFix"/>
<feColorMatrix in="SourceAlpha" type="matrix" values="0 0 0 0 0 0 0 0 0 0 0 0 0 0 0 0 0 0 127 0" result="hardAlpha"/>
<feOffset dy="4.88987"/>
<feGaussianBlur stdDeviation="2.44493"/>
<feComposite in2="hardAlpha" operator="out"/>
<feColorMatrix type="matrix" values="0 0 0 0 0 0 0 0 0 0 0 0 0 0 0 0 0 0 0.12 0"/>
<feBlend mode="normal" in2="BackgroundImageFix" result="effect1_dropShadow_274_150"/>
<feColorMatrix in="SourceAlpha" type="matrix" values="0 0 0 0 0 0 0 0 0 0 0 0 0 0 0 0 0 0 127 0" result="hardAlpha"/>
<feOffset dy="1.22247"/>
<feGaussianBlur stdDeviation="1.22247"/>
<feComposite in2="hardAlpha" operator="out"/>
<feColorMatrix type="matrix" values="0 0 0 0 0 0 0 0 0 0 0 0 0 0 0 0 0 0 0.16 0"/>
<feBlend mode="normal" in2="effect1_dropShadow_274_150" result="effect2_dropShadow_274_150"/>
<feBlend mode="normal" in="SourceGraphic" in2="effect2_dropShadow_274_150" result="shape"/>
<feColorMatrix in="SourceAlpha" type="matrix" values="0 0 0 0 0 0 0 0 0 0 0 0 0 0 0 0 0 0 127 0" result="hardAlpha"/>
<feOffset/>
<feGaussianBlur stdDeviation="3.6674"/>
<feComposite in2="hardAlpha" operator="arithmetic" k2="-1" k3="1"/>
<feColorMatrix type="matrix" values="0 0 0 0 0.369896 0 0 0 0 0.8375 0 0 0 0 0.535268 0 0 0 0.15 0"/>
<feBlend mode="normal" in2="shape" result="effect3_innerShadow_274_150"/>
</filter>
<linearGradient id="paint0_linear_274_150" x1="63" y1="39.0001" x2="157" y2="39.0001" gradientUnits="userSpaceOnUse">
<stop stop-color="#635689"/>
<stop offset="1" stop-color="#030081"/>
</linearGradient>
<linearGradient id="paint1_linear_274_150" x1="166" y1="39.0001" x2="272" y2="39.0001" gradientUnits="userSpaceOnUse">
<stop stop-color="#AB8EFF"/>
<stop offset="1" stop-color="#2596FF"/>
</linearGradient>
<linearGradient id="paint2_linear_274_150" x1="281" y1="26" x2="366" y2="26" gradientUnits="userSpaceOnUse">
<stop stop-color="#FFC13C"/>
<stop offset="1" stop-color="#FF9900" stop-opacity="0.88"/>
</linearGradient>
<linearGradient id="paint3_linear_274_150" x1="419" y1="16" x2="419" y2="36" gradientUnits="userSpaceOnUse">
<stop stop-color="#62FF99"/>
<stop offset="0.454805" stop-color="#30EB72"/>
<stop offset="0.935" stop-color="#24BD5A"/>
</linearGradient>
<linearGradient id="paint4_linear_274_150" x1="419" y1="16" x2="419" y2="36" gradientUnits="userSpaceOnUse">
<stop stop-color="#9AFABC"/>
<stop offset="0.962911" stop-color="#38FF7E"/>
</linearGradient>
<clipPath id="clip0_274_150">
<rect width="35" height="15.8063" fill="white" transform="translate(19 18.0967)"/>
</clipPath>
</defs>
</svg>
