<svg width="501" height="360" viewBox="0 0 501 360" fill="none" xmlns="http://www.w3.org/2000/svg">
<rect x="1.4449" y="1.4449" width="498.11" height="357.11" rx="27.2001" fill="url(#paint0_linear_292_483)"/>
<rect x="1.4449" y="1.4449" width="498.11" height="357.11" rx="27.2001" stroke="#1C3023" stroke-width="1.11021"/>
<mask id="path-2-inside-1_292_483" fill="white">
<path d="M2 28.65C2 13.9316 13.9316 2 28.65 2H472.35C487.068 2 499 13.9316 499 28.65V78.8573H2V28.65Z"/>
</mask>
<path d="M2 28.65C2 13.9316 13.9316 2 28.65 2H472.35C487.068 2 499 13.9316 499 28.65V78.8573H2V28.65Z" fill="url(#paint1_linear_292_483)"/>
<path d="M2 2H499H2ZM499 79.9675H2V77.7471H499V79.9675ZM2 78.8573V2V78.8573ZM499 2V78.8573V2Z" fill="#1B261F" mask="url(#path-2-inside-1_292_483)"/>
<g filter="url(#filter0_ddd_292_483)">
<circle cx="27.3762" cy="43.2043" r="3.17203" fill="url(#paint2_linear_292_483)"/>
<circle cx="27.3762" cy="43.2043" r="3.02784" stroke="#38FF7E" stroke-width="0.288366"/>
</g>
<g filter="url(#filter1_ddd_292_483)">
<circle cx="44.8224" cy="43.2043" r="3.17203" fill="url(#paint3_linear_292_483)"/>
<circle cx="44.8224" cy="43.2043" r="3.02784" stroke="#38FF7E" stroke-width="0.288366"/>
</g>
<g filter="url(#filter2_ddd_292_483)">
<circle cx="62.2685" cy="43.2043" r="3.17203" fill="url(#paint4_linear_292_483)"/>
<circle cx="62.2685" cy="43.2043" r="3.02784" stroke="#38FF7E" stroke-width="0.288366"/>
</g>
<g filter="url(#filter3_d_292_483)">
<path d="M388.66 49.5171C387.909 49.5102 387.147 49.4789 386.375 49.4232C385.603 49.3676 384.858 49.2702 384.142 49.1311C383.425 48.985 382.751 48.7902 382.118 48.5467C381.485 48.2963 380.935 47.9728 380.469 47.5763C380.003 47.1798 379.634 46.6998 379.363 46.1363C379.092 45.5658 378.956 44.8945 378.956 44.1224C378.956 43.7398 378.998 43.3745 379.081 43.0267C379.165 42.6719 379.272 42.3276 379.405 41.9937C379.537 41.6598 379.686 41.3363 379.853 41.0232C380.02 40.7032 380.187 40.3867 380.354 40.0737L382.295 41.7015C382.177 41.8615 382.041 42.0806 381.888 42.3589C381.742 42.6371 381.61 42.9328 381.492 43.2458C381.38 43.5589 381.304 43.8615 381.262 44.1537C381.248 44.2511 381.241 44.345 381.241 44.4354C381.241 44.6093 381.272 44.7624 381.335 44.8945C381.488 45.2076 381.777 45.4858 382.201 45.7293C382.632 45.9658 383.168 46.1676 383.808 46.3345C384.455 46.4945 385.189 46.6163 386.01 46.6998C386.838 46.7832 387.721 46.825 388.66 46.825C389.182 46.825 389.77 46.8076 390.424 46.7728C391.085 46.738 391.763 46.6719 392.458 46.5745C393.161 46.4771 393.85 46.345 394.525 46.178C395.206 46.0041 395.829 45.778 396.392 45.4998C396.309 45.0963 396.194 44.7067 396.048 44.3311C395.909 43.9554 395.749 43.5867 395.568 43.225C395.387 42.8632 395.196 42.5084 394.994 42.1606C394.792 41.8058 394.587 41.4511 394.378 41.0963L396.612 39.6458C396.632 39.6458 396.695 39.7502 396.799 39.9589C396.911 40.1606 397.043 40.4284 397.196 40.7624C397.356 41.0963 397.523 41.4754 397.697 41.8998C397.871 42.3241 398.031 42.7519 398.177 43.1832C398.323 43.6145 398.445 44.0319 398.542 44.4354C398.639 44.8319 398.688 45.1763 398.688 45.4684C398.688 45.8789 398.584 46.2511 398.375 46.585C398.166 46.9189 397.881 47.2215 397.519 47.4928C397.158 47.7641 396.737 48.0041 396.257 48.2128C395.777 48.4145 395.265 48.5919 394.723 48.745C394.187 48.8911 393.634 49.0163 393.064 49.1206C392.5 49.225 391.951 49.305 391.415 49.3606C390.879 49.4232 390.375 49.465 389.902 49.4858C389.526 49.5067 389.185 49.5171 388.879 49.5171C388.803 49.5171 388.73 49.5171 388.66 49.5171ZM390.622 52.9084L388.618 54.9119L386.625 52.9084L388.618 50.9154L390.622 52.9084ZM406.008 49.5171H405.591C404.178 49.5171 403.107 49.1624 402.377 48.4528C401.646 47.7432 401.278 46.6719 401.271 45.2389C401.271 45.0163 401.278 44.6511 401.292 44.1432C401.305 43.6284 401.312 43.0024 401.312 42.265C401.312 41.8267 401.309 41.3571 401.302 40.8563C401.295 40.3484 401.285 39.8337 401.271 39.3119C401.257 38.7832 401.236 38.258 401.208 37.7363C401.187 37.2076 401.159 36.6998 401.125 36.2128C401.09 35.7189 401.048 35.2598 400.999 34.8354C400.951 34.4041 400.895 34.025 400.832 33.698L403.452 32.9154C403.528 33.3189 403.598 33.8128 403.66 34.3971C403.723 34.9745 403.778 35.5937 403.827 36.2545C403.876 36.9154 403.911 37.5902 403.932 38.2789C403.959 38.9606 403.973 39.6041 403.973 40.2093C403.973 40.578 403.977 40.9711 403.984 41.3884C403.991 41.7989 403.994 42.1606 403.994 42.4737C403.994 42.738 403.991 42.9884 403.984 43.225C403.984 43.4545 403.98 43.6771 403.973 43.8928C403.973 44.1084 403.97 44.3206 403.963 44.5293C403.963 44.738 403.963 44.9502 403.963 45.1658C403.963 45.2215 403.963 45.2771 403.963 45.3328C403.963 45.5832 403.987 45.8058 404.036 46.0006C404.092 46.1954 404.185 46.3589 404.318 46.4911C404.45 46.6163 404.617 46.7067 404.818 46.7624C405.027 46.818 405.267 46.8458 405.538 46.8458H406.008V49.5171ZM405.595 46.8458H405.793C406.037 46.8458 406.242 46.8458 406.409 46.8458C406.583 46.8389 406.75 46.8319 406.91 46.825C407.07 46.8111 407.237 46.8006 407.411 46.7937C407.591 46.7798 407.811 46.7658 408.068 46.7519C407.727 46.3137 407.473 45.8337 407.306 45.3119C407.146 44.7902 407.066 44.258 407.066 43.7154C407.066 43.3328 407.108 42.9537 407.191 42.578C407.275 42.1954 407.4 41.8337 407.567 41.4928C407.734 41.1519 407.939 40.8354 408.183 40.5432C408.433 40.2511 408.722 39.9971 409.049 39.7815C408.993 39.7676 408.913 39.7363 408.809 39.6876C408.711 39.6389 408.555 39.5554 408.339 39.4371L409.894 36.9015C409.922 36.9015 410.019 36.9432 410.186 37.0267C410.353 37.1032 410.569 37.2076 410.833 37.3398C411.098 37.4719 411.397 37.625 411.731 37.7989C412.071 37.9658 412.423 38.1398 412.785 38.3206C413.146 38.4945 413.508 38.6684 413.87 38.8424C414.231 39.0163 414.569 39.1728 414.882 39.3119C415.529 39.6041 416.099 39.8615 416.593 40.0841C417.087 40.3067 417.525 40.5293 417.908 40.7519C418.298 40.9745 418.642 41.2076 418.941 41.4511C419.247 41.6945 419.536 41.9832 419.807 42.3171C420.238 42.8458 420.527 43.4163 420.673 44.0284C420.757 44.3693 420.798 44.7067 420.798 45.0406C420.798 45.3189 420.753 45.6737 420.663 46.105C420.572 46.5363 420.343 47.0163 419.974 47.545C419.612 48.0737 419.136 48.5154 418.545 48.8702C418.343 48.9884 418.096 49.0893 417.804 49.1728C417.518 49.2563 417.216 49.3258 416.896 49.3815C416.583 49.4371 416.27 49.4789 415.957 49.5067C415.651 49.5345 415.379 49.5484 415.143 49.5484C414.851 49.5484 414.524 49.5345 414.162 49.5067C413.807 49.4858 413.445 49.4476 413.077 49.3919C412.715 49.3363 412.36 49.2667 412.012 49.1832C411.665 49.0998 411.355 48.9989 411.084 48.8806C410.43 49.0893 409.647 49.2458 408.736 49.3502C407.825 49.4615 406.844 49.5171 405.793 49.5171H405.595V46.8458ZM416.03 43.2145C416.03 43.8684 415.922 44.5119 415.706 45.145C415.498 45.7711 415.185 46.345 414.767 46.8667C414.885 46.8806 415 46.8911 415.111 46.898C415.223 46.905 415.331 46.9084 415.435 46.9084C415.88 46.9084 416.291 46.8598 416.666 46.7624C417.049 46.658 417.379 46.5224 417.658 46.3554C417.936 46.1884 418.155 45.9937 418.315 45.7711C418.475 45.5484 418.555 45.3119 418.555 45.0615C418.555 44.8389 418.485 44.6093 418.346 44.3728C418.214 44.1363 418.033 43.9067 417.804 43.6841C417.574 43.4545 417.303 43.2389 416.99 43.0371C416.677 42.8284 416.343 42.6406 415.988 42.4737C416.002 42.5919 416.012 42.7171 416.019 42.8493C416.026 42.9745 416.03 43.0963 416.03 43.2145ZM411.605 41.1902C411.55 41.1832 411.494 41.1798 411.438 41.1798C411.223 41.1798 410.997 41.2563 410.76 41.4093C410.524 41.5554 410.301 41.7676 410.092 42.0458C409.891 42.3241 409.734 42.6337 409.623 42.9745C409.532 43.2458 409.487 43.5032 409.487 43.7467C409.487 43.8232 409.491 43.8963 409.498 43.9658C409.525 44.1884 409.585 44.4145 409.675 44.6441C409.772 44.8737 409.891 45.0893 410.03 45.2911C410.176 45.4858 410.339 45.6598 410.52 45.8128C410.701 45.9589 410.896 46.0632 411.105 46.1258C411.383 46.0632 411.647 45.9693 411.898 45.8441C412.155 45.7119 412.385 45.538 412.586 45.3224C412.795 45.1067 412.972 44.8458 413.118 44.5398C413.265 44.2267 413.365 43.8615 413.421 43.4441C413.435 43.3328 413.442 43.2284 413.442 43.1311C413.442 42.9015 413.393 42.6754 413.296 42.4528C413.198 42.2232 413.052 42.018 412.858 41.8371C412.67 41.6493 412.461 41.5032 412.231 41.3989C412.002 41.2876 411.793 41.218 411.605 41.1902ZM436.629 56.6963C435.558 56.6963 434.584 56.5363 433.708 56.2163C432.831 55.8963 432.08 55.4371 431.454 54.8389C430.835 54.2406 430.355 53.5102 430.014 52.6476C429.673 51.7919 429.503 50.825 429.503 49.7467C429.503 48.6406 429.663 47.545 429.983 46.4598C430.309 45.3745 430.796 44.345 431.443 43.3711L433.499 44.8632C433.374 45.0371 433.217 45.2945 433.029 45.6354C432.849 45.9763 432.675 46.3693 432.508 46.8145C432.341 47.2598 432.195 47.7398 432.069 48.2545C431.951 48.7693 431.892 49.2876 431.892 49.8093C431.892 50.4284 432.021 50.9919 432.278 51.4998C432.543 52.0076 432.897 52.4424 433.343 52.8041C433.788 53.1728 434.303 53.458 434.887 53.6598C435.478 53.8684 436.101 53.9798 436.755 53.9937C436.789 53.9937 436.824 53.9937 436.859 53.9937C437.346 53.9937 437.823 53.945 438.289 53.8476C438.762 53.7571 439.21 53.6145 439.635 53.4198C440.059 53.2319 440.445 53.0024 440.793 52.7311C441.141 52.4598 441.436 52.1571 441.68 51.8232C441.923 51.4893 442.111 51.1276 442.243 50.738C442.348 50.4041 442.4 50.0563 442.4 49.6945C442.4 49.6389 442.4 49.5798 442.4 49.5171C442.386 49.1971 442.33 48.8424 442.233 48.4528C442.143 48.0563 442.031 47.6563 441.899 47.2528C441.767 46.8493 441.624 46.4563 441.471 46.0737C441.325 45.6841 441.186 45.3398 441.054 45.0406C440.922 44.7415 440.81 44.5015 440.72 44.3206C440.629 44.1398 440.581 44.0493 440.574 44.0493L443.026 42.6824C443.047 42.7171 443.12 42.8945 443.245 43.2145C443.377 43.5276 443.544 43.9206 443.746 44.3937C444.01 44.9989 444.268 45.4684 444.518 45.8024C444.776 46.1293 445.026 46.3728 445.269 46.5328C445.513 46.6858 445.749 46.7763 445.979 46.8041C446.216 46.8319 446.442 46.8458 446.657 46.8458H447.002V49.5171H446.657C446.282 49.5171 445.941 49.4789 445.635 49.4024C445.329 49.3328 445.064 49.2354 444.842 49.1102C444.849 49.2424 444.852 49.3745 444.852 49.5067C444.852 50.0076 444.803 50.5328 444.706 51.0824C444.609 51.6389 444.424 52.1989 444.153 52.7624C443.889 53.3258 443.537 53.8476 443.099 54.3276C442.661 54.8076 442.132 55.2215 441.513 55.5693C440.901 55.9241 440.188 56.1989 439.374 56.3937C438.56 56.5954 437.645 56.6963 436.629 56.6963ZM438.977 42.4528L436.974 44.4563L434.981 42.4528L436.974 40.4598L438.977 42.4528ZM446.611 46.8458H448.833C449.16 46.8458 449.511 46.8284 449.887 46.7937C450.27 46.7519 450.621 46.6719 450.941 46.5537C451.268 46.4284 451.536 46.2511 451.744 46.0215C451.96 45.7919 452.068 45.4858 452.068 45.1032C452.068 44.9224 452.03 44.6684 451.953 44.3415C451.877 44.0145 451.776 43.6528 451.651 43.2563C451.525 42.8598 451.376 42.4493 451.202 42.025C451.035 41.6006 450.858 41.2041 450.67 40.8354L453.08 39.6458C453.254 40.0424 453.428 40.4632 453.602 40.9084C453.776 41.3537 453.929 41.8128 454.061 42.2858C454.2 42.7519 454.311 43.2215 454.395 43.6945C454.478 44.1676 454.52 44.6302 454.52 45.0824C454.52 45.8893 454.371 46.5745 454.071 47.138C453.772 47.7015 453.362 48.1606 452.84 48.5154C452.325 48.8632 451.72 49.1171 451.024 49.2771C450.336 49.4371 449.598 49.5171 448.812 49.5171H446.611V46.8458ZM450.492 52.6058L448.718 54.3798L446.924 52.5954L448.698 50.8111L450.492 52.6058ZM454.437 52.6163L452.663 54.4006L450.868 52.6058L452.642 50.8319L454.437 52.6163ZM465.845 49.5171H465.521C465.34 49.5171 465.111 49.4963 464.833 49.4545C464.561 49.4128 464.262 49.2876 463.935 49.0789C463.845 49.9554 463.577 50.7937 463.132 51.5937C462.687 52.4006 462.127 53.1554 461.452 53.858C460.784 54.5606 460.029 55.2041 459.187 55.7884C458.353 56.3728 457.494 56.8841 456.61 57.3224L455.441 54.9119C455.928 54.6615 456.419 54.3902 456.913 54.098C457.4 53.8058 457.866 53.4928 458.311 53.1589C458.756 52.825 459.17 52.4771 459.553 52.1154C459.942 51.7537 460.276 51.3745 460.554 50.978C460.84 50.5815 461.062 50.1745 461.222 49.7571C461.389 49.3398 461.473 48.9119 461.473 48.4737C461.473 48.1606 461.427 47.8163 461.337 47.4406C461.247 47.058 461.132 46.6615 460.993 46.2511C460.854 45.8406 460.704 45.4267 460.544 45.0093C460.384 44.585 460.238 44.1745 460.106 43.778L462.61 42.7345C462.881 43.5484 463.128 44.2232 463.351 44.7589C463.58 45.2876 463.803 45.7084 464.019 46.0215C464.241 46.3276 464.471 46.5432 464.707 46.6684C464.951 46.7867 465.226 46.8458 465.532 46.8458H465.855L465.845 49.5171ZM465.431 46.8458H466.735C467.076 46.8458 467.427 46.8424 467.789 46.8354C468.158 46.8284 468.513 46.8041 468.854 46.7624C469.194 46.7206 469.518 46.6545 469.824 46.5641C470.13 46.4737 470.398 46.345 470.627 46.178C470.857 46.0041 471.038 45.7884 471.17 45.5311C471.302 45.2667 471.368 44.9432 471.368 44.5606C471.368 44.0598 471.247 43.5484 471.003 43.0267C470.76 42.498 470.426 41.9589 470.001 41.4093C469.577 40.8528 469.076 40.2824 468.499 39.698C467.928 39.1137 467.313 38.5189 466.652 37.9137L466.934 35.4198L475.24 31.7258L476.294 34.2093L469.49 37.1519C469.803 37.4163 470.113 37.6945 470.419 37.9867C470.732 38.2789 471.048 38.6024 471.368 38.9571C471.848 39.4928 472.255 40.0284 472.589 40.5641C472.923 41.0928 473.191 41.6041 473.393 42.098C473.601 42.5919 473.751 43.0615 473.841 43.5067C473.939 43.9519 473.987 44.3589 473.987 44.7276C473.987 45.458 473.848 46.1189 473.57 46.7102C473.299 47.3015 472.93 47.8058 472.464 48.2232C471.998 48.6337 471.455 48.9537 470.836 49.1832C470.224 49.4058 469.58 49.5171 468.906 49.5171H465.431V46.8458ZM474.76 30.7867L466.746 34.3137L466.819 32.9884L474.3 29.7328L474.76 30.7867Z" fill="white"/>
</g>
<defs>
<filter id="filter0_ddd_292_483" x="14.1552" y="29.9832" width="26.442" height="26.4422" filterUnits="userSpaceOnUse" color-interpolation-filters="sRGB">
<feFlood flood-opacity="0" result="BackgroundImageFix"/>
<feColorMatrix in="SourceAlpha" type="matrix" values="0 0 0 0 0 0 0 0 0 0 0 0 0 0 0 0 0 0 127 0" result="hardAlpha"/>
<feOffset/>
<feGaussianBlur stdDeviation="0.209354"/>
<feColorMatrix type="matrix" values="0 0 0 0 0.219608 0 0 0 0 1 0 0 0 0 0.494118 0 0 0 1 0"/>
<feBlend mode="normal" in2="BackgroundImageFix" result="effect1_dropShadow_292_483"/>
<feColorMatrix in="SourceAlpha" type="matrix" values="0 0 0 0 0 0 0 0 0 0 0 0 0 0 0 0 0 0 127 0" result="hardAlpha"/>
<feOffset/>
<feGaussianBlur stdDeviation="1.46548"/>
<feColorMatrix type="matrix" values="0 0 0 0 0.219608 0 0 0 0 1 0 0 0 0 0.494118 0 0 0 1 0"/>
<feBlend mode="normal" in2="effect1_dropShadow_292_483" result="effect2_dropShadow_292_483"/>
<feColorMatrix in="SourceAlpha" type="matrix" values="0 0 0 0 0 0 0 0 0 0 0 0 0 0 0 0 0 0 127 0" result="hardAlpha"/>
<feOffset/>
<feGaussianBlur stdDeviation="5.02449"/>
<feColorMatrix type="matrix" values="0 0 0 0 0.219608 0 0 0 0 1 0 0 0 0 0.494118 0 0 0 1 0"/>
<feBlend mode="normal" in2="effect2_dropShadow_292_483" result="effect3_dropShadow_292_483"/>
<feBlend mode="normal" in="SourceGraphic" in2="effect3_dropShadow_292_483" result="shape"/>
</filter>
<filter id="filter1_ddd_292_483" x="31.6014" y="29.9832" width="26.442" height="26.4422" filterUnits="userSpaceOnUse" color-interpolation-filters="sRGB">
<feFlood flood-opacity="0" result="BackgroundImageFix"/>
<feColorMatrix in="SourceAlpha" type="matrix" values="0 0 0 0 0 0 0 0 0 0 0 0 0 0 0 0 0 0 127 0" result="hardAlpha"/>
<feOffset/>
<feGaussianBlur stdDeviation="0.209354"/>
<feColorMatrix type="matrix" values="0 0 0 0 0.219608 0 0 0 0 1 0 0 0 0 0.494118 0 0 0 1 0"/>
<feBlend mode="normal" in2="BackgroundImageFix" result="effect1_dropShadow_292_483"/>
<feColorMatrix in="SourceAlpha" type="matrix" values="0 0 0 0 0 0 0 0 0 0 0 0 0 0 0 0 0 0 127 0" result="hardAlpha"/>
<feOffset/>
<feGaussianBlur stdDeviation="1.46548"/>
<feColorMatrix type="matrix" values="0 0 0 0 0.219608 0 0 0 0 1 0 0 0 0 0.494118 0 0 0 1 0"/>
<feBlend mode="normal" in2="effect1_dropShadow_292_483" result="effect2_dropShadow_292_483"/>
<feColorMatrix in="SourceAlpha" type="matrix" values="0 0 0 0 0 0 0 0 0 0 0 0 0 0 0 0 0 0 127 0" result="hardAlpha"/>
<feOffset/>
<feGaussianBlur stdDeviation="5.02449"/>
<feColorMatrix type="matrix" values="0 0 0 0 0.219608 0 0 0 0 1 0 0 0 0 0.494118 0 0 0 1 0"/>
<feBlend mode="normal" in2="effect2_dropShadow_292_483" result="effect3_dropShadow_292_483"/>
<feBlend mode="normal" in="SourceGraphic" in2="effect3_dropShadow_292_483" result="shape"/>
</filter>
<filter id="filter2_ddd_292_483" x="49.0475" y="29.9832" width="26.442" height="26.4422" filterUnits="userSpaceOnUse" color-interpolation-filters="sRGB">
<feFlood flood-opacity="0" result="BackgroundImageFix"/>
<feColorMatrix in="SourceAlpha" type="matrix" values="0 0 0 0 0 0 0 0 0 0 0 0 0 0 0 0 0 0 127 0" result="hardAlpha"/>
<feOffset/>
<feGaussianBlur stdDeviation="0.209354"/>
<feColorMatrix type="matrix" values="0 0 0 0 0.219608 0 0 0 0 1 0 0 0 0 0.494118 0 0 0 1 0"/>
<feBlend mode="normal" in2="BackgroundImageFix" result="effect1_dropShadow_292_483"/>
<feColorMatrix in="SourceAlpha" type="matrix" values="0 0 0 0 0 0 0 0 0 0 0 0 0 0 0 0 0 0 127 0" result="hardAlpha"/>
<feOffset/>
<feGaussianBlur stdDeviation="1.46548"/>
<feColorMatrix type="matrix" values="0 0 0 0 0.219608 0 0 0 0 1 0 0 0 0 0.494118 0 0 0 1 0"/>
<feBlend mode="normal" in2="effect1_dropShadow_292_483" result="effect2_dropShadow_292_483"/>
<feColorMatrix in="SourceAlpha" type="matrix" values="0 0 0 0 0 0 0 0 0 0 0 0 0 0 0 0 0 0 127 0" result="hardAlpha"/>
<feOffset/>
<feGaussianBlur stdDeviation="5.02449"/>
<feColorMatrix type="matrix" values="0 0 0 0 0.219608 0 0 0 0 1 0 0 0 0 0.494118 0 0 0 1 0"/>
<feBlend mode="normal" in2="effect2_dropShadow_292_483" result="effect3_dropShadow_292_483"/>
<feBlend mode="normal" in="SourceGraphic" in2="effect3_dropShadow_292_483" result="shape"/>
</filter>
<filter id="filter3_d_292_483" x="363.956" y="14.7329" width="127.338" height="57.5894" filterUnits="userSpaceOnUse" color-interpolation-filters="sRGB">
<feFlood flood-opacity="0" result="BackgroundImageFix"/>
<feColorMatrix in="SourceAlpha" type="matrix" values="0 0 0 0 0 0 0 0 0 0 0 0 0 0 0 0 0 0 127 0" result="hardAlpha"/>
<feOffset/>
<feGaussianBlur stdDeviation="7.5"/>
<feComposite in2="hardAlpha" operator="out"/>
<feColorMatrix type="matrix" values="0 0 0 0 1 0 0 0 0 1 0 0 0 0 1 0 0 0 0.72 0"/>
<feBlend mode="normal" in2="BackgroundImageFix" result="effect1_dropShadow_292_483"/>
<feBlend mode="normal" in="SourceGraphic" in2="effect1_dropShadow_292_483" result="shape"/>
</filter>
<linearGradient id="paint0_linear_292_483" x1="250.5" y1="60.1534" x2="186.037" y2="343.325" gradientUnits="userSpaceOnUse">
<stop stop-color="#050C08"/>
<stop offset="1" stop-color="#060D09"/>
</linearGradient>
<linearGradient id="paint1_linear_292_483" x1="250.5" y1="2" x2="250.5" y2="78.8573" gradientUnits="userSpaceOnUse">
<stop stop-color="#0A160F"/>
<stop offset="0.394524" stop-color="#08100B"/>
<stop offset="0.94278" stop-color="#060D08"/>
</linearGradient>
<linearGradient id="paint2_linear_292_483" x1="27.3762" y1="40.0322" x2="27.3762" y2="46.3763" gradientUnits="userSpaceOnUse">
<stop stop-color="#38FF7E"/>
<stop offset="1" stop-color="#28CF63"/>
</linearGradient>
<linearGradient id="paint3_linear_292_483" x1="44.8224" y1="40.0322" x2="44.8224" y2="46.3763" gradientUnits="userSpaceOnUse">
<stop stop-color="#38FF7E"/>
<stop offset="1" stop-color="#28CF63"/>
</linearGradient>
<linearGradient id="paint4_linear_292_483" x1="62.2685" y1="40.0322" x2="62.2685" y2="46.3763" gradientUnits="userSpaceOnUse">
<stop stop-color="#38FF7E"/>
<stop offset="1" stop-color="#28CF63"/>
</linearGradient>
</defs>
</svg>
