<svg width="486" height="114" viewBox="0 0 486 114" fill="none" xmlns="http://www.w3.org/2000/svg">
<g filter="url(#filter0_dd_1_2340)">
<path d="M156.758 84.5C148.903 84.5 144.976 78.875 144.976 67.625V43.9062C144.976 33.6354 149.476 28.5 158.476 28.5C162.185 28.5 165.028 29.25 167.008 30.75C168.987 32.2292 170.351 34.3958 171.101 37.25C171.851 40.1042 172.226 43.5833 172.226 47.6875H161.476V42.8125C161.476 41.625 161.31 40.6354 160.976 39.8438C160.664 39.0312 159.997 38.625 158.976 38.625C157.705 38.625 156.862 39.0521 156.445 39.9062C156.049 40.7604 155.851 41.6979 155.851 42.7188V69.375C155.851 70.8542 156.039 72.0625 156.414 73C156.81 73.9167 157.57 74.375 158.695 74.375C159.862 74.375 160.633 73.9167 161.008 73C161.403 72.0625 161.601 70.8333 161.601 69.3125V61.4688H158.664V51.9688H172.101V84H167.695L165.82 79.375C163.903 82.7917 160.883 84.5 156.758 84.5ZM178.209 84V37.125H189.584V42.3438C190.125 40.5312 191.084 39.1146 192.459 38.0938C193.834 37.0729 195.563 36.5625 197.646 36.5625V45.9062C196.73 45.9062 195.636 46.0104 194.365 46.2188C193.094 46.4062 191.98 46.6771 191.021 47.0312C190.063 47.3646 189.584 47.7396 189.584 48.1562V84H178.209ZM215.441 84.5C212.108 84.5 209.452 83.875 207.473 82.625C205.493 81.375 204.077 79.5729 203.223 77.2188C202.368 74.8646 201.941 72.0312 201.941 68.7188V49.875C201.941 45.5208 203.191 42.2292 205.691 40C208.191 37.75 211.629 36.625 216.004 36.625C225.004 36.625 229.504 41.0417 229.504 49.875V53.2812C229.504 57.4062 229.462 60.1771 229.379 61.5938H213.129V70.6562C213.129 71.4896 213.181 72.3125 213.285 73.125C213.389 73.9167 213.618 74.5729 213.973 75.0938C214.348 75.6146 214.941 75.875 215.754 75.875C216.92 75.875 217.65 75.375 217.941 74.375C218.233 73.3542 218.379 72.0312 218.379 70.4062V65.9062H229.504V68.5625C229.504 72.0625 229.066 75 228.191 77.375C227.337 79.7292 225.879 81.5104 223.816 82.7188C221.775 83.9062 218.983 84.5 215.441 84.5ZM213.066 56.0312H218.379V49.7188C218.379 48.0312 218.17 46.8229 217.754 46.0938C217.337 45.3438 216.712 44.9688 215.879 44.9688C214.983 44.9688 214.285 45.3229 213.785 46.0312C213.306 46.7396 213.066 47.9688 213.066 49.7188V56.0312ZM248.611 84.5C245.278 84.5 242.622 83.875 240.643 82.625C238.663 81.375 237.247 79.5729 236.393 77.2188C235.538 74.8646 235.111 72.0312 235.111 68.7188V49.875C235.111 45.5208 236.361 42.2292 238.861 40C241.361 37.75 244.799 36.625 249.174 36.625C258.174 36.625 262.674 41.0417 262.674 49.875V53.2812C262.674 57.4062 262.632 60.1771 262.549 61.5938H246.299V70.6562C246.299 71.4896 246.351 72.3125 246.455 73.125C246.559 73.9167 246.788 74.5729 247.143 75.0938C247.518 75.6146 248.111 75.875 248.924 75.875C250.09 75.875 250.82 75.375 251.111 74.375C251.403 73.3542 251.549 72.0312 251.549 70.4062V65.9062H262.674V68.5625C262.674 72.0625 262.236 75 261.361 77.375C260.507 79.7292 259.049 81.5104 256.986 82.7188C254.945 83.9062 252.153 84.5 248.611 84.5ZM246.236 56.0312H251.549V49.7188C251.549 48.0312 251.34 46.8229 250.924 46.0938C250.507 45.3438 249.882 44.9688 249.049 44.9688C248.153 44.9688 247.455 45.3229 246.955 46.0312C246.476 46.7396 246.236 47.9688 246.236 49.7188V56.0312ZM268.656 84V37.125H279.844V43.0938C280.26 41.3021 281.031 39.7812 282.156 38.5312C283.302 37.2604 284.885 36.625 286.906 36.625C290.156 36.625 292.51 37.625 293.969 39.625C295.448 41.625 296.188 44.3646 296.188 47.8438V84H285.156V49C285.156 48.0833 284.969 47.2396 284.594 46.4688C284.219 45.6771 283.573 45.2812 282.656 45.2812C281.802 45.2812 281.167 45.5833 280.75 46.1875C280.354 46.7708 280.104 47.5104 280 48.4062C279.896 49.2812 279.844 50.1562 279.844 51.0312V84H268.656ZM319.621 84V29H334.528C338.528 29 341.434 29.9792 343.246 31.9375C345.08 33.875 345.996 37.0833 345.996 41.5625V43.9688C345.996 46.5521 345.528 48.6458 344.59 50.25C343.673 51.8542 342.267 52.9062 340.371 53.4062C342.85 54.0312 344.507 55.5 345.34 57.8125C346.194 60.1042 346.621 62.9062 346.621 66.2188C346.621 69.7812 346.288 72.8958 345.621 75.5625C344.955 78.2292 343.746 80.3021 341.996 81.7812C340.246 83.2604 337.757 84 334.528 84H319.621ZM330.371 49.7188H332.621C333.642 49.7188 334.298 49.3229 334.59 48.5312C334.882 47.7396 335.028 46.7917 335.028 45.6875V40.1562C335.028 38.3854 334.246 37.5 332.684 37.5H330.371V49.7188ZM331.465 74.3125C334.319 74.3125 335.746 72.9583 335.746 70.25V63.375C335.746 61.8125 335.507 60.5833 335.028 59.6875C334.569 58.7708 333.694 58.3125 332.403 58.3125H330.371V74.25C330.83 74.2917 331.194 74.3125 331.465 74.3125ZM365.604 84.5C356.27 84.5 351.604 79.6562 351.604 69.9688V51.1562C351.604 46.7396 352.843 43.2188 355.323 40.5938C357.802 37.9479 361.229 36.625 365.604 36.625C370 36.625 373.437 37.9479 375.916 40.5938C378.395 43.2188 379.635 46.7396 379.635 51.1562V69.9688C379.635 79.6562 374.958 84.5 365.604 84.5ZM365.604 75.875C366.541 75.875 367.208 75.5417 367.604 74.875C368.02 74.1875 368.229 73.3229 368.229 72.2812V49.375C368.229 46.6458 367.354 45.2812 365.604 45.2812C363.854 45.2812 362.979 46.6458 362.979 49.375V72.2812C362.979 73.3229 363.177 74.1875 363.573 74.875C363.989 75.5417 364.666 75.875 365.604 75.875ZM395.336 84.5C392.315 84.5 390.274 83.8646 389.211 82.5938C388.17 81.3021 387.649 79.3333 387.649 76.6875V47.4688H384.492V38.9375H387.649V29H398.524V38.9375H401.68V47.4688H398.524V74.0625C398.524 74.8333 398.649 75.375 398.899 75.6875C399.149 76 399.628 76.1562 400.336 76.1562C400.836 76.1562 401.284 76.1146 401.68 76.0312V83.6562C401.43 83.7396 400.649 83.8958 399.336 84.125C398.024 84.375 396.69 84.5 395.336 84.5Z" fill="white"/>
</g>
<path d="M111.03 58.5254C109.666 53.3954 106.936 48.8816 103.192 45.3286C106.251 38.095 105.79 29.792 101.879 22.971C98.1271 16.435 92.0719 11.7583 84.8273 9.804C79.727 8.43057 74.4729 8.55 69.537 10.0429C64.8359 3.75114 57.5158 0 49.6535 0C36.4212 0 25.3223 9.272 22.3689 21.6899C22.342 21.6926 22.3177 21.6817 22.2907 21.6844C14.4635 22.6616 7.71521 27.1646 3.77464 34.0317C0.02288 40.5677 -0.972376 48.184 0.969587 55.4746C2.33705 60.6073 5.06659 65.1266 8.81566 68.6796C5.75706 75.9159 6.1994 84.189 10.1211 91.029C13.8728 97.565 19.928 102.242 27.1726 104.196C29.5893 104.847 32.0464 105.17 34.4846 105.17C37.1899 105.17 39.8655 104.733 42.4602 103.949C47.1586 110.252 54.4491 114 62.3464 114C75.5922 114 86.6964 104.712 89.6418 92.2776C97.4096 91.3276 104.29 86.8327 108.228 79.9683C111.977 73.4323 112.972 65.816 111.03 58.5254ZM83.4302 15.0453C89.2857 16.6223 94.1757 20.4033 97.2046 25.6826C100.034 30.6144 100.557 36.5397 98.7393 41.8787C98.4723 41.7104 98.2188 41.5231 97.9463 41.363L73.216 26.9936C72.3745 26.5077 71.3334 26.5131 70.4919 27.0099L42.9861 43.4069L42.8459 30.9021L66.2114 17.328C71.4628 14.2771 77.5773 13.471 83.4302 15.0453ZM68.7765 49.3864L68.9437 64.3259L56.1699 71.9394L43.2262 64.6136L43.0589 49.6741L55.8327 42.0606L68.7765 49.3864ZM26.9649 28.2611C26.9649 15.6696 37.144 5.42857 49.6535 5.42857C55.3418 5.42857 60.6903 7.91486 64.3747 12.1817C64.0915 12.3337 63.7975 12.4613 63.517 12.6241L38.7839 26.9936C37.9424 27.4849 37.4245 28.3969 37.4353 29.374L37.7941 61.541L26.9649 55.4121V28.2611ZM6.17782 54.0713C4.61077 48.1813 5.41722 42.0253 8.44614 36.746C11.3051 31.7626 16.0603 28.4023 21.6191 27.3166C21.6083 27.6314 21.5706 27.9409 21.5706 28.2611V57C21.5706 57.9799 22.0965 58.8837 22.9461 59.3669L50.8052 75.1369L40.1136 81.51L16.7507 67.9332C11.502 64.885 7.74758 59.964 6.17782 54.0713ZM28.5697 98.9547C22.7142 97.3777 17.8242 93.5967 14.7953 88.3174C11.9552 83.3666 11.4265 77.4576 13.2498 72.1131C13.5222 72.2841 13.7785 72.4741 14.0563 72.637L38.7866 87.0064C39.202 87.248 39.6686 87.3701 40.1352 87.3701C40.6126 87.3701 41.0873 87.2426 41.5108 86.9901L69.0165 70.5931L69.1568 83.0979L45.7912 96.672C40.5425 99.7256 34.4253 100.537 28.5697 98.9547ZM85.035 85.7389C85.035 98.3304 74.8586 108.571 62.3464 108.571C56.6311 108.571 51.3042 106.077 47.6225 101.802C47.9057 101.65 48.2051 101.536 48.4856 101.373L73.2187 87.0037C74.0602 86.5124 74.5781 85.6004 74.5673 84.6233L74.2059 52.459L85.035 58.5879V85.7389ZM103.554 77.254C100.706 82.2211 95.8938 85.6303 90.3808 86.7079C90.3916 86.3821 90.4293 86.0646 90.4293 85.7389V57C90.4293 56.0201 89.9034 55.1163 89.0538 54.6331L61.1947 38.8631L71.8863 32.49L95.2492 46.0669C100.498 49.115 104.252 54.0387 105.822 59.9287C107.389 65.8187 106.583 71.9747 103.554 77.254Z" fill="white"/>
<defs>
<filter id="filter0_dd_1_2340" x="130.307" y="16.2753" width="286.043" height="85.3392" filterUnits="userSpaceOnUse" color-interpolation-filters="sRGB">
<feFlood flood-opacity="0" result="BackgroundImageFix"/>
<feColorMatrix in="SourceAlpha" type="matrix" values="0 0 0 0 0 0 0 0 0 0 0 0 0 0 0 0 0 0 127 0" result="hardAlpha"/>
<feOffset dy="2.44493"/>
<feGaussianBlur stdDeviation="2.44493"/>
<feComposite in2="hardAlpha" operator="out"/>
<feColorMatrix type="matrix" values="0 0 0 0 0 0 0 0 0 0.0705882 0 0 0 0 0.0588235 0 0 0 0.25 0"/>
<feBlend mode="normal" in2="BackgroundImageFix" result="effect1_dropShadow_1_2340"/>
<feColorMatrix in="SourceAlpha" type="matrix" values="0 0 0 0 0 0 0 0 0 0 0 0 0 0 0 0 0 0 127 0" result="hardAlpha"/>
<feOffset dy="2.44493"/>
<feGaussianBlur stdDeviation="7.3348"/>
<feComposite in2="hardAlpha" operator="out"/>
<feColorMatrix type="matrix" values="0 0 0 0 0 0 0 0 0 0.0705882 0 0 0 0 0.0588235 0 0 0 0.11 0"/>
<feBlend mode="normal" in2="effect1_dropShadow_1_2340" result="effect2_dropShadow_1_2340"/>
<feBlend mode="normal" in="SourceGraphic" in2="effect2_dropShadow_1_2340" result="shape"/>
</filter>
</defs>
</svg>
