<svg width="36" height="36" viewBox="0 0 36 36" fill="none" xmlns="http://www.w3.org/2000/svg">
<path d="M16.1992 1.58203C17.1317 0.840482 18.4988 0.802865 19.4766 1.49512L33.9678 12.7705L33.9824 12.7822L33.998 12.793C34.642 13.2565 35 13.9611 35 14.6865V34.458C35 34.7388 34.7619 35 34.4268 35H23.873C23.5379 35 23.2998 34.7388 23.2998 34.458V24.9482C23.2998 22.9403 21.5824 21.3975 19.5996 21.3975H16.4082C14.4254 21.3975 12.708 22.9403 12.708 24.9482V34.458C12.708 34.7387 12.4707 34.9998 12.1357 35H1.57324C1.23809 35 1.00002 34.7388 1 34.458V14.584C1 13.9002 1.31804 13.2344 1.89746 12.7705L16.1924 1.58691L16.1992 1.58203Z" stroke="white" stroke-width="2"/>
</svg>
