<svg width="690" height="116" viewBox="0 0 690 116" fill="none" xmlns="http://www.w3.org/2000/svg">
<g filter="url(#filter0_di_671_899)">
<g clip-path="url(#clip0_671_899)">
<rect x="3" y="1" width="684" height="110.62" rx="30.7278" fill="url(#paint0_linear_671_899)"/>
<path d="M80.9885 58.6422H77.3102L76.9032 39.7188H81.4111L80.9885 58.6422ZM82.0685 64.277L79.0789 67.2666L76.0737 64.2614L79.0632 61.2718L82.0685 64.277ZM97.0112 65.7796H96.526C96.2547 65.7796 95.9103 65.7483 95.493 65.6857C95.086 65.6231 94.6373 65.4353 94.1469 65.1222C94.0112 66.437 93.6095 67.6944 92.9417 68.8944C92.2738 70.1048 91.4338 71.237 90.4217 72.2909C89.4199 73.3448 88.2877 74.3101 87.0251 75.1866C85.773 76.0631 84.4843 76.8301 83.159 77.4875L81.406 73.8718C82.1364 73.4961 82.8721 73.0892 83.613 72.6509C84.3434 72.2127 85.0425 71.7431 85.7103 71.2422C86.3782 70.7414 86.999 70.2196 87.573 69.677C88.1573 69.1344 88.6582 68.5657 89.0756 67.9709C89.5034 67.3761 89.8373 66.7657 90.0773 66.1396C90.3277 65.5135 90.453 64.8718 90.453 64.2144C90.453 63.7448 90.3851 63.2283 90.2495 62.6648C90.1138 62.0909 89.9417 61.4961 89.733 60.8805C89.5243 60.2648 89.2999 59.644 89.0599 59.0179C88.8199 58.3814 88.6008 57.7657 88.4025 57.1709L92.159 55.6057C92.566 56.8266 92.9364 57.8388 93.2703 58.6422C93.6147 59.4353 93.9486 60.0666 94.2721 60.5361C94.606 60.9953 94.9503 61.3188 95.3051 61.5066C95.6703 61.684 96.0825 61.7727 96.5417 61.7727H97.0269L97.0112 65.7796ZM110.352 61.7727V65.7796H110.039C109.027 65.7796 108.171 65.6179 107.472 65.2944C106.773 64.9709 106.178 64.5535 105.688 64.0422C105.343 64.4805 104.832 64.8196 104.154 65.0596C103.486 65.2892 102.74 65.4561 101.916 65.5605C101.091 65.6753 100.241 65.7379 99.3642 65.7483C98.4982 65.7692 97.6999 65.7796 96.9695 65.7796H96.3903V61.7727H96.9695C98.1903 61.7727 99.2182 61.7048 100.053 61.5692C100.888 61.4231 101.561 61.2144 102.072 60.9431C102.594 60.6718 102.969 60.3327 103.199 59.9257C103.429 59.5083 103.543 59.0283 103.543 58.4857C103.543 58.1309 103.476 57.6614 103.34 57.077C103.204 56.4822 103.001 55.7205 102.729 54.7918L106.58 53.7118C106.716 54.1709 106.82 54.5779 106.893 54.9327C106.976 55.277 107.039 55.6266 107.081 55.9814C107.133 56.3257 107.175 56.7014 107.206 57.1083C107.248 57.5048 107.289 57.9796 107.331 58.5327C107.362 58.8666 107.441 59.2266 107.566 59.6127C107.691 59.9883 107.863 60.3379 108.083 60.6614C108.312 60.9744 108.589 61.2405 108.912 61.4596C109.236 61.6683 109.611 61.7727 110.039 61.7727H110.352ZM102.213 70.4127L99.5521 73.0735L96.8599 70.397L99.5208 67.7205L102.213 70.4127ZM108.129 70.4283L105.469 73.1048L102.776 70.4127L105.437 67.7518L108.129 70.4283ZM117.556 59.6596C117.901 59.8057 118.344 59.9883 118.887 60.2074C119.429 60.4266 120.014 60.6457 120.64 60.8648C121.266 61.084 121.897 61.2822 122.534 61.4596C123.181 61.6266 123.77 61.7309 124.302 61.7727C124.198 61.3344 124.088 60.8805 123.974 60.4109C123.869 59.9309 123.749 59.4666 123.614 59.0179C123.478 58.5692 123.327 58.1466 123.16 57.7501C122.993 57.3431 122.795 56.9883 122.565 56.6857C122.346 56.3831 122.09 56.1431 121.798 55.9657C121.506 55.7883 121.177 55.6996 120.812 55.6996C120.395 55.6996 120.019 55.8353 119.685 56.1066C119.362 56.3779 119.064 56.717 118.793 57.124C118.532 57.5205 118.297 57.9483 118.088 58.4074C117.89 58.8666 117.713 59.284 117.556 59.6596ZM123.504 65.7327C122.962 65.7222 122.325 65.644 121.595 65.4979C120.864 65.3622 120.118 65.1796 119.356 64.9501C118.605 64.7205 117.88 64.4596 117.181 64.1674C116.492 63.8753 115.908 63.5674 115.428 63.244C115.021 63.6509 114.624 64.0109 114.238 64.324C113.852 64.637 113.45 64.9031 113.033 65.1222C112.615 65.3309 112.162 65.4927 111.671 65.6074C111.191 65.7222 110.643 65.7796 110.028 65.7796H109.715V61.7727H110.028C110.789 61.7727 111.426 61.6318 111.937 61.3501C112.448 61.0579 112.887 60.6822 113.252 60.2231C113.617 59.764 113.935 59.2474 114.207 58.6735C114.488 58.0996 114.775 57.5257 115.068 56.9518C115.36 56.3466 115.694 55.7414 116.069 55.1361C116.445 54.5309 116.868 53.9883 117.337 53.5083C117.817 53.0179 118.355 52.6214 118.949 52.3188C119.544 52.0161 120.212 51.8648 120.953 51.8648C121.923 51.8648 122.737 52.037 123.395 52.3814C124.062 52.7153 124.615 53.1796 125.054 53.7744C125.502 54.3588 125.857 55.0474 126.118 55.8405C126.379 56.6335 126.598 57.4892 126.775 58.4074C126.88 58.9396 126.979 59.4144 127.073 59.8318C127.167 60.2388 127.271 60.5883 127.386 60.8805C127.511 61.1727 127.642 61.397 127.777 61.5535C127.923 61.6996 128.095 61.7727 128.294 61.7727H128.779V65.7796H128.184C127.61 65.7692 127.099 65.6127 126.65 65.3101C126.212 64.997 125.805 64.5848 125.429 64.0735C125.315 64.1779 125.179 64.3188 125.022 64.4961C124.876 64.6735 124.715 64.8509 124.537 65.0283C124.37 65.1953 124.198 65.3466 124.021 65.4822C123.843 65.6179 123.671 65.7014 123.504 65.7327ZM146.669 65.7796H146.121C145.317 65.7796 144.529 65.7483 143.757 65.6857C142.996 65.6231 142.265 65.5083 141.566 65.3414C140.877 65.1848 140.22 64.9709 139.594 64.6996C138.968 64.4283 138.394 64.0788 137.872 63.6509C137.309 64.0474 136.651 64.3814 135.9 64.6527C135.159 64.924 134.376 65.1431 133.552 65.3101C132.738 65.4666 131.914 65.5814 131.079 65.6544C130.244 65.7379 129.451 65.7796 128.7 65.7796H128.136V61.7727H128.684C129.133 61.7727 129.592 61.757 130.062 61.7257C130.542 61.6944 131.011 61.6474 131.47 61.5848C131.94 61.5222 132.394 61.4492 132.832 61.3657C133.281 61.2822 133.698 61.1831 134.084 61.0683C133.677 60.6614 133.291 60.2753 132.926 59.9101C132.561 59.5344 132.19 59.164 131.815 58.7988C131.449 58.4231 131.063 58.0422 130.656 57.6561C130.26 57.2596 129.827 56.8422 129.357 56.404L129.576 53.1483C130.171 52.6266 130.776 52.1883 131.392 51.8335C132.018 51.4788 132.629 51.1918 133.223 50.9727C133.818 50.7431 134.392 50.5709 134.945 50.4561C135.498 50.3309 136.004 50.2474 136.463 50.2057C136.933 50.1535 137.408 50.1274 137.888 50.1274C138.462 50.1274 139.166 50.1796 140.001 50.284C140.836 50.3779 141.696 50.6231 142.583 51.0196C143.178 51.2805 143.658 51.5727 144.023 51.8961C144.399 52.2092 144.691 52.5274 144.9 52.8509C145.119 53.164 145.27 53.4718 145.354 53.7744C145.437 54.0666 145.484 54.3222 145.495 54.5414C145.505 54.6353 145.51 54.724 145.51 54.8074C145.51 55.2248 145.422 55.7048 145.244 56.2474C145.077 56.7796 144.816 57.3483 144.462 57.9535C144.117 58.5588 143.71 59.1483 143.241 59.7222C142.771 60.2857 142.276 60.7918 141.754 61.2405C142.39 61.4179 143.079 61.5535 143.82 61.6474C144.561 61.7309 145.338 61.7727 146.152 61.7727H146.669V65.7796ZM133.536 54.9796C133.902 55.4283 134.288 55.877 134.695 56.3257C135.102 56.764 135.498 57.1814 135.884 57.5779C136.27 57.964 136.63 58.324 136.964 58.6579C137.298 58.9814 137.58 59.2579 137.809 59.4874C138.164 59.2579 138.561 58.9448 138.999 58.5483C139.448 58.1518 139.876 57.7344 140.283 57.2961C140.689 56.8579 141.049 56.4301 141.363 56.0127C141.676 55.5953 141.879 55.2509 141.973 54.9796C141.723 54.844 141.436 54.7188 141.112 54.604C140.789 54.4892 140.444 54.3953 140.079 54.3222C139.724 54.2388 139.359 54.1761 138.983 54.1344C138.618 54.0822 138.263 54.0561 137.919 54.0561C137.596 54.0561 137.241 54.0822 136.855 54.1344C136.469 54.1761 136.077 54.2388 135.681 54.3222C135.284 54.3953 134.898 54.4892 134.523 54.604C134.157 54.7188 133.829 54.844 133.536 54.9796ZM146.031 61.7727H149.365C149.855 61.7727 150.382 61.7466 150.946 61.6944C151.52 61.6318 152.047 61.5118 152.527 61.3344C153.017 61.1466 153.419 60.8805 153.732 60.5361C154.055 60.1918 154.217 59.7327 154.217 59.1588C154.217 58.8874 154.16 58.5066 154.045 58.0161C153.93 57.5257 153.779 56.9831 153.591 56.3883C153.403 55.7935 153.179 55.1779 152.918 54.5414C152.667 53.9048 152.401 53.3101 152.12 52.757L155.735 50.9727C155.996 51.5674 156.257 52.1988 156.518 52.8666C156.779 53.5344 157.008 54.2231 157.207 54.9327C157.415 55.6318 157.582 56.3361 157.707 57.0457C157.833 57.7553 157.895 58.4492 157.895 59.1274C157.895 60.3379 157.671 61.3657 157.222 62.2109C156.774 63.0561 156.158 63.7448 155.375 64.277C154.603 64.7988 153.695 65.1796 152.652 65.4196C151.619 65.6596 150.513 65.7796 149.334 65.7796H146.031V61.7727ZM153.043 45.4631L150.382 48.124L147.69 45.4474L150.351 42.7709L153.043 45.4631ZM158.96 45.4788L156.299 48.1553L153.607 45.4631L156.267 42.8022L158.96 45.4788ZM176.624 60.364C176.009 61.2822 175.555 62.284 175.263 63.3692C174.97 64.4544 174.824 65.5344 174.824 66.6092C174.824 67.4648 175.023 68.2266 175.419 68.8944C175.816 69.5727 176.322 70.1414 176.937 70.6005C177.553 71.0701 178.236 71.4248 178.988 71.6648C179.739 71.9153 180.47 72.0405 181.179 72.0405C181.899 72.0405 182.645 71.9153 183.417 71.6648C184.2 71.4248 184.915 71.0388 185.562 70.5066C186.209 69.9848 186.741 69.3066 187.158 68.4718C187.576 67.6474 187.784 66.6457 187.784 65.4666C187.784 64.6422 187.769 63.6718 187.737 62.5553C187.706 61.4388 187.664 60.2544 187.612 59.0022C187.57 57.7396 187.518 56.4405 187.456 55.1048C187.393 53.7692 187.33 52.4648 187.268 51.1918C187.195 49.6996 187.106 48.1448 187.002 46.5275C186.908 44.8996 186.814 43.2718 186.72 41.644L190.805 40.877C190.878 42.5883 190.951 44.2892 191.024 45.9796C191.108 47.6596 191.176 49.277 191.228 50.8318C191.27 52.157 191.311 53.5135 191.353 54.9014C191.405 56.2892 191.447 57.6353 191.478 58.9396C191.52 60.2335 191.551 61.4492 191.572 62.5866C191.603 63.724 191.619 64.7048 191.619 65.5292C191.619 66.844 191.463 68.0179 191.15 69.0509C190.847 70.084 190.435 70.9866 189.913 71.7588C189.391 72.5414 188.781 73.204 188.082 73.7466C187.393 74.2892 186.663 74.7327 185.89 75.077C185.129 75.4214 184.351 75.6666 183.558 75.8127C182.765 75.9692 182.003 76.0474 181.273 76.0474C180.574 76.0474 179.838 75.9692 179.066 75.8127C178.304 75.6561 177.548 75.4161 176.796 75.0927C176.045 74.7692 175.33 74.3518 174.652 73.8405C173.974 73.3396 173.374 72.7396 172.852 72.0405C172.341 71.3414 171.939 70.5379 171.647 69.6301C171.355 68.764 171.209 67.7883 171.209 66.7031C171.209 66.6718 171.209 66.6353 171.209 66.5935C171.209 65.9257 171.245 65.2422 171.318 64.5431C171.402 63.844 171.527 63.1553 171.694 62.477C171.861 61.7988 172.07 61.1466 172.32 60.5205C172.57 59.8944 172.878 59.3205 173.243 58.7988L176.624 60.364ZM203.709 65.7796H203.083C200.965 65.7796 199.358 65.2474 198.262 64.1831C197.167 63.1188 196.613 61.5118 196.603 59.3622C196.603 59.0283 196.613 58.4805 196.634 57.7188C196.655 56.9466 196.666 56.0074 196.666 54.9014C196.666 54.244 196.66 53.5396 196.65 52.7883C196.64 52.0266 196.624 51.2544 196.603 50.4718C196.582 49.6788 196.551 48.8909 196.509 48.1083C196.478 47.3153 196.436 46.5535 196.384 45.8231C196.332 45.0822 196.269 44.3935 196.196 43.757C196.123 43.1101 196.04 42.5414 195.946 42.0509L199.874 40.877C199.989 41.4822 200.093 42.2231 200.187 43.0996C200.281 43.9657 200.365 44.8944 200.438 45.8857C200.511 46.877 200.563 47.8892 200.594 48.9222C200.636 49.9448 200.657 50.9101 200.657 51.8179C200.657 52.3709 200.662 52.9605 200.673 53.5866C200.683 54.2022 200.688 54.7448 200.688 55.2144C200.688 55.6109 200.683 55.9866 200.673 56.3414C200.673 56.6857 200.667 57.0196 200.657 57.3431C200.657 57.6666 200.652 57.9848 200.641 58.2979C200.641 58.6109 200.641 58.9292 200.641 59.2527C200.641 59.3361 200.641 59.4196 200.641 59.5031C200.641 59.8788 200.678 60.2127 200.751 60.5048C200.834 60.797 200.975 61.0422 201.173 61.2405C201.372 61.4283 201.622 61.564 201.925 61.6474C202.238 61.7309 202.598 61.7727 203.005 61.7727H203.709V65.7796ZM203.09 61.7727H206.486C207.78 61.7727 209.095 61.6527 210.43 61.4127C211.777 61.1622 213.112 60.8388 214.437 60.4422C215.763 60.0353 217.057 59.5709 218.319 59.0492C219.582 58.5274 220.777 57.9901 221.903 57.437C221.006 57.2388 220.171 56.9779 219.399 56.6544C218.627 56.3205 217.897 55.997 217.208 55.684C216.519 55.3709 215.857 55.0996 215.22 54.8701C214.583 54.6405 213.952 54.5257 213.326 54.5257C212.961 54.5257 212.617 54.5935 212.293 54.7292C211.98 54.8544 211.688 55.0161 211.417 55.2144C211.145 55.4127 210.9 55.6318 210.681 55.8718C210.472 56.1118 210.284 56.3466 210.117 56.5761C209.961 56.7953 209.83 56.9935 209.726 57.1709C209.622 57.3483 209.549 57.4735 209.507 57.5466L206.251 55.4335C206.606 54.8074 207.029 54.2022 207.519 53.6179C208.01 53.0231 208.552 52.4961 209.147 52.037C209.752 51.5674 210.404 51.197 211.103 50.9257C211.803 50.644 212.543 50.5031 213.326 50.5031C214.13 50.5031 214.928 50.6127 215.721 50.8318C216.514 51.0405 217.297 51.3118 218.069 51.6457C218.851 51.9692 219.634 52.3188 220.417 52.6944C221.199 53.0701 221.987 53.4248 222.78 53.7588C223.583 54.0822 224.392 54.3588 225.206 54.5883C226.02 54.8074 226.855 54.9222 227.71 54.9327L227.382 58.9709C225.921 59.6701 224.397 60.4109 222.811 61.1935C221.225 61.9761 219.566 62.7014 217.834 63.3692C216.102 64.0266 214.291 64.5848 212.403 65.044C210.524 65.4927 208.552 65.7379 206.486 65.7796H203.09V61.7727ZM236.961 55.3709C237.169 56.0283 237.383 56.717 237.602 57.437C237.832 58.1466 238.035 58.8666 238.213 59.597C238.401 60.3274 238.552 61.0579 238.667 61.7883C238.782 62.5083 238.839 63.2127 238.839 63.9014C238.839 64.8405 238.693 65.7535 238.401 66.6405C238.119 67.5379 237.722 68.3988 237.211 69.2231C236.71 70.0579 236.11 70.8509 235.411 71.6022C234.722 72.3535 233.971 73.0631 233.157 73.7309C232.343 74.3988 231.482 75.0196 230.575 75.5935C229.667 76.1675 228.748 76.684 227.82 77.1431L226.035 73.5588C226.776 73.1935 227.507 72.7866 228.227 72.3379C228.947 71.8996 229.63 71.4301 230.277 70.9292C230.935 70.4283 231.54 69.9014 232.093 69.3483C232.656 68.7953 233.136 68.2214 233.533 67.6266C233.94 67.0318 234.258 66.4214 234.488 65.7953C234.717 65.1692 234.832 64.5379 234.832 63.9014C234.832 63.3066 234.764 62.6805 234.628 62.0231C234.493 61.3657 234.326 60.7188 234.128 60.0822C233.94 59.4353 233.742 58.8144 233.533 58.2196C233.335 57.6248 233.168 57.0979 233.032 56.6388L236.961 55.3709ZM242.501 59.6283C242.898 59.8788 243.372 60.1344 243.925 60.3953C244.489 60.6561 245.068 60.8909 245.663 61.0996C246.268 61.3083 246.858 61.4805 247.431 61.6161C248.016 61.7518 248.527 61.8196 248.965 61.8196C249.143 61.8196 249.362 61.8144 249.623 61.804C249.884 61.7935 250.16 61.7727 250.452 61.7414C250.744 61.6996 251.037 61.6422 251.329 61.5692C251.621 61.4857 251.882 61.3761 252.111 61.2405C252.351 61.0944 252.544 60.917 252.691 60.7083C252.837 60.4892 252.915 60.2231 252.925 59.9101C252.925 59.8892 252.925 59.8735 252.925 59.8631C252.925 59.4457 252.805 58.9761 252.565 58.4544C252.336 57.9222 252.018 57.3692 251.611 56.7953C251.204 56.2109 250.734 55.6266 250.202 55.0422C249.67 54.4579 249.117 53.8996 248.543 53.3674C247.969 52.8248 247.39 52.3292 246.805 51.8805C246.231 51.4214 245.694 51.0353 245.193 50.7222L247.525 47.2631C248.485 47.9205 249.43 48.6614 250.358 49.4857C251.298 50.3101 252.158 51.1918 252.941 52.1309C253.734 53.0596 254.418 54.0301 254.991 55.0422C255.576 56.0544 255.993 57.077 256.244 58.1101C256.379 58.7048 256.447 59.2735 256.447 59.8161C256.447 60.3379 256.348 60.964 256.15 61.6944C255.962 62.4248 255.529 63.1448 254.851 63.8544C254.172 64.5535 253.311 65.0909 252.268 65.4666C251.371 65.7901 250.384 65.9518 249.31 65.9518C249.132 65.9518 248.95 65.9466 248.762 65.9361C248.073 65.9361 247.374 65.8683 246.664 65.7327C245.955 65.6074 245.256 65.4301 244.567 65.2005C243.889 64.9709 243.231 64.7101 242.595 64.4179C241.969 64.1153 241.384 63.797 240.842 63.4631L242.501 59.6283Z" fill="url(#paint1_linear_671_899)"/>
<rect x="316.377" y="18.7705" width="117.066" height="139.97" rx="19.4502" transform="rotate(-22.11 316.377 18.7705)" fill="url(#paint2_linear_671_899)"/>
<rect x="316.377" y="18.7705" width="117.066" height="139.97" rx="19.4502" transform="rotate(-22.11 316.377 18.7705)" fill="url(#paint3_linear_671_899)"/>
<rect x="344.086" y="8.98283" width="114.343" height="137.247" rx="18.0887" transform="rotate(-22.11 344.086 8.98283)" fill="url(#paint4_linear_671_899)" stroke="url(#paint5_linear_671_899)" stroke-width="2.72303"/>
<g style="mix-blend-mode:lighten" clip-path="url(#clip1_671_899)">
<g clip-path="url(#clip2_671_899)">
<path d="M431.261 18.9165L388.18 36.4185C386.276 37.1921 384.767 38.7149 383.985 40.6519C383.203 42.5889 383.212 44.7814 384.011 46.7472L395.303 74.541C396.101 76.5067 397.624 78.0846 399.535 78.9275C401.446 79.7705 403.59 79.8094 405.494 79.0358L410.879 76.848L415.396 87.9656C415.539 88.3203 415.777 88.6279 416.083 88.8518C416.389 89.0757 416.75 89.2065 417.122 89.2288C417.403 89.2403 417.683 89.1929 417.943 89.0892C418.379 88.9113 418.734 88.5756 418.94 88.1447L427.698 70.015L448.574 61.5338C450.479 60.7602 451.988 59.2374 452.77 57.3003C453.551 55.3633 453.542 53.1708 452.743 51.2051L441.452 23.4112C440.653 21.4455 439.131 19.8676 437.22 19.0247C435.308 18.1818 433.165 18.1429 431.261 18.9165ZM429.987 51.8151L413.832 58.3784C413.356 58.5718 412.82 58.562 412.342 58.3513C411.864 58.1406 411.484 57.7461 411.284 57.2547C411.084 56.7633 411.082 56.2151 411.277 55.7308C411.473 55.2466 411.85 54.8659 412.326 54.6725L428.481 48.1093C428.958 47.9159 429.493 47.9256 429.971 48.1363C430.449 48.347 430.83 48.7415 431.029 49.233C431.229 49.7244 431.231 50.2725 431.036 50.7567C430.84 51.241 430.463 51.6217 429.987 51.8151ZM426.223 42.5505L410.068 49.1137C409.592 49.3071 409.056 49.2974 408.578 49.0867C408.1 48.8759 407.72 48.4815 407.52 47.9901C407.321 47.4986 407.318 46.9505 407.514 46.4662C407.709 45.982 408.086 45.6013 408.562 45.4079L424.718 38.8447C425.194 38.6512 425.73 38.6609 426.207 38.8717C426.685 39.0824 427.066 39.4769 427.265 39.9683C427.465 40.4598 427.467 41.0079 427.272 41.4921C427.077 41.9764 426.699 42.3571 426.223 42.5505Z" fill="#ECFFF2"/>
</g>
</g>
<g filter="url(#filter1_diii_671_899)">
<g clip-path="url(#clip3_671_899)">
<rect x="518.817" y="36.8623" width="131.31" height="38.8949" rx="9.21833" fill="url(#paint6_linear_671_899)"/>
<g filter="url(#filter2_f_671_899)">
<ellipse cx="584.817" cy="72.5065" rx="42.4043" ry="7.37466" fill="#049578"/>
</g>
<g filter="url(#filter3_f_671_899)">
<ellipse cx="584.509" cy="41.5921" rx="21.8167" ry="3.79421" fill="#29FFD4" fill-opacity="0.5"/>
</g>
<g filter="url(#filter4_f_671_899)">
<ellipse cx="584.817" cy="68.8192" rx="12.2911" ry="3.68733" fill="#00FFCC" fill-opacity="0.5"/>
</g>
<g filter="url(#filter5_dd_671_899)">
<path d="M550.396 59.8796C550.936 59.8796 551.35 59.8316 551.638 59.7356C551.926 59.6396 552.124 59.5136 552.232 59.3576C552.34 59.2016 552.394 59.0336 552.394 58.8536C552.394 58.5656 552.31 58.2296 552.142 57.8456C551.986 57.4616 551.788 57.0596 551.548 56.6396C551.308 56.2196 551.056 55.8176 550.792 55.4336C550.54 55.0496 550.312 54.7136 550.108 54.4256L552.25 53.0036C552.766 53.6996 553.21 54.3896 553.582 55.0736C553.954 55.7456 554.254 56.3696 554.482 56.9456C554.722 57.5216 554.89 58.0136 554.986 58.4216C555.082 58.8056 555.226 59.1056 555.418 59.3216C555.622 59.5256 555.856 59.6696 556.12 59.7536C556.384 59.8376 556.648 59.8796 556.912 59.8796C557.368 59.8796 557.692 59.9996 557.884 60.2396C558.088 60.4676 558.19 60.7556 558.19 61.1036C558.19 61.4756 558.064 61.7876 557.812 62.0396C557.572 62.2796 557.212 62.3996 556.732 62.3996C556.204 62.3996 555.742 62.3276 555.346 62.1836C554.95 62.0396 554.614 61.8116 554.338 61.4996C554.062 61.1876 553.828 60.7916 553.636 60.3116L554.734 60.5456C554.638 60.8816 554.416 61.1936 554.068 61.4816C553.732 61.7576 553.282 61.9856 552.718 62.1656C552.166 62.3336 551.512 62.4176 550.756 62.4176C550.396 62.4176 549.994 62.3876 549.55 62.3276C549.118 62.2676 548.686 62.1776 548.254 62.0576C547.834 61.9376 547.45 61.7816 547.102 61.5896L547.984 59.3036C548.428 59.4956 548.854 59.6396 549.262 59.7356C549.682 59.8316 550.06 59.8796 550.396 59.8796ZM556.755 62.3996L556.935 59.8796C557.367 59.8796 557.739 59.8376 558.051 59.7536C558.363 59.6696 558.627 59.5016 558.843 59.2496C559.059 58.9856 559.239 58.6016 559.383 58.0976C559.539 57.5936 559.677 56.9216 559.797 56.0816L562.155 56.4776C562.131 56.6576 562.095 56.8676 562.047 57.1076C562.011 57.3476 561.975 57.5936 561.939 57.8456C561.915 58.0856 561.903 58.3136 561.903 58.5296C561.903 58.7456 561.945 58.9376 562.029 59.1056C562.113 59.2736 562.245 59.4176 562.425 59.5376C562.617 59.6456 562.863 59.7296 563.163 59.7896C563.475 59.8496 563.853 59.8796 564.297 59.8796C564.753 59.8796 565.077 59.9996 565.269 60.2396C565.461 60.4676 565.557 60.7556 565.557 61.1036C565.557 61.4756 565.431 61.7876 565.179 62.0396C564.939 62.2796 564.585 62.3996 564.117 62.3996C563.577 62.3996 563.085 62.3576 562.641 62.2736C562.209 62.1896 561.831 62.0516 561.507 61.8596C561.195 61.6556 560.937 61.3916 560.733 61.0676C560.541 60.7316 560.421 60.3236 560.373 59.8436H561.237C561.021 60.4196 560.745 60.8816 560.409 61.2296C560.085 61.5656 559.719 61.8176 559.311 61.9856C558.903 62.1536 558.477 62.2616 558.033 62.3096C557.601 62.3696 557.175 62.3996 556.755 62.3996ZM561.777 66.5756C561.429 66.5756 561.129 66.4496 560.877 66.1976C560.637 65.9576 560.517 65.6696 560.517 65.3336C560.517 64.9856 560.637 64.6856 560.877 64.4336C561.129 64.1816 561.429 64.0556 561.777 64.0556C562.113 64.0556 562.401 64.1816 562.641 64.4336C562.881 64.6856 563.001 64.9856 563.001 65.3336C563.001 65.6696 562.881 65.9576 562.641 66.1976C562.401 66.4496 562.113 66.5756 561.777 66.5756ZM558.663 66.5756C558.315 66.5756 558.015 66.4496 557.763 66.1976C557.523 65.9576 557.403 65.6696 557.403 65.3336C557.403 64.9856 557.523 64.6856 557.763 64.4336C558.015 64.1816 558.315 64.0556 558.663 64.0556C558.999 64.0556 559.287 64.1816 559.527 64.4336C559.767 64.6856 559.887 64.9856 559.887 65.3336C559.887 65.6696 559.767 65.9576 559.527 66.1976C559.287 66.4496 558.999 66.5756 558.663 66.5756ZM564.12 62.3996L564.3 59.8796C564.756 59.8796 565.116 59.8376 565.38 59.7536C565.656 59.6696 565.872 59.5016 566.028 59.2496C566.196 58.9856 566.334 58.6016 566.442 58.0976C566.562 57.5936 566.682 56.9216 566.802 56.0816L569.16 56.4776C569.136 56.6576 569.1 56.8676 569.052 57.1076C569.016 57.3476 568.98 57.5936 568.944 57.8456C568.92 58.0856 568.908 58.3136 568.908 58.5296C568.908 58.8176 568.968 59.0636 569.088 59.2676C569.22 59.4596 569.448 59.6096 569.772 59.7176C570.108 59.8256 570.588 59.8796 571.212 59.8796C571.668 59.8796 571.992 59.9996 572.184 60.2396C572.376 60.4676 572.472 60.7556 572.472 61.1036C572.472 61.4756 572.346 61.7876 572.094 62.0396C571.854 62.2796 571.5 62.3996 571.032 62.3996C570.204 62.3996 569.532 62.3216 569.016 62.1656C568.5 62.0096 568.116 61.7456 567.864 61.3736C567.612 61.0016 567.45 60.4916 567.378 59.8436H568.242C568.026 60.4196 567.774 60.8816 567.486 61.2296C567.198 61.5656 566.874 61.8176 566.514 61.9856C566.154 62.1536 565.77 62.2616 565.362 62.3096C564.966 62.3696 564.552 62.3996 564.12 62.3996ZM567.792 54.2456C567.42 54.2456 567.102 54.1196 566.838 53.8676C566.586 53.6156 566.46 53.3036 566.46 52.9316C566.46 52.5596 566.586 52.2416 566.838 51.9776C567.102 51.7136 567.42 51.5816 567.792 51.5816C568.152 51.5816 568.458 51.7136 568.71 51.9776C568.974 52.2416 569.106 52.5596 569.106 52.9316C569.106 53.3036 568.974 53.6156 568.71 53.8676C568.458 54.1196 568.152 54.2456 567.792 54.2456ZM571.028 62.3996L571.208 59.8796H573.782C574.034 59.8796 574.256 59.8676 574.448 59.8436C574.64 59.8076 574.796 59.7536 574.916 59.6816C575.048 59.6096 575.144 59.5196 575.204 59.4116C575.264 59.3036 575.294 59.1776 575.294 59.0336C575.294 58.8896 575.216 58.6616 575.06 58.3496C574.916 58.0256 574.598 57.6356 574.106 57.1796C573.842 56.9396 573.554 56.6876 573.242 56.4236C572.942 56.1476 572.654 55.8896 572.378 55.6496C572.102 55.3976 571.874 55.1756 571.694 54.9836C571.514 54.7916 571.424 54.6536 571.424 54.5696C571.424 54.3896 571.436 54.1916 571.46 53.9756C571.484 53.7596 571.52 53.5616 571.568 53.3816C571.628 53.2016 571.706 53.0696 571.802 52.9856C572.006 52.7936 572.306 52.5716 572.702 52.3196C573.11 52.0556 573.596 51.7736 574.16 51.4736C574.724 51.1616 575.354 50.8376 576.05 50.5016C576.758 50.1536 577.514 49.8056 578.318 49.4576L579.344 51.6536C578.684 51.9416 578.06 52.2236 577.472 52.4996C576.884 52.7636 576.332 53.0276 575.816 53.2916C575.312 53.5436 574.844 53.7956 574.412 54.0476C573.992 54.2876 573.62 54.5276 573.296 54.7676L573.53 53.4356C574.55 54.2156 575.36 54.9176 575.96 55.5416C576.572 56.1656 577.028 56.7236 577.328 57.2156C577.628 57.6956 577.826 58.1276 577.922 58.5116C578.018 58.8836 578.066 59.2136 578.066 59.5016C578.066 59.7896 577.994 60.1016 577.85 60.4376C577.718 60.7616 577.472 61.0736 577.112 61.3736C576.764 61.6736 576.272 61.9196 575.636 62.1116C575 62.3036 574.184 62.3996 573.188 62.3996H571.028ZM590.93 62.6876L591.398 60.1676C592.25 60.1676 592.946 60.1556 593.486 60.1316C594.026 60.1076 594.44 60.0656 594.728 60.0056C595.028 59.9336 595.238 59.8376 595.358 59.7176C595.478 59.5976 595.538 59.4476 595.538 59.2676C595.538 59.0516 595.442 58.7996 595.25 58.5116C595.07 58.2236 594.83 57.9236 594.53 57.6116C594.242 57.2996 593.936 56.9876 593.612 56.6756C593.288 56.3516 592.976 56.0516 592.676 55.7756C592.388 55.4996 592.148 55.2596 591.956 55.0556C591.776 54.8396 591.686 54.6836 591.686 54.5876C591.686 54.2516 591.704 53.9876 591.74 53.7956C591.776 53.5916 591.824 53.4296 591.884 53.3096C591.956 53.1896 592.034 53.0876 592.118 53.0036C592.394 52.7276 592.838 52.4096 593.45 52.0496C594.074 51.6896 594.824 51.2996 595.7 50.8796C596.576 50.4476 597.536 49.9916 598.58 49.5116L599.606 51.7076C598.562 52.1756 597.656 52.5956 596.888 52.9676C596.132 53.3276 595.478 53.6576 594.926 53.9576C594.386 54.2456 593.918 54.5216 593.522 54.7856L593.702 53.4536C594.218 53.8976 594.686 54.3176 595.106 54.7136C595.526 55.1096 595.916 55.5056 596.276 55.9016C596.636 56.2976 596.972 56.7056 597.284 57.1256C597.608 57.5456 597.92 58.0016 598.22 58.4936C598.412 58.8056 598.61 59.0576 598.814 59.2496C599.03 59.4296 599.24 59.5676 599.444 59.6636C599.66 59.7476 599.864 59.8076 600.056 59.8436C600.26 59.8676 600.44 59.8796 600.596 59.8796C601.052 59.8796 601.376 60.0056 601.568 60.2576C601.772 60.5096 601.874 60.8096 601.874 61.1576C601.874 61.5296 601.748 61.8296 601.496 62.0576C601.244 62.2856 600.884 62.3996 600.416 62.3996C600.02 62.3996 599.594 62.3396 599.138 62.2196C598.682 62.0876 598.256 61.8716 597.86 61.5716C597.464 61.2596 597.164 60.8336 596.96 60.2936L597.932 60.3656C597.704 60.8576 597.428 61.2596 597.104 61.5716C596.78 61.8716 596.36 62.1056 595.844 62.2736C595.328 62.4296 594.668 62.5376 593.864 62.5976C593.072 62.6576 592.094 62.6876 590.93 62.6876ZM590.93 62.6876C589.634 62.6876 588.536 62.5856 587.636 62.3816C586.748 62.1896 586.022 61.9136 585.458 61.5536C584.906 61.1816 584.504 60.7496 584.252 60.2576C584 59.7656 583.874 59.2256 583.874 58.6376C583.874 58.2536 583.904 57.8696 583.964 57.4856C584.036 57.0896 584.12 56.7056 584.216 56.3336C584.324 55.9616 584.42 55.6256 584.504 55.3256L586.754 55.8476C586.706 56.0636 586.652 56.2976 586.592 56.5496C586.532 56.8016 586.484 57.0476 586.448 57.2876C586.412 57.5156 586.394 57.7256 586.394 57.9176C586.394 58.3616 586.55 58.7576 586.862 59.1056C587.186 59.4416 587.714 59.7056 588.446 59.8976C589.178 60.0776 590.162 60.1676 591.398 60.1676L591.758 62.1116L590.93 62.6876ZM600.437 62.3996L600.617 59.8796C601.049 59.8796 601.421 59.8376 601.733 59.7536C602.045 59.6696 602.309 59.5016 602.525 59.2496C602.741 58.9856 602.921 58.6016 603.065 58.0976C603.221 57.5936 603.359 56.9216 603.479 56.0816L605.837 56.4776C605.813 56.6576 605.777 56.8676 605.729 57.1076C605.693 57.3476 605.657 57.5936 605.621 57.8456C605.597 58.0856 605.585 58.3136 605.585 58.5296C605.585 58.7456 605.627 58.9376 605.711 59.1056C605.795 59.2736 605.927 59.4176 606.107 59.5376C606.299 59.6456 606.545 59.7296 606.845 59.7896C607.157 59.8496 607.535 59.8796 607.979 59.8796C608.435 59.8796 608.759 59.9996 608.951 60.2396C609.143 60.4676 609.239 60.7556 609.239 61.1036C609.239 61.4756 609.113 61.7876 608.861 62.0396C608.621 62.2796 608.267 62.3996 607.799 62.3996C607.259 62.3996 606.767 62.3576 606.323 62.2736C605.891 62.1896 605.513 62.0516 605.189 61.8596C604.877 61.6556 604.619 61.3916 604.415 61.0676C604.223 60.7316 604.103 60.3236 604.055 59.8436H604.919C604.703 60.4196 604.427 60.8816 604.091 61.2296C603.767 61.5656 603.401 61.8176 602.993 61.9856C602.585 62.1536 602.159 62.2616 601.715 62.3096C601.283 62.3696 600.857 62.3996 600.437 62.3996ZM605.459 66.5756C605.111 66.5756 604.811 66.4496 604.559 66.1976C604.319 65.9576 604.199 65.6696 604.199 65.3336C604.199 64.9856 604.319 64.6856 604.559 64.4336C604.811 64.1816 605.111 64.0556 605.459 64.0556C605.795 64.0556 606.083 64.1816 606.323 64.4336C606.563 64.6856 606.683 64.9856 606.683 65.3336C606.683 65.6696 606.563 65.9576 606.323 66.1976C606.083 66.4496 605.795 66.5756 605.459 66.5756ZM602.345 66.5756C601.997 66.5756 601.697 66.4496 601.445 66.1976C601.205 65.9576 601.085 65.6696 601.085 65.3336C601.085 64.9856 601.205 64.6856 601.445 64.4336C601.697 64.1816 601.997 64.0556 602.345 64.0556C602.681 64.0556 602.969 64.1816 603.209 64.4336C603.449 64.6856 603.569 64.9856 603.569 65.3336C603.569 65.6696 603.449 65.9576 603.209 66.1976C602.969 66.4496 602.681 66.5756 602.345 66.5756ZM607.802 62.3996L607.982 59.8796C608.546 59.8796 608.942 59.8256 609.17 59.7176C609.41 59.5976 609.554 59.3816 609.602 59.0696C609.65 58.7456 609.662 58.2776 609.638 57.6656L609.35 49.1336H611.906L612.212 57.6476C612.236 58.2476 612.308 58.7096 612.428 59.0336C612.548 59.3576 612.746 59.5796 613.022 59.6996C613.31 59.8196 613.694 59.8796 614.174 59.8796C614.63 59.8796 614.954 59.9996 615.146 60.2396C615.338 60.4676 615.434 60.7556 615.434 61.1036C615.434 61.4756 615.308 61.7876 615.056 62.0396C614.804 62.2796 614.45 62.3996 613.994 62.3996C613.466 62.3996 612.974 62.3396 612.518 62.2196C612.062 62.0996 611.684 61.8716 611.384 61.5356C611.084 61.1996 610.886 60.7136 610.79 60.0776L611.582 60.0956C611.378 60.7196 611.114 61.1996 610.79 61.5356C610.466 61.8596 610.058 62.0876 609.566 62.2196C609.086 62.3396 608.498 62.3996 607.802 62.3996ZM613.989 62.3996L614.169 59.8796H616.743C616.995 59.8796 617.217 59.8676 617.409 59.8436C617.601 59.8076 617.757 59.7536 617.877 59.6816C618.009 59.6096 618.105 59.5196 618.165 59.4116C618.225 59.3036 618.255 59.1776 618.255 59.0336C618.255 58.8896 618.177 58.6616 618.021 58.3496C617.877 58.0256 617.559 57.6356 617.067 57.1796C616.803 56.9396 616.515 56.6876 616.203 56.4236C615.903 56.1476 615.615 55.8896 615.339 55.6496C615.063 55.3976 614.835 55.1756 614.655 54.9836C614.475 54.7916 614.385 54.6536 614.385 54.5696C614.385 54.3896 614.397 54.1916 614.421 53.9756C614.445 53.7596 614.481 53.5616 614.529 53.3816C614.589 53.2016 614.667 53.0696 614.763 52.9856C614.967 52.7936 615.267 52.5716 615.663 52.3196C616.071 52.0556 616.557 51.7736 617.121 51.4736C617.685 51.1616 618.315 50.8376 619.011 50.5016C619.719 50.1536 620.475 49.8056 621.279 49.4576L622.305 51.6536C621.645 51.9416 621.021 52.2236 620.433 52.4996C619.845 52.7636 619.293 53.0276 618.777 53.2916C618.273 53.5436 617.805 53.7956 617.373 54.0476C616.953 54.2876 616.581 54.5276 616.257 54.7676L616.491 53.4356C617.511 54.2156 618.321 54.9176 618.921 55.5416C619.533 56.1656 619.989 56.7236 620.289 57.2156C620.589 57.6956 620.787 58.1276 620.883 58.5116C620.979 58.8836 621.027 59.2136 621.027 59.5016C621.027 59.7896 620.955 60.1016 620.811 60.4376C620.679 60.7616 620.433 61.0736 620.073 61.3736C619.725 61.6736 619.233 61.9196 618.597 62.1116C617.961 62.3036 617.145 62.3996 616.149 62.3996H613.989Z" fill="url(#paint7_linear_671_899)"/>
</g>
</g>
</g>
</g>
<rect x="3.30728" y="1.30728" width="683.385" height="110.005" rx="30.4205" stroke="#004E3F" stroke-width="0.614555"/>
</g>
<defs>
<filter id="filter0_di_671_899" x="0.541779" y="0.385445" width="688.916" height="117.38" filterUnits="userSpaceOnUse" color-interpolation-filters="sRGB">
<feFlood flood-opacity="0" result="BackgroundImageFix"/>
<feColorMatrix in="SourceAlpha" type="matrix" values="0 0 0 0 0 0 0 0 0 0 0 0 0 0 0 0 0 0 127 0" result="hardAlpha"/>
<feOffset dy="1.84367"/>
<feGaussianBlur stdDeviation="1.22911"/>
<feComposite in2="hardAlpha" operator="out"/>
<feColorMatrix type="matrix" values="0 0 0 0 0 0 0 0 0 0 0 0 0 0 0 0 0 0 0.25 0"/>
<feBlend mode="normal" in2="BackgroundImageFix" result="effect1_dropShadow_671_899"/>
<feBlend mode="normal" in="SourceGraphic" in2="effect1_dropShadow_671_899" result="shape"/>
<feColorMatrix in="SourceAlpha" type="matrix" values="0 0 0 0 0 0 0 0 0 0 0 0 0 0 0 0 0 0 127 0" result="hardAlpha"/>
<feOffset dy="6.14555"/>
<feGaussianBlur stdDeviation="7.68194"/>
<feComposite in2="hardAlpha" operator="arithmetic" k2="-1" k3="1"/>
<feColorMatrix type="matrix" values="0 0 0 0 0.141176 0 0 0 0 0.607843 0 0 0 0 0.341176 0 0 0 0.1 0"/>
<feBlend mode="normal" in2="shape" result="effect2_innerShadow_671_899"/>
</filter>
<filter id="filter1_diii_671_899" x="503.453" y="21.4984" width="162.038" height="69.6228" filterUnits="userSpaceOnUse" color-interpolation-filters="sRGB">
<feFlood flood-opacity="0" result="BackgroundImageFix"/>
<feColorMatrix in="SourceAlpha" type="matrix" values="0 0 0 0 0 0 0 0 0 0 0 0 0 0 0 0 0 0 127 0" result="hardAlpha"/>
<feOffset/>
<feGaussianBlur stdDeviation="7.68194"/>
<feComposite in2="hardAlpha" operator="out"/>
<feColorMatrix type="matrix" values="0 0 0 0 0.220833 0 0 0 0 1 0 0 0 0 0.495236 0 0 0 0.12 0"/>
<feBlend mode="normal" in2="BackgroundImageFix" result="effect1_dropShadow_671_899"/>
<feBlend mode="normal" in="SourceGraphic" in2="effect1_dropShadow_671_899" result="shape"/>
<feColorMatrix in="SourceAlpha" type="matrix" values="0 0 0 0 0 0 0 0 0 0 0 0 0 0 0 0 0 0 127 0" result="hardAlpha"/>
<feMorphology radius="0.614555" operator="erode" in="SourceAlpha" result="effect2_innerShadow_671_899"/>
<feOffset/>
<feComposite in2="hardAlpha" operator="arithmetic" k2="-1" k3="1"/>
<feColorMatrix type="matrix" values="0 0 0 0 0 0 0 0 0 0.316667 0 0 0 0 0.255769 0 0 0 1 0"/>
<feBlend mode="normal" in2="shape" result="effect2_innerShadow_671_899"/>
<feColorMatrix in="SourceAlpha" type="matrix" values="0 0 0 0 0 0 0 0 0 0 0 0 0 0 0 0 0 0 127 0" result="hardAlpha"/>
<feOffset dy="2.45822"/>
<feGaussianBlur stdDeviation="3.68733"/>
<feComposite in2="hardAlpha" operator="arithmetic" k2="-1" k3="1"/>
<feColorMatrix type="matrix" values="0 0 0 0 0.0196078 0 0 0 0 0.690196 0 0 0 0 0.560784 0 0 0 0.3 0"/>
<feBlend mode="normal" in2="effect2_innerShadow_671_899" result="effect3_innerShadow_671_899"/>
<feColorMatrix in="SourceAlpha" type="matrix" values="0 0 0 0 0 0 0 0 0 0 0 0 0 0 0 0 0 0 127 0" result="hardAlpha"/>
<feOffset/>
<feGaussianBlur stdDeviation="7.68194"/>
<feComposite in2="hardAlpha" operator="arithmetic" k2="-1" k3="1"/>
<feColorMatrix type="matrix" values="0 0 0 0 0.0196078 0 0 0 0 0.690196 0 0 0 0 0.560784 0 0 0 0.3 0"/>
<feBlend mode="normal" in2="effect3_innerShadow_671_899" result="effect4_innerShadow_671_899"/>
</filter>
<filter id="filter2_f_671_899" x="520.903" y="43.6224" width="127.827" height="57.7684" filterUnits="userSpaceOnUse" color-interpolation-filters="sRGB">
<feFlood flood-opacity="0" result="BackgroundImageFix"/>
<feBlend mode="normal" in="SourceGraphic" in2="BackgroundImageFix" result="shape"/>
<feGaussianBlur stdDeviation="10.7547" result="effect1_foregroundBlur_671_899"/>
</filter>
<filter id="filter3_f_671_899" x="546.093" y="21.1982" width="76.8328" height="40.7877" filterUnits="userSpaceOnUse" color-interpolation-filters="sRGB">
<feFlood flood-opacity="0" result="BackgroundImageFix"/>
<feBlend mode="normal" in="SourceGraphic" in2="BackgroundImageFix" result="shape"/>
<feGaussianBlur stdDeviation="8.29984" result="effect1_foregroundBlur_671_899"/>
</filter>
<filter id="filter4_f_671_899" x="558.022" y="50.6283" width="53.5892" height="36.3815" filterUnits="userSpaceOnUse" color-interpolation-filters="sRGB">
<feFlood flood-opacity="0" result="BackgroundImageFix"/>
<feBlend mode="normal" in="SourceGraphic" in2="BackgroundImageFix" result="shape"/>
<feGaussianBlur stdDeviation="7.25175" result="effect1_foregroundBlur_671_899"/>
</filter>
<filter id="filter5_dd_671_899" x="544.029" y="46.061" width="81.3492" height="23.5874" filterUnits="userSpaceOnUse" color-interpolation-filters="sRGB">
<feFlood flood-opacity="0" result="BackgroundImageFix"/>
<feColorMatrix in="SourceAlpha" type="matrix" values="0 0 0 0 0 0 0 0 0 0 0 0 0 0 0 0 0 0 127 0" result="hardAlpha"/>
<feOffset/>
<feGaussianBlur stdDeviation="0.614555"/>
<feComposite in2="hardAlpha" operator="out"/>
<feColorMatrix type="matrix" values="0 0 0 0 0 0 0 0 0 0 0 0 0 0 0 0 0 0 0.28 0"/>
<feBlend mode="normal" in2="BackgroundImageFix" result="effect1_dropShadow_671_899"/>
<feColorMatrix in="SourceAlpha" type="matrix" values="0 0 0 0 0 0 0 0 0 0 0 0 0 0 0 0 0 0 127 0" result="hardAlpha"/>
<feOffset/>
<feGaussianBlur stdDeviation="1.53639"/>
<feComposite in2="hardAlpha" operator="out"/>
<feColorMatrix type="matrix" values="0 0 0 0 0.0117647 0 0 0 0 0.588235 0 0 0 0 0.478431 0 0 0 0.45 0"/>
<feBlend mode="normal" in2="effect1_dropShadow_671_899" result="effect2_dropShadow_671_899"/>
<feBlend mode="normal" in="SourceGraphic" in2="effect2_dropShadow_671_899" result="shape"/>
</filter>
<linearGradient id="paint0_linear_671_899" x1="8.87706" y1="7.91375" x2="391.647" y2="-265.239" gradientUnits="userSpaceOnUse">
<stop stop-color="#27664B"/>
<stop offset="0.0950225" stop-color="#22523E"/>
<stop offset="0.290979" stop-color="#19362A"/>
<stop offset="0.920883" stop-color="#030C07"/>
</linearGradient>
<linearGradient id="paint1_linear_671_899" x1="165.873" y1="36.3101" x2="165.873" y2="76.3101" gradientUnits="userSpaceOnUse">
<stop offset="0.0919369" stop-color="#E6FEEE"/>
<stop offset="0.909047" stop-color="#CAEFD7"/>
</linearGradient>
<linearGradient id="paint2_linear_671_899" x1="340.166" y1="18.4361" x2="338.898" y2="159.008" gradientUnits="userSpaceOnUse">
<stop stop-color="#184522"/>
<stop offset="0.15625" stop-color="#052F09"/>
<stop offset="0.758565" stop-color="#072D12"/>
<stop offset="0.833789" stop-color="#06DC62"/>
<stop offset="0.91676" stop-color="#041806"/>
<stop offset="1" stop-color="#04180B"/>
</linearGradient>
<linearGradient id="paint3_linear_671_899" x1="334.192" y1="18.7705" x2="334.192" y2="158.741" gradientUnits="userSpaceOnUse">
<stop stop-color="#141E18"/>
<stop offset="0.118395" stop-color="#0F1512"/>
<stop offset="0.680252" stop-color="#060D09"/>
<stop offset="0.79042" stop-color="#050C08"/>
<stop offset="0.843668" stop-color="#0C1711"/>
<stop offset="0.89508" stop-color="#050C08"/>
<stop offset="1" stop-color="#030B06"/>
</linearGradient>
<linearGradient id="paint4_linear_671_899" x1="366.116" y1="8.23389" x2="384.406" y2="150.32" gradientUnits="userSpaceOnUse">
<stop stop-color="#0F1612"/>
<stop offset="1" stop-color="#030B06"/>
</linearGradient>
<linearGradient id="paint5_linear_671_899" x1="400.846" y1="8.23389" x2="400.846" y2="148.204" gradientUnits="userSpaceOnUse">
<stop stop-color="#1C3023"/>
<stop offset="1" stop-color="#374B3E"/>
</linearGradient>
<linearGradient id="paint6_linear_671_899" x1="650.127" y1="56.3097" x2="518.817" y2="56.7865" gradientUnits="userSpaceOnUse">
<stop stop-color="#00120F"/>
<stop offset="0.491399" stop-color="#025A4A"/>
<stop offset="1" stop-color="#00120F"/>
</linearGradient>
<linearGradient id="paint7_linear_671_899" x1="584.472" y1="47.3096" x2="584.472" y2="65.3096" gradientUnits="userSpaceOnUse">
<stop offset="0.232824" stop-color="#ECFFF2"/>
<stop offset="0.959379" stop-color="#C0E4CD"/>
</linearGradient>
<clipPath id="clip0_671_899">
<rect x="3" y="1" width="684" height="110.62" rx="30.7278" fill="white"/>
</clipPath>
<clipPath id="clip1_671_899">
<rect width="91.6169" height="91.6169" fill="white" transform="translate(361 20.4829) rotate(-22.11)"/>
</clipPath>
<clipPath id="clip2_671_899">
<rect width="79.4013" height="79.4013" fill="white" transform="translate(368.957 23.8433) rotate(-22.11)"/>
</clipPath>
<clipPath id="clip3_671_899">
<rect x="518.817" y="36.8623" width="131.31" height="38.8949" rx="9.21833" fill="white"/>
</clipPath>
</defs>
</svg>
