<svg width="593" height="593" viewBox="0 0 593 593" fill="none" xmlns="http://www.w3.org/2000/svg">
<g filter="url(#filter0_dd_409_572)">
<rect x="30" y="29.75" width="533.5" height="533.5" rx="58.2" fill="#0E1B13" shape-rendering="crispEdges"/>
<rect x="31.2125" y="30.9625" width="531.075" height="531.075" rx="56.9875" stroke="#223027" stroke-width="2.425" shape-rendering="crispEdges"/>
<g filter="url(#filter1_di_409_572)">
<g clip-path="url(#clip0_409_572)">
<rect x="54.2499" y="54" width="485" height="485" rx="33.95" fill="url(#paint0_linear_409_572)"/>
<path d="M541.54 92.875L50.4774 92.875" stroke="#38FF7E" stroke-opacity="0.4" stroke-width="0.861513" stroke-dasharray="5.74 5.74"/>
<g filter="url(#filter2_f_409_572)">
<path d="M372.109 92.875L368.663 92.875" stroke="#38FF7E" stroke-opacity="0.6" stroke-width="0.861513"/>
</g>
<g filter="url(#filter3_f_409_572)">
<path d="M191.191 92.875L187.745 92.875" stroke="#38FF7E" stroke-opacity="0.65" stroke-width="0.861513"/>
</g>
<path d="M541.54 194.726L50.4774 194.726" stroke="#38FF7E" stroke-opacity="0.4" stroke-width="0.861513" stroke-dasharray="5.74 5.74"/>
<g filter="url(#filter4_f_409_572)">
<path d="M372.109 194.726L368.663 194.726" stroke="#38FF7E" stroke-opacity="0.6" stroke-width="0.861513"/>
</g>
<g filter="url(#filter5_f_409_572)">
<path d="M191.191 194.726L187.745 194.726" stroke="#38FF7E" stroke-opacity="0.6" stroke-width="0.861513"/>
</g>
<path d="M541.54 296.575L50.4774 296.575" stroke="#38FF7E" stroke-opacity="0.4" stroke-width="0.861513" stroke-dasharray="5.74 5.74"/>
<g filter="url(#filter6_f_409_572)">
<path d="M372.109 296.575L368.663 296.575" stroke="#38FF7E" stroke-opacity="0.6" stroke-width="0.861513"/>
</g>
<g filter="url(#filter7_f_409_572)">
<path d="M191.191 296.575L187.745 296.575" stroke="#38FF7E" stroke-opacity="0.6" stroke-width="0.861513"/>
</g>
<path d="M541.54 398.426L50.4774 398.426" stroke="#38FF7E" stroke-opacity="0.4" stroke-width="0.861513" stroke-dasharray="5.74 5.74"/>
<g filter="url(#filter8_f_409_572)">
<path d="M372.109 398.426L368.663 398.426" stroke="#38FF7E" stroke-opacity="0.6" stroke-width="0.861513"/>
</g>
<g filter="url(#filter9_f_409_572)">
<path d="M191.191 398.426L187.745 398.426" stroke="#38FF7E" stroke-opacity="0.6" stroke-width="0.861513"/>
</g>
<path d="M541.54 500.275L50.4774 500.275" stroke="#38FF7E" stroke-opacity="0.4" stroke-width="0.861513" stroke-dasharray="5.74 5.74"/>
<g filter="url(#filter10_f_409_572)">
<path d="M372.109 500.275L368.663 500.275" stroke="#38FF7E" stroke-opacity="0.6" stroke-width="0.861513"/>
</g>
<g filter="url(#filter11_f_409_572)">
<path d="M191.191 500.275L187.745 500.275" stroke="#38FF7E" stroke-opacity="0.6" stroke-width="0.861513"/>
</g>
<g filter="url(#filter12_ii_409_572)">
<rect x="127" y="126.751" width="339.5" height="339.5" rx="14.55" fill="url(#paint1_linear_409_572)"/>
<rect x="125.787" y="125.538" width="341.925" height="341.925" rx="15.7625" stroke="url(#paint2_linear_409_572)" stroke-width="2.425"/>
<g clip-path="url(#clip1_409_572)">
<g clip-path="url(#clip2_409_572)">
<g clip-path="url(#clip3_409_572)">
<g clip-path="url(#clip4_409_572)">
<path d="M449.61 319.233H143.511C141.786 319.233 140.387 320.354 140.387 321.736C140.387 323.118 141.786 324.239 143.511 324.239H449.61C451.335 324.239 452.733 323.118 452.733 321.736C452.733 320.354 451.335 319.233 449.61 319.233Z" fill="#5ED688"/>
<g clip-path="url(#clip5_409_572)">
<g clip-path="url(#clip6_409_572)">
<g clip-path="url(#clip7_409_572)">
<g clip-path="url(#clip8_409_572)">
<path d="M152.877 392.849C145.076 392.849 141.176 387.275 141.176 376.127V352.618C141.176 342.435 145.644 337.343 154.579 337.343C158.264 337.343 161.084 338.083 163.041 339.563C165.006 341.035 166.361 343.187 167.106 346.021C167.852 348.846 168.224 352.292 168.224 356.361H157.552V351.527C157.552 350.351 157.391 349.366 157.07 348.571C156.756 347.776 156.091 347.378 155.075 347.378C153.813 347.378 152.979 347.801 152.572 348.647C152.174 349.493 151.975 350.423 151.975 351.438V377.853C151.975 379.324 152.166 380.517 152.547 381.43C152.928 382.352 153.677 382.813 154.795 382.813C155.956 382.813 156.727 382.352 157.108 381.43C157.489 380.517 157.679 379.307 157.679 377.802V370.025H154.77V360.611H168.097V392.354H163.727L161.872 387.774C159.966 391.157 156.968 392.849 152.877 392.849ZM183.521 392.354H172.226V345.894H183.521V351.07C184.054 349.269 185.003 347.865 186.366 346.858C187.73 345.843 189.445 345.336 191.512 345.336V354.597C190.606 354.597 189.521 354.694 188.259 354.889C186.997 355.084 185.892 355.354 184.944 355.701C183.995 356.039 183.521 356.416 183.521 356.83V392.354ZM207.266 392.849C203.962 392.849 201.328 392.231 199.363 390.996C197.398 389.753 195.992 387.964 195.145 385.63C194.298 383.295 193.875 380.487 193.875 377.206V358.53C193.875 354.217 195.116 350.948 197.597 348.723C200.079 346.507 203.488 345.399 207.825 345.399C216.76 345.399 221.228 349.776 221.228 358.53V361.905C221.228 365.99 221.186 368.739 221.101 370.152H204.979V379.134C204.979 379.954 205.03 380.762 205.131 381.557C205.233 382.352 205.466 383.008 205.83 383.524C206.194 384.04 206.779 384.298 207.583 384.298C208.744 384.298 209.468 383.799 209.756 382.801C210.044 381.794 210.188 380.487 210.188 378.88V374.414H221.228V377.053C221.228 380.521 220.8 383.426 219.945 385.769C219.081 388.112 217.633 389.88 215.6 391.072C213.559 392.257 210.781 392.849 207.266 392.849ZM204.915 358.378V364.633H210.188V358.378C210.188 356.703 209.98 355.498 209.565 354.762C209.15 354.035 208.532 353.671 207.71 353.671C206.821 353.671 206.131 354.022 205.639 354.724C205.157 355.426 204.915 356.644 204.915 358.378ZM238.29 392.849C234.979 392.849 232.34 392.231 230.375 390.996C228.41 389.753 227.004 387.964 226.157 385.63C225.31 383.295 224.887 380.487 224.887 377.206V358.53C224.887 354.217 226.128 350.948 228.609 348.723C231.091 346.507 234.5 345.399 238.837 345.399C247.772 345.399 252.24 349.776 252.24 358.53V361.905C252.24 365.99 252.198 368.739 252.113 370.152H235.991V379.134C235.991 379.954 236.042 380.762 236.143 381.557C236.245 382.352 236.478 383.008 236.842 383.524C237.206 384.04 237.791 384.298 238.595 384.298C239.756 384.298 240.48 383.799 240.768 382.801C241.056 381.794 241.2 380.487 241.2 378.88V374.414H252.24V377.053C252.24 380.521 251.812 383.426 250.957 385.769C250.101 388.112 248.653 389.88 246.612 391.072C244.579 392.257 241.805 392.849 238.29 392.849ZM235.927 358.378V364.633H241.2V358.378C241.2 356.703 240.992 355.498 240.577 354.762C240.162 354.035 239.544 353.671 238.722 353.671C237.833 353.671 237.143 354.022 236.651 354.724C236.169 355.426 235.927 356.644 235.927 358.378ZM267.371 392.354H256.267V345.894H267.371V351.806C267.786 350.03 268.557 348.52 269.683 347.277C270.81 346.025 272.377 345.399 274.384 345.399C277.611 345.399 279.953 346.389 281.41 348.368C282.867 350.355 283.595 353.071 283.595 356.513V392.354H272.644V357.667C272.644 356.754 272.457 355.912 272.085 355.143C271.712 354.365 271.072 353.976 270.166 353.976C269.319 353.976 268.693 354.272 268.286 354.864C267.888 355.447 267.638 356.179 267.536 357.058C267.426 357.938 267.371 358.809 267.371 359.672V392.354ZM315.979 392.849C310.99 392.849 307.395 391.61 305.193 389.131C302.991 386.653 301.89 382.707 301.89 377.294V371.978H312.689V378.791C312.689 380.052 312.879 381.037 313.26 381.748C313.641 382.458 314.306 382.813 315.255 382.813C316.254 382.813 316.945 382.526 317.326 381.95C317.707 381.367 317.898 380.415 317.898 379.096C317.898 377.421 317.732 376.021 317.402 374.896C317.072 373.772 316.496 372.697 315.674 371.674C314.861 370.659 313.73 369.466 312.282 368.096L307.378 363.453C303.719 360.002 301.89 356.06 301.89 351.628C301.89 346.976 302.97 343.433 305.129 340.997C307.289 338.561 310.419 337.343 314.518 337.343C319.524 337.343 323.073 338.675 325.165 341.339C327.265 344.003 328.315 348.051 328.315 353.481H317.212V349.738C317.212 348.994 317 348.414 316.576 348C316.153 347.585 315.581 347.378 314.861 347.378C313.989 347.378 313.349 347.619 312.943 348.101C312.545 348.592 312.346 349.218 312.346 349.979C312.346 350.74 312.553 351.565 312.968 352.453C313.383 353.341 314.201 354.365 315.42 355.523L321.709 361.562C322.971 362.763 324.131 364.028 325.19 365.356C326.24 366.692 327.087 368.244 327.731 370.012C328.366 371.771 328.684 373.924 328.684 376.47C328.684 381.587 327.739 385.596 325.851 388.497C323.962 391.398 320.671 392.849 315.979 392.849ZM345.162 392.849C341.85 392.849 339.212 392.231 337.247 390.996C335.282 389.753 333.876 387.964 333.029 385.63C332.182 383.295 331.758 380.487 331.758 377.206V358.53C331.758 354.217 332.999 350.948 335.481 348.723C337.962 346.507 341.376 345.399 345.721 345.399C354.648 345.399 359.111 349.776 359.111 358.53V361.905C359.111 365.99 359.069 368.739 358.984 370.152H342.862V379.134C342.862 379.954 342.913 380.762 343.015 381.557C343.116 382.352 343.349 383.008 343.713 383.524C344.078 384.04 344.662 384.298 345.467 384.298C346.627 384.298 347.351 383.799 347.639 382.801C347.927 381.794 348.071 380.487 348.071 378.88V374.414H359.111V377.053C359.111 380.521 358.684 383.426 357.828 385.769C356.973 388.112 355.524 389.88 353.483 391.072C351.451 392.257 348.677 392.849 345.162 392.849ZM342.799 358.378V364.633H348.071V358.378C348.071 356.703 347.864 355.498 347.449 354.762C347.034 354.035 346.415 353.671 345.594 353.671C344.704 353.671 344.014 354.022 343.523 354.724C343.04 355.426 342.799 356.644 342.799 358.378ZM374.243 392.354H363.139V345.894H374.243V351.806C374.658 350.03 375.428 348.52 376.555 347.277C377.681 346.025 379.248 345.399 381.256 345.399C384.483 345.399 386.824 346.389 388.281 348.368C389.738 350.355 390.466 353.071 390.466 356.513V392.354H379.515V357.667C379.515 356.754 379.333 355.912 378.969 355.143C378.596 354.365 377.952 353.976 377.038 353.976C376.191 353.976 375.564 354.272 375.157 354.864C374.759 355.447 374.509 356.179 374.408 357.058C374.298 357.938 374.243 358.809 374.243 359.672V392.354ZM407.554 392.849C398.373 392.849 393.782 388.201 393.782 378.906V375.226H404.95V380.682C404.95 381.731 405.157 382.555 405.572 383.156C405.987 383.756 406.648 384.057 407.554 384.057C409.172 384.057 409.981 382.847 409.981 380.428C409.981 378.407 409.557 376.893 408.71 375.886C407.855 374.888 406.817 373.924 405.598 372.993L399.677 368.439C397.814 366.992 396.4 365.466 395.434 363.859C394.46 362.243 393.973 360.002 393.973 357.135C393.973 354.47 394.608 352.271 395.879 350.537C397.149 348.803 398.835 347.514 400.935 346.668C403.036 345.822 405.305 345.399 407.745 345.399C416.757 345.399 421.262 349.89 421.262 358.873V359.735H409.79V357.972C409.79 357.042 409.629 356.145 409.307 355.282C408.986 354.411 408.359 353.976 407.427 353.976C405.86 353.976 405.077 354.8 405.077 356.449C405.077 358.124 405.737 359.435 407.059 360.382L413.945 365.407C416.096 366.954 417.9 368.794 419.357 370.925C420.814 373.048 421.542 375.873 421.542 379.4C421.542 383.782 420.297 387.118 417.807 389.41C415.317 391.703 411.899 392.849 407.554 392.849ZM437.982 392.849C434.67 392.849 432.032 392.231 430.067 390.996C428.11 389.753 426.704 387.964 425.849 385.63C425.002 383.295 424.578 380.487 424.578 377.206V358.53C424.578 354.217 425.819 350.948 428.301 348.723C430.783 346.507 434.196 345.399 438.541 345.399C447.476 345.399 451.944 349.776 451.944 358.53V361.905C451.944 365.99 451.902 368.739 451.817 370.152H435.682V379.134C435.682 379.954 435.737 380.762 435.847 381.557C435.949 382.352 436.178 383.008 436.533 383.524C436.898 384.04 437.482 384.298 438.287 384.298C439.447 384.298 440.171 383.799 440.459 382.801C440.756 381.794 440.904 380.487 440.904 378.88V374.414H451.944V377.053C451.944 380.521 451.512 383.426 450.648 385.769C449.793 388.112 448.349 389.88 446.316 391.072C444.275 392.257 441.497 392.849 437.982 392.849ZM435.619 358.378V364.633H440.904V358.378C440.904 356.703 440.696 355.498 440.281 354.762C439.866 354.035 439.244 353.671 438.414 353.671C437.524 353.671 436.838 354.022 436.356 354.724C435.864 355.426 435.619 356.644 435.619 358.378Z" fill="#5ED688"/>
</g>
</g>
</g>
</g>
<g clip-path="url(#clip9_409_572)">
<g clip-path="url(#clip10_409_572)">
<path d="M321.883 262.586H318.641C315.135 262.71 311.691 263.547 308.519 265.044C305.348 266.541 302.515 268.668 300.193 271.295V249.746C304.622 249.33 308.736 247.281 311.734 243.998C314.731 240.716 316.397 236.436 316.405 231.994V220.829C316.405 219.348 315.816 217.929 314.768 216.882C313.719 215.835 312.297 215.247 310.815 215.247H309.138V202.853C309.138 201.965 308.784 201.113 308.155 200.485C307.526 199.857 306.673 199.504 305.783 199.504C304.894 199.504 304.041 199.857 303.412 200.485C302.783 201.113 302.429 201.965 302.429 202.853V215.247H291.249V202.853C291.249 201.965 290.895 201.113 290.266 200.485C289.637 199.857 288.784 199.504 287.895 199.504C287.005 199.504 286.152 199.857 285.523 200.485C284.894 201.113 284.541 201.965 284.541 202.853V215.247H282.975C281.493 215.247 280.071 215.835 279.022 216.882C277.974 217.929 277.385 219.348 277.385 220.829V231.994C277.391 236.419 279.04 240.684 282.015 243.964C284.989 247.243 289.076 249.304 293.485 249.746V255.441C291.159 252.663 288.276 250.403 285.021 248.807C281.767 247.211 278.213 246.314 274.59 246.174H271.348C270.891 246.165 270.437 246.25 270.014 246.422C269.591 246.595 269.208 246.852 268.888 247.178C268.561 247.498 268.304 247.88 268.131 248.303C267.958 248.725 267.873 249.178 267.882 249.635V252.761C268.16 259.343 270.918 265.577 275.604 270.215C280.289 274.852 286.556 277.551 293.149 277.771H293.597V302.78C293.597 303.669 293.95 304.52 294.579 305.149C295.208 305.777 296.061 306.13 296.951 306.13C297.84 306.13 298.694 305.777 299.323 305.149C299.952 304.52 300.305 303.669 300.305 302.78V294.183C306.839 293.882 313.024 291.147 317.639 286.517C322.254 281.888 324.965 275.7 325.237 269.174V266.047C325.253 265.589 325.174 265.132 325.005 264.705C324.837 264.278 324.582 263.89 324.257 263.565C323.932 263.241 323.544 262.986 323.116 262.818C322.689 262.649 322.231 262.571 321.771 262.586H321.883ZM274.814 252.984C279.514 253.298 283.94 255.305 287.271 258.631C290.602 261.957 292.612 266.378 292.926 271.072C288.226 270.758 283.799 268.751 280.468 265.425C277.137 262.098 275.128 257.678 274.814 252.984ZM284.093 231.994V221.946H309.808V231.994C309.808 234.955 308.63 237.795 306.534 239.889C304.437 241.983 301.593 243.159 298.628 243.159H295.274C292.309 243.159 289.465 241.983 287.368 239.889C285.271 237.795 284.093 234.955 284.093 231.994ZM300.305 287.484C300.596 282.782 302.598 278.349 305.933 275.017C309.269 271.686 313.709 269.687 318.417 269.397C318.126 274.099 316.125 278.532 312.789 281.864C309.453 285.195 305.013 287.194 300.305 287.484Z" fill="#5ED688"/>
</g>
</g>
<path d="M392.595 300.34H331.526V305.345H392.595V300.34Z" fill="#5ED688"/>
<path d="M261.595 300.34H200.525V305.345H261.595V300.34Z" fill="#5ED688"/>
</g>
</g>
</g>
</g>
</g>
<g filter="url(#filter13_ddddd_409_572)">
<ellipse cx="296.75" cy="581.745" rx="181.875" ry="27.5568" fill="url(#paint3_linear_409_572)"/>
<path d="M296.75 609.853C346.992 609.853 392.49 606.768 425.437 601.776C441.907 599.28 455.265 596.305 464.518 592.991C469.141 591.334 472.772 589.582 475.258 587.742C477.729 585.912 479.176 583.911 479.176 581.745C479.176 579.579 477.729 577.579 475.258 575.749C472.772 573.908 469.141 572.156 464.518 570.5C455.265 567.186 441.907 564.21 425.437 561.715C392.49 556.723 346.992 553.637 296.75 553.637C246.508 553.637 201.01 556.723 168.062 561.715C151.593 564.21 138.234 567.186 128.982 570.5C124.358 572.156 120.727 573.908 118.242 575.749C115.77 577.579 114.324 579.579 114.324 581.745C114.324 583.911 115.77 585.912 118.242 587.742C120.727 589.582 124.358 591.334 128.982 592.991C138.234 596.305 151.593 599.28 168.062 601.776C201.01 606.768 246.508 609.853 296.75 609.853Z" stroke="#38FF7E" stroke-opacity="0.8" stroke-width="1.10227"/>
</g>
<g filter="url(#filter14_dddddd_409_572)">
<ellipse cx="296.75" cy="559.92" rx="84.875" ry="12.8598" fill="url(#paint4_linear_409_572)"/>
<path d="M296.75 573.037C320.196 573.037 341.429 571.598 356.804 569.268C364.49 568.103 370.724 566.715 375.042 565.168C377.199 564.395 378.894 563.578 380.054 562.719C381.207 561.865 381.882 560.931 381.882 559.92C381.882 558.91 381.207 557.976 380.054 557.122C378.894 556.263 377.199 555.445 375.042 554.673C370.724 553.126 364.49 551.737 356.804 550.573C341.429 548.243 320.196 546.803 296.75 546.803C273.304 546.803 252.071 548.243 236.696 550.573C229.01 551.737 222.776 553.126 218.458 554.673C216.301 555.445 214.606 556.263 213.446 557.122C212.293 557.976 211.618 558.91 211.618 559.92C211.618 560.931 212.293 561.865 213.446 562.719C214.606 563.578 216.301 564.395 218.458 565.168C222.776 566.715 229.01 568.103 236.696 569.268C252.071 571.598 273.304 573.037 296.75 573.037Z" stroke="#38FF7E" stroke-width="0.514394"/>
</g>
<g filter="url(#filter15_ddddd_409_572)">
<ellipse cx="296.75" cy="-24.5057" rx="181.875" ry="27.5568" fill="url(#paint5_linear_409_572)"/>
<path d="M296.75 3.60227C346.992 3.60227 392.49 0.516933 425.437 -4.47515C441.907 -6.97055 455.265 -9.94591 464.518 -13.2605C469.141 -14.9166 472.772 -16.6687 475.258 -18.5091C477.729 -20.339 479.176 -22.3395 479.176 -24.5057C479.176 -26.6718 477.729 -28.6723 475.258 -30.5023C472.772 -32.3427 469.141 -34.0948 464.518 -35.7509C455.265 -39.0655 441.907 -42.0408 425.437 -44.5362C392.49 -49.5283 346.992 -52.6136 296.75 -52.6136C246.508 -52.6136 201.01 -49.5283 168.062 -44.5362C151.593 -42.0408 138.234 -39.0655 128.982 -35.7509C124.358 -34.0948 120.727 -32.3427 118.242 -30.5023C115.77 -28.6723 114.324 -26.6718 114.324 -24.5057C114.324 -22.3395 115.77 -20.339 118.242 -18.5091C120.727 -16.6687 124.358 -14.9166 128.982 -13.2605C138.234 -9.94591 151.593 -6.97055 168.062 -4.47515C201.01 0.516933 246.508 3.60227 296.75 3.60227Z" stroke="#38FF7E" stroke-width="1.10227"/>
</g>
<g filter="url(#filter16_dddd_409_572)">
<circle cx="296.75" cy="3.0752" r="36.375" fill="#38FF7E" fill-opacity="0.8"/>
</g>
</g>
<rect x="55.4624" y="55.2125" width="482.575" height="482.575" rx="32.7375" stroke="url(#paint6_linear_409_572)" stroke-width="2.425"/>
</g>
</g>
<defs>
<filter id="filter0_dd_409_572" x="0.900003" y="0.650003" width="591.7" height="591.7" filterUnits="userSpaceOnUse" color-interpolation-filters="sRGB">
<feFlood flood-opacity="0" result="BackgroundImageFix"/>
<feColorMatrix in="SourceAlpha" type="matrix" values="0 0 0 0 0 0 0 0 0 0 0 0 0 0 0 0 0 0 127 0" result="hardAlpha"/>
<feOffset dy="2.425"/>
<feGaussianBlur stdDeviation="2.425"/>
<feComposite in2="hardAlpha" operator="out"/>
<feColorMatrix type="matrix" values="0 0 0 0 0 0 0 0 0 0 0 0 0 0 0 0 0 0 0.25 0"/>
<feBlend mode="normal" in2="BackgroundImageFix" result="effect1_dropShadow_409_572"/>
<feColorMatrix in="SourceAlpha" type="matrix" values="0 0 0 0 0 0 0 0 0 0 0 0 0 0 0 0 0 0 127 0" result="hardAlpha"/>
<feOffset/>
<feGaussianBlur stdDeviation="14.55"/>
<feComposite in2="hardAlpha" operator="out"/>
<feColorMatrix type="matrix" values="0 0 0 0 0 0 0 0 0 0 0 0 0 0 0 0 0 0 0.25 0"/>
<feBlend mode="normal" in2="effect1_dropShadow_409_572" result="effect2_dropShadow_409_572"/>
<feBlend mode="normal" in="SourceGraphic" in2="effect2_dropShadow_409_572" result="shape"/>
</filter>
<filter id="filter1_di_409_572" x="44.5499" y="54" width="504.4" height="504.4" filterUnits="userSpaceOnUse" color-interpolation-filters="sRGB">
<feFlood flood-opacity="0" result="BackgroundImageFix"/>
<feColorMatrix in="SourceAlpha" type="matrix" values="0 0 0 0 0 0 0 0 0 0 0 0 0 0 0 0 0 0 127 0" result="hardAlpha"/>
<feOffset dy="9.7"/>
<feGaussianBlur stdDeviation="4.85"/>
<feComposite in2="hardAlpha" operator="out"/>
<feColorMatrix type="matrix" values="0 0 0 0 0 0 0 0 0 0 0 0 0 0 0 0 0 0 0.25 0"/>
<feBlend mode="normal" in2="BackgroundImageFix" result="effect1_dropShadow_409_572"/>
<feBlend mode="normal" in="SourceGraphic" in2="effect1_dropShadow_409_572" result="shape"/>
<feColorMatrix in="SourceAlpha" type="matrix" values="0 0 0 0 0 0 0 0 0 0 0 0 0 0 0 0 0 0 127 0" result="hardAlpha"/>
<feOffset/>
<feGaussianBlur stdDeviation="13.193"/>
<feComposite in2="hardAlpha" operator="arithmetic" k2="-1" k3="1"/>
<feColorMatrix type="matrix" values="0 0 0 0 0 0 0 0 0 0 0 0 0 0 0 0 0 0 0.25 0"/>
<feBlend mode="normal" in2="shape" result="effect2_innerShadow_409_572"/>
</filter>
<filter id="filter2_f_409_572" x="368.088" y="91.87" width="4.59473" height="2.01001" filterUnits="userSpaceOnUse" color-interpolation-filters="sRGB">
<feFlood flood-opacity="0" result="BackgroundImageFix"/>
<feBlend mode="normal" in="SourceGraphic" in2="BackgroundImageFix" result="shape"/>
<feGaussianBlur stdDeviation="0.287171" result="effect1_foregroundBlur_409_572"/>
</filter>
<filter id="filter3_f_409_572" x="187.503" y="92.2018" width="3.93104" height="1.34633" filterUnits="userSpaceOnUse" color-interpolation-filters="sRGB">
<feFlood flood-opacity="0" result="BackgroundImageFix"/>
<feBlend mode="normal" in="SourceGraphic" in2="BackgroundImageFix" result="shape"/>
<feGaussianBlur stdDeviation="0.12125" result="effect1_foregroundBlur_409_572"/>
</filter>
<filter id="filter4_f_409_572" x="368.088" y="193.721" width="4.59473" height="2.01001" filterUnits="userSpaceOnUse" color-interpolation-filters="sRGB">
<feFlood flood-opacity="0" result="BackgroundImageFix"/>
<feBlend mode="normal" in="SourceGraphic" in2="BackgroundImageFix" result="shape"/>
<feGaussianBlur stdDeviation="0.287171" result="effect1_foregroundBlur_409_572"/>
</filter>
<filter id="filter5_f_409_572" x="187.171" y="193.721" width="4.59473" height="2.01001" filterUnits="userSpaceOnUse" color-interpolation-filters="sRGB">
<feFlood flood-opacity="0" result="BackgroundImageFix"/>
<feBlend mode="normal" in="SourceGraphic" in2="BackgroundImageFix" result="shape"/>
<feGaussianBlur stdDeviation="0.287171" result="effect1_foregroundBlur_409_572"/>
</filter>
<filter id="filter6_f_409_572" x="368.088" y="295.57" width="4.59473" height="2.01001" filterUnits="userSpaceOnUse" color-interpolation-filters="sRGB">
<feFlood flood-opacity="0" result="BackgroundImageFix"/>
<feBlend mode="normal" in="SourceGraphic" in2="BackgroundImageFix" result="shape"/>
<feGaussianBlur stdDeviation="0.287171" result="effect1_foregroundBlur_409_572"/>
</filter>
<filter id="filter7_f_409_572" x="187.171" y="295.57" width="4.59473" height="2.01001" filterUnits="userSpaceOnUse" color-interpolation-filters="sRGB">
<feFlood flood-opacity="0" result="BackgroundImageFix"/>
<feBlend mode="normal" in="SourceGraphic" in2="BackgroundImageFix" result="shape"/>
<feGaussianBlur stdDeviation="0.287171" result="effect1_foregroundBlur_409_572"/>
</filter>
<filter id="filter8_f_409_572" x="368.088" y="397.421" width="4.59473" height="2.01001" filterUnits="userSpaceOnUse" color-interpolation-filters="sRGB">
<feFlood flood-opacity="0" result="BackgroundImageFix"/>
<feBlend mode="normal" in="SourceGraphic" in2="BackgroundImageFix" result="shape"/>
<feGaussianBlur stdDeviation="0.287171" result="effect1_foregroundBlur_409_572"/>
</filter>
<filter id="filter9_f_409_572" x="187.171" y="397.421" width="4.59473" height="2.01001" filterUnits="userSpaceOnUse" color-interpolation-filters="sRGB">
<feFlood flood-opacity="0" result="BackgroundImageFix"/>
<feBlend mode="normal" in="SourceGraphic" in2="BackgroundImageFix" result="shape"/>
<feGaussianBlur stdDeviation="0.287171" result="effect1_foregroundBlur_409_572"/>
</filter>
<filter id="filter10_f_409_572" x="368.088" y="499.27" width="4.59473" height="2.01001" filterUnits="userSpaceOnUse" color-interpolation-filters="sRGB">
<feFlood flood-opacity="0" result="BackgroundImageFix"/>
<feBlend mode="normal" in="SourceGraphic" in2="BackgroundImageFix" result="shape"/>
<feGaussianBlur stdDeviation="0.287171" result="effect1_foregroundBlur_409_572"/>
</filter>
<filter id="filter11_f_409_572" x="187.171" y="499.27" width="4.59473" height="2.01001" filterUnits="userSpaceOnUse" color-interpolation-filters="sRGB">
<feFlood flood-opacity="0" result="BackgroundImageFix"/>
<feBlend mode="normal" in="SourceGraphic" in2="BackgroundImageFix" result="shape"/>
<feGaussianBlur stdDeviation="0.287171" result="effect1_foregroundBlur_409_572"/>
</filter>
<filter id="filter12_ii_409_572" x="119.725" y="119.476" width="354.05" height="354.05" filterUnits="userSpaceOnUse" color-interpolation-filters="sRGB">
<feFlood flood-opacity="0" result="BackgroundImageFix"/>
<feBlend mode="normal" in="SourceGraphic" in2="BackgroundImageFix" result="shape"/>
<feColorMatrix in="SourceAlpha" type="matrix" values="0 0 0 0 0 0 0 0 0 0 0 0 0 0 0 0 0 0 127 0" result="hardAlpha"/>
<feOffset/>
<feGaussianBlur stdDeviation="4.85"/>
<feComposite in2="hardAlpha" operator="arithmetic" k2="-1" k3="1"/>
<feColorMatrix type="matrix" values="0 0 0 0 0.220833 0 0 0 0 1 0 0 0 0 0.495236 0 0 0 0.14 0"/>
<feBlend mode="normal" in2="shape" result="effect1_innerShadow_409_572"/>
<feColorMatrix in="SourceAlpha" type="matrix" values="0 0 0 0 0 0 0 0 0 0 0 0 0 0 0 0 0 0 127 0" result="hardAlpha"/>
<feOffset/>
<feGaussianBlur stdDeviation="12.125"/>
<feComposite in2="hardAlpha" operator="arithmetic" k2="-1" k3="1"/>
<feColorMatrix type="matrix" values="0 0 0 0 0.4375 0 0 0 0 1 0 0 0 0 0.635598 0 0 0 0.05 0"/>
<feBlend mode="normal" in2="effect1_innerShadow_409_572" result="effect2_innerShadow_409_572"/>
</filter>
<filter id="filter13_ddddd_409_572" x="-1261.2" y="-821.889" width="3115.9" height="2807.27" filterUnits="userSpaceOnUse" color-interpolation-filters="sRGB">
<feFlood flood-opacity="0" result="BackgroundImageFix"/>
<feColorMatrix in="SourceAlpha" type="matrix" values="0 0 0 0 0 0 0 0 0 0 0 0 0 0 0 0 0 0 127 0" result="hardAlpha"/>
<feOffset/>
<feGaussianBlur stdDeviation="32.7375"/>
<feColorMatrix type="matrix" values="0 0 0 0 0.219608 0 0 0 0 1 0 0 0 0 0.494118 0 0 0 1 0"/>
<feBlend mode="normal" in2="BackgroundImageFix" result="effect1_dropShadow_409_572"/>
<feColorMatrix in="SourceAlpha" type="matrix" values="0 0 0 0 0 0 0 0 0 0 0 0 0 0 0 0 0 0 127 0" result="hardAlpha"/>
<feOffset/>
<feGaussianBlur stdDeviation="114.581"/>
<feColorMatrix type="matrix" values="0 0 0 0 0.219608 0 0 0 0 1 0 0 0 0 0.494118 0 0 0 1 0"/>
<feBlend mode="normal" in2="effect1_dropShadow_409_572" result="effect2_dropShadow_409_572"/>
<feColorMatrix in="SourceAlpha" type="matrix" values="0 0 0 0 0 0 0 0 0 0 0 0 0 0 0 0 0 0 127 0" result="hardAlpha"/>
<feOffset/>
<feGaussianBlur stdDeviation="229.162"/>
<feColorMatrix type="matrix" values="0 0 0 0 0.219608 0 0 0 0 1 0 0 0 0 0.494118 0 0 0 1 0"/>
<feBlend mode="normal" in2="effect2_dropShadow_409_572" result="effect3_dropShadow_409_572"/>
<feColorMatrix in="SourceAlpha" type="matrix" values="0 0 0 0 0 0 0 0 0 0 0 0 0 0 0 0 0 0 127 0" result="hardAlpha"/>
<feOffset/>
<feGaussianBlur stdDeviation="392.85"/>
<feColorMatrix type="matrix" values="0 0 0 0 0.219608 0 0 0 0 1 0 0 0 0 0.494118 0 0 0 1 0"/>
<feBlend mode="normal" in2="effect3_dropShadow_409_572" result="effect4_dropShadow_409_572"/>
<feColorMatrix in="SourceAlpha" type="matrix" values="0 0 0 0 0 0 0 0 0 0 0 0 0 0 0 0 0 0 127 0" result="hardAlpha"/>
<feOffset/>
<feGaussianBlur stdDeviation="687.487"/>
<feColorMatrix type="matrix" values="0 0 0 0 0.219608 0 0 0 0 1 0 0 0 0 0.494118 0 0 0 1 0"/>
<feBlend mode="normal" in2="effect4_dropShadow_409_572" result="effect5_dropShadow_409_572"/>
<feBlend mode="normal" in="SourceGraphic" in2="effect5_dropShadow_409_572" result="shape"/>
</filter>
<filter id="filter14_dddddd_409_572" x="-430.294" y="-95.109" width="1454.09" height="1310.06" filterUnits="userSpaceOnUse" color-interpolation-filters="sRGB">
<feFlood flood-opacity="0" result="BackgroundImageFix"/>
<feColorMatrix in="SourceAlpha" type="matrix" values="0 0 0 0 0 0 0 0 0 0 0 0 0 0 0 0 0 0 127 0" result="hardAlpha"/>
<feOffset/>
<feGaussianBlur stdDeviation="15.2775"/>
<feColorMatrix type="matrix" values="0 0 0 0 0.219608 0 0 0 0 1 0 0 0 0 0.494118 0 0 0 1 0"/>
<feBlend mode="normal" in2="BackgroundImageFix" result="effect1_dropShadow_409_572"/>
<feColorMatrix in="SourceAlpha" type="matrix" values="0 0 0 0 0 0 0 0 0 0 0 0 0 0 0 0 0 0 127 0" result="hardAlpha"/>
<feOffset/>
<feGaussianBlur stdDeviation="15.2775"/>
<feColorMatrix type="matrix" values="0 0 0 0 0.219608 0 0 0 0 1 0 0 0 0 0.494118 0 0 0 1 0"/>
<feBlend mode="normal" in2="effect1_dropShadow_409_572" result="effect2_dropShadow_409_572"/>
<feColorMatrix in="SourceAlpha" type="matrix" values="0 0 0 0 0 0 0 0 0 0 0 0 0 0 0 0 0 0 127 0" result="hardAlpha"/>
<feOffset/>
<feGaussianBlur stdDeviation="53.4712"/>
<feColorMatrix type="matrix" values="0 0 0 0 0.219608 0 0 0 0 1 0 0 0 0 0.494118 0 0 0 1 0"/>
<feBlend mode="normal" in2="effect2_dropShadow_409_572" result="effect3_dropShadow_409_572"/>
<feColorMatrix in="SourceAlpha" type="matrix" values="0 0 0 0 0 0 0 0 0 0 0 0 0 0 0 0 0 0 127 0" result="hardAlpha"/>
<feOffset/>
<feGaussianBlur stdDeviation="106.942"/>
<feColorMatrix type="matrix" values="0 0 0 0 0.219608 0 0 0 0 1 0 0 0 0 0.494118 0 0 0 1 0"/>
<feBlend mode="normal" in2="effect3_dropShadow_409_572" result="effect4_dropShadow_409_572"/>
<feColorMatrix in="SourceAlpha" type="matrix" values="0 0 0 0 0 0 0 0 0 0 0 0 0 0 0 0 0 0 127 0" result="hardAlpha"/>
<feOffset/>
<feGaussianBlur stdDeviation="183.33"/>
<feColorMatrix type="matrix" values="0 0 0 0 0.219608 0 0 0 0 1 0 0 0 0 0.494118 0 0 0 1 0"/>
<feBlend mode="normal" in2="effect4_dropShadow_409_572" result="effect5_dropShadow_409_572"/>
<feColorMatrix in="SourceAlpha" type="matrix" values="0 0 0 0 0 0 0 0 0 0 0 0 0 0 0 0 0 0 127 0" result="hardAlpha"/>
<feOffset/>
<feGaussianBlur stdDeviation="320.827"/>
<feColorMatrix type="matrix" values="0 0 0 0 0.219608 0 0 0 0 1 0 0 0 0 0.494118 0 0 0 1 0"/>
<feBlend mode="normal" in2="effect5_dropShadow_409_572" result="effect6_dropShadow_409_572"/>
<feBlend mode="normal" in="SourceGraphic" in2="effect6_dropShadow_409_572" result="shape"/>
</filter>
<filter id="filter15_ddddd_409_572" x="-1261.2" y="-1428.14" width="3115.9" height="2807.27" filterUnits="userSpaceOnUse" color-interpolation-filters="sRGB">
<feFlood flood-opacity="0" result="BackgroundImageFix"/>
<feColorMatrix in="SourceAlpha" type="matrix" values="0 0 0 0 0 0 0 0 0 0 0 0 0 0 0 0 0 0 127 0" result="hardAlpha"/>
<feOffset/>
<feGaussianBlur stdDeviation="32.7375"/>
<feColorMatrix type="matrix" values="0 0 0 0 0.219608 0 0 0 0 1 0 0 0 0 0.494118 0 0 0 1 0"/>
<feBlend mode="normal" in2="BackgroundImageFix" result="effect1_dropShadow_409_572"/>
<feColorMatrix in="SourceAlpha" type="matrix" values="0 0 0 0 0 0 0 0 0 0 0 0 0 0 0 0 0 0 127 0" result="hardAlpha"/>
<feOffset/>
<feGaussianBlur stdDeviation="114.581"/>
<feColorMatrix type="matrix" values="0 0 0 0 0.219608 0 0 0 0 1 0 0 0 0 0.494118 0 0 0 1 0"/>
<feBlend mode="normal" in2="effect1_dropShadow_409_572" result="effect2_dropShadow_409_572"/>
<feColorMatrix in="SourceAlpha" type="matrix" values="0 0 0 0 0 0 0 0 0 0 0 0 0 0 0 0 0 0 127 0" result="hardAlpha"/>
<feOffset/>
<feGaussianBlur stdDeviation="229.162"/>
<feColorMatrix type="matrix" values="0 0 0 0 0.219608 0 0 0 0 1 0 0 0 0 0.494118 0 0 0 1 0"/>
<feBlend mode="normal" in2="effect2_dropShadow_409_572" result="effect3_dropShadow_409_572"/>
<feColorMatrix in="SourceAlpha" type="matrix" values="0 0 0 0 0 0 0 0 0 0 0 0 0 0 0 0 0 0 127 0" result="hardAlpha"/>
<feOffset/>
<feGaussianBlur stdDeviation="392.85"/>
<feColorMatrix type="matrix" values="0 0 0 0 0.219608 0 0 0 0 1 0 0 0 0 0.494118 0 0 0 1 0"/>
<feBlend mode="normal" in2="effect3_dropShadow_409_572" result="effect4_dropShadow_409_572"/>
<feColorMatrix in="SourceAlpha" type="matrix" values="0 0 0 0 0 0 0 0 0 0 0 0 0 0 0 0 0 0 127 0" result="hardAlpha"/>
<feOffset/>
<feGaussianBlur stdDeviation="687.487"/>
<feColorMatrix type="matrix" values="0 0 0 0 0.219608 0 0 0 0 1 0 0 0 0 0.494118 0 0 0 1 0"/>
<feBlend mode="normal" in2="effect4_dropShadow_409_572" result="effect5_dropShadow_409_572"/>
<feBlend mode="normal" in="SourceGraphic" in2="effect5_dropShadow_409_572" result="shape"/>
</filter>
<filter id="filter16_dddd_409_572" x="-14.6202" y="-308.295" width="622.74" height="622.74" filterUnits="userSpaceOnUse" color-interpolation-filters="sRGB">
<feFlood flood-opacity="0" result="BackgroundImageFix"/>
<feColorMatrix in="SourceAlpha" type="matrix" values="0 0 0 0 0 0 0 0 0 0 0 0 0 0 0 0 0 0 127 0" result="hardAlpha"/>
<feOffset/>
<feGaussianBlur stdDeviation="22.9163"/>
<feColorMatrix type="matrix" values="0 0 0 0 0.219608 0 0 0 0 1 0 0 0 0 0.494118 0 0 0 1 0"/>
<feBlend mode="normal" in2="BackgroundImageFix" result="effect1_dropShadow_409_572"/>
<feColorMatrix in="SourceAlpha" type="matrix" values="0 0 0 0 0 0 0 0 0 0 0 0 0 0 0 0 0 0 127 0" result="hardAlpha"/>
<feOffset/>
<feGaussianBlur stdDeviation="45.8325"/>
<feColorMatrix type="matrix" values="0 0 0 0 0.219608 0 0 0 0 1 0 0 0 0 0.494118 0 0 0 1 0"/>
<feBlend mode="normal" in2="effect1_dropShadow_409_572" result="effect2_dropShadow_409_572"/>
<feColorMatrix in="SourceAlpha" type="matrix" values="0 0 0 0 0 0 0 0 0 0 0 0 0 0 0 0 0 0 127 0" result="hardAlpha"/>
<feOffset/>
<feGaussianBlur stdDeviation="78.57"/>
<feColorMatrix type="matrix" values="0 0 0 0 0.219608 0 0 0 0 1 0 0 0 0 0.494118 0 0 0 1 0"/>
<feBlend mode="normal" in2="effect2_dropShadow_409_572" result="effect3_dropShadow_409_572"/>
<feColorMatrix in="SourceAlpha" type="matrix" values="0 0 0 0 0 0 0 0 0 0 0 0 0 0 0 0 0 0 127 0" result="hardAlpha"/>
<feOffset/>
<feGaussianBlur stdDeviation="137.497"/>
<feColorMatrix type="matrix" values="0 0 0 0 0.219608 0 0 0 0 1 0 0 0 0 0.494118 0 0 0 1 0"/>
<feBlend mode="normal" in2="effect3_dropShadow_409_572" result="effect4_dropShadow_409_572"/>
<feBlend mode="normal" in="SourceGraphic" in2="effect4_dropShadow_409_572" result="shape"/>
</filter>
<linearGradient id="paint0_linear_409_572" x1="296.75" y1="54" x2="296.75" y2="539" gradientUnits="userSpaceOnUse">
<stop/>
<stop offset="0.142121" stop-color="#030905"/>
<stop offset="0.410163" stop-color="#030A06"/>
<stop offset="0.597597" stop-color="#030905"/>
<stop offset="1" stop-color="#030905"/>
</linearGradient>
<linearGradient id="paint1_linear_409_572" x1="296.75" y1="126.751" x2="296.75" y2="466.251" gradientUnits="userSpaceOnUse">
<stop stop-color="#010302"/>
<stop offset="1" stop-color="#010302" stop-opacity="0.0156863"/>
</linearGradient>
<linearGradient id="paint2_linear_409_572" x1="296.75" y1="126.751" x2="296.75" y2="466.251" gradientUnits="userSpaceOnUse">
<stop stop-color="#082312"/>
<stop offset="0.0676295" stop-color="#05150B" stop-opacity="0.961447"/>
<stop offset="0.937913" stop-color="#05150B" stop-opacity="0.465333"/>
<stop offset="0.971572" stop-color="#092713" stop-opacity="0.626275"/>
<stop offset="1" stop-color="#0F5F2B" stop-opacity="0.762205"/>
</linearGradient>
<linearGradient id="paint3_linear_409_572" x1="296.75" y1="554.188" x2="296.75" y2="609.302" gradientUnits="userSpaceOnUse">
<stop stop-color="#072110"/>
<stop offset="0.447324" stop-color="#072110"/>
<stop offset="0.731766" stop-color="#021609"/>
<stop offset="1" stop-color="#010D05"/>
</linearGradient>
<linearGradient id="paint4_linear_409_572" x1="296.75" y1="547.061" x2="296.75" y2="572.78" gradientUnits="userSpaceOnUse">
<stop stop-color="#072110"/>
<stop offset="0.447324" stop-color="#072110"/>
<stop offset="0.731766" stop-color="#021609"/>
<stop offset="1" stop-color="#010D05"/>
</linearGradient>
<linearGradient id="paint5_linear_409_572" x1="296.75" y1="-52.0625" x2="296.75" y2="3.05114" gradientUnits="userSpaceOnUse">
<stop stop-color="#072110"/>
<stop offset="0.447324" stop-color="#072110"/>
<stop offset="0.731766" stop-color="#021609"/>
<stop offset="1" stop-color="#010D05"/>
</linearGradient>
<linearGradient id="paint6_linear_409_572" x1="296.75" y1="54" x2="296.75" y2="539" gradientUnits="userSpaceOnUse">
<stop stop-color="#244A32"/>
<stop offset="0.0319355" stop-color="#172F21"/>
<stop offset="0.974252" stop-color="#172F21"/>
<stop offset="1" stop-color="#244A32"/>
</linearGradient>
<clipPath id="clip0_409_572">
<rect x="54.2499" y="54" width="485" height="485" rx="33.95" fill="white"/>
</clipPath>
<clipPath id="clip1_409_572">
<rect width="313" height="194" fill="white" transform="translate(140.25 199.501)"/>
</clipPath>
<clipPath id="clip2_409_572">
<rect width="313" height="194" fill="white" transform="translate(140.06 199.176)"/>
</clipPath>
<clipPath id="clip3_409_572">
<rect width="312.346" height="193.344" fill="white" transform="translate(140.387 199.504)"/>
</clipPath>
<clipPath id="clip4_409_572">
<rect width="312.346" height="193.344" fill="white" transform="translate(140.387 199.504)"/>
</clipPath>
<clipPath id="clip5_409_572">
<rect width="310.792" height="55.5059" fill="white" transform="translate(141.164 337.343)"/>
</clipPath>
<clipPath id="clip6_409_572">
<rect width="310.792" height="55.5059" fill="white" transform="translate(141.164 337.343)"/>
</clipPath>
<clipPath id="clip7_409_572">
<rect width="310.792" height="55.5059" fill="white" transform="translate(141.164 337.343)"/>
</clipPath>
<clipPath id="clip8_409_572">
<rect width="310.792" height="55.5059" fill="white" transform="translate(141.164 337.343)"/>
</clipPath>
<clipPath id="clip9_409_572">
<rect width="69.9308" height="106.626" fill="white" transform="translate(261.595 199.504)"/>
</clipPath>
<clipPath id="clip10_409_572">
<rect width="57.3583" height="106.626" fill="white" transform="translate(267.881 199.504)"/>
</clipPath>
</defs>
</svg>
