<svg width="605" height="142" viewBox="0 0 605 142" fill="none" xmlns="http://www.w3.org/2000/svg">
<g clip-path="url(#clip0_1_1967)">
<g clip-path="url(#clip1_1_1967)">
<g clip-path="url(#clip2_1_1967)">
<g clip-path="url(#clip3_1_1967)">
<g clip-path="url(#clip4_1_1967)">
<g clip-path="url(#clip5_1_1967)">
<g clip-path="url(#clip6_1_1967)">
<g clip-path="url(#clip7_1_1967)">
<g clip-path="url(#clip8_1_1967)">
<path d="M18.982 114.546C6.70428 114.546 0.56543 105.759 0.56543 88.1857V51.1257C0.56543 35.0724 7.59744 27.0457 21.6615 27.0457C27.4604 27.0457 31.8995 28.2124 34.979 30.5457C38.0717 32.8657 40.2047 36.259 41.3778 40.7257C42.5509 45.179 43.1374 50.6124 43.1374 57.0257H26.3406V49.4057C26.3406 47.5524 26.0873 45.9991 25.5807 44.7457C25.0875 43.4924 24.041 42.8657 22.4413 42.8657C20.455 42.8657 19.1419 43.5324 18.5021 44.8657C17.8755 46.199 17.5622 47.6657 17.5622 49.2657V90.9057C17.5622 93.2257 17.8622 95.1057 18.4621 96.5457C19.062 97.999 20.2417 98.7257 22.0014 98.7257C23.8277 98.7257 25.0408 97.999 25.6407 96.5457C26.2406 95.1057 26.5406 93.1991 26.5406 90.8257V78.5657H21.9614V63.7257H42.9375V113.766H36.0588L33.1393 106.546C30.1399 111.879 25.4208 114.546 18.982 114.546ZM67.2129 113.766H49.4363V40.5257H67.2129V48.6857C68.0527 45.8457 69.5458 43.6324 71.6921 42.0457C73.8383 40.4457 76.5378 39.6457 79.7906 39.6457V54.2457C78.3642 54.2457 76.6578 54.399 74.6715 54.7057C72.6852 55.0124 70.9455 55.4391 69.4525 55.9857C67.9594 56.5191 67.2129 57.1124 67.2129 57.7657V113.766ZM104.586 114.546C99.3869 114.546 95.241 113.572 92.1482 111.626C89.0555 109.666 86.8426 106.846 85.5095 103.166C84.1764 99.4857 83.5098 95.0591 83.5098 89.8857V60.4457C83.5098 53.6457 85.4628 48.4924 89.3688 44.9857C93.2747 41.4924 98.6403 39.7457 105.466 39.7457C119.53 39.7457 126.562 46.6457 126.562 60.4457V65.7657C126.562 72.2057 126.495 76.5391 126.362 78.7657H100.987V92.9257C100.987 94.2191 101.067 95.4924 101.227 96.7457C101.386 97.999 101.753 99.0324 102.326 99.8457C102.9 100.659 103.819 101.066 105.086 101.066C106.912 101.066 108.052 100.279 108.505 98.7057C108.958 97.119 109.185 95.0591 109.185 92.5257V85.4857H126.562V89.6457C126.562 95.1124 125.889 99.6924 124.542 103.386C123.182 107.079 120.903 109.866 117.703 111.746C114.491 113.612 110.118 114.546 104.586 114.546ZM100.887 60.2057V70.0657H109.185V60.2057C109.185 57.5657 108.858 55.6657 108.205 54.5057C107.552 53.3591 106.579 52.7857 105.286 52.7857C103.886 52.7857 102.8 53.3391 102.026 54.4457C101.267 55.5524 100.887 57.4724 100.887 60.2057ZM153.417 114.546C148.204 114.546 144.052 113.572 140.959 111.626C137.866 109.666 135.653 106.846 134.32 103.166C132.987 99.4857 132.321 95.0591 132.321 89.8857V60.4457C132.321 53.6457 134.274 48.4924 138.18 44.9857C142.086 41.4924 147.451 39.7457 154.277 39.7457C168.341 39.7457 175.373 46.6457 175.373 60.4457V65.7657C175.373 72.2057 175.306 76.5391 175.173 78.7657H149.797V92.9257C149.797 94.2191 149.877 95.4924 150.037 96.7457C150.197 97.999 150.564 99.0324 151.137 99.8457C151.71 100.659 152.63 101.066 153.897 101.066C155.723 101.066 156.863 100.279 157.316 98.7057C157.769 97.119 157.996 95.0591 157.996 92.5257V85.4857H175.373V89.6457C175.373 95.1124 174.699 99.6924 173.353 103.386C172.007 107.079 169.727 109.866 166.514 111.746C163.315 113.612 158.949 114.546 153.417 114.546ZM149.697 60.2057V70.0657H157.996V60.2057C157.996 57.5657 157.669 55.6657 157.016 54.5057C156.363 53.3591 155.39 52.7857 154.097 52.7857C152.697 52.7857 151.61 53.3391 150.837 54.4457C150.077 55.5524 149.697 57.4724 149.697 60.2057ZM199.188 113.766H181.711V40.5257H199.188V49.8457C199.841 47.0457 201.054 44.6657 202.827 42.7057C204.6 40.7324 207.067 39.7457 210.226 39.7457C215.305 39.7457 218.991 41.3057 221.284 44.4257C223.577 47.5591 224.723 51.8391 224.723 57.2657V113.766H207.487V59.0857C207.487 57.6457 207.193 56.319 206.607 55.1057C206.02 53.879 205.014 53.2657 203.587 53.2657C202.254 53.2657 201.268 53.7324 200.628 54.6657C200.001 55.5857 199.608 56.739 199.448 58.1257C199.275 59.5124 199.188 60.8857 199.188 62.2457V113.766Z" fill="#FFFAFE"/>
</g>
<g clip-path="url(#clip9_1_1967)">
<path d="M329.742 83.7673H325.443C320.795 83.9323 316.23 85.0427 312.025 87.0307C307.82 89.0188 304.065 91.8428 300.987 95.3305V66.719C306.858 66.166 312.313 63.445 316.287 59.0869C320.26 54.7287 322.468 49.0461 322.479 43.1478V28.3232C322.479 26.3574 321.698 24.472 320.308 23.0819C318.918 21.6919 317.033 20.9109 315.068 20.9109H312.845V4.45562C312.845 3.2761 312.376 2.14489 311.542 1.31085C310.708 0.476802 309.577 0.00823975 308.398 0.00823975C307.219 0.00823975 306.088 0.476802 305.254 1.31085C304.42 2.14489 303.952 3.2761 303.952 4.45562V20.9109H289.13V4.45562C289.13 3.2761 288.661 2.14489 287.827 1.31085C286.994 0.476802 285.863 0.00823975 284.683 0.00823975C283.504 0.00823975 282.373 0.476802 281.539 1.31085C280.705 2.14489 280.237 3.2761 280.237 4.45562V20.9109H278.162C276.196 20.9109 274.311 21.6919 272.921 23.0819C271.532 24.472 270.751 26.3574 270.751 28.3232V43.1478C270.758 49.0229 272.945 54.6862 276.888 59.0408C280.831 63.3954 286.25 66.1315 292.094 66.719V74.2795C289.011 70.5914 285.188 67.5909 280.874 65.4715C276.559 63.3522 271.848 62.1611 267.045 61.9751H262.747C262.141 61.9636 261.54 62.076 260.979 62.3054C260.418 62.5348 259.91 62.8765 259.486 63.3093C259.053 63.7334 258.712 64.2414 258.482 64.8022C258.253 65.3631 258.141 65.9649 258.152 66.5707V70.7216C258.521 79.4612 262.177 87.7387 268.389 93.8964C274.601 100.054 282.909 103.637 291.649 103.929H292.242V137.136C292.242 138.315 292.711 139.447 293.545 140.281C294.379 141.115 295.51 141.583 296.689 141.583C297.868 141.583 298.999 141.115 299.833 140.281C300.667 139.447 301.135 138.315 301.135 137.136V125.721C309.798 125.321 317.996 121.689 324.115 115.543C330.233 109.396 333.827 101.18 334.188 92.5138V88.3629C334.209 87.7538 334.104 87.147 333.88 86.5801C333.657 86.0132 333.319 85.4983 332.888 85.0673C332.457 84.6364 331.943 84.2986 331.376 84.075C330.809 83.8513 330.202 83.7466 329.593 83.7673H329.742ZM267.342 71.0181C273.573 71.435 279.441 74.099 283.857 78.5157C288.273 82.9324 290.936 88.8017 291.353 95.034C285.122 94.6171 279.254 91.9531 274.838 87.5364C270.422 83.1196 267.758 77.2504 267.342 71.0181ZM279.644 43.1478V29.8057H313.734V43.1478C313.734 47.0796 312.172 50.8503 309.393 53.6304C306.613 56.4106 302.843 57.9725 298.912 57.9725H294.466C290.535 57.9725 286.765 56.4106 283.985 53.6304C281.205 50.8503 279.644 47.0796 279.644 43.1478ZM301.135 116.826C301.521 110.583 304.175 104.696 308.597 100.273C313.019 95.8502 318.905 93.1961 325.147 92.8103C324.761 99.0534 322.107 104.94 317.685 109.363C313.263 113.786 307.377 116.44 301.135 116.826Z" fill="#FFFAFE"/>
</g>
<g clip-path="url(#clip10_1_1967)">
<path d="M389.781 114.546C381.942 114.546 376.29 112.592 372.824 108.686C369.358 104.779 367.625 98.5591 367.625 90.0257V81.6457H384.602V92.3857C384.602 94.3724 384.902 95.9257 385.502 97.0457C386.102 98.1657 387.155 98.7257 388.661 98.7257C390.221 98.7257 391.301 98.2724 391.9 97.3657C392.5 96.4457 392.8 94.9457 392.8 92.8657C392.8 90.2257 392.54 88.0191 392.02 86.2457C391.501 84.4724 390.601 82.7791 389.321 81.1657C388.028 79.5657 386.242 77.6857 383.962 75.5257L376.263 68.2057C370.504 62.7657 367.625 56.5524 367.625 49.5657C367.625 42.2324 369.325 36.6457 372.724 32.8057C376.123 28.9657 381.042 27.0457 387.481 27.0457C395.36 27.0457 400.952 29.1457 404.258 33.3457C407.564 37.5457 409.217 43.9257 409.217 52.4857H391.74V46.5857C391.74 45.4124 391.407 44.4991 390.741 43.8457C390.061 43.1924 389.154 42.8657 388.021 42.8657C386.661 42.8657 385.662 43.2457 385.022 44.0057C384.382 44.779 384.062 45.7657 384.062 46.9657C384.062 48.1657 384.389 49.4657 385.042 50.8657C385.695 52.2657 386.981 53.879 388.901 55.7057L398.819 65.2257C400.805 67.119 402.625 69.1124 404.278 71.2057C405.944 73.3124 407.278 75.759 408.277 78.5457C409.291 81.319 409.797 84.7124 409.797 88.7257C409.797 96.7924 408.311 103.112 405.338 107.686C402.352 112.259 397.166 114.546 389.781 114.546ZM435.712 114.546C430.5 114.546 426.347 113.572 423.255 111.626C420.175 109.666 417.962 106.846 416.616 103.166C415.283 99.4857 414.616 95.0591 414.616 89.8857V60.4457C414.616 53.6457 416.569 48.4924 420.475 44.9857C424.381 41.4924 429.753 39.7457 436.592 39.7457C450.656 39.7457 457.688 46.6457 457.688 60.4457V65.7657C457.688 72.2057 457.621 76.5391 457.488 78.7657H432.093V92.9257C432.093 94.2191 432.18 95.4924 432.353 96.7457C432.513 97.999 432.879 99.0324 433.453 99.8457C434.013 100.659 434.926 101.066 436.192 101.066C438.018 101.066 439.158 100.279 439.611 98.7057C440.078 97.119 440.311 95.0591 440.311 92.5257V85.4857H457.688V89.6457C457.688 95.1124 457.008 99.6924 455.648 103.386C454.302 107.079 452.029 109.866 448.83 111.746C445.617 113.612 441.245 114.546 435.712 114.546ZM432.013 60.2057V70.0657H440.311V60.2057C440.311 57.5657 439.985 55.6657 439.332 54.5057C438.678 53.3591 437.699 52.7857 436.392 52.7857C434.992 52.7857 433.913 53.3391 433.153 54.4457C432.393 55.5524 432.013 57.4724 432.013 60.2057ZM481.504 113.766H464.027V40.5257H481.504V49.8457C482.157 47.0457 483.37 44.6657 485.143 42.7057C486.916 40.7324 489.382 39.7457 492.542 39.7457C497.607 39.7457 501.293 41.3057 503.599 44.4257C505.892 47.5591 507.039 51.8391 507.039 57.2657V113.766H489.802V59.0857C489.802 57.6457 489.509 56.319 488.922 55.1057C488.336 53.879 487.329 53.2657 485.903 53.2657C484.556 53.2657 483.57 53.7324 482.943 54.6657C482.303 55.5857 481.904 56.739 481.744 58.1257C481.584 59.5124 481.504 60.8857 481.504 62.2457V113.766ZM533.934 114.546C519.483 114.546 512.258 107.219 512.258 92.5657V86.7657H529.835V95.3657C529.835 97.0191 530.154 98.3191 530.794 99.2657C531.448 100.212 532.494 100.686 533.934 100.686C536.467 100.686 537.733 98.779 537.733 94.9657C537.733 91.779 537.066 89.3924 535.733 87.8057C534.4 86.2324 532.774 84.7124 530.854 83.2457L521.536 76.0657C518.603 73.7857 516.37 71.3791 514.837 68.8457C513.304 66.2991 512.538 62.7657 512.538 58.2457C512.538 54.0457 513.538 50.5791 515.537 47.8457C517.55 45.1124 520.203 43.0791 523.496 41.7457C526.802 40.4124 530.374 39.7457 534.214 39.7457C548.411 39.7457 555.51 46.8257 555.51 60.9857V62.3457H537.433V59.5657C537.433 58.099 537.186 56.6857 536.693 55.3257C536.187 53.9524 535.2 53.2657 533.734 53.2657C531.254 53.2657 530.014 54.5657 530.014 57.1657C530.014 59.8057 531.061 61.8724 533.154 63.3657L543.992 71.2857C547.365 73.7257 550.204 76.6257 552.51 79.9857C554.803 83.3324 555.95 87.7857 555.95 93.3457C555.95 100.252 553.99 105.512 550.071 109.126C546.138 112.739 540.759 114.546 533.934 114.546ZM581.805 114.546C576.606 114.546 572.46 113.572 569.367 111.626C566.274 109.666 564.061 106.846 562.728 103.166C561.395 99.4857 560.729 95.0591 560.729 89.8857V60.4457C560.729 53.6457 562.682 48.4924 566.588 44.9857C570.494 41.4924 575.859 39.7457 582.685 39.7457C596.749 39.7457 603.781 46.6457 603.781 60.4457V65.7657C603.781 72.2057 603.714 76.5391 603.581 78.7657H578.205V92.9257C578.205 94.2191 578.285 95.4924 578.445 96.7457C578.605 97.999 578.972 99.0324 579.545 99.8457C580.118 100.659 581.038 101.066 582.305 101.066C584.131 101.066 585.271 100.279 585.724 98.7057C586.177 97.119 586.404 95.0591 586.404 92.5257V85.4857H603.781V89.6457C603.781 95.1124 603.107 99.6924 601.761 103.386C600.401 107.079 598.122 109.866 594.922 111.746C591.71 113.612 587.337 114.546 581.805 114.546ZM578.105 60.2057V70.0657H586.404V60.2057C586.404 57.5657 586.077 55.6657 585.424 54.5057C584.771 53.3591 583.798 52.7857 582.505 52.7857C581.105 52.7857 580.018 53.3391 579.245 54.4457C578.485 55.5524 578.105 57.4724 578.105 60.2057Z" fill="#FFFAFE"/>
</g>
</g>
</g>
</g>
</g>
</g>
</g>
</g>
</g>
<defs>
<clipPath id="clip0_1_1967">
<rect width="605" height="142" fill="white"/>
</clipPath>
<clipPath id="clip1_1_1967">
<rect width="605" height="142" fill="white" transform="translate(-0.324219 -0.204285)"/>
</clipPath>
<clipPath id="clip2_1_1967">
<rect width="603.24" height="141.575" fill="white" transform="translate(0.555664 0.00823975)"/>
</clipPath>
<clipPath id="clip3_1_1967">
<rect width="603.24" height="141.575" fill="white" transform="translate(0.555664 0.00823975)"/>
</clipPath>
<clipPath id="clip4_1_1967">
<rect width="603.24" height="141.575" fill="white" transform="translate(0.555664 0.00823975)"/>
</clipPath>
<clipPath id="clip5_1_1967">
<rect width="603.24" height="141.575" fill="white" transform="translate(0.555664 0.00823975)"/>
</clipPath>
<clipPath id="clip6_1_1967">
<rect width="603.24" height="141.575" fill="white" transform="translate(0.555664 0.00823975)"/>
</clipPath>
<clipPath id="clip7_1_1967">
<rect width="603.24" height="141.575" fill="white" transform="translate(0.555664 0.00823975)"/>
</clipPath>
<clipPath id="clip8_1_1967">
<rect width="224.177" height="87.5" fill="white" transform="translate(0.555664 27.0457)"/>
</clipPath>
<clipPath id="clip9_1_1967">
<rect width="76.0393" height="141.575" fill="white" transform="translate(258.151 0.00823975)"/>
</clipPath>
<clipPath id="clip10_1_1967">
<rect width="236.186" height="87.5" fill="white" transform="translate(367.609 27.0457)"/>
</clipPath>
</defs>
</svg>
