<svg width="48" height="34" viewBox="0 0 48 34" fill="none" xmlns="http://www.w3.org/2000/svg">
<path d="M42 0H6C4.4087 0 2.88257 0.622975 1.75735 1.73189C0.632136 2.8408 0 4.34481 0 5.91304V28.087C0 29.6552 0.632136 31.1592 1.75735 32.2681C2.88257 33.377 4.4087 34 6 34H42C43.5913 34 45.1174 33.377 46.2426 32.2681C47.3679 31.1592 48 29.6552 48 28.087V5.91304C48 4.34481 47.3679 2.8408 46.2426 1.73189C45.1174 0.622975 43.5913 0 42 0ZM14.55 21.7452L8.55 27.6582C8.2574 27.857 7.90272 27.9469 7.54914 27.9119C7.19556 27.877 6.86604 27.7195 6.61931 27.4675C6.37258 27.2154 6.22466 26.8852 6.2019 26.5357C6.17913 26.1863 6.283 25.8402 6.495 25.5591L12.495 19.6461C12.776 19.3708 13.1562 19.2162 13.5525 19.2162C13.9488 19.2162 14.329 19.3708 14.61 19.6461C14.7467 19.7874 14.8537 19.9539 14.9248 20.1362C14.9958 20.3185 15.0295 20.5128 15.0239 20.708C15.0184 20.9031 14.9736 21.0953 14.8923 21.2733C14.8109 21.4514 14.6946 21.6117 14.55 21.7452ZM24 23.6522C23.6495 23.6528 23.3099 23.5325 23.04 23.3122L6.54 10.0078C6.37416 9.88931 6.23469 9.73858 6.13021 9.56494C6.02573 9.39129 5.95846 9.19839 5.93253 8.99814C5.90659 8.79788 5.92257 8.59451 5.97945 8.40057C6.03632 8.20663 6.13288 8.02624 6.26321 7.87049C6.39355 7.71475 6.55486 7.58697 6.73723 7.49502C6.91959 7.40307 7.11914 7.3489 7.32355 7.33586C7.52797 7.32282 7.73294 7.35117 7.92581 7.41918C8.11868 7.4872 8.29539 7.59343 8.44501 7.73132L24 20.2669L39.495 7.73132C39.6475 7.60769 39.8233 7.51496 40.0122 7.45843C40.2012 7.40191 40.3996 7.38268 40.5961 7.40191C40.7926 7.42113 40.9833 7.47841 41.1573 7.57045C41.3313 7.66249 41.4852 7.78749 41.61 7.93825C41.8587 8.24092 41.9761 8.62808 41.9368 9.0156C41.8975 9.40311 41.7046 9.75966 41.4 10.0078L24.9 23.3122C24.6461 23.52 24.3298 23.6395 24 23.6522ZM41.55 27.6582C41.269 27.9336 40.8888 28.0881 40.4925 28.0881C40.0962 28.0881 39.7161 27.9336 39.435 27.6582L33.435 21.7452C33.2944 21.6078 33.1828 21.4443 33.1067 21.2642C33.0305 21.084 32.9913 20.8908 32.9913 20.6957C32.9913 20.5005 33.0305 20.3073 33.1067 20.1271C33.1828 19.947 33.2944 19.7835 33.435 19.6461C33.7161 19.3708 34.0962 19.2162 34.4925 19.2162C34.8888 19.2162 35.269 19.3708 35.55 19.6461L41.55 25.5591C41.6906 25.6966 41.8022 25.86 41.8783 26.0402C41.9545 26.2203 41.9937 26.4135 41.9937 26.6087C41.9937 26.8038 41.9545 26.9971 41.8783 27.1772C41.8022 27.3573 41.6906 27.5208 41.55 27.6582Z" fill="white" fill-opacity="0.46"/>
</svg>
