<svg width="327" height="283" viewBox="0 0 327 283" fill="none" xmlns="http://www.w3.org/2000/svg">
<g filter="url(#filter0_d_668_822)">
<path d="M178.67 212.628L182.241 210.846L182.139 267.358H179.698C179.298 267.237 178.886 267.185 178.474 267.117C178.236 264.898 178.44 262.464 178.459 260.227L178.618 245.516L178.674 212.628H178.67Z" fill="#B7FFD0"/>
</g>
<g filter="url(#filter1_d_668_822)">
<path d="M133.588 150.121C136.278 151.074 138.779 151.846 141.556 152.506C135.991 163.932 131.612 176.269 128.922 188.682C128.457 190.822 127.842 193.041 127.645 195.226L116.988 199.864C116.685 192.679 113.285 185.089 109.624 179.012C108.778 177.611 107.939 176.062 106.859 174.827L106.806 174.665C106.421 173.512 105.529 172.468 104.83 171.478C101.717 167.047 98.0939 162.451 93.9532 158.94L93.9192 158.707C95.2 158.921 97.4818 160.959 98.5548 161.815C102.601 165.051 106.681 168.385 110.429 171.96L113.912 175.418C114.426 175.945 114.936 176.627 115.507 177.079C115.881 177.373 116.054 177.241 116.466 177.121C117.078 177.957 117.524 178.997 117.996 179.927L120.535 185.19L122.711 177.049C125.458 167.793 128.945 158.609 133.588 150.125V150.121Z" fill="#B7FFD0"/>
</g>
<g filter="url(#filter2_d_668_822)">
<path d="M122.783 232.643C123.24 232.545 123.025 232.514 123.429 232.737L123.421 267.354H88.4449C87.9803 267.343 87.9727 267.41 87.5798 267.113L87.5571 243.198L122.783 232.643Z" fill="#B7FFD0"/>
</g>
<g filter="url(#filter3_d_668_822)">
<path d="M178.67 212.627L178.614 245.515L178.455 260.226C178.436 262.467 178.232 264.897 178.47 267.116C178.882 267.184 179.294 267.237 179.694 267.35L146.184 267.376L146.153 226.178L178.667 212.623L178.67 212.627Z" fill="#B7FFD0"/>
</g>
<g filter="url(#filter4_d_668_822)">
<path d="M34.658 74.6035C37.1023 78.3067 39.9396 81.9647 43.3435 84.8504C49.9587 90.4636 58.6707 93.2325 66.816 95.7904C71.7879 97.3538 76.8768 98.9549 81.5879 101.2C88.9247 104.7 95.045 109.488 100.312 115.64C109.428 126.294 114.033 139.174 114.411 153.154C114.52 157.226 114.177 161.144 113.678 165.175C107.539 156.722 100.636 148.679 92.7329 141.815C85.2714 135.335 76.9335 129.85 68.5464 124.647L63.2459 121.385C62.0596 120.632 60.6617 119.483 59.3092 119.098C58.5347 118.85 57.6054 117.979 56.9253 117.471C52.2331 113.945 48.0357 109.759 44.7754 104.873C39.8375 97.4706 37.0267 88.9152 35.2926 80.2544C34.9413 78.4951 34.299 76.3666 34.6542 74.6035H34.658Z" fill="#B7FFD0"/>
</g>
<g filter="url(#filter5_d_668_822)">
<path d="M106.863 174.823C99.7902 176.209 91.6789 175.113 84.7954 173.278C79.7858 171.945 75.0294 169.854 70.4316 167.484C58.7803 161.479 48.3758 153.271 41.7794 141.796C32.9503 126.44 30.7931 107.962 31.6809 90.535C31.9643 84.9708 32.5159 79.1466 33.9779 73.7633L34.1706 73.6992L34.658 74.6034C34.3028 76.3664 34.9451 78.4949 35.2964 80.2542C37.0305 88.9151 39.8413 97.4704 44.7791 104.873C48.0395 109.763 52.2369 113.948 56.9291 117.471C57.6054 117.979 58.5347 118.849 59.313 119.098L72.3961 128.422C86.6504 139.66 100.119 152.954 110.573 167.793C112.677 170.777 114.853 173.84 116.47 177.121C116.058 177.242 115.884 177.373 115.51 177.08C114.94 176.627 114.43 175.946 113.916 175.418L110.433 171.96C106.685 168.385 102.605 165.051 98.5586 161.815C97.4894 160.96 95.2037 158.921 93.923 158.707L93.957 158.94C98.0977 162.451 101.721 167.047 104.834 171.478C105.529 172.468 106.421 173.512 106.81 174.665L106.863 174.827V174.823Z" fill="#B7FFD0"/>
</g>
<g filter="url(#filter6_d_668_822)">
<path d="M236.587 179.472L240.21 176.628L240.217 267.328L236.874 267.339L204.357 267.365L204.364 200.783C204.81 200.331 205.539 200.03 206.095 199.714L209.604 197.66L219.85 191.362C225.623 187.681 231.165 183.646 236.587 179.476V179.472Z" fill="#B7FFD0"/>
</g>
<g filter="url(#filter7_d_668_822)">
<path d="M230.969 14.4521C231.071 14.633 231.203 14.795 231.271 14.9909C231.777 16.4638 229.031 26.285 228.468 28.2741C223.564 45.7239 215.128 62.3073 201.916 74.9727C199.774 77.0296 197.394 78.8454 195.074 80.6989C191.916 83.2267 188.437 86.0257 184.9 87.9998C183.914 88.5498 183.204 89.0584 182.056 89.1488C183.393 87.5891 193.329 78.9999 193.473 78.4235C175.017 92.0684 156.974 106.874 142.613 124.885C139.837 128.369 137.362 132.148 134.91 135.862C133.822 137.512 132.825 139.211 131.627 140.79L128.975 129.356C125.159 106.813 132.175 83.4753 148.352 67.1331C156.048 59.3575 165.606 53.3337 175.667 49.0881L188.848 44.2622C196.971 41.7156 205.014 39.6587 212.257 34.9911C218.611 30.8923 223.394 25.622 227.678 19.4814L230.973 14.4635L230.969 14.4521Z" fill="#B7FFD0"/>
</g>
<g filter="url(#filter8_d_668_822)">
<path d="M230.969 14.4521L231.256 14C231.728 14.2825 231.91 15.7179 232.065 16.3281C234.294 25.1774 235.567 34.2451 236.319 43.3279C238.37 68.2669 235.332 92.8632 222.215 114.66C211.18 132.995 193.253 145.653 172.49 150.766C163.846 152.894 154.99 154.047 146.101 153.109C144.62 152.954 142.995 152.875 141.559 152.506C138.783 151.847 136.282 151.078 133.592 150.121L141.835 135.463C150.423 121.78 160.922 109.703 172.433 98.4048L182.059 89.1449C183.208 89.0583 183.918 88.5459 184.904 87.9959C188.44 86.0219 191.92 83.2228 195.078 80.695C197.398 78.8415 199.774 77.0257 201.92 74.9688C215.132 62.3034 223.568 45.7201 228.472 28.2703C229.031 26.2812 231.781 16.46 231.275 14.987C231.211 14.7911 231.075 14.6291 230.973 14.4483L230.969 14.4521Z" fill="#B7FFD0"/>
</g>
<g filter="url(#filter9_d_668_822)">
<path d="M127.645 195.226C142.379 188.901 156.573 181.11 170.219 172.728L194.462 157.023C212.623 144.067 229.291 128.69 244.218 112.151L254.336 100.507C255.934 98.5856 257.694 96.6191 259.119 94.5735L243.353 83.0043L288.3 60.0845L305.368 51.4086L310.393 48.8468C311.228 48.4287 312.12 47.8824 313 47.6074L300.963 124.715L286.486 114.713C279.678 124.203 271.624 132.796 263.35 141.02C247.237 157.034 229.223 171.338 209.809 183.19C190.907 194.725 170.385 204.098 149.486 211.395L105.087 225.504C87.6931 231.158 70.4127 237.804 53.9143 245.707C42.7881 251.038 31.8434 256.67 21.5748 263.537C18.9831 265.27 16.3272 266.917 14 269.004C14.9974 267.444 16.3386 266.141 17.6042 264.796L23.1049 258.953C37.3894 243.82 54.2467 230.695 72.3923 220.455C81.6824 215.215 91.3993 210.774 101.192 206.558L111.57 202.135C113.323 201.386 115.125 200.455 116.935 199.871H116.988L127.645 195.23V195.226Z" fill="#B7FFD0"/>
</g>
<defs>
<filter id="filter0_d_668_822" x="164.36" y="196.846" width="31.8811" height="84.5127" filterUnits="userSpaceOnUse" color-interpolation-filters="sRGB">
<feFlood flood-opacity="0" result="BackgroundImageFix"/>
<feColorMatrix in="SourceAlpha" type="matrix" values="0 0 0 0 0 0 0 0 0 0 0 0 0 0 0 0 0 0 127 0" result="hardAlpha"/>
<feOffset/>
<feGaussianBlur stdDeviation="7"/>
<feComposite in2="hardAlpha" operator="out"/>
<feColorMatrix type="matrix" values="0 0 0 0 0.717647 0 0 0 0 1 0 0 0 0 0.815686 0 0 0 1 0"/>
<feBlend mode="normal" in2="BackgroundImageFix" result="effect1_dropShadow_668_822"/>
<feBlend mode="normal" in="SourceGraphic" in2="effect1_dropShadow_668_822" result="shape"/>
</filter>
<filter id="filter1_d_668_822" x="79.9192" y="136.121" width="75.6364" height="77.7422" filterUnits="userSpaceOnUse" color-interpolation-filters="sRGB">
<feFlood flood-opacity="0" result="BackgroundImageFix"/>
<feColorMatrix in="SourceAlpha" type="matrix" values="0 0 0 0 0 0 0 0 0 0 0 0 0 0 0 0 0 0 127 0" result="hardAlpha"/>
<feOffset/>
<feGaussianBlur stdDeviation="7"/>
<feComposite in2="hardAlpha" operator="out"/>
<feColorMatrix type="matrix" values="0 0 0 0 0.717647 0 0 0 0 1 0 0 0 0 0.815686 0 0 0 1 0"/>
<feBlend mode="normal" in2="BackgroundImageFix" result="effect1_dropShadow_668_822"/>
<feBlend mode="normal" in="SourceGraphic" in2="effect1_dropShadow_668_822" result="shape"/>
</filter>
<filter id="filter2_d_668_822" x="73.5571" y="218.568" width="63.8719" height="62.7852" filterUnits="userSpaceOnUse" color-interpolation-filters="sRGB">
<feFlood flood-opacity="0" result="BackgroundImageFix"/>
<feColorMatrix in="SourceAlpha" type="matrix" values="0 0 0 0 0 0 0 0 0 0 0 0 0 0 0 0 0 0 127 0" result="hardAlpha"/>
<feOffset/>
<feGaussianBlur stdDeviation="7"/>
<feComposite in2="hardAlpha" operator="out"/>
<feColorMatrix type="matrix" values="0 0 0 0 0.717647 0 0 0 0 1 0 0 0 0 0.815686 0 0 0 1 0"/>
<feBlend mode="normal" in2="BackgroundImageFix" result="effect1_dropShadow_668_822"/>
<feBlend mode="normal" in="SourceGraphic" in2="effect1_dropShadow_668_822" result="shape"/>
</filter>
<filter id="filter3_d_668_822" x="132.153" y="198.623" width="61.5408" height="82.7529" filterUnits="userSpaceOnUse" color-interpolation-filters="sRGB">
<feFlood flood-opacity="0" result="BackgroundImageFix"/>
<feColorMatrix in="SourceAlpha" type="matrix" values="0 0 0 0 0 0 0 0 0 0 0 0 0 0 0 0 0 0 127 0" result="hardAlpha"/>
<feOffset/>
<feGaussianBlur stdDeviation="7"/>
<feComposite in2="hardAlpha" operator="out"/>
<feColorMatrix type="matrix" values="0 0 0 0 0.717647 0 0 0 0 1 0 0 0 0 0.815686 0 0 0 1 0"/>
<feBlend mode="normal" in2="BackgroundImageFix" result="effect1_dropShadow_668_822"/>
<feBlend mode="normal" in="SourceGraphic" in2="effect1_dropShadow_668_822" result="shape"/>
</filter>
<filter id="filter4_d_668_822" x="20.5504" y="60.6035" width="107.881" height="118.571" filterUnits="userSpaceOnUse" color-interpolation-filters="sRGB">
<feFlood flood-opacity="0" result="BackgroundImageFix"/>
<feColorMatrix in="SourceAlpha" type="matrix" values="0 0 0 0 0 0 0 0 0 0 0 0 0 0 0 0 0 0 127 0" result="hardAlpha"/>
<feOffset/>
<feGaussianBlur stdDeviation="7"/>
<feComposite in2="hardAlpha" operator="out"/>
<feColorMatrix type="matrix" values="0 0 0 0 0.717647 0 0 0 0 1 0 0 0 0 0.815686 0 0 0 1 0"/>
<feBlend mode="normal" in2="BackgroundImageFix" result="effect1_dropShadow_668_822"/>
<feBlend mode="normal" in="SourceGraphic" in2="effect1_dropShadow_668_822" result="shape"/>
</filter>
<filter id="filter5_d_668_822" x="17.4968" y="59.6992" width="112.973" height="131.559" filterUnits="userSpaceOnUse" color-interpolation-filters="sRGB">
<feFlood flood-opacity="0" result="BackgroundImageFix"/>
<feColorMatrix in="SourceAlpha" type="matrix" values="0 0 0 0 0 0 0 0 0 0 0 0 0 0 0 0 0 0 127 0" result="hardAlpha"/>
<feOffset/>
<feGaussianBlur stdDeviation="7"/>
<feComposite in2="hardAlpha" operator="out"/>
<feColorMatrix type="matrix" values="0 0 0 0 0.717647 0 0 0 0 1 0 0 0 0 0.815686 0 0 0 1 0"/>
<feBlend mode="normal" in2="BackgroundImageFix" result="effect1_dropShadow_668_822"/>
<feBlend mode="normal" in="SourceGraphic" in2="effect1_dropShadow_668_822" result="shape"/>
</filter>
<filter id="filter6_d_668_822" x="190.357" y="162.628" width="63.8605" height="118.737" filterUnits="userSpaceOnUse" color-interpolation-filters="sRGB">
<feFlood flood-opacity="0" result="BackgroundImageFix"/>
<feColorMatrix in="SourceAlpha" type="matrix" values="0 0 0 0 0 0 0 0 0 0 0 0 0 0 0 0 0 0 127 0" result="hardAlpha"/>
<feOffset/>
<feGaussianBlur stdDeviation="7"/>
<feComposite in2="hardAlpha" operator="out"/>
<feColorMatrix type="matrix" values="0 0 0 0 0.717647 0 0 0 0 1 0 0 0 0 0.815686 0 0 0 1 0"/>
<feBlend mode="normal" in2="BackgroundImageFix" result="effect1_dropShadow_668_822"/>
<feBlend mode="normal" in="SourceGraphic" in2="effect1_dropShadow_668_822" result="shape"/>
</filter>
<filter id="filter7_d_668_822" x="113.958" y="0.452148" width="131.376" height="154.338" filterUnits="userSpaceOnUse" color-interpolation-filters="sRGB">
<feFlood flood-opacity="0" result="BackgroundImageFix"/>
<feColorMatrix in="SourceAlpha" type="matrix" values="0 0 0 0 0 0 0 0 0 0 0 0 0 0 0 0 0 0 127 0" result="hardAlpha"/>
<feOffset/>
<feGaussianBlur stdDeviation="7"/>
<feComposite in2="hardAlpha" operator="out"/>
<feColorMatrix type="matrix" values="0 0 0 0 0.717647 0 0 0 0 1 0 0 0 0 0.815686 0 0 0 1 0"/>
<feBlend mode="normal" in2="BackgroundImageFix" result="effect1_dropShadow_668_822"/>
<feBlend mode="normal" in="SourceGraphic" in2="effect1_dropShadow_668_822" result="shape"/>
</filter>
<filter id="filter8_d_668_822" x="119.592" y="0" width="131.311" height="167.438" filterUnits="userSpaceOnUse" color-interpolation-filters="sRGB">
<feFlood flood-opacity="0" result="BackgroundImageFix"/>
<feColorMatrix in="SourceAlpha" type="matrix" values="0 0 0 0 0 0 0 0 0 0 0 0 0 0 0 0 0 0 127 0" result="hardAlpha"/>
<feOffset/>
<feGaussianBlur stdDeviation="7"/>
<feComposite in2="hardAlpha" operator="out"/>
<feColorMatrix type="matrix" values="0 0 0 0 0.717647 0 0 0 0 1 0 0 0 0 0.815686 0 0 0 1 0"/>
<feBlend mode="normal" in2="BackgroundImageFix" result="effect1_dropShadow_668_822"/>
<feBlend mode="normal" in="SourceGraphic" in2="effect1_dropShadow_668_822" result="shape"/>
</filter>
<filter id="filter9_d_668_822" x="0" y="33.6074" width="327" height="249.396" filterUnits="userSpaceOnUse" color-interpolation-filters="sRGB">
<feFlood flood-opacity="0" result="BackgroundImageFix"/>
<feColorMatrix in="SourceAlpha" type="matrix" values="0 0 0 0 0 0 0 0 0 0 0 0 0 0 0 0 0 0 127 0" result="hardAlpha"/>
<feOffset/>
<feGaussianBlur stdDeviation="7"/>
<feComposite in2="hardAlpha" operator="out"/>
<feColorMatrix type="matrix" values="0 0 0 0 0.717647 0 0 0 0 1 0 0 0 0 0.815686 0 0 0 1 0"/>
<feBlend mode="normal" in2="BackgroundImageFix" result="effect1_dropShadow_668_822"/>
<feBlend mode="normal" in="SourceGraphic" in2="effect1_dropShadow_668_822" result="shape"/>
</filter>
</defs>
</svg>
