<svg width="12" height="16" viewBox="0 0 12 16" fill="none" xmlns="http://www.w3.org/2000/svg">
<path d="M9.84659 1.92285H1.71094C0.766076 1.92285 0 2.68893 0 3.63379L0 4.17208H11.5575V3.63379C11.5575 2.68893 10.7915 1.92285 9.84659 1.92285Z" fill="white"/>
<path d="M7.9965 2.6378H3.56109C3.3672 2.6378 3.20984 2.48044 3.20984 2.28655C3.20984 1.07895 4.19211 0.0966797 5.39953 0.0966797H6.15788C7.3653 0.0966797 8.34775 1.07895 8.34775 2.28655C8.34775 2.48044 8.19039 2.6378 7.9965 2.6378ZM3.95414 1.9353H7.60345C7.44504 1.28408 6.85722 0.79918 6.15788 0.79918H5.39953C4.70037 0.79918 4.11238 1.28408 3.95414 1.9353Z" fill="white"/>
<path d="M0.712646 4.89941L1.33699 15.5606C1.34823 15.7529 1.50735 15.903 1.70001 15.903H9.85762C10.0503 15.903 10.2094 15.7529 10.2208 15.5607L10.845 4.89959L0.712646 4.89941ZM3.64839 14.3414C3.64137 14.3419 3.63452 14.3421 3.62749 14.3421C3.44291 14.3421 3.28801 14.1981 3.27712 14.0114L2.87758 7.18728C2.86634 6.99357 3.01404 6.82742 3.20775 6.81618C3.39883 6.80459 3.56761 6.95265 3.57885 7.14636L3.97839 13.9703C3.98981 14.164 3.84211 14.3301 3.64839 14.3414ZM6.12998 13.9908C6.12998 14.1847 5.97262 14.3421 5.77873 14.3421C5.58484 14.3421 5.42748 14.1847 5.42748 13.9908V7.16673C5.42748 6.97284 5.58484 6.81548 5.77873 6.81548C5.97262 6.81548 6.12998 6.97284 6.12998 7.16673V13.9908ZM8.28033 14.0114C8.26926 14.1981 8.11454 14.3421 7.92996 14.3421C7.92311 14.3421 7.91608 14.3419 7.90906 14.3415C7.71534 14.3301 7.56764 14.1638 7.57888 13.9703L7.97843 7.14636C7.98949 6.95265 8.15265 6.80442 8.34952 6.81618C8.54324 6.82742 8.69094 6.99374 8.67952 7.18728L8.28033 14.0114Z" fill="white"/>
</svg>
