<svg width="40" height="38" viewBox="0 0 40 38" fill="none" xmlns="http://www.w3.org/2000/svg">
<path fill-rule="evenodd" clip-rule="evenodd" d="M16.7823 23.021C14.7147 21.889 13.311 19.691 13.311 17.167C13.311 13.487 16.2941 10.5 19.9671 10.5C23.64 10.5 26.6231 13.487 26.6231 17.167C26.6231 19.691 25.2194 21.889 23.1518 23.021C27.1023 24.354 29.9506 28.096 29.9506 32.5C29.9506 34.255 29.4893 35.98 28.6128 37.5C28.4351 37.809 28.1046 38 27.7482 38H12.1859C11.8295 38 11.499 37.809 11.3213 37.5C10.4448 35.98 9.98353 34.255 9.98353 32.5C9.98353 28.096 12.8318 24.354 16.7823 23.021ZM27.1482 36C27.6773 34.912 27.9539 33.715 27.9539 32.5C27.9539 28.085 24.3748 24.5 19.9671 24.5C15.5593 24.5 11.9802 28.085 11.9802 32.5C11.9802 33.715 12.2568 34.912 12.7859 36H27.1482ZM37.1976 26.049C37.7267 24.961 38.0033 23.765 38.0033 22.549C38.0033 18.134 34.4242 14.549 30.0165 14.549C29.4654 14.549 29.0181 14.101 29.0181 13.549C29.0181 12.998 29.4654 12.549 30.0165 12.549C35.5264 12.549 40 17.03 40 22.549C40 24.305 39.5388 26.029 38.6622 27.549C38.4835 27.859 38.154 28.049 37.7976 28.049H30.7473C30.1962 28.049 29.7489 27.601 29.7489 27.049C29.7489 26.498 30.1962 26.049 30.7473 26.049H37.1976ZM2.80238 26H9.25273C9.80382 26 10.2511 26.448 10.2511 27C10.2511 27.552 9.80382 28 9.25273 28H2.20237C1.84595 28 1.5155 27.809 1.33779 27.5C0.461239 25.98 0 24.255 0 22.5C0 16.981 4.47362 12.5 9.98353 12.5C10.5346 12.5 10.9819 12.948 10.9819 13.5C10.9819 14.052 10.5346 14.5 9.98353 14.5C5.5758 14.5 1.99671 18.085 1.99671 22.5C1.99671 23.715 2.27325 24.912 2.80238 26ZM19.9671 12.5C22.5388 12.5 24.6264 14.591 24.6264 17.167C24.6264 19.742 22.5388 21.833 19.9671 21.833C17.3953 21.833 15.3077 19.742 15.3077 17.167C15.3077 14.591 17.3953 12.5 19.9671 12.5ZM29.4514 0C26.1459 0 23.4613 2.689 23.4613 6C23.4613 9.311 26.1459 12 29.4514 12C32.757 12 35.4415 9.311 35.4415 6C35.4415 2.689 32.757 0 29.4514 0ZM10.9819 0C7.67633 0 4.99176 2.689 4.99176 6C4.99176 9.311 7.67633 12 10.9819 12C14.2874 12 16.972 9.311 16.972 6C16.972 2.689 14.2874 0 10.9819 0ZM29.4514 2C31.6558 2 33.4448 3.792 33.4448 6C33.4448 8.208 31.6558 10 29.4514 10C27.247 10 25.458 8.208 25.458 6C25.458 3.792 27.247 2 29.4514 2ZM10.9819 2C13.1862 2 14.9753 3.792 14.9753 6C14.9753 8.208 13.1862 10 10.9819 10C8.77752 10 6.98847 8.208 6.98847 6C6.98847 3.792 8.77752 2 10.9819 2Z" fill="white"/>
</svg>
