<svg width="16" height="17" viewBox="0 0 16 17" fill="none" xmlns="http://www.w3.org/2000/svg">
<g clip-path="url(#clip0_1_2344)">
<path d="M12.0589 2.13867H3.92321C2.97835 2.13867 2.21227 2.90475 2.21227 3.84961V4.3879H13.7698V3.84961C13.7698 2.90475 13.0037 2.13867 12.0589 2.13867Z" fill="white"/>
<path d="M10.2088 2.85362H5.77342C5.57953 2.85362 5.42217 2.69626 5.42217 2.50237C5.42217 1.29477 6.40444 0.3125 7.61187 0.3125H8.37021C9.57764 0.3125 10.5601 1.29477 10.5601 2.50237C10.5601 2.69626 10.4027 2.85362 10.2088 2.85362ZM6.16647 2.15112H9.81578C9.65737 1.4999 9.06955 1.015 8.37021 1.015H7.61187C6.9127 1.015 6.32471 1.4999 6.16647 2.15112Z" fill="white"/>
<path d="M2.92496 5.11511L3.5493 15.7763C3.56054 15.9686 3.71966 16.1187 3.91232 16.1187H12.0699C12.2626 16.1187 12.4217 15.9686 12.4331 15.7764L13.0573 5.11529L2.92496 5.11511ZM5.8607 14.5571C5.85368 14.5576 5.84683 14.5578 5.83981 14.5578C5.65522 14.5578 5.50032 14.4138 5.48943 14.2271L5.08989 7.40298C5.07865 7.20926 5.22635 7.04312 5.42006 7.03188C5.61114 7.02029 5.77992 7.16834 5.79116 7.36206L6.1907 14.186C6.20212 14.3797 6.05442 14.5458 5.8607 14.5571ZM8.34229 14.2065C8.34229 14.4004 8.18493 14.5578 7.99104 14.5578C7.79715 14.5578 7.63979 14.4004 7.63979 14.2065V7.38243C7.63979 7.18854 7.79715 7.03118 7.99104 7.03118C8.18493 7.03118 8.34229 7.18854 8.34229 7.38243V14.2065ZM10.4926 14.2271C10.4816 14.4138 10.3268 14.5578 10.1423 14.5578C10.1354 14.5578 10.1284 14.5576 10.1214 14.5572C9.92765 14.5458 9.77995 14.3795 9.79119 14.186L10.1907 7.36206C10.2018 7.16834 10.365 7.02012 10.5618 7.03188C10.7555 7.04312 10.9032 7.20944 10.8918 7.40298L10.4926 14.2271Z" fill="white"/>
</g>
<defs>
<clipPath id="clip0_1_2344">
<rect width="16" height="16" fill="white" transform="translate(0 0.224609)"/>
</clipPath>
</defs>
</svg>
