<svg width="101" height="62" viewBox="0 0 101 62" fill="none" xmlns="http://www.w3.org/2000/svg">
<g filter="url(#filter0_d_1_1747)">
<mask id="path-1-inside-1_1_1747" fill="white">
<path fill-rule="evenodd" clip-rule="evenodd" d="M25.9999 44.6526L74.9131 44.6526C74.9131 41.7322 72.5456 39.3647 69.6252 39.3647L58.2529 39.3647C55.734 39.361 53.9144 37.2732 52.67 34.9538C51.9876 33.682 48.9256 33.682 48.2432 34.9538C46.9986 37.2736 45.1787 39.3616 42.6592 39.3647L31.2878 39.3647C28.3674 39.3647 25.9999 41.7322 25.9999 44.6526Z"/>
</mask>
<path fill-rule="evenodd" clip-rule="evenodd" d="M25.9999 44.6526L74.9131 44.6526C74.9131 41.7322 72.5456 39.3647 69.6252 39.3647L58.2529 39.3647C55.734 39.361 53.9144 37.2732 52.67 34.9538C51.9876 33.682 48.9256 33.682 48.2432 34.9538C46.9986 37.2736 45.1787 39.3616 42.6592 39.3647L31.2878 39.3647C28.3674 39.3647 25.9999 41.7322 25.9999 44.6526Z" fill="white"/>
<path d="M74.9131 44.6526L74.9131 45.6526L75.9131 45.6526L75.9131 44.6526L74.9131 44.6526ZM25.9999 44.6526L24.9999 44.6526L24.9999 45.6526L25.9999 45.6526L25.9999 44.6526ZM69.6252 39.3647L69.6252 38.3647L69.6252 39.3647ZM58.2529 39.3647L58.2515 40.3647L58.2529 40.3647L58.2529 39.3647ZM52.67 34.9538L53.5511 34.481L53.5511 34.481L52.67 34.9538ZM48.2432 34.9538L47.362 34.481L48.2432 34.9538ZM42.6592 39.3647L42.6592 40.3647L42.6604 40.3647L42.6592 39.3647ZM74.9131 43.6526L25.9999 43.6526L25.9999 45.6526L74.9131 45.6526L74.9131 43.6526ZM69.6252 40.3647C71.9933 40.3647 73.9131 42.2844 73.9131 44.6526L75.9131 44.6526C75.9131 41.1799 73.0979 38.3647 69.6252 38.3647L69.6252 40.3647ZM58.2529 40.3647L69.6252 40.3647L69.6252 38.3647L58.2529 38.3647L58.2529 40.3647ZM51.7888 35.4266C53.0553 37.7872 55.128 40.3602 58.2515 40.3647L58.2544 38.3647C56.34 38.3619 54.7735 36.7593 53.5511 34.481L51.7888 35.4266ZM49.1244 35.4266C49.1472 35.3841 49.2381 35.272 49.5013 35.1657C49.7556 35.063 50.093 35 50.4566 35C50.8202 35 51.1575 35.063 51.4119 35.1657C51.6751 35.272 51.766 35.3841 51.7888 35.4266L53.5511 34.481C53.2327 33.8876 52.685 33.5229 52.1608 33.3112C51.6278 33.096 51.0291 33 50.4566 33C49.8841 33 49.2854 33.096 48.7524 33.3112C48.2282 33.5229 47.6804 33.8876 47.362 34.481L49.1244 35.4266ZM42.6604 40.3647C45.7846 40.3609 47.8577 37.7875 49.1244 35.4266L47.362 34.481C46.1395 36.7596 44.5728 38.3624 42.658 38.3647L42.6604 40.3647ZM31.2878 40.3647L42.6592 40.3647L42.6592 38.3647L31.2878 38.3647L31.2878 40.3647ZM26.9999 44.6526C26.9999 42.2844 28.9197 40.3647 31.2878 40.3647L31.2878 38.3647C27.8151 38.3647 24.9999 41.1799 24.9999 44.6526L26.9999 44.6526Z" fill="black" mask="url(#path-1-inside-1_1_1747)"/>
</g>
<defs>
<filter id="filter0_d_1_1747" x="0.882427" y="0.950562" width="99.1482" height="60.8877" filterUnits="userSpaceOnUse" color-interpolation-filters="sRGB">
<feFlood flood-opacity="0" result="BackgroundImageFix"/>
<feColorMatrix in="SourceAlpha" type="matrix" values="0 0 0 0 0 0 0 0 0 0 0 0 0 0 0 0 0 0 127 0" result="hardAlpha"/>
<feOffset dy="-7.93186"/>
<feGaussianBlur stdDeviation="12.5588"/>
<feComposite in2="hardAlpha" operator="out"/>
<feColorMatrix type="matrix" values="0 0 0 0 1 0 0 0 0 1 0 0 0 0 1 0 0 0 0.87 0"/>
<feBlend mode="normal" in2="BackgroundImageFix" result="effect1_dropShadow_1_1747"/>
<feBlend mode="normal" in="SourceGraphic" in2="effect1_dropShadow_1_1747" result="shape"/>
</filter>
</defs>
</svg>
